<?xml version="1.0" ?><!DOCTYPE svg  PUBLIC '-//W3C//DTD SVG 1.1//EN'  'http://www.w3.org/Graphics/SVG/1.1/DTD/svg11.dtd'><svg enable_background="new 0 0 1000 443" height="443px" pretty_print="False" style="stroke-linejoin: round; stroke:#000; fill: none;" version="1.1" viewBox="0 0 1000 443" width="1000px" xmlns="http://www.w3.org/2000/svg" xmlns:xlink="http://www.w3.org/1999/xlink"><defs><style type="text/css"><![CDATA[path { fill-rule: evenodd; }]]></style></defs><metadata><views><view h="443.1559992" padding="0" w="1000"><proj flip="auto" id="lonlat" lon0="0"/><bbox h="25512.35" w="57699.87" x="-117126.95" y="-32718.45"/></view></views></metadata><g class="" id="countries"><path d="M970.296724,378.593084L965.020198,379.361639L960.222968,380.594860L963.663409,382.966525L963.824224,387.757772L957.529518,390.634983L962.563335,391.662759L968.161663,391.648442L971.694546,386.764597L971.079578,381.117230L970.296724,378.593084Z M975.172096,373.102918L979.766388,371.073492L974.312223,372.492843L975.172096,373.102918Z " data-iso2="TT"/><path d="M481.437660,315.523379L485.115639,311.836910L484.459015,307.697549L487.834387,304.041115L491.680893,301.275039L495.236256,298.608634L499.122049,295.400042L501.076981,293.858092L500.836779,293.769108L495.255588,290.116288L494.448369,294.170279L491.196721,291.571779L486.681659,290.711906L483.967615,287.292043L484.313608,281.926706L484.990826,271.561323L485.018026,265.891009L485.038932,259.360823L485.043636,257.641372L480.055261,257.626916L474.663658,257.607740L470.206438,257.605215L466.084992,257.602863L459.989783,257.602863L454.268994,257.622040L453.198005,261.685628L453.192973,267.372766L445.358808,267.348713L449.725159,271.186573L453.144867,273.597837L457.261593,276.004242L459.048154,280.089514L463.179025,281.893211L462.769674,286.112737L456.295912,287.781886L443.576812,287.781886L439.124313,289.765730L433.756296,298.818177L434.400331,305.048591L432.443999,309.060614L432.385207,313.503534L431.355390,314.157011L431.435555,314.275063L435.781000,317.624808L439.599683,320.357873L443.168724,322.552989L447.789266,324.474271L452.640740,325.180419L456.857897,324.949797L461.694760,325.401426L466.105915,327.113165L468.381040,328.048032L468.539658,328.071930L472.125368,322.913282L475.629167,320.737343L477.411163,317.005292L479.966589,316.503188L481.475390,316.207186L481.437660,315.523379Z " data-iso2="GT"/><path d="M431.355390,314.157011L432.385207,313.503534L432.443999,309.060614L434.400331,305.048591L433.756296,298.818177L439.124313,289.765730L443.576812,287.781886L456.295912,287.781886L462.769674,286.112737L463.179025,281.893211L459.048154,280.089514L457.261593,276.004242L453.144867,273.597837L449.725159,271.186573L445.358808,267.348713L453.192973,267.372766L453.198005,261.685628L454.268994,257.622040L459.989783,257.602863L466.084992,257.602863L470.206438,257.605215L474.663658,257.607740L480.055261,257.626916L485.043636,257.641372L485.025410,255.355543L489.711038,256.113256L492.608826,252.607399L495.851051,247.069282L499.876285,245.998138L502.004136,241.751878L503.522050,245.974085L506.920213,248.798469L509.295475,244.028750L511.298668,239.364823L512.600279,234.806376L510.626015,231.146311L514.415924,229.061691L510.558732,227.745624L512.035768,223.391377L513.916345,218.439143L516.779082,213.018783L519.711471,210.124748L523.585160,206.058808L525.967823,199.994552L525.271272,195.568301L521.988187,192.609508L517.934179,192.813552L513.844342,194.396224L509.144102,193.913625L505.395226,192.321356L500.904218,192.590331L494.507473,193.365940L490.207315,195.481842L485.725731,196.368136L481.652701,196.879647L475.316962,197.508760L468.366584,199.862494L464.454369,202.158386L462.754579,206.305442L461.824605,210.424848L461.766902,214.598949L461.896591,219.181293L459.821412,222.726125L457.869005,228.932002L454.417704,234.061875L450.584738,236.708481L446.638406,238.596269L449.694985,243.268530L445.349384,245.152721L441.160672,246.737763L437.392602,244.977451L432.975948,242.486938L428.614474,242.731860L423.864087,245.556244L419.702091,246.771395L416.085256,248.637499L410.899910,246.872311L404.833440,248.486281L400.774573,250.268121L396.408533,251.505129L392.181778,251.867774L388.343763,247.732045L384.870934,245.251285L380.596074,242.374074L374.524745,242.198804L369.894295,241.627066L367.170826,237.414612L364.039114,233.250109L360.100339,227.716712L358.769799,222.433097L354.785598,217.240817L348.154652,210.583449L345.840672,207.266714L344.100644,203.282357L341.300313,197.110113L338.432682,192.849709L337.001400,187.589991L340.123515,190.957028L342.795264,194.000085L342.013672,197.935091L343.663315,193.925574L340.185766,189.852389L337.095087,185.779221L335.646652,181.910080L334.114593,175.268431L335.547154,171.235190L336.321657,167.019901L335.910906,162.848325L336.367256,157.867161L336.636213,153.856556L336.789955,149.461431L337.265481,145.181694L338.620074,138.903814L340.291558,132.701534L342.453041,128.461413L344.763389,124.633306L346.391816,120.113368L346.766427,116.877905L346.729803,116.755132L342.856581,118.943815L338.538318,116.088133L334.508380,115.074674L328.412998,115.093851L324.265302,112.312853L319.843928,111.164828L315.871520,109.406713L312.288335,107.062731L310.434336,102.278695L306.649303,98.070962L306.397153,90.640320L303.277233,87.791883L299.692941,84.960426L296.408577,79.578247L292.420761,76.739563L291.077028,72.628025L288.783349,69.042003L286.533193,65.451901L283.528507,59.824817L279.558762,56.729090L274.621001,53.659784L270.672628,50.965089L266.599305,50.523195L261.870603,50.491914L257.485231,48.944137L253.006171,51.022774L248.788201,56.101239L247.213224,59.904031L242.581684,64.575204L238.476129,63.669733L232.688231,60.855084L228.552484,59.010682L224.619847,56.327918L220.872060,54.452235L216.395352,48.027824L216.323211,43.764912L213.902350,40.330592L211.957171,36.499978L208.666996,34.043115L204.031670,32.035218L200.787093,28.713763L197.220560,26.115262L194.007265,23.322159L189.907519,21.549743L187.755789,17.829641L183.017351,16.165213L174.942829,16.169933L170.345874,16.160492L166.301773,16.160492L160.537928,16.174810L155.926811,16.160492L155.359949,20.502635L145.488819,23.961007L140.842011,23.963999L132.803819,23.951428L126.458327,23.961007L120.122900,23.961007L106.284705,23.956148L99.857786,21.861931L90.712586,18.931911L84.607624,16.996329L74.788509,13.920729L66.536364,11.367187L60.527442,9.525759L54.141401,7.586408L49.255031,6.112830L45.076694,4.865291L41.198285,3.656589L37.462135,0.371135L30.921090,0.842736L22.212596,1.495902L16.422346,1.948465L11.831184,2.307668L4.810220,2.874530L1.210054,3.166607L1.130823,3.926343L3.148472,7.591284L5.501895,10.927351L9.146397,14.690528L9.392564,19.263292L12.322446,22.966725L14.858833,26.134439L16.083582,30.399719L19.658432,33.233700L20.031937,37.799219L23.228424,40.614023L24.369047,45.148261L25.863064,50.911017L29.162992,53.486865L33.099243,55.340881L38.294185,57.535997L43.073190,62.051058L46.482350,65.350969L49.754766,68.636423L53.808601,72.027530L52.679754,76.220807L52.867146,80.558229L49.882103,83.909237L53.212983,86.252596L47.698763,84.962778L43.409586,85.339896L39.206729,84.424846L41.776300,88.598946L46.280675,91.704253L49.490356,96.072801L53.611785,97.155894L57.209289,98.966836L59.968914,101.906453L64.260599,101.805521L68.924682,101.884908L71.110218,105.261542L75.024785,107.850445L78.144548,110.458698L82.413598,111.168442L84.160543,114.781664L87.885678,120.221356L88.008139,124.461476L88.620426,128.646436L86.850535,134.206237L90.163656,137.728279L93.354160,141.031647L97.115141,143.224411L103.239435,147.247138L106.793708,149.134770L110.362594,152.314588L113.398249,155.398350L117.368306,157.105853L121.399350,162.397941L122.637448,167.252874L125.142417,170.394183L129.253955,168.386442L132.690782,165.895930L134.729648,161.176669L132.654625,157.684663L129.470259,155.259082L127.419133,151.709373L124.686067,148.524834L121.511125,145.681274L118.763604,148.589765L113.741891,145.808611L112.014900,141.836186L112.692119,137.482094L111.457791,133.125496L107.975521,129.071487L106.749528,124.443562L101.894456,119.973926L101.140376,115.708663L100.014035,111.143127L98.443312,107.014781L96.735809,103.388210L93.075606,100.727304L94.588644,104.865247L91.355532,101.952501L89.540198,98.167157L85.808147,94.857650L84.296371,90.187601L80.495775,88.027363L76.763551,84.400793L76.095929,79.852099L74.741354,75.337020L70.489284,73.179168L69.438562,68.088755L66.222915,65.314984L63.066977,62.519357L58.760836,57.108577L54.620385,54.135310L51.533148,51.123551L47.266622,48.289726L44.331726,44.600732L44.387060,38.642284L43.250985,34.312073L42.016501,30.325364L40.008760,25.747741L40.412127,21.035708L41.022219,16.914573L37.679235,13.973711L42.895550,16.174810L46.863099,18.000035L50.792278,20.348893L54.841237,21.110219L60.946372,20.788434L63.660260,24.599873L70.120812,25.685335L70.836384,31.795173L71.758507,36.089365L74.947905,40.047162L76.835554,44.206806L77.580211,48.361712L79.812418,51.979810L83.280543,55.740790L86.093929,59.005806L86.735302,63.285542L91.208240,67.978398L93.820090,71.350312L97.067035,74.318702L101.164411,78.070086L105.290423,82.681203L109.296308,84.309457L114.051415,83.536199L113.405495,87.902395L115.209347,92.465562L118.576229,95.693331L123.473285,97.207614L126.314338,100.429417L128.302902,103.940599L132.670516,102.958421L137.083555,107.298056L139.864398,111.270464L134.696016,115.060218L134.095832,119.282407L138.735706,122.334906L143.427300,121.374256L140.195935,124.151952L144.466075,123.754239L148.289461,127.587223L151.918245,129.458203L156.776948,131.324306L156.743142,136.225927L159.030856,139.534172L163.294874,141.463944L166.455515,144.566900L175.014988,150.767918L177.985730,153.474561L179.962502,157.170766L184.412632,161.015854L187.138470,164.966423L191.125334,168.804265L194.924685,172.229161L197.950432,175.937159L199.689371,179.890391L199.492555,184.371819L202.033526,188.939707L206.041935,193.627843L207.136977,198.594377L205.417388,202.242494L201.556737,206.220712L206.213436,207.837985L203.037387,211.426358L199.150176,212.591190L201.380204,218.352684L203.659583,222.008028L206.188449,225.495175L209.469183,228.653291L212.574335,232.287107L216.432772,234.150859L221.703021,235.337237L225.752291,238.183149L230.891606,241.257175L235.454756,245.911678L239.230210,249.792595L243.632407,251.050025L248.450232,252.862057L252.770829,253.738598L257.679833,255.143493L262.043521,254.675195L265.840504,256.229111L268.698693,259.516917L272.300900,262.449306L277.647077,265.244916L281.552202,268.040388L285.553228,269.303645L289.511336,270.639044L293.344303,272.147206L297.643216,273.516099L301.807581,276.486997L306.961490,277.469330L313.940642,278.770941L318.345364,279.529898L321.212977,282.383055L324.810636,284.532590L329.700291,285.481273L333.081801,287.666654L337.532087,289.951860L345.162053,290.505355L351.942037,293.801651L356.810164,295.034872L361.503020,294.722685L365.369481,293.353792L370.835751,290.952108L374.721544,289.844961L379.404976,286.792481L385.007851,285.394658L389.280359,283.257228L392.781962,285.836707L396.975394,287.296919L393.454615,284.933605L399.103072,286.062280L403.181289,289.093232L407.105435,292.023269L411.202673,295.289530L414.754733,297.890555L418.681249,301.845982L422.581498,304.117977L424.685451,307.662809L428.974922,311.846489L431.201025,314.080443L431.355390,314.157011Z M84.660123,68.511610L86.274232,64.827354L85.178878,60.456437L80.039425,66.354848L84.525713,68.506734L84.660123,68.511610Z M70.077582,63.991672L67.983226,59.145092L65.451698,55.924395L65.393995,60.499667L68.492230,63.227856L70.077582,63.991672Z M522.197090,215.506771L525.684392,211.476816L521.822341,212.869762L522.197090,215.506771Z M34.806728,81.163444L34.816480,76.249564L32.549206,79.856958L34.806728,81.163444Z M94.833393,145.080935L94.888727,144.977650L95.049853,144.451667L95.064015,143.985720L94.967958,143.836854L92.566585,141.377484L89.510335,141.624914L89.660307,141.814657L90.894946,142.338134L92.638433,143.366049L94.002605,144.293204L94.228489,144.446790L94.410849,144.634165L94.833393,145.080935Z M87.474927,128.605558L86.350800,133.086987L86.663299,137.198663L88.272237,141.512050L86.826637,137.064115L86.754323,132.400171L87.474927,128.605558Z M182.796949,192.858666L183.209447,193.181073L183.353436,193.291585L184.419877,193.815062L184.631149,193.762252L184.928881,192.316480L184.876227,191.922554L184.395824,190.726579L184.203729,190.601767L183.411122,190.255929L182.570582,190.630523L182.368734,190.731456L182.421560,191.836094L182.455366,192.028345L182.671341,192.734320L182.796949,192.858666Z M112.332448,131.930317L112.179502,131.918679L112.115833,132.385715L112.127937,132.772430L113.273437,134.681763L114.334846,135.344509L114.719192,135.483950L115.044590,135.494637L115.199595,135.303804L114.455111,133.029439L114.358899,132.880574L114.190857,132.789238L113.931479,132.779658L113.528094,132.707499L113.283189,132.625916L112.836419,132.424224L112.332448,131.930317Z M107.509436,242.126645L108.414890,242.011412L108.628686,241.751878L108.508439,241.137239L108.441467,240.969041L108.124231,240.200487L107.917680,240.037321L107.329445,239.580971L107.065191,239.530514L106.198073,240.315876L106.102034,240.464741L105.816407,241.105958L105.967624,241.403845L106.193369,241.492656L106.568119,241.511833L106.779408,241.555062L107.019436,241.689472L107.154002,241.799984L107.509436,242.126645Z M103.512975,119.585015L105.655437,115.141957L103.215226,118.787549L103.512975,119.585015Z M438.485292,243.476361L443.038880,241.776087L438.913041,242.808723L438.485292,243.476361Z M186.634170,195.376206L186.913987,195.329362L187.854197,194.539280L187.665716,193.978401L185.832138,193.786288L185.587078,193.776708L185.380354,193.805482L185.255541,193.930450L185.140153,194.064860L184.900107,194.449206L184.727188,194.768639L184.765715,195.069984L185.438212,195.256097L186.634170,195.376206Z M128.028896,148.476746L125.800458,144.418017L127.145437,148.198191L128.028896,148.476746Z M118.576229,143.831995L118.696477,143.827119L118.996577,143.315591L119.195745,142.775289L119.181600,142.381364L118.004802,140.733916L117.808937,140.613806L117.409184,140.769917L117.384975,141.022067L118.182286,143.255536L118.398434,143.755116L118.576229,143.831995Z " data-iso2="MX"/><path d="M997.036707,340.094651L997.430494,340.017772L997.608289,339.940909L998.223084,339.489436L998.412828,339.311641L998.564062,339.100369L998.655381,338.951486L998.813843,338.629702L998.869177,338.367817L998.833020,338.115667L998.648153,337.995575L998.182224,337.844340L997.963706,337.755373L997.312754,337.311128L996.772470,336.761091L996.623587,336.554678L996.472214,336.179929L996.371298,335.872601L995.991811,335.248053L995.600393,335.140048L995.341170,335.176050L995.136971,335.267385L994.980704,335.471429L994.870365,335.795721L994.851171,335.992693L995.139322,338.437451L995.410649,339.213233L995.732589,339.524331L996.378682,339.657478L996.822927,339.775219L997.036707,340.094651Z " data-iso2="BB"/><path d="M961.122456,354.322068L958.093233,358.194668L961.300096,355.032920L961.122456,354.322068Z " data-iso2="GD"/><path d="M785.710641,225.012576L786.688254,230.250593L787.778592,234.426889L785.307274,237.978949L786.212728,242.081064L781.968993,243.716545L784.735691,248.010755L785.715673,251.992604L785.474054,253.843768L785.749150,253.947519L787.934686,257.338609L791.421988,261.354247L794.135704,257.160970L797.195430,253.164664L797.829402,249.163483L803.067436,248.510334L806.585846,250.477197L812.076169,250.642888L815.859006,247.300682L819.916473,246.546912L823.873007,247.299748L829.966020,247.117233L834.810111,247.635988L837.562336,250.710171L840.780507,248.145165L844.825074,244.667598L841.294404,241.045903L838.054687,238.060705L833.959818,236.684584L828.945333,236.857503L824.420519,235.522104L829.132708,234.100384L825.631105,231.453795L821.653821,232.015781L818.169043,229.565991L817.143480,225.612915L812.830267,226.338222L809.136552,224.340078L805.106458,224.080700L801.688946,221.705420L797.651935,221.414762L792.598786,222.548485L788.664714,221.515694L785.333678,223.893325L786.307677,225.090545L785.710641,225.012576Z M840.713397,252.751544L840.796070,252.641049L840.694203,252.271159L840.473196,251.848442L840.290681,251.718753L840.079409,251.661223L837.139792,251.090747L837.053332,251.401845L837.113231,251.572412L837.562336,252.264087L837.970735,252.434481L838.494211,252.573767L838.674202,252.588223L839.176306,252.439357L839.349069,252.372074L839.555621,252.348021L839.896737,252.405707L840.425090,252.544993L840.713397,252.751544Z " data-iso2="DO"/><path d="M785.474054,253.843768L785.715673,251.992604L784.735691,248.010755L781.968993,243.716545L786.212728,242.081064L785.307274,237.978949L787.778592,234.426889L786.688254,230.250593L785.710641,225.012576L784.591702,224.906940L780.455955,224.753042L775.969667,224.027873L772.122228,222.596436L767.895301,220.924935L763.586808,221.438815L759.431884,222.365814L756.180218,224.767498L761.569470,226.602321L768.951989,229.349842L767.607166,233.394254L768.908759,237.818135L771.704231,240.680889L775.758395,242.690982L771.401624,244.763654L766.521704,246.833957L760.411866,246.262236L755.401929,245.421696L751.295267,245.191074L746.491915,244.216125L742.190478,243.005694L738.787283,246.713710L742.075245,249.211433L745.963563,250.849439L748.922356,254.115561L755.776540,250.191415L761.574190,251.080061L766.082179,252.055011L770.056784,251.406566L774.850417,250.541973L779.067902,250.566026L783.085736,251.524306L784.985645,253.683420L785.474054,253.843768Z M767.179746,242.482079L764.201603,239.052463L760.286880,237.760449L763.058299,241.041027L767.179746,242.482079Z M770.388165,220.180434L770.639208,220.103571L770.700525,219.853773L770.080837,219.407021L769.658137,219.195749L767.727258,218.417615L767.446352,218.344366L766.545757,218.412738L765.628337,218.571357L765.459984,218.638484L764.953332,218.912318L764.958053,219.087588L765.157532,219.200469L766.310432,219.493480L769.461165,220.137204L770.388165,220.180434Z " data-iso2="HT"/><path d="M700.919675,255.732835L706.230473,257.007245L706.384371,251.920601L701.220709,250.652485L697.517570,248.543811L692.637339,247.467946L687.949203,246.612933L683.933566,246.223866L679.740444,245.522611L674.060534,246.704113L671.397120,249.759118L675.484761,250.998322L678.561139,253.988397L682.281397,257.103284L686.588801,257.302607L690.874520,259.207081L693.612289,256.248443L697.632803,254.810538L700.919675,255.732835Z " data-iso2="JM"/><path d="M674.163974,129.974451L674.644221,134.897912L672.420158,138.289002L672.852628,142.295060L676.466939,144.526022L681.085284,143.087494L681.623373,138.087310L678.650261,133.610602L674.389546,129.945677L674.163974,129.974451Z M752.707390,204.099000L758.793192,203.738707L763.548282,200.184278L758.865178,200.054589L753.091580,200.875952L752.707390,204.099000Z M682.876877,145.835016L679.841204,149.495081L682.372733,154.442439L686.063923,152.060087L685.024042,147.751577L682.876877,145.835016Z M678.568367,100.650268L683.371891,101.217130L688.953238,105.098220L691.542141,108.354900L691.182004,113.662552L690.355764,117.615627L691.993770,112.754729L694.313560,107.567170L690.245252,105.429584L686.825388,101.711833L682.949174,100.511155L678.568367,100.650268Z M665.455480,107.706456L671.377943,105.612100L677.410919,104.783664L673.452811,103.887790L668.736213,103.479529L665.585169,106.068449L660.781800,104.152026L664.355562,107.379795L665.455480,107.706456Z M699.577982,123.797469L702.618670,126.665100L706.429969,128.328110L709.467977,131.257023L708.641910,135.786402L710.404729,132.078387L706.879074,128.499922L703.070160,126.578640L699.577982,123.797469Z M742.096791,182.392852L746.650361,179.731790L749.695769,175.802750L746.189152,178.482989L742.092070,181.590665L742.096791,182.392852Z M721.586755,148.640067L721.375483,144.401209L719.191832,140.856844L720.827953,144.807083L721.586755,148.640067Z M724.266994,156.503145L726.481286,161.167089L727.725367,165.201903L730.866659,167.944549L728.104992,164.423769L724.833700,157.156310L724.266994,156.503145Z M745.339015,173.972648L745.603114,173.871888L746.489546,173.010753L743.091073,171.364568L741.647669,170.780881L740.929590,170.903342L740.872060,171.112262L740.934622,171.450872L742.164073,172.987963L743.345574,173.473224L744.087862,173.708394L745.339015,173.972648Z M767.842491,180.447517L763.769462,177.863317L767.410195,179.955166L767.842491,180.447517Z M686.945497,133.697061L687.500082,133.310363L689.101948,133.173602L690.502434,132.746008L690.511858,132.568231L690.331711,132.419365L689.294355,132.135934L688.794620,132.087984L687.464253,132.126337L687.175946,132.148038L686.258370,132.380994L686.037674,132.491351L685.437007,132.890015L685.293017,132.990930L685.324298,133.180674L685.593273,133.579321L686.815635,133.692202L686.945497,133.697061Z M737.706542,149.442254L737.821931,149.864954L737.826807,150.141157L737.586606,151.104158L737.514447,151.291532L737.749772,151.507681L738.355142,151.531734L739.325372,150.073874L739.534292,149.408621L738.905024,148.332739L738.078939,148.642592L737.788436,148.973956L737.706542,149.442254Z M711.941820,156.373300L715.659571,159.447482L712.359505,156.392632L711.941820,156.373300Z " data-iso2="BS"/><path d="M592.998627,426.984210L592.402058,422.975489L594.190365,419.220492L593.036358,415.150921L596.093560,411.678247L592.451893,409.044697L592.378334,401.980330L596.739653,401.339131L598.796122,400.403157L598.022087,399.713056L593.790439,397.263438L591.062111,393.704133L585.374817,387.661733L582.502639,383.000002L580.994304,378.352900L580.226545,376.932443L580.082400,376.852122L576.940157,379.942801L572.569241,379.582507L569.230960,377.305792L562.295038,374.202853L558.346683,376.575608L554.355254,375.081902L550.447759,373.439175L546.056404,371.872065L544.693183,374.237264L544.767849,374.267611L541.376759,377.041537L544.907135,379.022874L542.808214,385.740451L542.913694,391.115230L545.310502,394.487143L550.008235,395.503127L554.206388,399.943677L557.510863,397.503640L554.293937,392.947700L552.580469,389.258706L558.092181,392.354589L561.723473,394.256539L562.347865,398.690017L567.362661,401.418345L571.109030,403.200358L574.820953,404.744521L578.698256,407.734596L581.090360,412.297763L578.643095,416.447810L582.411147,419.766915L586.215513,421.025278L584.332585,417.278771L589.602350,419.689412L591.751261,423.460612L593.025360,425.771117L592.998627,426.984210Z " data-iso2="CR"/><path d="M666.516716,193.392207L668.419150,197.648201L669.146809,202.084031L672.982144,204.300693L676.459711,207.581270L680.609274,207.492771L685.835826,208.128956L690.913029,208.460337L693.643725,211.846706L690.177969,215.684393L684.683081,219.118869L682.233291,222.481203L688.898060,222.401971L693.703624,221.981623L698.516573,221.150663L703.704132,220.881705L707.988589,220.084239L713.248151,220.646380L717.494393,220.896161L723.010187,222.057552L726.831844,220.564642L732.499962,219.459847L738.455902,218.801805L742.490734,218.681713L742.944714,214.480102L738.251858,213.866396L735.194501,210.655453L730.352779,208.076129L725.501477,207.422825L721.418713,207.353173L717.177330,207.992039L719.559837,202.513820L715.508198,200.340389L710.707337,200.707910L706.970409,198.431056L702.981176,199.473427L698.479326,196.000598L694.232116,192.830377L690.569543,194.463507L686.954921,188.348948L682.084581,188.810018L678.529858,186.225818L672.353049,182.479311L667.794758,179.775019L662.342789,178.353300L657.657316,178.905705L653.660699,177.531158L649.998438,174.193673L645.641978,171.446151L642.474108,168.893249L638.307098,169.688035L633.753666,168.223103L626.130790,166.724521L620.895125,165.980037L616.644317,166.676588L612.489705,165.389122L608.454735,164.796011L603.949253,164.913596L599.952948,166.445811L595.975819,167.555482L591.722661,168.614522L587.498085,168.026132L583.597681,169.774650L579.274715,171.475080L573.558958,173.626811L568.779487,177.402247L566.349202,181.821269L559.811615,186.941546L564.201864,186.485196L568.280081,187.714803L572.098591,186.384437L574.521804,183.125387L579.711732,182.315972L584.126016,182.071050L587.718799,179.582924L590.634363,176.576025L594.304336,174.839282L601.615007,173.477945L609.213692,173.655740L614.591306,175.357726L611.288560,177.887370L606.826620,177.896967L611.298296,181.970135L618.805800,182.258287L623.513113,182.781919L627.470909,184.640794L632.264681,184.405452L636.266018,183.536000L638.264179,187.109588L642.308435,189.002269L646.967486,190.433569L652.104587,192.210844L656.165979,193.257953L661.004554,192.321512L665.613925,192.145930L666.516716,193.392207Z M593.026623,195.150305L597.541528,193.675793L598.199553,189.684347L594.296935,186.602937L590.000391,188.075114L592.147556,192.162755L587.939823,191.854164L591.316457,194.795044L593.026623,195.150305Z M682.800153,186.922369L683.006722,186.682168L683.362139,186.269048L683.962651,186.153832L684.257857,184.854574L684.024901,184.439102L683.716466,184.155671L682.333273,184.018910L681.176603,183.585039L680.265166,183.805113L680.158268,184.037775L679.806153,184.100648L679.177663,183.704509L678.794268,183.564912L678.621194,183.641791L678.669282,184.203777L678.712512,184.395872L678.839849,184.576019L679.682914,185.284518L681.157426,185.932963L681.777115,186.091409L682.800153,186.922369Z M670.354732,178.209155L666.603348,175.778714L670.460523,177.320508L670.354732,178.209155Z M680.047928,183.689742L680.398469,183.473593L680.661634,182.721864L680.107810,181.552294L677.751880,180.409147L676.947497,182.085524L677.732859,182.815552L678.376272,183.166265L679.519575,183.656092L680.047928,183.689742Z M677.372393,180.812531L677.319583,180.558012L676.210068,178.747243L676.114029,178.598222L675.989044,178.473409L675.657680,178.185102L674.898722,177.858597L674.159097,177.784086L672.958108,178.002603L672.368767,178.250033L672.662884,178.468533L672.876508,178.333967L673.135886,178.286034L674.389546,179.030518L674.500058,179.165083L674.692154,179.506044L674.412354,179.781141L674.949180,180.106539L676.719089,180.721351L677.372393,180.812531Z M654.715347,174.722008L654.811386,174.669199L654.523252,174.284853L653.930141,173.674917L652.966811,173.208970L651.890946,172.694935L651.396399,172.368430L651.271275,172.243462L651.026353,171.878448L650.625182,171.477432L650.381522,171.312848L650.003159,171.287688L649.479682,171.508557L649.509857,171.807551L651.463370,172.992822L652.265557,173.391486L654.018797,174.304029L654.715347,174.722008Z " data-iso2="CU"/><path d="M481.475390,316.207186L479.966589,316.503188L477.411163,317.005292L475.629167,320.737343L472.125368,322.913282L468.539658,328.071930L470.206438,328.899414L473.344116,331.703843L479.428656,332.327769L483.694092,333.096305L487.776701,335.065537L491.667371,336.895656L496.042679,337.585118L500.985956,338.235776L505.049544,338.144596L508.494706,335.868987L507.609518,333.424073L507.979097,333.959014L509.545273,328.288233L506.562427,325.421865L502.681493,323.840299L498.820548,325.840795L493.896603,323.420574L490.274580,321.282504L487.070571,318.011523L482.348941,316.741038L481.754568,316.578961L481.475390,316.207186Z " data-iso2="SV"/><path d="M587.959000,306.111262L585.084314,302.499303L580.585905,300.380583L575.283286,299.677271L570.499094,297.417380L574.946872,297.554297L571.964181,294.237562L565.662092,291.687012L558.039355,289.482299L553.601173,290.668677L548.086953,291.012162L543.449431,289.150918L539.173153,288.719261L535.411066,291.571779L530.929482,292.532428L526.789187,292.753453L522.691810,293.262456L517.129796,292.071358L512.996418,292.501147L509.506764,290.510231L504.237605,292.786930L501.134044,293.924112L501.076981,293.858092L499.122049,295.400042L495.236256,298.608634L491.680893,301.275039L487.834387,304.041115L484.459015,307.697549L485.115639,311.836910L481.437660,315.523379L481.475390,316.207186L481.754568,316.578961L482.348941,316.741038L487.070571,318.011523L490.274580,321.282504L493.896603,323.420574L498.820548,325.840795L502.681493,323.840299L506.562427,325.421865L509.545273,328.288233L507.979097,333.959014L508.868055,334.585291L512.893134,334.979078L515.847207,339.081175L516.625340,340.459665L516.870418,341.200535L521.238965,341.225211L523.498856,337.596911L527.337806,335.801704L526.390540,331.150815L529.579938,327.495626L533.744130,327.766953L537.085074,323.759806L542.332532,326.107418L547.021774,322.924142L550.125975,319.603793L553.914156,317.872877L555.609070,314.108749L558.221870,309.728236L562.050289,311.947266L569.456861,311.884860L573.347531,310.631200L581.445777,307.804447L585.643931,306.303513L588.969467,306.506451L587.959000,306.111262Z M528.537394,284.419708L532.906115,282.178838L528.859334,283.415846L528.537394,284.419708Z " data-iso2="HN"/><path d="M516.716520,341.377068L512.441816,340.082703L514.449557,345.589677L518.676467,349.605176L522.653595,352.736889L526.119058,355.095343L528.344192,358.814339L530.647797,362.336225L534.786518,365.508971L538.538075,368.602174L542.443044,372.264746L543.962204,374.031179L544.693183,374.237264L546.056404,371.872065L550.447759,373.439175L554.355254,375.081902L558.346683,376.575608L562.295038,374.202853L569.230960,377.305792L572.569241,379.582507L576.940157,379.942801L580.082400,376.852122L579.935264,376.766908L576.594476,372.533704L576.695391,368.275669L579.502967,365.170206L579.179921,360.990140L579.697414,354.211556L578.525510,349.941417L580.974972,346.408533L580.869491,351.151847L581.921148,346.968167L582.569748,342.637956L581.613837,338.077313L581.719629,333.177906L582.709034,328.403449L583.881112,324.236594L586.791955,320.588478L587.663776,315.962904L585.629475,310.849700L587.848643,307.134456L588.969467,306.506451L585.643931,306.303513L581.445777,307.804447L573.347531,310.631200L569.456861,311.884860L562.050289,311.947266L558.221870,309.728236L555.609070,314.108749L553.914156,317.872877L550.125975,319.603793L547.021774,322.924142L542.332532,326.107418L537.085074,323.759806L533.744130,327.766953L529.579938,327.495626L526.390540,331.150815L527.337806,335.801704L523.498856,337.596911L521.238965,341.225211L516.870418,341.200535L516.716520,341.377068Z " data-iso2="NI"/><path d="M679.615632,440.762056L681.037490,436.442704L682.134901,432.269866L685.015725,435.621340L689.277374,432.584422L691.273166,428.513762L690.269460,423.993824L687.984098,419.624015L688.660210,415.756136L688.541208,415.915844L684.038890,412.949199L681.078195,409.312565L677.114277,406.179590L671.368346,404.338629L665.542095,402.667146L660.306430,402.816012L656.132174,400.798674L651.175219,399.412973L647.544083,402.609599L643.684539,404.031318L640.449560,406.802720L636.112120,407.828283L632.120536,409.415832L628.650214,412.238971L624.281511,413.551423L617.061207,413.713500L613.579888,410.126700L610.506968,407.134257L611.716292,411.082612L607.498806,411.332410L603.781211,408.349408L602.143205,404.588428L599.304348,400.661757L598.926123,400.413376L598.796122,400.403157L596.739653,401.339131L592.378334,401.980330L592.451893,409.044697L596.093560,411.678247L593.036358,415.150921L594.190365,419.220492L592.402058,422.975489L592.998627,426.984210L593.521326,427.061868L593.966972,422.694583L597.959507,422.120493L601.994339,422.403924L606.081980,424.296432L613.061132,424.618216L615.309230,428.460935L617.240091,432.639756L621.145078,433.831010L622.765949,430.045977L625.645666,433.696445L627.763920,438.939182L631.308925,440.978204L635.570729,440.490729L638.259147,437.279786L642.697346,436.909896L640.382277,431.655071L637.490766,428.273561L634.788826,424.798363L639.222149,422.322323L642.846523,420.381709L646.910111,416.952110L647.666544,413.020719L651.379418,410.832831L655.551011,409.824093L659.729832,407.960497L662.019898,411.636107L665.436303,414.516932L668.937750,416.760015L670.566159,421.486504L675.624030,419.834180L679.227498,423.066825L675.374404,420.523970L672.889719,423.709131L670.585492,428.047815L672.959509,432.195355L674.898722,435.934807L677.559785,438.994516L679.296199,440.688808L679.615632,440.762056Z M613.056100,433.667671L611.202257,437.229328L614.951288,439.215385L613.551114,435.113444L613.056100,433.667671Z M662.635955,419.526713L662.429404,419.406604L661.203566,419.644454L661.060355,419.860602L661.107510,422.345131L661.761782,422.749761L663.043109,422.403924L663.274820,421.899624L663.351527,421.616193L663.361279,420.713091L663.329998,420.492222L662.957739,419.865305L662.635955,419.526713Z M602.919454,403.083551L604.106298,404.046397L604.222621,404.418016L604.473353,404.386735L604.594240,403.755271L604.101733,402.738821L603.658283,402.608820L602.919454,403.083551Z " data-iso2="PA"/></g><g class="" id="lands"><path d="M989.130400,418.172276L992.211654,422.134949L989.186840,424.886551L984.860260,428.355144L980.088173,430.571961L977.513570,434.923700L978.736105,438.903181L978.186822,441.155999L1000.000000,441.155999L1000.000000,424.361048L995.000054,421.385589L990.873886,420.136787L989.685157,418.539659L989.130400,418.172276Z " data-iso2="GY"/><path d="M970.296724,378.593084L965.020198,379.361639L960.222968,380.594860L963.663409,382.966525L963.824224,387.757772L957.529518,390.634983L962.563335,391.662759L968.161663,391.648442L971.694546,386.764597L971.079578,381.117230L970.296724,378.593084Z M975.172096,373.102918L979.766388,371.073492L974.312223,372.492843L975.172096,373.102918Z " data-iso2="TT"/><path d="M988.851845,418.004078L984.879437,416.577499L980.907185,418.293475L976.584219,416.973794L971.994629,417.667838L967.861407,419.424691L963.230957,418.580520L967.331809,417.373721L969.600190,411.899116L972.434171,407.470497L975.422983,404.391612L972.366889,400.928362L968.254728,400.135288L964.628779,397.950392L961.770901,394.828260L957.821128,396.090566L953.446753,393.233483L952.130531,397.130914L950.047173,393.414892L949.183842,397.712543L946.995937,393.204709L945.122606,389.347690L940.453803,392.695550L942.855487,387.993114L939.079895,386.370498L942.773904,383.021704L948.653138,383.650955L952.397293,381.981823L956.395967,380.831447L952.098144,380.717321L946.251453,380.274182L941.438505,380.010083L937.194753,380.456680L933.104760,380.941959L928.344777,381.777623L922.513494,381.676863L917.256300,382.159462L922.580776,383.305117L918.930153,385.197643L913.430544,386.201504L909.770341,388.372584L906.576050,391.163336L901.095635,391.797325L895.124910,390.423555L889.961093,389.053884L885.926745,386.677031L883.164751,383.732555L879.280220,382.387715L867.880801,382.291503L863.072556,383.391577L858.524017,383.631778L854.153101,384.337770L849.289522,384.318593L845.775971,381.710341L846.434013,377.724877L843.734597,372.819504L840.218366,370.528332L836.038611,367.821671L831.502955,367.141945L827.106741,367.022009L822.813794,367.612751L820.232118,364.115869L819.214423,359.711320L817.674340,355.839827L812.801493,356.397092L810.963990,359.999472L812.126644,364.225119L818.510004,363.628394L819.478037,368.165157L815.217322,366.599292L811.907815,369.447590L807.534391,371.006210L803.300392,371.575423L798.941442,373.246924L794.063718,375.672661L791.028045,379.087805L789.315528,383.016983L792.084733,387.954744L796.196427,393.694553L797.829402,397.969569L797.522091,403.387732L794.859766,407.124037L790.153872,409.264459L786.056634,408.397514L786.239150,404.170587L783.001629,401.600860L780.655295,397.897566L782.994556,390.692530L785.381784,386.804212L788.693488,381.177284L785.547475,375.314875L783.760586,371.585020L782.137035,367.521432L784.634932,364.356070L789.390038,363.380965L792.853132,361.733517L793.136874,360.801658L787.920230,362.487615L782.004995,364.031934L777.839851,371.229586L773.296656,373.223027L770.503553,377.344145L767.453424,382.632637L765.637779,386.782684L765.224659,390.830709L764.086387,396.850474L762.136176,400.428783L757.875772,406.231310L763.995207,404.913982L767.977056,408.748210L769.970169,416.342174L774.144425,420.689193L775.638286,424.800732L773.510453,428.801913L773.272603,433.372309L774.209355,437.447845L778.784471,439.095276L778.908581,441.155999L978.186822,441.155999L978.736105,438.903181L977.513570,434.923700L980.088173,430.571961L984.860260,428.355144L989.186840,424.886551L992.211654,422.134949L989.130400,418.172276L988.851845,418.004078Z M918.834252,378.021519L922.993896,375.932039L918.853273,375.799981L913.252594,374.567867L917.186493,376.378792L918.834252,378.021519Z M968.841389,415.525687L974.057704,412.898258L970.061399,413.902137L968.841389,415.525687Z M967.400337,419.219385L967.611626,419.204929L968.312880,419.029641L968.470236,418.838653L967.112358,418.783474L966.858168,418.492815L967.003419,418.129686L967.148671,417.866366L967.015990,417.643785L966.838351,417.576658L966.526164,417.514252L966.295559,417.490199L964.859384,417.355633L964.513546,417.326860L964.297398,417.341333L964.100427,417.379686L963.711360,417.461269L962.271570,417.940410L963.519264,418.580520L964.470317,418.969587L964.662412,419.027134L964.888157,419.022413L965.690344,418.940675L966.581342,418.897601L967.400337,419.219385Z M969.436851,418.753438L970.969222,418.537290L971.607931,417.936796L971.694546,417.783054L971.828956,417.310052L971.703970,417.105852L971.315059,416.858579L970.224582,416.884983L969.300713,417.693776L969.091810,418.075130L968.601499,417.639375L967.909357,417.528552L967.736594,417.595835L967.515570,417.725524L967.294545,417.999357L967.203382,418.152944L967.110940,418.605679L968.509852,418.590117L969.436851,418.753438Z M973.221885,411.966382L973.534089,411.682968L974.156112,411.046455L974.293047,410.755951L974.427439,410.165209L974.300119,409.994642L973.739534,409.677579L973.438033,409.631980L973.245938,409.670351L972.986560,409.766390L972.679076,409.934588L970.868306,412.835696L971.329377,412.782886L972.592617,412.283463L973.001016,412.100791L973.221885,411.966382Z M897.642139,377.622699L897.858132,377.608399L898.871590,377.430604L899.051737,377.310512L899.030209,377.080046L898.834482,376.345142L897.238443,375.965672L896.200931,376.085764L896.037610,376.167364L895.816741,376.301912L895.307582,376.811089L895.314810,377.000832L895.701352,377.161647L897.320199,377.574766L897.642139,377.622699Z M970.839533,416.366227L970.945169,416.356630L971.334236,416.279768L971.725672,416.142851L972.364520,415.650500L972.746358,414.956474L971.223741,415.064461L969.974784,415.314260L968.605908,415.727362L968.730876,415.955459L969.129523,416.111570L969.331215,416.154800L970.599176,416.356630L970.839533,416.366227Z M974.120439,409.013104L974.187393,408.882620L974.257045,408.528448L972.583037,409.190104L970.449221,410.632245L969.998837,412.022822L970.450466,411.995155L970.608928,411.918293L971.077227,411.546034L971.156458,411.385220L971.689670,410.707863L972.400521,409.977817L972.650319,409.752089L973.020037,409.531065L974.120439,409.013104Z M972.996157,416.736118L974.725343,416.147554L974.951071,415.885825L975.018198,415.712906L975.054355,415.227800L974.965527,415.030829L974.409525,414.857910L971.867309,416.438231L972.376624,416.639906L972.876047,416.731241L972.996157,416.736118Z " data-iso2="VE"/><path d="M481.437660,315.523379L485.115639,311.836910L484.459015,307.697549L487.834387,304.041115L491.680893,301.275039L495.236256,298.608634L499.122049,295.400042L501.076981,293.858092L500.836779,293.769108L495.255588,290.116288L494.448369,294.170279L491.196721,291.571779L486.681659,290.711906L483.967615,287.292043L484.313608,281.926706L484.990826,271.561323L485.018026,265.891009L485.038932,259.360823L485.043636,257.641372L480.055261,257.626916L474.663658,257.607740L470.206438,257.605215L466.084992,257.602863L459.989783,257.602863L454.268994,257.622040L453.198005,261.685628L453.192973,267.372766L445.358808,267.348713L449.725159,271.186573L453.144867,273.597837L457.261593,276.004242L459.048154,280.089514L463.179025,281.893211L462.769674,286.112737L456.295912,287.781886L443.576812,287.781886L439.124313,289.765730L433.756296,298.818177L434.400331,305.048591L432.443999,309.060614L432.385207,313.503534L431.355390,314.157011L431.435555,314.275063L435.781000,317.624808L439.599683,320.357873L443.168724,322.552989L447.789266,324.474271L452.640740,325.180419L456.857897,324.949797L461.694760,325.401426L466.105915,327.113165L468.381040,328.048032L468.539658,328.071930L472.125368,322.913282L475.629167,320.737343L477.411163,317.005292L479.966589,316.503188L481.475390,316.207186L481.437660,315.523379Z " data-iso2="GT"/><path d="M431.355390,314.157011L432.385207,313.503534L432.443999,309.060614L434.400331,305.048591L433.756296,298.818177L439.124313,289.765730L443.576812,287.781886L456.295912,287.781886L462.769674,286.112737L463.179025,281.893211L459.048154,280.089514L457.261593,276.004242L453.144867,273.597837L449.725159,271.186573L445.358808,267.348713L453.192973,267.372766L453.198005,261.685628L454.268994,257.622040L459.989783,257.602863L466.084992,257.602863L470.206438,257.605215L474.663658,257.607740L480.055261,257.626916L485.043636,257.641372L485.025410,255.355543L489.711038,256.113256L492.608826,252.607399L495.851051,247.069282L499.876285,245.998138L502.004136,241.751878L503.522050,245.974085L506.920213,248.798469L509.295475,244.028750L511.298668,239.364823L512.600279,234.806376L510.626015,231.146311L514.415924,229.061691L510.558732,227.745624L512.035768,223.391377L513.916345,218.439143L516.779082,213.018783L519.711471,210.124748L523.585160,206.058808L525.967823,199.994552L525.271272,195.568301L521.988187,192.609508L517.934179,192.813552L513.844342,194.396224L509.144102,193.913625L505.395226,192.321356L500.904218,192.590331L494.507473,193.365940L490.207315,195.481842L485.725731,196.368136L481.652701,196.879647L475.316962,197.508760L468.366584,199.862494L464.454369,202.158386L462.754579,206.305442L461.824605,210.424848L461.766902,214.598949L461.896591,219.181293L459.821412,222.726125L457.869005,228.932002L454.417704,234.061875L450.584738,236.708481L446.638406,238.596269L449.694985,243.268530L445.349384,245.152721L441.160672,246.737763L437.392602,244.977451L432.975948,242.486938L428.614474,242.731860L423.864087,245.556244L419.702091,246.771395L416.085256,248.637499L410.899910,246.872311L404.833440,248.486281L400.774573,250.268121L396.408533,251.505129L392.181778,251.867774L388.343763,247.732045L384.870934,245.251285L380.596074,242.374074L374.524745,242.198804L369.894295,241.627066L367.170826,237.414612L364.039114,233.250109L360.100339,227.716712L358.769799,222.433097L354.785598,217.240817L348.154652,210.583449L345.840672,207.266714L344.100644,203.282357L341.300313,197.110113L338.432682,192.849709L337.001400,187.589991L340.123515,190.957028L342.795264,194.000085L342.013672,197.935091L343.663315,193.925574L340.185766,189.852389L337.095087,185.779221L335.646652,181.910080L334.114593,175.268431L335.547154,171.235190L336.321657,167.019901L335.910906,162.848325L336.367256,157.867161L336.636213,153.856556L336.789955,149.461431L337.265481,145.181694L338.620074,138.903814L340.291558,132.701534L342.453041,128.461413L344.763389,124.633306L346.391816,120.113368L346.766427,116.877905L346.729803,116.755132L342.856581,118.943815L338.538318,116.088133L334.508380,115.074674L328.412998,115.093851L324.265302,112.312853L319.843928,111.164828L315.871520,109.406713L312.288335,107.062731L310.434336,102.278695L306.649303,98.070962L306.397153,90.640320L303.277233,87.791883L299.692941,84.960426L296.408577,79.578247L292.420761,76.739563L291.077028,72.628025L288.783349,69.042003L286.533193,65.451901L283.528507,59.824817L279.558762,56.729090L274.621001,53.659784L270.672628,50.965089L266.599305,50.523195L261.870603,50.491914L257.485231,48.944137L253.006171,51.022774L248.788201,56.101239L247.213224,59.904031L242.581684,64.575204L238.476129,63.669733L232.688231,60.855084L228.552484,59.010682L224.619847,56.327918L220.872060,54.452235L216.395352,48.027824L216.323211,43.764912L213.902350,40.330592L211.957171,36.499978L208.666996,34.043115L204.031670,32.035218L200.787093,28.713763L197.220560,26.115262L194.007265,23.322159L189.907519,21.549743L187.755789,17.829641L183.017351,16.165213L174.942829,16.169933L170.345874,16.160492L166.301773,16.160492L160.537928,16.174810L155.926811,16.160492L155.359949,20.502635L145.488819,23.961007L140.842011,23.963999L132.803819,23.951428L126.458327,23.961007L120.122900,23.961007L106.284705,23.956148L99.857786,21.861931L90.712586,18.931911L84.607624,16.996329L74.788509,13.920729L66.536364,11.367187L60.527442,9.525759L54.141401,7.586408L49.255031,6.112830L45.076694,4.865291L41.198285,3.656589L37.462135,0.371135L30.921090,0.842736L22.212596,1.495902L16.422346,1.948465L11.831184,2.307668L4.810220,2.874530L1.210054,3.166607L1.130823,3.926343L3.148472,7.591284L5.501895,10.927351L9.146397,14.690528L9.392564,19.263292L12.322446,22.966725L14.858833,26.134439L16.083582,30.399719L19.658432,33.233700L20.031937,37.799219L23.228424,40.614023L24.369047,45.148261L25.863064,50.911017L29.162992,53.486865L33.099243,55.340881L38.294185,57.535997L43.073190,62.051058L46.482350,65.350969L49.754766,68.636423L53.808601,72.027530L52.679754,76.220807L52.867146,80.558229L49.882103,83.909237L53.212983,86.252596L47.698763,84.962778L43.409586,85.339896L39.206729,84.424846L41.776300,88.598946L46.280675,91.704253L49.490356,96.072801L53.611785,97.155894L57.209289,98.966836L59.968914,101.906453L64.260599,101.805521L68.924682,101.884908L71.110218,105.261542L75.024785,107.850445L78.144548,110.458698L82.413598,111.168442L84.160543,114.781664L87.885678,120.221356L88.008139,124.461476L88.620426,128.646436L86.850535,134.206237L90.163656,137.728279L93.354160,141.031647L97.115141,143.224411L103.239435,147.247138L106.793708,149.134770L110.362594,152.314588L113.398249,155.398350L117.368306,157.105853L121.399350,162.397941L122.637448,167.252874L125.142417,170.394183L129.253955,168.386442L132.690782,165.895930L134.729648,161.176669L132.654625,157.684663L129.470259,155.259082L127.419133,151.709373L124.686067,148.524834L121.511125,145.681274L118.763604,148.589765L113.741891,145.808611L112.014900,141.836186L112.692119,137.482094L111.457791,133.125496L107.975521,129.071487L106.749528,124.443562L101.894456,119.973926L101.140376,115.708663L100.014035,111.143127L98.443312,107.014781L96.735809,103.388210L93.075606,100.727304L94.588644,104.865247L91.355532,101.952501L89.540198,98.167157L85.808147,94.857650L84.296371,90.187601L80.495775,88.027363L76.763551,84.400793L76.095929,79.852099L74.741354,75.337020L70.489284,73.179168L69.438562,68.088755L66.222915,65.314984L63.066977,62.519357L58.760836,57.108577L54.620385,54.135310L51.533148,51.123551L47.266622,48.289726L44.331726,44.600732L44.387060,38.642284L43.250985,34.312073L42.016501,30.325364L40.008760,25.747741L40.412127,21.035708L41.022219,16.914573L37.679235,13.973711L42.895550,16.174810L46.863099,18.000035L50.792278,20.348893L54.841237,21.110219L60.946372,20.788434L63.660260,24.599873L70.120812,25.685335L70.836384,31.795173L71.758507,36.089365L74.947905,40.047162L76.835554,44.206806L77.580211,48.361712L79.812418,51.979810L83.280543,55.740790L86.093929,59.005806L86.735302,63.285542L91.208240,67.978398L93.820090,71.350312L97.067035,74.318702L101.164411,78.070086L105.290423,82.681203L109.296308,84.309457L114.051415,83.536199L113.405495,87.902395L115.209347,92.465562L118.576229,95.693331L123.473285,97.207614L126.314338,100.429417L128.302902,103.940599L132.670516,102.958421L137.083555,107.298056L139.864398,111.270464L134.696016,115.060218L134.095832,119.282407L138.735706,122.334906L143.427300,121.374256L140.195935,124.151952L144.466075,123.754239L148.289461,127.587223L151.918245,129.458203L156.776948,131.324306L156.743142,136.225927L159.030856,139.534172L163.294874,141.463944L166.455515,144.566900L175.014988,150.767918L177.985730,153.474561L179.962502,157.170766L184.412632,161.015854L187.138470,164.966423L191.125334,168.804265L194.924685,172.229161L197.950432,175.937159L199.689371,179.890391L199.492555,184.371819L202.033526,188.939707L206.041935,193.627843L207.136977,198.594377L205.417388,202.242494L201.556737,206.220712L206.213436,207.837985L203.037387,211.426358L199.150176,212.591190L201.380204,218.352684L203.659583,222.008028L206.188449,225.495175L209.469183,228.653291L212.574335,232.287107L216.432772,234.150859L221.703021,235.337237L225.752291,238.183149L230.891606,241.257175L235.454756,245.911678L239.230210,249.792595L243.632407,251.050025L248.450232,252.862057L252.770829,253.738598L257.679833,255.143493L262.043521,254.675195L265.840504,256.229111L268.698693,259.516917L272.300900,262.449306L277.647077,265.244916L281.552202,268.040388L285.553228,269.303645L289.511336,270.639044L293.344303,272.147206L297.643216,273.516099L301.807581,276.486997L306.961490,277.469330L313.940642,278.770941L318.345364,279.529898L321.212977,282.383055L324.810636,284.532590L329.700291,285.481273L333.081801,287.666654L337.532087,289.951860L345.162053,290.505355L351.942037,293.801651L356.810164,295.034872L361.503020,294.722685L365.369481,293.353792L370.835751,290.952108L374.721544,289.844961L379.404976,286.792481L385.007851,285.394658L389.280359,283.257228L392.781962,285.836707L396.975394,287.296919L393.454615,284.933605L399.103072,286.062280L403.181289,289.093232L407.105435,292.023269L411.202673,295.289530L414.754733,297.890555L418.681249,301.845982L422.581498,304.117977L424.685451,307.662809L428.974922,311.846489L431.201025,314.080443L431.355390,314.157011Z M84.660123,68.511610L86.274232,64.827354L85.178878,60.456437L80.039425,66.354848L84.525713,68.506734L84.660123,68.511610Z M70.077582,63.991672L67.983226,59.145092L65.451698,55.924395L65.393995,60.499667L68.492230,63.227856L70.077582,63.991672Z M522.197090,215.506771L525.684392,211.476816L521.822341,212.869762L522.197090,215.506771Z M34.806728,81.163444L34.816480,76.249564L32.549206,79.856958L34.806728,81.163444Z M94.833393,145.080935L94.888727,144.977650L95.049853,144.451667L95.064015,143.985720L94.967958,143.836854L92.566585,141.377484L89.510335,141.624914L89.660307,141.814657L90.894946,142.338134L92.638433,143.366049L94.002605,144.293204L94.228489,144.446790L94.410849,144.634165L94.833393,145.080935Z M87.474927,128.605558L86.350800,133.086987L86.663299,137.198663L88.272237,141.512050L86.826637,137.064115L86.754323,132.400171L87.474927,128.605558Z M182.796949,192.858666L183.209447,193.181073L183.353436,193.291585L184.419877,193.815062L184.631149,193.762252L184.928881,192.316480L184.876227,191.922554L184.395824,190.726579L184.203729,190.601767L183.411122,190.255929L182.570582,190.630523L182.368734,190.731456L182.421560,191.836094L182.455366,192.028345L182.671341,192.734320L182.796949,192.858666Z M112.332448,131.930317L112.179502,131.918679L112.115833,132.385715L112.127937,132.772430L113.273437,134.681763L114.334846,135.344509L114.719192,135.483950L115.044590,135.494637L115.199595,135.303804L114.455111,133.029439L114.358899,132.880574L114.190857,132.789238L113.931479,132.779658L113.528094,132.707499L113.283189,132.625916L112.836419,132.424224L112.332448,131.930317Z M107.509436,242.126645L108.414890,242.011412L108.628686,241.751878L108.508439,241.137239L108.441467,240.969041L108.124231,240.200487L107.917680,240.037321L107.329445,239.580971L107.065191,239.530514L106.198073,240.315876L106.102034,240.464741L105.816407,241.105958L105.967624,241.403845L106.193369,241.492656L106.568119,241.511833L106.779408,241.555062L107.019436,241.689472L107.154002,241.799984L107.509436,242.126645Z M103.512975,119.585015L105.655437,115.141957L103.215226,118.787549L103.512975,119.585015Z M438.485292,243.476361L443.038880,241.776087L438.913041,242.808723L438.485292,243.476361Z M186.634170,195.376206L186.913987,195.329362L187.854197,194.539280L187.665716,193.978401L185.832138,193.786288L185.587078,193.776708L185.380354,193.805482L185.255541,193.930450L185.140153,194.064860L184.900107,194.449206L184.727188,194.768639L184.765715,195.069984L185.438212,195.256097L186.634170,195.376206Z M128.028896,148.476746L125.800458,144.418017L127.145437,148.198191L128.028896,148.476746Z M118.576229,143.831995L118.696477,143.827119L118.996577,143.315591L119.195745,142.775289L119.181600,142.381364L118.004802,140.733916L117.808937,140.613806L117.409184,140.769917L117.384975,141.022067L118.182286,143.255536L118.398434,143.755116L118.576229,143.831995Z " data-iso2="MX"/><path d="M997.036707,340.094651L997.430494,340.017772L997.608289,339.940909L998.223084,339.489436L998.412828,339.311641L998.564062,339.100369L998.655381,338.951486L998.813843,338.629702L998.869177,338.367817L998.833020,338.115667L998.648153,337.995575L998.182224,337.844340L997.963706,337.755373L997.312754,337.311128L996.772470,336.761091L996.623587,336.554678L996.472214,336.179929L996.371298,335.872601L995.991811,335.248053L995.600393,335.140048L995.341170,335.176050L995.136971,335.267385L994.980704,335.471429L994.870365,335.795721L994.851171,335.992693L995.139322,338.437451L995.410649,339.213233L995.732589,339.524331L996.378682,339.657478L996.822927,339.775219L997.036707,340.094651Z " data-iso2="BB"/><path d="M961.122456,354.322068L958.093233,358.194668L961.300096,355.032920L961.122456,354.322068Z " data-iso2="GD"/><path d="M785.710641,225.012576L786.688254,230.250593L787.778592,234.426889L785.307274,237.978949L786.212728,242.081064L781.968993,243.716545L784.735691,248.010755L785.715673,251.992604L785.474054,253.843768L785.749150,253.947519L787.934686,257.338609L791.421988,261.354247L794.135704,257.160970L797.195430,253.164664L797.829402,249.163483L803.067436,248.510334L806.585846,250.477197L812.076169,250.642888L815.859006,247.300682L819.916473,246.546912L823.873007,247.299748L829.966020,247.117233L834.810111,247.635988L837.562336,250.710171L840.780507,248.145165L844.825074,244.667598L841.294404,241.045903L838.054687,238.060705L833.959818,236.684584L828.945333,236.857503L824.420519,235.522104L829.132708,234.100384L825.631105,231.453795L821.653821,232.015781L818.169043,229.565991L817.143480,225.612915L812.830267,226.338222L809.136552,224.340078L805.106458,224.080700L801.688946,221.705420L797.651935,221.414762L792.598786,222.548485L788.664714,221.515694L785.333678,223.893325L786.307677,225.090545L785.710641,225.012576Z M840.713397,252.751544L840.796070,252.641049L840.694203,252.271159L840.473196,251.848442L840.290681,251.718753L840.079409,251.661223L837.139792,251.090747L837.053332,251.401845L837.113231,251.572412L837.562336,252.264087L837.970735,252.434481L838.494211,252.573767L838.674202,252.588223L839.176306,252.439357L839.349069,252.372074L839.555621,252.348021L839.896737,252.405707L840.425090,252.544993L840.713397,252.751544Z " data-iso2="DO"/><path d="M785.474054,253.843768L785.715673,251.992604L784.735691,248.010755L781.968993,243.716545L786.212728,242.081064L785.307274,237.978949L787.778592,234.426889L786.688254,230.250593L785.710641,225.012576L784.591702,224.906940L780.455955,224.753042L775.969667,224.027873L772.122228,222.596436L767.895301,220.924935L763.586808,221.438815L759.431884,222.365814L756.180218,224.767498L761.569470,226.602321L768.951989,229.349842L767.607166,233.394254L768.908759,237.818135L771.704231,240.680889L775.758395,242.690982L771.401624,244.763654L766.521704,246.833957L760.411866,246.262236L755.401929,245.421696L751.295267,245.191074L746.491915,244.216125L742.190478,243.005694L738.787283,246.713710L742.075245,249.211433L745.963563,250.849439L748.922356,254.115561L755.776540,250.191415L761.574190,251.080061L766.082179,252.055011L770.056784,251.406566L774.850417,250.541973L779.067902,250.566026L783.085736,251.524306L784.985645,253.683420L785.474054,253.843768Z M767.179746,242.482079L764.201603,239.052463L760.286880,237.760449L763.058299,241.041027L767.179746,242.482079Z M770.388165,220.180434L770.639208,220.103571L770.700525,219.853773L770.080837,219.407021L769.658137,219.195749L767.727258,218.417615L767.446352,218.344366L766.545757,218.412738L765.628337,218.571357L765.459984,218.638484L764.953332,218.912318L764.958053,219.087588L765.157532,219.200469L766.310432,219.493480L769.461165,220.137204L770.388165,220.180434Z " data-iso2="HT"/><path d="M700.919675,255.732835L706.230473,257.007245L706.384371,251.920601L701.220709,250.652485L697.517570,248.543811L692.637339,247.467946L687.949203,246.612933L683.933566,246.223866L679.740444,245.522611L674.060534,246.704113L671.397120,249.759118L675.484761,250.998322L678.561139,253.988397L682.281397,257.103284L686.588801,257.302607L690.874520,259.207081L693.612289,256.248443L697.632803,254.810538L700.919675,255.732835Z " data-iso2="JM"/><path d="M674.163974,129.974451L674.644221,134.897912L672.420158,138.289002L672.852628,142.295060L676.466939,144.526022L681.085284,143.087494L681.623373,138.087310L678.650261,133.610602L674.389546,129.945677L674.163974,129.974451Z M752.707390,204.099000L758.793192,203.738707L763.548282,200.184278L758.865178,200.054589L753.091580,200.875952L752.707390,204.099000Z M682.876877,145.835016L679.841204,149.495081L682.372733,154.442439L686.063923,152.060087L685.024042,147.751577L682.876877,145.835016Z M678.568367,100.650268L683.371891,101.217130L688.953238,105.098220L691.542141,108.354900L691.182004,113.662552L690.355764,117.615627L691.993770,112.754729L694.313560,107.567170L690.245252,105.429584L686.825388,101.711833L682.949174,100.511155L678.568367,100.650268Z M665.455480,107.706456L671.377943,105.612100L677.410919,104.783664L673.452811,103.887790L668.736213,103.479529L665.585169,106.068449L660.781800,104.152026L664.355562,107.379795L665.455480,107.706456Z M699.577982,123.797469L702.618670,126.665100L706.429969,128.328110L709.467977,131.257023L708.641910,135.786402L710.404729,132.078387L706.879074,128.499922L703.070160,126.578640L699.577982,123.797469Z M742.096791,182.392852L746.650361,179.731790L749.695769,175.802750L746.189152,178.482989L742.092070,181.590665L742.096791,182.392852Z M721.586755,148.640067L721.375483,144.401209L719.191832,140.856844L720.827953,144.807083L721.586755,148.640067Z M724.266994,156.503145L726.481286,161.167089L727.725367,165.201903L730.866659,167.944549L728.104992,164.423769L724.833700,157.156310L724.266994,156.503145Z M745.339015,173.972648L745.603114,173.871888L746.489546,173.010753L743.091073,171.364568L741.647669,170.780881L740.929590,170.903342L740.872060,171.112262L740.934622,171.450872L742.164073,172.987963L743.345574,173.473224L744.087862,173.708394L745.339015,173.972648Z M767.842491,180.447517L763.769462,177.863317L767.410195,179.955166L767.842491,180.447517Z M686.945497,133.697061L687.500082,133.310363L689.101948,133.173602L690.502434,132.746008L690.511858,132.568231L690.331711,132.419365L689.294355,132.135934L688.794620,132.087984L687.464253,132.126337L687.175946,132.148038L686.258370,132.380994L686.037674,132.491351L685.437007,132.890015L685.293017,132.990930L685.324298,133.180674L685.593273,133.579321L686.815635,133.692202L686.945497,133.697061Z M737.706542,149.442254L737.821931,149.864954L737.826807,150.141157L737.586606,151.104158L737.514447,151.291532L737.749772,151.507681L738.355142,151.531734L739.325372,150.073874L739.534292,149.408621L738.905024,148.332739L738.078939,148.642592L737.788436,148.973956L737.706542,149.442254Z M711.941820,156.373300L715.659571,159.447482L712.359505,156.392632L711.941820,156.373300Z " data-iso2="BS"/><path d="M793.227881,360.590369L796.482210,357.960432L794.933188,353.037127L789.610907,350.546632L784.750320,352.842680L781.701280,355.544448L777.436017,359.726883L773.548806,361.978439L768.821366,363.330507L763.567631,366.858670L759.542552,370.254481L755.368296,370.888625L750.493097,370.958259L746.655082,369.409220L742.778868,371.488964L741.852024,376.114538L740.045820,380.011190L736.643870,377.668454L740.742215,376.052131L732.444628,373.727327L729.185734,376.131363L725.732082,378.914886L722.513910,381.455839L720.124486,385.618302L720.349920,389.691003L719.276406,393.579320L718.745702,398.051152L718.615857,402.386222L713.699625,402.835344L709.307163,406.058236L707.724490,410.218019L700.639547,415.728469L696.239701,417.600555L699.059226,421.536962L699.514469,425.861034L696.316736,428.534201L695.769051,424.142690L692.944667,420.746723L689.808079,417.427637L689.001171,415.977160L688.660210,415.756136L687.984098,419.624015L690.269460,423.993824L691.273166,428.513762L689.277374,432.584422L685.015725,435.621340L682.134901,432.269866L681.037490,436.442704L679.615632,440.762056L680.109128,441.155999L778.908581,441.155999L778.784471,439.095276L774.209355,437.447845L773.272603,433.372309L773.510453,428.801913L775.638286,424.800732L774.144425,420.689193L769.970169,416.342174L767.977056,408.748210L763.995207,404.913982L757.875772,406.231310L762.136176,400.428783L764.086387,396.850474L765.224659,390.830709L765.637779,386.782684L767.453424,382.632637L770.503553,377.344145L773.296656,373.223027L777.839851,371.229586L782.004995,364.031934L787.920230,362.487615L793.136874,360.801658L793.227881,360.590369Z M613.503164,349.782954L613.551114,349.773219L613.685368,349.489944L613.884847,349.057647L614.051956,348.131737L613.860950,348.053768L613.647171,348.226686L613.488552,348.490785L613.380547,348.831902L613.380720,349.678425L613.503164,349.782954Z " data-iso2="CO"/><path d="M592.998627,426.984210L592.402058,422.975489L594.190365,419.220492L593.036358,415.150921L596.093560,411.678247L592.451893,409.044697L592.378334,401.980330L596.739653,401.339131L598.796122,400.403157L598.022087,399.713056L593.790439,397.263438L591.062111,393.704133L585.374817,387.661733L582.502639,383.000002L580.994304,378.352900L580.226545,376.932443L580.082400,376.852122L576.940157,379.942801L572.569241,379.582507L569.230960,377.305792L562.295038,374.202853L558.346683,376.575608L554.355254,375.081902L550.447759,373.439175L546.056404,371.872065L544.693183,374.237264L544.767849,374.267611L541.376759,377.041537L544.907135,379.022874L542.808214,385.740451L542.913694,391.115230L545.310502,394.487143L550.008235,395.503127L554.206388,399.943677L557.510863,397.503640L554.293937,392.947700L552.580469,389.258706L558.092181,392.354589L561.723473,394.256539L562.347865,398.690017L567.362661,401.418345L571.109030,403.200358L574.820953,404.744521L578.698256,407.734596L581.090360,412.297763L578.643095,416.447810L582.411147,419.766915L586.215513,421.025278L584.332585,417.278771L589.602350,419.689412L591.751261,423.460612L593.025360,425.771117L592.998627,426.984210Z " data-iso2="CR"/><path d="M666.516716,193.392207L668.419150,197.648201L669.146809,202.084031L672.982144,204.300693L676.459711,207.581270L680.609274,207.492771L685.835826,208.128956L690.913029,208.460337L693.643725,211.846706L690.177969,215.684393L684.683081,219.118869L682.233291,222.481203L688.898060,222.401971L693.703624,221.981623L698.516573,221.150663L703.704132,220.881705L707.988589,220.084239L713.248151,220.646380L717.494393,220.896161L723.010187,222.057552L726.831844,220.564642L732.499962,219.459847L738.455902,218.801805L742.490734,218.681713L742.944714,214.480102L738.251858,213.866396L735.194501,210.655453L730.352779,208.076129L725.501477,207.422825L721.418713,207.353173L717.177330,207.992039L719.559837,202.513820L715.508198,200.340389L710.707337,200.707910L706.970409,198.431056L702.981176,199.473427L698.479326,196.000598L694.232116,192.830377L690.569543,194.463507L686.954921,188.348948L682.084581,188.810018L678.529858,186.225818L672.353049,182.479311L667.794758,179.775019L662.342789,178.353300L657.657316,178.905705L653.660699,177.531158L649.998438,174.193673L645.641978,171.446151L642.474108,168.893249L638.307098,169.688035L633.753666,168.223103L626.130790,166.724521L620.895125,165.980037L616.644317,166.676588L612.489705,165.389122L608.454735,164.796011L603.949253,164.913596L599.952948,166.445811L595.975819,167.555482L591.722661,168.614522L587.498085,168.026132L583.597681,169.774650L579.274715,171.475080L573.558958,173.626811L568.779487,177.402247L566.349202,181.821269L559.811615,186.941546L564.201864,186.485196L568.280081,187.714803L572.098591,186.384437L574.521804,183.125387L579.711732,182.315972L584.126016,182.071050L587.718799,179.582924L590.634363,176.576025L594.304336,174.839282L601.615007,173.477945L609.213692,173.655740L614.591306,175.357726L611.288560,177.887370L606.826620,177.896967L611.298296,181.970135L618.805800,182.258287L623.513113,182.781919L627.470909,184.640794L632.264681,184.405452L636.266018,183.536000L638.264179,187.109588L642.308435,189.002269L646.967486,190.433569L652.104587,192.210844L656.165979,193.257953L661.004554,192.321512L665.613925,192.145930L666.516716,193.392207Z M593.026623,195.150305L597.541528,193.675793L598.199553,189.684347L594.296935,186.602937L590.000391,188.075114L592.147556,192.162755L587.939823,191.854164L591.316457,194.795044L593.026623,195.150305Z M682.800153,186.922369L683.006722,186.682168L683.362139,186.269048L683.962651,186.153832L684.257857,184.854574L684.024901,184.439102L683.716466,184.155671L682.333273,184.018910L681.176603,183.585039L680.265166,183.805113L680.158268,184.037775L679.806153,184.100648L679.177663,183.704509L678.794268,183.564912L678.621194,183.641791L678.669282,184.203777L678.712512,184.395872L678.839849,184.576019L679.682914,185.284518L681.157426,185.932963L681.777115,186.091409L682.800153,186.922369Z M670.354732,178.209155L666.603348,175.778714L670.460523,177.320508L670.354732,178.209155Z M680.047928,183.689742L680.398469,183.473593L680.661634,182.721864L680.107810,181.552294L677.751880,180.409147L676.947497,182.085524L677.732859,182.815552L678.376272,183.166265L679.519575,183.656092L680.047928,183.689742Z M677.372393,180.812531L677.319583,180.558012L676.210068,178.747243L676.114029,178.598222L675.989044,178.473409L675.657680,178.185102L674.898722,177.858597L674.159097,177.784086L672.958108,178.002603L672.368767,178.250033L672.662884,178.468533L672.876508,178.333967L673.135886,178.286034L674.389546,179.030518L674.500058,179.165083L674.692154,179.506044L674.412354,179.781141L674.949180,180.106539L676.719089,180.721351L677.372393,180.812531Z M654.715347,174.722008L654.811386,174.669199L654.523252,174.284853L653.930141,173.674917L652.966811,173.208970L651.890946,172.694935L651.396399,172.368430L651.271275,172.243462L651.026353,171.878448L650.625182,171.477432L650.381522,171.312848L650.003159,171.287688L649.479682,171.508557L649.509857,171.807551L651.463370,172.992822L652.265557,173.391486L654.018797,174.304029L654.715347,174.722008Z " data-iso2="CU"/><path d="M481.475390,316.207186L479.966589,316.503188L477.411163,317.005292L475.629167,320.737343L472.125368,322.913282L468.539658,328.071930L470.206438,328.899414L473.344116,331.703843L479.428656,332.327769L483.694092,333.096305L487.776701,335.065537L491.667371,336.895656L496.042679,337.585118L500.985956,338.235776L505.049544,338.144596L508.494706,335.868987L507.609518,333.424073L507.979097,333.959014L509.545273,328.288233L506.562427,325.421865L502.681493,323.840299L498.820548,325.840795L493.896603,323.420574L490.274580,321.282504L487.070571,318.011523L482.348941,316.741038L481.754568,316.578961L481.475390,316.207186Z " data-iso2="SV"/><path d="M587.959000,306.111262L585.084314,302.499303L580.585905,300.380583L575.283286,299.677271L570.499094,297.417380L574.946872,297.554297L571.964181,294.237562L565.662092,291.687012L558.039355,289.482299L553.601173,290.668677L548.086953,291.012162L543.449431,289.150918L539.173153,288.719261L535.411066,291.571779L530.929482,292.532428L526.789187,292.753453L522.691810,293.262456L517.129796,292.071358L512.996418,292.501147L509.506764,290.510231L504.237605,292.786930L501.134044,293.924112L501.076981,293.858092L499.122049,295.400042L495.236256,298.608634L491.680893,301.275039L487.834387,304.041115L484.459015,307.697549L485.115639,311.836910L481.437660,315.523379L481.475390,316.207186L481.754568,316.578961L482.348941,316.741038L487.070571,318.011523L490.274580,321.282504L493.896603,323.420574L498.820548,325.840795L502.681493,323.840299L506.562427,325.421865L509.545273,328.288233L507.979097,333.959014L508.868055,334.585291L512.893134,334.979078L515.847207,339.081175L516.625340,340.459665L516.870418,341.200535L521.238965,341.225211L523.498856,337.596911L527.337806,335.801704L526.390540,331.150815L529.579938,327.495626L533.744130,327.766953L537.085074,323.759806L542.332532,326.107418L547.021774,322.924142L550.125975,319.603793L553.914156,317.872877L555.609070,314.108749L558.221870,309.728236L562.050289,311.947266L569.456861,311.884860L573.347531,310.631200L581.445777,307.804447L585.643931,306.303513L588.969467,306.506451L587.959000,306.111262Z M528.537394,284.419708L532.906115,282.178838L528.859334,283.415846L528.537394,284.419708Z " data-iso2="HN"/><path d="M516.716520,341.377068L512.441816,340.082703L514.449557,345.589677L518.676467,349.605176L522.653595,352.736889L526.119058,355.095343L528.344192,358.814339L530.647797,362.336225L534.786518,365.508971L538.538075,368.602174L542.443044,372.264746L543.962204,374.031179L544.693183,374.237264L546.056404,371.872065L550.447759,373.439175L554.355254,375.081902L558.346683,376.575608L562.295038,374.202853L569.230960,377.305792L572.569241,379.582507L576.940157,379.942801L580.082400,376.852122L579.935264,376.766908L576.594476,372.533704L576.695391,368.275669L579.502967,365.170206L579.179921,360.990140L579.697414,354.211556L578.525510,349.941417L580.974972,346.408533L580.869491,351.151847L581.921148,346.968167L582.569748,342.637956L581.613837,338.077313L581.719629,333.177906L582.709034,328.403449L583.881112,324.236594L586.791955,320.588478L587.663776,315.962904L585.629475,310.849700L587.848643,307.134456L588.969467,306.506451L585.643931,306.303513L581.445777,307.804447L573.347531,310.631200L569.456861,311.884860L562.050289,311.947266L558.221870,309.728236L555.609070,314.108749L553.914156,317.872877L550.125975,319.603793L547.021774,322.924142L542.332532,326.107418L537.085074,323.759806L533.744130,327.766953L529.579938,327.495626L526.390540,331.150815L527.337806,335.801704L523.498856,337.596911L521.238965,341.225211L516.870418,341.200535L516.716520,341.377068Z " data-iso2="NI"/><path d="M679.615632,440.762056L681.037490,436.442704L682.134901,432.269866L685.015725,435.621340L689.277374,432.584422L691.273166,428.513762L690.269460,423.993824L687.984098,419.624015L688.660210,415.756136L688.541208,415.915844L684.038890,412.949199L681.078195,409.312565L677.114277,406.179590L671.368346,404.338629L665.542095,402.667146L660.306430,402.816012L656.132174,400.798674L651.175219,399.412973L647.544083,402.609599L643.684539,404.031318L640.449560,406.802720L636.112120,407.828283L632.120536,409.415832L628.650214,412.238971L624.281511,413.551423L617.061207,413.713500L613.579888,410.126700L610.506968,407.134257L611.716292,411.082612L607.498806,411.332410L603.781211,408.349408L602.143205,404.588428L599.304348,400.661757L598.926123,400.413376L598.796122,400.403157L596.739653,401.339131L592.378334,401.980330L592.451893,409.044697L596.093560,411.678247L593.036358,415.150921L594.190365,419.220492L592.402058,422.975489L592.998627,426.984210L593.521326,427.061868L593.966972,422.694583L597.959507,422.120493L601.994339,422.403924L606.081980,424.296432L613.061132,424.618216L615.309230,428.460935L617.240091,432.639756L621.145078,433.831010L622.765949,430.045977L625.645666,433.696445L627.763920,438.939182L631.308925,440.978204L635.570729,440.490729L638.259147,437.279786L642.697346,436.909896L640.382277,431.655071L637.490766,428.273561L634.788826,424.798363L639.222149,422.322323L642.846523,420.381709L646.910111,416.952110L647.666544,413.020719L651.379418,410.832831L655.551011,409.824093L659.729832,407.960497L662.019898,411.636107L665.436303,414.516932L668.937750,416.760015L670.566159,421.486504L675.624030,419.834180L679.227498,423.066825L675.374404,420.523970L672.889719,423.709131L670.585492,428.047815L672.959509,432.195355L674.898722,435.934807L677.559785,438.994516L679.296199,440.688808L679.615632,440.762056Z M613.056100,433.667671L611.202257,437.229328L614.951288,439.215385L613.551114,435.113444L613.056100,433.667671Z M662.635955,419.526713L662.429404,419.406604L661.203566,419.644454L661.060355,419.860602L661.107510,422.345131L661.761782,422.749761L663.043109,422.403924L663.274820,421.899624L663.351527,421.616193L663.361279,420.713091L663.329998,420.492222L662.957739,419.865305L662.635955,419.526713Z M602.919454,403.083551L604.106298,404.046397L604.222621,404.418016L604.473353,404.386735L604.594240,403.755271L604.101733,402.738821L603.658283,402.608820L602.919454,403.083551Z " data-iso2="PA"/><path d="M636.423530,130.322951L633.239786,134.042898L636.722368,130.939960L636.423530,130.322951Z M342.968649,103.949867L345.277597,110.237829L345.902145,114.503092L345.594505,110.497207L344.158330,105.857160L343.011723,101.943077L342.534952,96.543606L342.492968,101.680085L342.968649,103.949867Z M344.902986,89.468260L347.131752,85.976393L344.297616,89.353027L342.484322,94.084236L344.547241,90.068754L344.902986,89.468260Z M635.651223,84.300033L638.129614,91.735534L640.269396,95.662205L638.259303,91.235955L636.698470,86.523922L635.651223,84.300033Z M351.944389,79.751322L348.750115,83.118359L351.781067,80.140389L351.944389,79.751322Z M353.025598,78.269893L356.911252,76.979747L353.068360,78.281513L353.025598,78.269893Z M631.702851,76.076801L632.567600,72.109113L631.717324,77.385639L631.702851,76.076801Z M386.480167,59.639794L382.166953,62.060811L385.836598,60.144233L386.480167,59.639794Z M440.392429,54.639610L435.519426,53.612940L439.376463,55.866865L440.392429,54.639610Z M529.709783,40.148077L523.974383,40.287363L519.574554,41.022267L523.633422,40.570794L528.559407,40.095267L529.709783,40.148077Z M1.210054,3.166607L4.810220,2.874530L11.831184,2.307668L16.422346,1.948465L22.212596,1.495902L30.921090,0.842736L37.462135,0.371135L41.198285,3.656589L45.076694,4.865291L49.255031,6.112830L54.141401,7.586408L60.527442,9.525759L66.536364,11.367187L74.788509,13.920729L84.607624,16.996329L90.712586,18.931911L99.857786,21.861931L106.284705,23.956148L120.122900,23.961007L126.458327,23.961007L132.803819,23.951428L140.842011,23.963999L145.488819,23.961007L155.359949,20.502635L155.926811,16.160492L160.537928,16.174810L166.301773,16.160492L170.345874,16.160492L174.942829,16.169933L183.017351,16.165213L187.755789,17.829641L189.907519,21.549743L194.007265,23.322159L197.220560,26.115262L200.787093,28.713763L204.031670,32.035218L208.666996,34.043115L211.957171,36.499978L213.902350,40.330592L216.323211,43.764912L216.395352,48.027824L220.872060,54.452235L224.619847,56.327918L228.552484,59.010682L232.688231,60.855084L238.476129,63.669733L242.581684,64.575204L247.213224,59.904031L248.788201,56.101239L253.006171,51.022774L257.485231,48.944137L261.870603,50.491914L266.599305,50.523195L270.672628,50.965089L274.621001,53.659784L279.558762,56.729090L283.528507,59.824817L286.533193,65.451901L288.783349,69.042003L291.077028,72.628025L292.420761,76.739563L296.408577,79.578247L299.692941,84.960426L303.277233,87.791883L306.397153,90.640320L306.649303,98.070962L310.434336,102.278695L312.288335,107.062731L315.871520,109.406713L319.843928,111.164828L324.265302,112.312853L328.412998,115.093851L334.508380,115.074674L338.538318,116.088133L342.856581,118.943815L346.729803,116.755132L346.724615,116.525151L343.673068,113.383997L342.025620,109.051296L340.906681,103.388366L339.383890,99.197441L341.738887,94.347228L337.736460,94.098692L342.022006,93.223257L344.326389,87.537381L340.781713,84.602641L345.247561,84.687838L348.774324,81.043335L352.953145,77.416920L359.538976,73.952582L355.192752,69.736358L358.986276,71.227851L363.133799,69.564685L366.817917,71.242151L370.510041,69.616405L377.526768,66.095470L381.177392,63.412879L385.428043,58.861661L383.473284,54.519518L386.504064,51.344559L389.357377,54.740525L395.548660,54.197716L399.857153,52.641449L403.598023,47.264163L403.017950,51.411841L413.143443,50.696114L417.682246,51.517477L421.553894,53.164925L425.766192,54.341879L429.791583,54.923041L433.898245,53.654925L437.366197,49.841118L441.429785,51.354311L443.519282,54.913444L448.293721,56.224807L450.879166,59.759886L454.432489,61.690921L458.472024,62.055935L462.521139,58.659968L466.130902,62.250537L469.221736,58.904890L466.901963,55.465850L473.116970,56.623454L476.977932,59.956858L480.761703,62.706731L484.837396,63.607326L484.261110,58.424643L479.471886,57.329601L475.778188,55.208823L479.260614,49.907138L480.591136,46.128243L477.308207,48.743551L473.356220,47.949855L476.385755,44.704016L469.618048,46.373148L464.159007,45.940851L466.121149,40.496283L470.192138,41.488196L475.480457,43.829359L479.747138,43.820246L483.999207,41.351279L487.829684,39.773483L491.912604,40.882981L496.413192,41.420931L501.464630,40.783328L503.363432,37.069191L506.373945,39.922349L509.396563,42.943704L514.070087,40.786942L518.974371,39.542862L523.181948,39.225798L519.046686,40.612139L523.350146,40.104847L527.884384,39.792660L531.799262,38.428487L535.958907,38.827307L538.840682,42.098288L543.178104,44.192488L549.014264,46.070540L551.353542,50.189307L555.628246,51.849014L559.605375,51.310926L564.019677,48.962224L568.164848,48.390486L573.409781,45.253897L576.993278,47.276267L581.163764,50.371822L584.203051,54.341879L587.402046,56.988468L590.010126,60.418084L594.155297,61.465175L597.395326,66.114802L597.445472,72.263011L596.158491,76.307266L595.159176,80.375714L593.948902,84.482531L597.534612,86.845707L596.178930,82.877068L600.875400,82.786995L599.294923,87.527784L598.387256,91.797941L600.654220,97.312161L603.190625,101.572720L606.807287,99.704092L607.162722,103.935878L612.242916,103.950974L609.946712,107.315504L611.706539,113.311855L614.166238,117.654154L618.878115,118.787705L622.855088,125.320104L625.991677,127.891093L631.328257,130.637352L635.282422,129.282932L637.255424,124.778557L639.818251,120.615299L641.487072,112.706796L642.246184,107.658505L642.514053,102.415612L641.304712,97.989362L637.728754,91.447383L636.457958,87.321233L633.153327,80.995246L630.694113,75.754861L628.892767,70.322379L633.015303,72.099672L632.399246,77.822812L634.344581,82.373875L632.975688,78.588841L633.443986,74.112289L632.084690,70.019772L628.777552,65.341389L626.419253,61.652567L623.080972,54.644486L621.544036,50.869032L620.131620,45.720000L619.041437,40.815716L618.306532,35.950096L616.603595,32.318649L618.745590,28.163726L620.751446,24.129067L620.143724,20.121902L623.638254,17.738305L626.964413,14.246283L628.849538,9.714569L629.010508,5.175282L632.207306,7.990086L635.698067,5.540469L631.366455,3.774641L635.656722,3.805766L642.313138,1.942810L0.036816,0.000000L1.020639,2.639205L1.210054,3.166607Z " data-iso2="US"/></g></svg>