<?xml version="1.0" ?><!DOCTYPE svg  PUBLIC '-//W3C//DTD SVG 1.1//EN'  'http://www.w3.org/Graphics/SVG/1.1/DTD/svg11.dtd'><svg enable_background="new 0 0 1000 792" height="792px" pretty_print="False" style="stroke-linejoin: round; stroke:#000; fill: none;" version="1.1" viewBox="0 0 1000 792" width="1000px" xmlns="http://www.w3.org/2000/svg" xmlns:xlink="http://www.w3.org/1999/xlink"><defs><style type="text/css"><![CDATA[path { fill-rule: evenodd; }]]></style></defs><metadata><views><view h="792.666888165" padding="0" w="1000"><proj flip="auto" id="lonlat" lon0="0"/><bbox h="29497.29" w="37259.73" x="26070.55" y="-42091.95"/></view></views></metadata><g class="" id="countries"><path d="M360.271595,267.682486L376.006693,270.354649L385.085937,271.896913L412.605626,287.309631L429.894675,294.323436L452.402605,310.285919L456.163308,312.952722L476.143069,327.646108L500.569708,345.609912L538.109487,348.618850L546.272035,349.273127L549.495894,348.132961L553.340683,344.751679L555.623696,341.373291L559.603233,336.056949L562.920183,329.638664L564.684926,325.558502L571.051049,321.932305L581.032138,321.865293L586.702088,323.644886L586.929446,323.650756L587.357329,323.235283L592.693909,323.107103L596.657364,324.910578L602.758843,326.142845L603.473806,325.751979L603.068063,325.112338L599.464060,321.344075L596.202889,315.283285L592.744838,312.673470L589.330640,308.358659L589.427378,298.753775L584.244818,297.324118L580.239227,297.286833L580.283803,292.112046L580.328406,286.386315L583.113176,279.811866L584.810880,275.910063L581.408396,272.209536L578.612421,269.086303L575.831297,265.233016L572.792874,261.144813L568.902999,257.415042L563.568134,256.990563L559.860075,254.414387L554.871474,250.326425L549.779541,247.516780L545.958903,245.304425L541.402340,244.637953L537.435723,243.627414L539.882995,239.005315L536.152983,233.424812L532.973460,230.766748L532.124742,226.738506L528.179327,227.757569L525.383353,224.003915L522.780373,219.888424L518.849084,217.567135L522.699449,213.305425L523.688785,208.826837L519.787973,204.630209L523.119560,201.191886L527.187070,201.955821L525.712059,197.727991L528.537519,194.218261L531.949760,190.820172L535.793558,188.510087L539.836944,184.154560L536.577248,179.822675L534.298846,174.424444L537.802224,171.531973L542.034932,170.582603L538.795205,168.009591L531.837690,167.796600L527.675881,167.220781L524.770490,164.196725L520.695206,162.842604L517.240559,159.704253L515.513343,153.077642L510.897087,152.083669L508.381356,148.741870L509.783725,144.984089L506.401451,142.329670L505.433559,135.671376L501.762786,133.478508L502.330055,132.475287L501.975026,132.039577L496.846531,132.114147L492.922828,134.798292L488.116499,136.871745L487.397865,132.359786L484.412327,128.026426L480.041441,128.992630L476.303656,130.539504L471.121552,130.323109L458.627627,126.466391L454.495062,127.397266L449.672168,126.645983L443.378659,131.779088L437.719940,133.338882L437.148276,133.622047L437.757226,134.556540L423.200811,147.240055L411.615058,149.205592L408.592235,153.762396L407.646511,161.818905L410.379119,166.606470L411.105044,173.184833L408.257176,176.814702L407.631634,180.895105L406.473911,185.042279L406.790448,192.324158L403.476901,200.589021L401.630056,204.207418L391.794436,209.925831L379.352647,215.808021L374.006819,218.305498L368.593471,220.833666L362.725675,223.603560L357.551639,226.045953L346.167188,231.496104L342.116512,233.461856L341.699082,233.585881L349.507540,257.069020L348.372226,262.361748L354.171321,260.981545L352.475788,266.358574L360.271595,267.682486Z " data-iso2="IQ"/><path d="M240.081879,336.767998L238.922199,340.809186L245.001511,342.162342L254.487463,343.621725L268.664242,345.862842L274.098284,341.905499L280.204883,337.449320L286.720147,327.747483L294.515685,326.317827L304.585256,324.507757L311.484793,315.104417L320.434650,310.607308L308.632529,298.627552L301.499791,291.493849L293.733979,283.765322L299.012554,282.408735L306.242754,280.563605L312.610592,278.964328L319.429232,277.257617L333.486837,273.750808L347.336116,270.362959L349.137876,268.963001L352.475788,266.358574L354.171321,260.981545L348.372226,262.361748L349.507540,257.069020L341.699082,233.585881L339.093421,234.928557L334.699376,237.244485L328.946116,240.256372L319.295208,245.382642L310.345351,250.185084L297.701079,257.101668L290.011285,261.353622L284.024798,261.152586L279.884942,260.445451L276.080118,258.903938L272.081603,256.215906L267.480438,254.064210L261.255656,250.564719L260.443714,250.438254L256.489052,252.293892L254.643895,259.655918L255.278202,264.678158L253.824903,269.409917L254.695816,275.113480L253.333385,280.116931L252.812167,285.276841L251.010166,291.278178L250.574696,298.743536L248.024602,302.915825L245.872665,307.450220L244.234655,312.215592L244.457858,320.055974L241.941376,325.364784L240.176660,333.748821L239.446607,336.297226L240.081879,336.767998Z " data-iso2="JO"/><path d="M193.672415,197.883218L200.215449,195.897952L203.424457,192.778365L207.556781,190.894475L211.994411,190.685907L210.553791,185.727033L211.793376,181.862756L216.395024,179.353351L220.132568,177.566441L228.449592,172.845887L223.617423,173.374664L212.366756,178.408109L208.010988,179.368442L203.866977,180.606097L199.042608,181.289376L193.663141,180.991602L186.448300,180.299075L184.147221,184.736705L180.201083,185.704597L174.728523,185.570815L171.325797,188.749855L167.480042,187.562406L168.235694,192.525194L170.447084,196.802746L176.768604,199.285829L181.846652,199.010222L187.177871,199.270952L192.196199,198.154187L193.672415,197.883218Z " data-iso2="CY"/><path d="M266.445293,200.503246L264.122288,204.252262L257.927474,208.526142L256.980785,213.109750L255.377138,219.258996L252.503189,222.833058L250.571051,226.701221L248.821185,230.416597L245.887541,235.524345L243.780422,240.200323L242.685824,241.197941L247.086436,241.063918L251.390042,241.875618L254.532066,238.439252L260.400827,234.657588L260.607706,234.563771L261.069471,234.400021L261.270506,234.310601L265.023168,231.198304L268.362554,228.009774L266.013495,224.456191L273.243213,220.752019L276.176883,216.976949L280.644239,214.028429L281.441063,207.677156L278.968944,203.730776L276.876969,199.762229L270.056372,199.635738L266.058098,199.546317L266.445293,200.503246Z " data-iso2="LB"/><path d="M264.708829,165.249910L269.736189,167.008541L272.781689,164.305660L276.838960,163.348972L276.837727,158.559450L281.143290,156.979204L285.286818,155.620204L282.408714,152.638286L282.505961,146.681793L284.547731,141.443425L291.812804,142.437640L297.009999,145.624480L303.612486,145.726821L307.888564,145.125403L312.631312,143.234222L317.486130,142.355751L321.886234,140.494297L326.921636,138.796566L331.997727,139.556131L337.239258,142.705687L341.163228,144.582018L346.293412,144.611744L350.701315,144.969212L355.474031,145.110795L362.964719,144.023488L369.129806,143.092640L374.214904,141.454871L379.754477,139.280766L385.137831,136.451152L391.027580,134.641833L395.628960,133.204859L403.983269,133.874977L410.528019,134.477842L415.505657,134.202477L423.334835,133.003823L427.489568,131.857304L431.603343,129.537731L437.038618,130.291667L437.187518,133.011382L437.148276,133.622047L437.719940,133.338882L443.378659,131.779088L449.672168,126.645983L454.495062,127.397266L458.627627,126.466391L471.121552,130.323109L476.303656,130.539504L480.041441,128.992630L484.412327,128.026426L487.397865,132.359786L488.116499,136.871745L492.922828,134.798292L496.846531,132.114147L501.975026,132.039577L502.330055,132.475287L502.475524,131.797610L498.611274,125.021858L496.891375,120.033257L496.686453,115.934332L489.080960,113.079146L489.892179,107.077808L493.910207,101.193206L489.753518,99.442616L489.728670,93.250965L489.352680,87.972123L485.871711,83.735528L487.027477,79.219414L483.228523,73.869673L486.612245,71.702886L491.977104,71.714091L494.035466,65.706186L497.535413,61.993732L500.973253,64.067185L503.019177,65.970079L503.108383,65.567767L498.417797,61.334577L494.300591,57.071875L488.801709,54.838317L482.412936,55.796720L472.337280,53.308250L472.156456,48.717833L470.049604,43.982161L473.665079,39.430477L474.323269,35.427299L472.446938,31.238953L467.391084,28.658864L465.946792,24.351585L460.682585,24.169072L457.808636,20.691775L451.546810,15.680765L445.880773,13.328034L442.570872,15.818676L437.451893,16.931796L432.299301,15.665889L427.065061,15.383233L423.062874,17.739851L416.067564,15.383233L415.059706,15.227015L414.180270,16.362329L411.130133,19.252120L407.102857,20.565552L401.987550,23.097124L397.669041,24.213916L393.566470,25.598756L389.568170,27.803069L384.549842,28.769514L378.027287,31.406348L371.661164,30.431165L366.539505,29.000517L361.974419,27.869599L357.532875,26.879539L353.449041,27.757984L348.668552,28.167613L342.272944,29.001482L334.298297,31.406348L329.935211,31.674396L324.685880,30.624642L320.080828,29.600701L315.434577,28.539717L311.893914,25.645289L308.057675,28.495114L301.544367,25.598756L297.058489,25.334354L294.364855,22.367312L289.947677,20.018253L285.863602,19.485562L282.096090,21.343371L278.354633,22.780587L273.228363,19.723883L270.105853,16.517314L269.832928,12.326743L266.065631,9.642384L260.804854,11.269431L256.520226,12.356470L252.216379,11.749718L247.666866,10.156070L243.653716,6.269626L244.201256,1.785919L240.154251,0.156674L235.984401,3.015773L230.370767,4.080644L222.947064,3.983665L218.792331,3.551868L213.014706,2.970929L208.748118,3.134920L203.319919,2.829587L197.058094,2.010837L192.263210,3.097635L188.205216,4.125248L184.020515,5.815634L178.905209,6.507947L173.782557,7.579868L167.007314,9.985002L163.876281,12.948372L159.360408,14.727723L154.151526,16.998566L149.241623,19.098609L144.063191,21.790286L141.892491,25.446210L134.729785,27.169754L129.540149,27.207039L122.206134,25.680617L117.352763,24.847473L112.973353,24.116937L105.542359,25.528072L99.384831,24.898911L94.690841,24.632070L86.935509,23.156604L82.732528,23.566207L80.275982,27.894688L82.624317,31.562566L86.935509,33.342159L93.041117,35.457052L98.617974,35.374922L103.733281,35.658087L97.958096,37.176441L93.517517,37.139638L85.900579,38.316124L79.192106,38.814934L75.200882,40.646447L78.493950,43.664150L82.952809,44.335984L78.678179,46.502771L74.590458,45.568519L70.428167,46.327816L65.998069,45.479071L58.961828,45.259272L54.367766,45.895778L50.306099,46.298090L52.889834,43.001108L48.515302,42.068786L43.962412,42.867326L47.834221,45.426695L43.727737,47.779667L39.260354,47.883723L33.758094,45.754436L28.724648,43.937799L24.540189,45.810244L20.452468,45.464221L15.087609,48.449544L10.489875,50.918018L7.668061,55.413412L3.423908,56.625227L2.977234,60.861822L3.036713,65.292161L0.631579,69.941065L13.177907,68.680037L17.355048,67.994801L22.380693,67.427291L20.489512,72.186578L16.565542,74.807839L19.094192,78.234448L22.356569,81.043851L21.826077,85.289720L26.959932,84.844762L22.875857,87.830540L18.248396,90.263444L22.343649,96.214335L26.703089,97.323810L22.991358,99.661664L17.284150,101.351113L14.704302,97.539722L12.775836,92.714871L8.336249,92.131975L9.144036,97.701515L6.111939,102.029272L10.255468,103.928253L13.364065,106.563881L16.997580,104.278189L23.482850,108.015733L32.078885,110.284860L32.596457,114.958881L30.742321,120.286454L31.397562,125.461214L35.563499,125.747783L38.567827,129.318173L40.287966,132.959247L35.418271,132.452637L31.788429,134.604548L36.907649,135.743990L43.675843,136.436302L48.292099,136.026673L53.273382,135.825878L57.986645,135.430884L54.129445,138.230504L50.175748,142.005574L45.313853,142.444930L38.843433,143.301234L43.668284,144.753059L50.087533,143.319756L54.322921,142.221486L54.241274,146.703719L58.537348,144.567141L59.371217,140.639525L63.611724,141.207061L68.663451,141.760204L73.600158,145.304271L77.319421,143.345811L81.492675,146.495634L81.775599,150.579441L84.076410,154.492208L87.605627,156.666554L92.676090,157.783346L97.307464,160.121201L105.311597,157.619596L109.736334,156.413115L115.765441,156.286892L119.465967,154.700802L120.121209,150.039943L120.992604,143.829770L123.399186,139.971095L127.902139,140.628320L131.982542,140.360032L140.533732,141.417344L148.385346,144.626594L152.607091,146.257313L159.645262,148.680943L163.567034,151.782009L166.962470,156.100491L173.000851,160.627569L177.520610,162.243143L182.739973,161.461437L187.587260,160.851013L194.072288,159.957450L200.870691,159.548062L205.278380,158.483190L209.609032,154.991258L214.027175,155.169644L216.625786,151.268323L220.184730,148.032992L225.955278,144.380982L230.166569,142.275578L235.582571,142.106226L239.471213,144.001320L244.778067,146.622099L249.286381,148.684588L253.338746,146.944238L257.033671,145.006497L261.259302,142.757822L265.097497,139.801502L270.264966,140.155324L272.612095,145.741671L267.897144,149.019648L261.933092,153.777245L265.231521,160.739157L266.209894,163.222990L264.708829,165.249910Z M8.419826,10.209679L9.417686,10.752100L14.026651,12.881360L15.798685,18.186498L9.871919,22.315177L7.422449,26.775483L6.446757,31.898108L1.962567,36.032120L0.000000,36.356788L0.000000,36.745415L2.724063,40.200014L7.180215,40.147879L14.294699,39.142702L19.216529,38.383136L17.046070,42.407518L9.946463,44.644962L5.225668,46.953090L5.262953,51.468963L10.542037,49.708133L14.331957,47.325434L16.965897,44.058689L22.283955,41.793180L26.089020,40.199773L30.280770,39.142702L37.488320,33.226899L43.936331,29.076053L48.470726,29.887512L52.268205,28.524840L56.582801,27.192163L62.431593,27.810146L66.269788,29.530259L74.522481,30.449420L80.126358,27.806473L82.033407,23.330593L77.494134,22.404597L73.592840,21.302682L64.628106,18.026420L60.201439,16.246828L55.894161,13.342884L51.482585,7.062295L53.109391,4.140339L52.700002,2.941202L47.860302,2.419958L42.521524,3.648606L37.369173,3.082544L33.832396,0.015091L27.855309,0.000000L24.532630,2.375623L15.396614,3.186841L13.100655,7.073767L8.961764,7.235802L8.153736,9.994491L8.419826,10.209679Z M41.672779,40.743426L41.877487,40.720991L42.372650,40.549682L44.840856,39.615430L45.194679,39.395872L45.207599,39.042050L44.494834,38.651184L43.325666,38.487433L42.998166,38.457466L42.030274,38.413104L41.583358,38.427498L40.179756,38.517160L39.822529,38.666060L39.658779,38.915585L39.731393,39.942930L40.384705,40.341356L41.672779,40.743426Z " data-iso2="TR"/><path d="M812.894743,458.697582L810.400456,461.970680L806.735499,465.084425L802.376809,461.583004L797.897498,461.205298L797.893853,465.389757L797.022458,469.793774L798.057603,473.781084L796.957376,478.418811L801.504932,478.715593L803.517002,482.719737L799.539180,484.011484L794.312259,484.115781L789.755455,485.679462L791.157074,491.153979L787.387847,498.158536L785.764472,503.013114L783.247750,507.525314L781.818307,511.378386L781.900196,515.730482L781.416236,519.803353L793.932596,538.566662L787.394682,558.193325L776.077726,592.168558L695.644540,618.990842L716.629479,663.208402L725.535698,682.157870L731.931788,679.820016L737.158469,679.365809L741.000578,677.482161L744.626748,675.620680L749.548364,673.206324L759.689558,671.644574L764.968373,671.674541L769.007846,673.733144L773.367527,673.483619L778.088081,671.447452L781.766172,667.407979L784.111586,662.720798L782.257664,657.840139L785.079478,654.802440L787.298426,651.153834L793.336808,648.696806L797.521508,648.316902L802.331241,647.788367L808.031159,647.021510L812.326241,647.354613L815.119535,643.778862L817.686463,640.584730L819.233096,636.835714L819.977785,631.366826L822.539084,627.833722L827.043993,624.349107L830.774220,622.770791L837.542413,621.020925L842.843665,620.306204L847.467480,620.633731L852.195593,618.215676L849.842620,612.249936L850.274659,607.651933L848.249454,600.619606L850.404796,596.010640L852.195593,589.633313L852.578900,585.273899L855.226001,581.826570L858.308545,578.788603L862.221284,575.743345L862.236161,579.860792L867.682881,582.645562L871.666305,577.284617L874.078731,573.382840L875.545432,569.459110L878.047278,565.572425L881.051605,561.696703L885.649366,557.404301L890.652817,554.366575L895.567115,548.491729L897.093511,544.344529L900.745521,540.353573L902.532672,535.860109L904.986028,532.572884L906.002437,527.033071L900.727025,523.354980L896.333972,522.223097L891.628268,517.711110L889.324294,513.178940L885.727583,510.648815L883.317087,506.391715L879.767176,502.052539L872.824028,494.793069L868.270870,495.157854L863.624887,494.696089L859.179698,492.529544L854.972804,492.648691L844.035027,489.655353L834.279313,486.707074L829.411575,483.051151L826.127995,479.875514L822.040275,474.198032L819.062028,471.502683L816.977344,468.047821L813.976689,461.674381L812.956394,459.097964L812.894743,458.697582Z M805.025116,429.582770L807.327160,433.804782L806.657283,438.443689L810.112171,441.096633L809.966943,440.468679L812.628894,436.112911L814.438213,429.880812L811.478488,426.865280L815.517719,427.529796L813.656238,423.700848L809.166688,425.495317L805.823415,427.892866L805.216663,428.987464L805.025116,429.582770Z M874.049004,587.656598L877.537264,584.681756L879.145548,580.288944L881.139096,573.879934L877.578195,579.540610L873.953955,582.239846L873.847969,587.574469L874.049004,587.656598Z " data-iso2="OM"/><path d="M657.950500,427.297318L654.354298,425.324008L655.084110,429.382002L656.938032,436.380958L658.635736,432.226225L658.568724,428.198198L657.950500,427.297318Z M662.745866,442.814092L663.356290,438.648129L662.209530,442.546045L662.745866,442.814092Z M659.492013,424.780596L659.592665,424.624163L659.583149,424.086353L659.223725,423.782736L658.866498,423.596550L658.438346,423.857280L658.242913,424.285432L658.486595,424.720902L659.492013,424.780596Z " data-iso2="BH"/><path d="M503.019177,65.970079L500.973253,64.067185L497.535413,61.993732L494.035466,65.706186L491.977104,71.714091L486.612245,71.702886L483.228523,73.869673L487.027477,79.219414L485.871711,83.735528L489.352680,87.972123L489.728670,93.250965L489.753518,99.442616L493.910207,101.193206L489.892179,107.077808L489.080960,113.079146L496.686453,115.934332L496.891375,120.033257L498.611274,125.021858L502.475524,131.797610L502.330055,132.475287L501.762786,133.478508L505.433559,135.671376L506.401451,142.329670L509.783725,144.984089L508.381356,148.741870L510.897087,152.083669L515.513343,153.077642L517.240559,159.704253L520.695206,162.842604L524.770490,164.196725L527.675881,167.220781L531.837690,167.796600L538.795205,168.009591L542.034932,170.582603L537.802224,171.531973L534.298846,174.424444L536.577248,179.822675L539.836944,184.154560L535.793558,188.510087L531.949760,190.820172L528.537519,194.218261L525.712059,197.727991L527.187070,201.955821L523.119560,201.191886L519.787973,204.630209L523.688785,208.826837L522.699449,213.305425L518.849084,217.567135L522.780373,219.888424L525.383353,224.003915L528.179327,227.757569L532.124742,226.738506L532.973460,230.766748L536.152983,233.424812L539.882995,239.005315L537.435723,243.627414L541.402340,244.637953L545.958903,245.304425L549.779541,247.516780L554.871474,250.326425L559.860075,254.414387L563.568134,256.990563L568.902999,257.415042L572.792874,261.144813L575.831297,265.233016L578.612421,269.086303L581.408396,272.209536L584.810880,275.910063L583.113176,279.811866L580.328406,286.386315L580.283803,292.112046L580.239227,297.286833L584.244818,297.324118L589.427378,298.753775L589.330640,308.358659L592.744838,312.673470L596.202889,315.283285L599.464060,321.344075L603.068063,325.112338L604.411730,325.435683L609.106203,323.436318L613.499256,321.783432L612.933676,317.286081L613.879160,310.815902L617.936886,310.287125L622.311417,312.619619L618.327994,313.570705L613.342824,313.746651L621.637413,319.080791L626.596528,319.557165L630.127435,323.927810L634.637946,321.671576L638.681064,319.147562L642.753935,318.336103L645.635444,322.274923L646.387423,326.325359L649.566732,329.288755L652.615877,333.361600L658.814363,337.732244L659.648472,344.254799L664.210637,347.264729L666.874544,350.784672L664.912438,354.701084L669.089580,356.272109L670.906217,361.662781L672.581512,366.785406L675.135493,370.180814L677.577672,376.435107L680.392168,379.398718L684.465012,381.773858L689.423646,381.848429L695.082606,382.101627L699.106961,384.126590L705.395108,387.082669L710.182674,389.420765L712.148211,393.512158L715.938158,396.784506L722.497999,401.065971L726.928096,402.838005L732.922116,404.505741L735.151787,407.938221L739.794365,411.154788L744.879946,412.599295L751.037474,411.914327L755.642767,412.394614L761.937992,415.570250L767.775579,417.774081L772.131347,417.424146L780.433253,412.122921L785.611927,410.514396L792.115718,409.933699L792.354039,405.912990L797.424770,404.334432L801.711569,403.675519L805.912835,400.507441L811.675610,399.170877L817.148171,400.224544L821.392324,400.559603L825.815345,402.495387L829.929147,407.983038L831.458973,412.361242L832.181227,416.858325L834.230823,428.553978L836.961501,433.499450L838.240328,437.466308L843.737227,438.369118L849.265595,438.101071L852.962449,439.910390L856.733633,441.466538L860.862285,443.696450L865.172243,442.583813L869.886713,442.404704L875.802275,443.227368L880.939776,444.247395L883.910705,447.460317L889.917403,446.720989L894.803663,445.416590L899.137237,447.449353L904.211640,447.095531L908.976770,448.152844L915.380178,448.353879L922.003143,450.982216L921.567701,446.998793L926.005089,447.017315L927.494467,451.093831L935.997409,452.322453L941.633961,453.491380L947.527087,455.978376L952.482557,452.791536L953.284501,452.847102L954.306726,448.815430L954.589409,444.571491L955.337743,436.768152L958.193171,432.457228L958.803836,428.428960L965.341026,422.986126L969.853468,421.686848L972.161623,417.695865L977.343942,415.942595L982.578181,415.197906L989.807899,413.976816L994.901038,414.438367L996.308045,408.452121L997.298587,403.157946L998.150977,398.578975L991.565297,398.065289L985.552756,398.236598L985.169448,394.230524L985.779872,384.707529L984.417227,379.197683L984.707924,373.122043L980.675769,371.290288L976.820767,368.198497L972.198641,365.966628L962.262369,363.475987L958.937860,360.948060L954.366206,356.681712L951.584840,351.340522L948.379719,346.868260L946.380569,343.111712L944.478183,339.288366L938.018968,332.605947L933.322297,327.776004L933.465810,327.688031L938.030172,322.952359L941.738258,319.140244L946.883291,313.890887L957.232838,302.938234L959.693512,296.676409L958.647403,292.566279L956.763755,287.845725L948.982101,286.106822L941.961461,285.194979L932.853456,284.018493L931.850235,279.632998L932.174063,271.893240L933.019404,265.404325L929.571833,253.788845L927.784682,248.569482L926.072342,243.342319L927.025384,238.145124L930.391066,234.459715L932.957753,230.727532L929.105190,228.683538L924.739665,226.947074L924.590765,222.881547L924.285432,217.937523L923.622631,213.626358L928.197957,208.485211L932.512795,208.254449L930.681308,204.090201L936.280306,199.459094L938.275811,195.741761L940.003241,189.643686L939.580719,185.364177L941.827437,180.753523L944.318079,176.222559L944.623411,175.204462L944.319044,173.820614L943.704009,173.136584L943.931126,168.211108L942.296520,161.439001L941.849846,155.608973L941.985585,148.042267L935.148664,145.877410L927.978400,145.937104L923.578296,145.974389L918.980294,145.654207L914.322865,139.943326L911.802471,136.175546L905.090084,133.145406L897.934938,130.904048L893.832340,127.828822L893.372291,123.854887L888.717033,122.199829L884.711201,119.564174L878.104801,118.503189L873.818001,118.752473L869.692995,119.184539L862.757138,118.296552L848.440974,111.655091L843.856159,111.634371L839.842768,110.361388L836.161005,102.383095L831.365880,104.445584L826.114352,103.636082L821.518789,102.528323L817.431336,102.550490L813.217123,103.481579L811.776262,107.353173L807.405617,107.144579L802.535949,107.740368L798.451873,106.824638L794.044211,106.764676L788.660830,107.248876L782.227455,110.167670L777.965020,112.207992L774.863714,114.910632L770.977269,117.427114L770.199209,122.713730L766.174586,124.686799L762.198480,125.386911L754.678521,127.635319L746.836674,127.090122L749.507413,135.475712L750.155113,140.713843L746.223834,142.005587L740.326550,141.249937L747.512898,139.010524L742.229686,138.998828L736.816106,139.429409L727.268707,140.825944L717.531567,143.323649L705.432858,145.321105L696.110203,147.649932L685.291572,146.339180L678.947624,144.939243L673.690973,144.150209L668.382175,142.493433L660.716347,138.345089L655.013196,135.673092L650.597970,132.501118L648.241103,128.432161L640.341263,124.359304L627.050504,123.391410L622.612860,121.857448L617.017251,118.380388L613.726362,112.308386L612.357872,105.474728L611.745736,101.471235L611.783259,97.744011L611.754433,97.739071L606.213490,99.252302L600.044731,92.941960L594.974268,91.668736L591.757701,88.984376L588.768250,85.637672L592.308404,83.727969L596.720221,82.778358L594.589004,79.128278L591.707254,76.129312L595.037608,73.698606L595.167986,69.618202L590.655785,65.556562L583.429472,64.673936L576.181474,69.067231L572.138329,70.265912L566.987452,73.765376L562.804923,76.501897L559.193603,78.377987L555.178496,80.574501L552.317466,83.497208L549.319733,86.213491L544.923999,85.373297L540.076471,87.056393L533.517113,85.901833L524.314086,84.181934L519.649580,82.793449L517.292694,78.463762L511.877657,77.066030L509.720359,72.879373L506.094430,70.102403L504.504642,66.196954L503.019177,65.970079Z " data-iso2="IR"/><path d="M586.929446,323.650756L586.702088,323.644886L581.032138,321.865293L571.051049,321.932305L564.684926,325.558502L562.920183,329.638664L559.603233,336.056949L555.623696,341.373291L553.340683,344.751679L549.495894,348.132961L549.540497,348.163679L556.286523,348.908341L561.550462,349.503916L573.969843,350.941131L576.129071,354.931873L577.052386,358.885570L580.105203,363.286156L596.553066,363.144573L598.652600,359.421906L595.919992,355.304190L593.403511,351.968476L591.720415,348.163679L590.581214,344.098367L588.109336,340.606435L583.653157,342.101174L587.264237,334.206699L591.117550,335.848354L590.804900,331.783042L588.176589,328.391521L587.134127,324.612778L586.929446,323.650756Z M593.498292,324.605728L590.588773,330.197194L592.800163,334.277356L596.902975,333.234894L595.942160,327.702880L593.498292,324.605728Z " data-iso2="KW"/><path d="M681.581306,464.537608L684.126308,460.237165L685.365893,453.357357L682.536546,450.044051L682.369124,445.684637L682.715388,441.697300L684.766432,437.776975L684.062942,433.814030L679.937212,432.691394L677.992877,428.522053L673.467757,428.026889L669.849119,430.202951L667.496146,435.118938L665.908341,438.906928L664.391194,442.992934L662.209530,446.581604L662.298977,451.179606L663.635542,456.421378L664.823232,460.460609L664.666559,464.599500L668.136538,469.484796L673.653942,469.231598L677.659534,467.467124L681.581306,464.537608Z " data-iso2="QA"/><path d="M810.112171,441.096633L806.657283,438.443689L807.327160,433.804782L805.025116,429.582770L804.855523,430.643996L803.546970,434.487794L799.114674,438.834314L794.602715,441.444130L790.797167,444.052230L787.852561,447.227839L784.835072,449.953397L781.892878,453.104186L777.857078,457.660990L768.244661,463.468582L764.700567,473.129488L761.506194,475.962507L755.862325,479.112062L745.899973,483.348925L738.223367,483.765845L733.591993,482.068141L728.484459,481.301285L723.957141,481.688479L716.362638,481.293726L712.449871,479.674479L707.301166,483.546315L702.483633,485.485744L697.967760,486.129781L693.898802,485.284708L689.986063,483.750995L688.314413,477.950694L684.494739,481.822503L711.299466,513.392386L779.874723,521.582946L781.416236,519.803353L781.900196,515.730482L781.818307,511.378386L783.247750,507.525314L785.764472,503.013114L787.387847,498.158536L791.157074,491.153979L789.755455,485.679462L794.312259,484.115781L799.539180,484.011484L803.517002,482.719737L801.504932,478.715593L796.957376,478.418811L798.057603,473.781084L797.022458,469.793774L797.893853,465.389757L797.897498,461.205298L802.376809,461.583004L806.735499,465.084425L810.400456,461.970680L812.894743,458.697582L812.442708,456.291000L812.874532,451.131090L812.539473,446.857210L812.182220,442.214873L811.679524,441.838883L810.112171,441.096633Z M743.487547,481.599058L747.835783,481.196987L745.324663,477.772067L741.462343,479.008006L743.487547,481.599058Z M761.941878,473.697748L759.638146,471.201987L758.134160,472.705732L761.941878,473.697748Z " data-iso2="AE"/><path d="M449.268521,690.259031L450.288586,696.885774L449.986943,702.514716L447.581978,706.070066L446.885847,710.891168L449.309422,716.825460L445.843286,719.855900L450.251366,722.216181L452.700913,727.323971L452.939160,732.126489L455.154244,738.235734L456.029213,745.089578L456.863180,750.949380L459.055870,755.141350L461.911357,760.494826L461.821989,764.992045L461.155613,770.628503L461.821989,775.215089L465.217264,780.572298L467.361691,784.555802L467.382858,784.877159L482.305398,780.369540L488.943754,781.868208L492.155199,776.622595L501.142802,774.374237L503.237024,769.127500L510.280343,764.754607L511.041552,757.756795L517.365494,746.882238L521.950748,736.003967L526.902374,728.124205L531.265296,722.869885L543.762133,709.034536L543.764019,704.242876L543.769949,681.517719L520.795170,672.425223L508.030449,667.373416L494.590662,662.054475L486.191893,661.615201L479.595009,664.368283L474.818515,663.148980L471.541238,659.995531L466.352669,658.471210L461.358379,661.468163L458.486327,669.306693L457.732321,674.589436L459.722348,680.199794L456.550289,683.274918L452.239348,688.047629L448.783438,689.268619L449.268521,690.259031Z " data-iso2="YE"/><path d="M695.644520,618.990875L674.627865,623.756223L642.053471,631.142186L608.987450,638.637559L589.123174,660.266038L571.695766,679.241182L543.762587,709.655198L543.762133,709.034536L531.265296,722.869885L526.902374,728.124205L521.950748,736.003967L517.365494,746.882238L511.041552,757.756795L510.280343,764.754607L503.237024,769.127500L501.142802,774.374237L492.155199,776.622595L488.943754,781.868208L482.305398,780.369540L467.382858,784.877159L467.410056,785.289204L473.109783,787.135772L478.667993,789.252207L486.229113,790.069379L492.208192,788.327057L495.432195,785.464183L500.688762,785.996532L505.409426,786.998013L508.432504,784.120209L511.541065,780.568591L515.695765,778.830001L520.438720,776.242593L523.212201,772.750563L529.987822,769.630754L536.056269,768.848987L542.772175,768.729813L547.414719,768.942036L553.371302,768.327758L557.592977,766.648756L561.796145,764.880386L566.166801,764.053883L570.179984,762.847669L577.670551,757.840418L580.980138,755.435427L585.423393,753.531190L588.950778,751.619488L593.559783,753.082585L599.851446,752.773554L604.795428,751.816783L611.049872,748.767784L615.422368,744.274272L617.304315,739.505217L622.039703,737.353402L626.477437,735.432395L634.340200,732.357322L640.985450,730.346973L646.875161,730.510780L653.028988,726.787890L656.833782,725.026959L660.895433,724.300996L665.255045,723.355370L670.787079,722.149155L675.295570,721.162629L682.097368,718.329484L686.646658,716.572310L694.546539,712.082505L700.734007,709.967935L701.396600,705.820648L699.890736,699.795147L701.750289,694.933120L707.450118,689.082623L710.904801,686.953124L715.320244,685.806471L719.534557,684.112566L725.535824,682.157969L717.436449,664.929186L716.629375,663.208337L695.644520,618.990875Z M442.853951,715.742101L442.518872,718.039114L442.768366,718.418852L443.196393,718.846981L443.401101,718.932617L443.626362,718.833944L444.078827,718.106114L444.614832,717.086049L445.076499,715.716052L445.299919,714.204539L444.905227,713.936511L443.929744,714.115222L443.125635,715.172507L442.853951,715.742101Z M446.089100,752.632088L446.327347,753.116072L448.069719,755.245545L448.553576,755.424282L448.788141,755.342352L449.056246,753.078827L448.940906,752.349157L448.706238,751.725600L448.207453,751.213675L447.541077,751.425874L446.089100,752.632088Z M759.923320,790.666888L756.152809,789.291293L751.913547,787.758409L744.496397,790.376518L739.908047,787.744426L735.863063,787.381457L733.292544,790.666888L759.923320,790.666888Z " data-iso2="YD"/><path d="M260.607706,234.563771L260.400827,234.657588L254.532066,238.439252L251.390042,241.875618L247.086436,241.063918L242.685824,241.197941L242.728711,241.672626L242.065187,246.586415L238.523532,249.950408L237.183537,256.834104L235.537968,262.716052L234.056176,267.146633L232.164968,271.915435L228.888948,277.830997L226.454355,281.144302L220.579483,287.294754L216.074814,290.541048L211.354019,292.432255L206.313525,293.742765L202.032059,294.249133L197.430679,293.165472L193.112196,294.919010L189.472838,292.156649L180.506416,296.080620L175.634281,295.704389L171.965947,293.012953L168.403358,290.098046L167.573135,291.709975L167.372099,292.774632L167.774908,300.699944L168.606648,303.299129L169.022517,310.784784L172.349475,314.423643L173.389149,315.463317L175.468497,317.022829L175.676432,318.270438L175.156595,318.270438L175.640840,323.638060L174.998286,324.048672L175.056050,325.424479L176.965994,329.794400L178.056705,334.403821L179.441786,338.737422L183.447377,344.675392L190.999233,351.058322L191.723470,359.978211L194.065212,364.194353L197.400712,367.544944L201.475513,369.830905L205.471856,375.541759L208.502479,378.400859L212.456176,380.738955L216.774659,383.203542L221.063415,381.632303L224.734216,378.415735L225.285160,373.062322L224.145959,369.186868L227.243379,362.667958L229.402634,359.190876L231.018450,349.876233L233.125543,343.115598L236.196882,338.268339L239.067186,336.205822L239.446607,336.297226L240.176660,333.748821L241.941376,325.364784L244.457858,320.055974L244.234655,312.215592L245.872665,307.450220L248.024602,302.915825L250.574696,298.743536L251.010166,291.278178L252.812167,285.276841L253.333385,280.116931L254.695816,275.113480L253.824903,269.409917L255.278202,264.678158L254.643895,259.655918L256.489052,252.293892L260.443714,250.438254L260.743543,250.484955L262.966135,247.151067L262.966135,243.004052L260.916461,237.808366L261.069471,234.400021L260.607706,234.563771Z " data-iso2="IL"/><path d="M261.255656,250.564719L267.480438,254.064210L272.081603,256.215906L276.080118,258.903938L279.884942,260.445451L284.024798,261.152586L290.011285,261.353622L297.701079,257.101668L310.345351,250.185084L319.295208,245.382642L328.946116,240.256372L334.699376,237.244485L339.093421,234.928557L341.699082,233.585881L342.116512,233.461856L346.167188,231.496104L357.551639,226.045953L362.725675,223.603560L368.593471,220.833666L374.006819,218.305498L379.352647,215.808021L391.794436,209.925831L401.630056,204.207418L403.476901,200.589021L406.790448,192.324158L406.473911,185.042279L407.631634,180.895105L408.257176,176.814702L411.105044,173.184833L410.379119,166.606470L407.646511,161.818905L408.592235,153.762396L411.615058,149.205592L423.200811,147.240055L437.757226,134.556540L437.148276,133.622047L437.187518,133.011382L437.038618,130.291667L431.603343,129.537731L427.489568,131.857304L423.334835,133.003823L415.505657,134.202477L410.528019,134.477842L403.983269,133.874977L395.628960,133.204859L391.027580,134.641833L385.137831,136.451152L379.754477,139.280766L374.214904,141.454871L369.129806,143.092640L362.964719,144.023488L355.474031,145.110795L350.701315,144.969212L346.293412,144.611744L341.163228,144.582018L337.239258,142.705687L331.997727,139.556131L326.921636,138.796566L321.886234,140.494297L317.486130,142.355751L312.631312,143.234222L307.888564,145.125403L303.612486,145.726821L297.009999,145.624480L291.812804,142.437640L284.547731,141.443425L282.505961,146.681793L282.408714,152.638286L285.286818,155.620204L281.143290,156.979204L276.837727,158.559450L276.838960,163.348972L272.781689,164.305660L269.736189,167.008541L264.708829,165.249910L263.548908,166.941529L262.149219,171.103580L259.654932,174.506306L262.957033,177.283544L264.888662,183.073097L263.735094,187.324085L263.437079,192.454269L264.948865,197.104165L265.440115,198.287969L266.058098,199.546317L270.056372,199.635738L276.876969,199.762229L278.968944,203.730776L281.441063,207.677156L280.644239,214.028429L276.176883,216.976949L273.243213,220.752019L266.013495,224.456191L268.362554,228.009774L265.023168,231.198304L261.270506,234.310601L261.069471,234.400021L260.916461,237.808366L262.966135,243.004052L262.966135,247.151067L260.743543,250.484955L261.255656,250.564719Z " data-iso2="SY"/><path d="M776.077721,592.168561L787.394758,558.193418L793.932542,538.566571L781.416293,519.803344L711.299494,513.392404L684.494767,481.822635L683.054037,477.965590L679.167339,476.528542L679.796495,471.591973L675.768383,468.442409L671.843955,470.045106L665.264657,466.454376L661.891366,463.641835L659.313186,458.301370L656.372217,452.672300L654.994679,447.050796L651.350011,445.401575L646.037411,439.415185L645.112338,434.860271L641.890277,430.804193L642.778029,426.118908L646.231076,428.630011L647.936229,423.291336L644.995055,419.434496L642.117277,416.288664L641.957048,411.437782L646.309299,414.114482L640.767142,408.555812L636.320820,407.216005L631.935031,403.016723L628.947638,399.546957L621.883258,395.407135L618.679705,392.680076L623.525015,392.611210L619.997630,389.763238L615.695994,388.899516L610.930441,387.924135L609.850866,382.894414L605.878685,376.706997L602.349460,368.758700L601.891372,364.458751L596.553003,363.144507L580.105169,363.286126L577.052438,358.885664L576.129001,354.931940L574.061058,351.342437L561.550535,349.503897L556.286402,348.908382L550.590152,348.297733L546.271951,349.273216L538.109385,348.618958L500.569638,345.609837L476.142984,327.646118L456.163266,312.952823L452.402645,310.285787L429.894645,294.323546L412.605584,287.309576L385.086014,271.896837L376.006759,270.354776L360.271518,267.682525L352.475729,266.358669L349.137920,268.963128L333.486832,273.750767L320.039887,277.104425L312.610467,278.964286L306.242831,280.563710L299.012598,282.408846L293.733945,283.765320L301.499773,291.493929L306.726891,296.698654L320.434579,310.607267L311.484673,315.104511L307.069435,324.061779L294.515763,326.317865L286.720076,327.747449L280.204993,337.449214L274.098304,341.905454L268.664228,345.862910L254.487408,343.621753L245.001498,342.162413L238.948184,341.254007L237.250393,345.781007L235.762423,354.021489L234.391225,360.106705L234.279566,364.505276L231.740651,370.031890L228.955922,374.261029L235.869277,375.817201L239.904853,374.759916L244.286757,376.211894L247.890524,380.374058L250.518807,383.739475L253.266316,387.566662L255.150001,392.659524L259.416564,396.322801L261.434302,400.298867L264.271077,404.550399L267.640380,407.309054L269.390114,411.247849L272.465239,414.017649L275.045157,418.053277L279.698846,426.396215L282.513228,429.702224L285.692649,432.565074L285.469126,437.065999L291.783182,440.855966L295.669880,446.516581L297.043635,450.412584L299.906484,453.253091L301.060704,458.792793L298.879057,462.474680L300.695869,466.186425L303.480598,469.417892L305.654678,472.775845L307.728245,477.515120L313.826447,478.010274L317.143499,480.370607L320.762194,482.544687L326.986678,486.170847L332.375558,490.602905L335.238510,497.678227L338.478566,500.425173L339.378281,505.244971L343.665193,512.327706L345.772400,515.892463L348.884744,522.923050L350.023831,528.447823L348.028487,532.803550L347.015784,542.929865L349.525046,547.851454L351.580105,551.939179L350.038759,557.858543L351.889110,562.575475L354.469131,566.718978L358.324028,569.464647L361.795685,575.698639L364.170793,579.548015L368.727752,583.218859L372.867523,584.603759L377.442887,585.854607L381.515786,589.272173L385.890123,591.937778L391.654984,597.710103L395.104350,599.744661L396.621360,604.664461L401.980383,614.126189L405.511550,617.231068L405.498462,622.554763L406.328748,627.007323L409.481992,630.186642L412.564581,633.388303L413.603256,637.989793L416.817852,642.525074L419.008906,647.133159L422.016953,650.282723L430.132892,655.167195L435.847445,660.583990L436.350013,665.792294L437.087250,670.416126L441.502488,671.793562L442.100048,675.946472L445.634897,678.427666L447.235753,682.701592L448.774133,687.035028L448.783438,689.268619L452.239348,688.047629L456.550289,683.274918L459.722348,680.199794L457.732321,674.589436L458.486327,669.306693L461.358379,661.468163L466.352669,658.471210L471.541238,659.995531L474.818515,663.148980L479.595009,664.368283L486.191893,661.615201L494.590662,662.054475L508.030449,667.373416L520.795170,672.425223L543.769949,681.517719L543.764019,704.242876L543.762587,709.655198L571.695766,679.241182L589.123174,660.266038L608.987450,638.637559L642.053471,631.142186L674.627865,623.756223L695.644520,618.990875L776.077721,592.168561Z M424.563435,672.597671L423.870985,677.147063L425.994757,673.232451L424.563435,672.597671Z M432.187951,684.302448L431.435786,680.199794L426.484339,680.385995L423.379562,677.310871L424.749533,681.130491L429.179700,681.331518L432.187951,684.302448Z " data-iso2="SA"/></g><g class="" id="lands"><path d="M336.681237,645.487797L332.183886,642.174251L327.671685,639.806643L323.569088,638.213236L321.789495,634.348718L319.064446,631.284937L314.016124,627.960427L309.533892,626.776623L305.271216,622.889697L303.123166,616.657598L302.207436,612.488015L301.819974,608.366896L300.068419,603.839818L300.718058,599.361231L299.690472,594.960887L298.346563,586.256668L298.543953,581.394532L299.709235,577.254649L298.186727,573.416453L297.278288,566.220134L296.107404,560.831393L300.674688,563.942939L298.975751,559.988035L295.446533,556.496103L291.217257,549.050232L290.219611,544.269985L289.683517,539.318642L290.602919,538.556182L286.303200,538.573980L281.418655,538.596389L274.769635,538.581512L267.457788,538.589071L260.920597,538.640992L251.911287,538.618798L244.100631,538.544254L239.677851,538.529377L232.053354,538.633674L222.459459,538.678277L216.305576,538.663401L211.972002,538.589071L207.318702,538.566662L198.752152,538.551786L191.187617,538.574463L176.939672,538.506968L172.807616,538.477242L168.675050,538.447489L159.479555,538.484774L148.288581,538.573980L146.537026,534.274261L141.743859,535.714881L138.326256,538.603707L126.018490,538.581512L122.012658,538.551786L116.078332,538.536936L108.669747,538.544254L95.557839,538.611265L85.856003,538.678277L81.641817,538.678277L68.343482,538.573980L60.905171,538.484774L44.956358,538.573980L36.594757,538.708004L29.245866,538.544254L24.785801,538.596389L16.826271,538.663401L7.846688,538.566662L0.000000,538.527758L0.000000,790.666888L257.640053,790.666888L265.842186,787.426145L270.608791,787.444909L271.054232,782.980930L271.005742,778.915644L273.451566,769.936061L276.139598,766.324955L277.751768,762.177540L279.415859,758.246251L278.753300,754.150998L281.247587,746.400036L280.606954,740.927234L278.909491,724.353148L281.336793,719.900642L283.153403,714.472684L284.791654,708.523482L287.256242,704.532527L288.931537,699.990573L290.629241,695.456178L292.892552,691.733269L292.328420,687.764695L291.288155,682.113294L293.832647,678.310427L293.942547,671.981590L300.490942,671.860486L304.938838,671.665776L307.546455,667.334374L309.373787,663.197439L313.554601,662.344808L317.597718,660.751374L321.327972,658.063583L327.299582,658.301904L330.292678,654.772472L332.437057,649.768995L336.498723,645.915199L336.681237,645.487797Z " data-iso2="SD"/><path d="M360.271595,267.682486L376.006693,270.354649L385.085937,271.896913L412.605626,287.309631L429.894675,294.323436L452.402605,310.285919L456.163308,312.952722L476.143069,327.646108L500.569708,345.609912L538.109487,348.618850L546.272035,349.273127L549.495894,348.132961L553.340683,344.751679L555.623696,341.373291L559.603233,336.056949L562.920183,329.638664L564.684926,325.558502L571.051049,321.932305L581.032138,321.865293L586.702088,323.644886L586.929446,323.650756L587.357329,323.235283L592.693909,323.107103L596.657364,324.910578L602.758843,326.142845L603.473806,325.751979L603.068063,325.112338L599.464060,321.344075L596.202889,315.283285L592.744838,312.673470L589.330640,308.358659L589.427378,298.753775L584.244818,297.324118L580.239227,297.286833L580.283803,292.112046L580.328406,286.386315L583.113176,279.811866L584.810880,275.910063L581.408396,272.209536L578.612421,269.086303L575.831297,265.233016L572.792874,261.144813L568.902999,257.415042L563.568134,256.990563L559.860075,254.414387L554.871474,250.326425L549.779541,247.516780L545.958903,245.304425L541.402340,244.637953L537.435723,243.627414L539.882995,239.005315L536.152983,233.424812L532.973460,230.766748L532.124742,226.738506L528.179327,227.757569L525.383353,224.003915L522.780373,219.888424L518.849084,217.567135L522.699449,213.305425L523.688785,208.826837L519.787973,204.630209L523.119560,201.191886L527.187070,201.955821L525.712059,197.727991L528.537519,194.218261L531.949760,190.820172L535.793558,188.510087L539.836944,184.154560L536.577248,179.822675L534.298846,174.424444L537.802224,171.531973L542.034932,170.582603L538.795205,168.009591L531.837690,167.796600L527.675881,167.220781L524.770490,164.196725L520.695206,162.842604L517.240559,159.704253L515.513343,153.077642L510.897087,152.083669L508.381356,148.741870L509.783725,144.984089L506.401451,142.329670L505.433559,135.671376L501.762786,133.478508L502.330055,132.475287L501.975026,132.039577L496.846531,132.114147L492.922828,134.798292L488.116499,136.871745L487.397865,132.359786L484.412327,128.026426L480.041441,128.992630L476.303656,130.539504L471.121552,130.323109L458.627627,126.466391L454.495062,127.397266L449.672168,126.645983L443.378659,131.779088L437.719940,133.338882L437.148276,133.622047L437.757226,134.556540L423.200811,147.240055L411.615058,149.205592L408.592235,153.762396L407.646511,161.818905L410.379119,166.606470L411.105044,173.184833L408.257176,176.814702L407.631634,180.895105L406.473911,185.042279L406.790448,192.324158L403.476901,200.589021L401.630056,204.207418L391.794436,209.925831L379.352647,215.808021L374.006819,218.305498L368.593471,220.833666L362.725675,223.603560L357.551639,226.045953L346.167188,231.496104L342.116512,233.461856L341.699082,233.585881L349.507540,257.069020L348.372226,262.361748L354.171321,260.981545L352.475788,266.358574L360.271595,267.682486Z " data-iso2="IQ"/><path d="M240.081879,336.767998L238.922199,340.809186L245.001511,342.162342L254.487463,343.621725L268.664242,345.862842L274.098284,341.905499L280.204883,337.449320L286.720147,327.747483L294.515685,326.317827L304.585256,324.507757L311.484793,315.104417L320.434650,310.607308L308.632529,298.627552L301.499791,291.493849L293.733979,283.765322L299.012554,282.408735L306.242754,280.563605L312.610592,278.964328L319.429232,277.257617L333.486837,273.750808L347.336116,270.362959L349.137876,268.963001L352.475788,266.358574L354.171321,260.981545L348.372226,262.361748L349.507540,257.069020L341.699082,233.585881L339.093421,234.928557L334.699376,237.244485L328.946116,240.256372L319.295208,245.382642L310.345351,250.185084L297.701079,257.101668L290.011285,261.353622L284.024798,261.152586L279.884942,260.445451L276.080118,258.903938L272.081603,256.215906L267.480438,254.064210L261.255656,250.564719L260.443714,250.438254L256.489052,252.293892L254.643895,259.655918L255.278202,264.678158L253.824903,269.409917L254.695816,275.113480L253.333385,280.116931L252.812167,285.276841L251.010166,291.278178L250.574696,298.743536L248.024602,302.915825L245.872665,307.450220L244.234655,312.215592L244.457858,320.055974L241.941376,325.364784L240.176660,333.748821L239.446607,336.297226L240.081879,336.767998Z " data-iso2="JO"/><path d="M52.934437,2.620993L52.364943,1.470829L51.508666,0.521459L51.001475,0.000000L33.832396,0.015091L37.369173,3.082544L42.521524,3.648606L47.860302,2.419958L52.700002,2.941202L52.934437,2.620993Z M8.419826,10.209679L8.153736,9.994491L8.961764,7.235802L13.100655,7.073767L15.396614,3.186841L24.532630,2.375623L27.855309,0.000000L0.000000,0.000000L0.000000,20.309839L4.049423,17.490326L2.219410,12.365744L4.982468,9.446710L6.833951,10.293980L8.419826,10.209679Z " data-iso2="BG"/><path d="M193.672415,197.883218L200.215449,195.897952L203.424457,192.778365L207.556781,190.894475L211.994411,190.685907L210.553791,185.727033L211.793376,181.862756L216.395024,179.353351L220.132568,177.566441L228.449592,172.845887L223.617423,173.374664L212.366756,178.408109L208.010988,179.368442L203.866977,180.606097L199.042608,181.289376L193.663141,180.991602L186.448300,180.299075L184.147221,184.736705L180.201083,185.704597L174.728523,185.570815L171.325797,188.749855L167.480042,187.562406L168.235694,192.525194L170.447084,196.802746L176.768604,199.285829L181.846652,199.010222L187.177871,199.270952L192.196199,198.154187L193.672415,197.883218Z " data-iso2="CY"/><path d="M8.419826,10.209679L6.833951,10.293980L4.982468,9.446710L2.219410,12.365744L4.049423,17.490326L0.000000,20.309839L0.000000,36.356788L1.962567,36.032120L6.446757,31.898108L7.422449,26.775483L9.871919,22.315177L15.798685,18.186498L14.026651,12.881360L9.417686,10.752100L8.419826,10.209679Z M0.000000,189.624972L4.250458,189.516953L6.811784,182.510465L1.741294,184.595364L0.000000,189.624972Z M0.000000,80.492724L3.114930,77.838006L2.396563,81.799235L7.422449,83.474531L12.727346,83.593946L12.902300,78.746418L9.596554,76.073746L4.760257,72.611325L0.000000,75.086905L0.000000,80.492724Z M57.904516,151.432073L49.915233,154.186875L44.837211,158.840658L45.134985,163.858986L49.475903,164.342945L52.595705,161.446560L55.640990,158.312123L57.897198,154.082819L57.904516,151.432073Z M0.000000,104.285932L3.047918,101.552872L3.018191,95.153350L0.000000,104.285932Z M20.668354,119.422860L26.609997,117.650799L18.736242,114.742995L14.752550,116.161448L18.847830,117.914960L20.668354,119.422860Z M29.357481,179.383319L30.303206,173.985088L31.732621,168.356336L28.769493,172.220613L28.806510,178.609145L29.357481,179.383319Z M0.000000,122.538392L4.503414,121.507517L8.308211,118.462259L0.907185,119.452586L0.000000,122.538392Z M24.778269,145.274545L31.397562,141.320847L27.220662,140.829356L23.397075,142.969821L24.778269,145.274545Z M11.249414,147.843161L11.368346,147.791026L11.055696,147.225205L9.670883,146.324325L9.004411,146.126935L5.799048,147.489580L5.992765,148.386573L6.454316,149.365911L6.804225,149.637631L7.191446,149.760450L7.913699,149.719492L8.267281,149.574505L9.618721,148.140935L11.249414,147.843161Z M24.890098,138.513910L22.531523,134.511723L23.817909,138.305316L24.890098,138.513910Z " data-iso2="GR"/><path d="M266.445293,200.503246L264.122288,204.252262L257.927474,208.526142L256.980785,213.109750L255.377138,219.258996L252.503189,222.833058L250.571051,226.701221L248.821185,230.416597L245.887541,235.524345L243.780422,240.200323L242.685824,241.197941L247.086436,241.063918L251.390042,241.875618L254.532066,238.439252L260.400827,234.657588L260.607706,234.563771L261.069471,234.400021L261.270506,234.310601L265.023168,231.198304L268.362554,228.009774L266.013495,224.456191L273.243213,220.752019L276.176883,216.976949L280.644239,214.028429L281.441063,207.677156L278.968944,203.730776L276.876969,199.762229L270.056372,199.635738L266.058098,199.546317L266.445293,200.503246Z " data-iso2="LB"/><path d="M264.708829,165.249910L269.736189,167.008541L272.781689,164.305660L276.838960,163.348972L276.837727,158.559450L281.143290,156.979204L285.286818,155.620204L282.408714,152.638286L282.505961,146.681793L284.547731,141.443425L291.812804,142.437640L297.009999,145.624480L303.612486,145.726821L307.888564,145.125403L312.631312,143.234222L317.486130,142.355751L321.886234,140.494297L326.921636,138.796566L331.997727,139.556131L337.239258,142.705687L341.163228,144.582018L346.293412,144.611744L350.701315,144.969212L355.474031,145.110795L362.964719,144.023488L369.129806,143.092640L374.214904,141.454871L379.754477,139.280766L385.137831,136.451152L391.027580,134.641833L395.628960,133.204859L403.983269,133.874977L410.528019,134.477842L415.505657,134.202477L423.334835,133.003823L427.489568,131.857304L431.603343,129.537731L437.038618,130.291667L437.187518,133.011382L437.148276,133.622047L437.719940,133.338882L443.378659,131.779088L449.672168,126.645983L454.495062,127.397266L458.627627,126.466391L471.121552,130.323109L476.303656,130.539504L480.041441,128.992630L484.412327,128.026426L487.397865,132.359786L488.116499,136.871745L492.922828,134.798292L496.846531,132.114147L501.975026,132.039577L502.330055,132.475287L502.475524,131.797610L498.611274,125.021858L496.891375,120.033257L496.686453,115.934332L489.080960,113.079146L489.892179,107.077808L493.910207,101.193206L489.753518,99.442616L489.728670,93.250965L489.352680,87.972123L485.871711,83.735528L487.027477,79.219414L483.228523,73.869673L486.612245,71.702886L491.977104,71.714091L494.035466,65.706186L497.535413,61.993732L500.973253,64.067185L503.019177,65.970079L503.108383,65.567767L498.417797,61.334577L494.300591,57.071875L488.801709,54.838317L482.412936,55.796720L472.337280,53.308250L472.156456,48.717833L470.049604,43.982161L473.665079,39.430477L474.323269,35.427299L472.446938,31.238953L467.391084,28.658864L465.946792,24.351585L460.682585,24.169072L457.808636,20.691775L451.546810,15.680765L445.880773,13.328034L442.570872,15.818676L437.451893,16.931796L432.299301,15.665889L427.065061,15.383233L423.062874,17.739851L416.067564,15.383233L415.059706,15.227015L414.180270,16.362329L411.130133,19.252120L407.102857,20.565552L401.987550,23.097124L397.669041,24.213916L393.566470,25.598756L389.568170,27.803069L384.549842,28.769514L378.027287,31.406348L371.661164,30.431165L366.539505,29.000517L361.974419,27.869599L357.532875,26.879539L353.449041,27.757984L348.668552,28.167613L342.272944,29.001482L334.298297,31.406348L329.935211,31.674396L324.685880,30.624642L320.080828,29.600701L315.434577,28.539717L311.893914,25.645289L308.057675,28.495114L301.544367,25.598756L297.058489,25.334354L294.364855,22.367312L289.947677,20.018253L285.863602,19.485562L282.096090,21.343371L278.354633,22.780587L273.228363,19.723883L270.105853,16.517314L269.832928,12.326743L266.065631,9.642384L260.804854,11.269431L256.520226,12.356470L252.216379,11.749718L247.666866,10.156070L243.653716,6.269626L244.201256,1.785919L240.154251,0.156674L235.984401,3.015773L230.370767,4.080644L222.947064,3.983665L218.792331,3.551868L213.014706,2.970929L208.748118,3.134920L203.319919,2.829587L197.058094,2.010837L192.263210,3.097635L188.205216,4.125248L184.020515,5.815634L178.905209,6.507947L173.782557,7.579868L167.007314,9.985002L163.876281,12.948372L159.360408,14.727723L154.151526,16.998566L149.241623,19.098609L144.063191,21.790286L141.892491,25.446210L134.729785,27.169754L129.540149,27.207039L122.206134,25.680617L117.352763,24.847473L112.973353,24.116937L105.542359,25.528072L99.384831,24.898911L94.690841,24.632070L86.935509,23.156604L82.732528,23.566207L80.275982,27.894688L82.624317,31.562566L86.935509,33.342159L93.041117,35.457052L98.617974,35.374922L103.733281,35.658087L97.958096,37.176441L93.517517,37.139638L85.900579,38.316124L79.192106,38.814934L75.200882,40.646447L78.493950,43.664150L82.952809,44.335984L78.678179,46.502771L74.590458,45.568519L70.428167,46.327816L65.998069,45.479071L58.961828,45.259272L54.367766,45.895778L50.306099,46.298090L52.889834,43.001108L48.515302,42.068786L43.962412,42.867326L47.834221,45.426695L43.727737,47.779667L39.260354,47.883723L33.758094,45.754436L28.724648,43.937799L24.540189,45.810244L20.452468,45.464221L15.087609,48.449544L10.489875,50.918018L7.668061,55.413412L3.423908,56.625227L2.977234,60.861822L3.036713,65.292161L0.631579,69.941065L13.177907,68.680037L17.355048,67.994801L22.380693,67.427291L20.489512,72.186578L16.565542,74.807839L19.094192,78.234448L22.356569,81.043851L21.826077,85.289720L26.959932,84.844762L22.875857,87.830540L18.248396,90.263444L22.343649,96.214335L26.703089,97.323810L22.991358,99.661664L17.284150,101.351113L14.704302,97.539722L12.775836,92.714871L8.336249,92.131975L9.144036,97.701515L6.111939,102.029272L10.255468,103.928253L13.364065,106.563881L16.997580,104.278189L23.482850,108.015733L32.078885,110.284860L32.596457,114.958881L30.742321,120.286454L31.397562,125.461214L35.563499,125.747783L38.567827,129.318173L40.287966,132.959247L35.418271,132.452637L31.788429,134.604548L36.907649,135.743990L43.675843,136.436302L48.292099,136.026673L53.273382,135.825878L57.986645,135.430884L54.129445,138.230504L50.175748,142.005574L45.313853,142.444930L38.843433,143.301234L43.668284,144.753059L50.087533,143.319756L54.322921,142.221486L54.241274,146.703719L58.537348,144.567141L59.371217,140.639525L63.611724,141.207061L68.663451,141.760204L73.600158,145.304271L77.319421,143.345811L81.492675,146.495634L81.775599,150.579441L84.076410,154.492208L87.605627,156.666554L92.676090,157.783346L97.307464,160.121201L105.311597,157.619596L109.736334,156.413115L115.765441,156.286892L119.465967,154.700802L120.121209,150.039943L120.992604,143.829770L123.399186,139.971095L127.902139,140.628320L131.982542,140.360032L140.533732,141.417344L148.385346,144.626594L152.607091,146.257313L159.645262,148.680943L163.567034,151.782009L166.962470,156.100491L173.000851,160.627569L177.520610,162.243143L182.739973,161.461437L187.587260,160.851013L194.072288,159.957450L200.870691,159.548062L205.278380,158.483190L209.609032,154.991258L214.027175,155.169644L216.625786,151.268323L220.184730,148.032992L225.955278,144.380982L230.166569,142.275578L235.582571,142.106226L239.471213,144.001320L244.778067,146.622099L249.286381,148.684588L253.338746,146.944238L257.033671,145.006497L261.259302,142.757822L265.097497,139.801502L270.264966,140.155324L272.612095,145.741671L267.897144,149.019648L261.933092,153.777245L265.231521,160.739157L266.209894,163.222990L264.708829,165.249910Z M8.419826,10.209679L9.417686,10.752100L14.026651,12.881360L15.798685,18.186498L9.871919,22.315177L7.422449,26.775483L6.446757,31.898108L1.962567,36.032120L0.000000,36.356788L0.000000,36.745415L2.724063,40.200014L7.180215,40.147879L14.294699,39.142702L19.216529,38.383136L17.046070,42.407518L9.946463,44.644962L5.225668,46.953090L5.262953,51.468963L10.542037,49.708133L14.331957,47.325434L16.965897,44.058689L22.283955,41.793180L26.089020,40.199773L30.280770,39.142702L37.488320,33.226899L43.936331,29.076053L48.470726,29.887512L52.268205,28.524840L56.582801,27.192163L62.431593,27.810146L66.269788,29.530259L74.522481,30.449420L80.126358,27.806473L82.033407,23.330593L77.494134,22.404597L73.592840,21.302682L64.628106,18.026420L60.201439,16.246828L55.894161,13.342884L51.482585,7.062295L53.109391,4.140339L52.700002,2.941202L47.860302,2.419958L42.521524,3.648606L37.369173,3.082544L33.832396,0.015091L27.855309,0.000000L24.532630,2.375623L15.396614,3.186841L13.100655,7.073767L8.961764,7.235802L8.153736,9.994491L8.419826,10.209679Z M41.672779,40.743426L41.877487,40.720991L42.372650,40.549682L44.840856,39.615430L45.194679,39.395872L45.207599,39.042050L44.494834,38.651184L43.325666,38.487433L42.998166,38.457466L42.030274,38.413104L41.583358,38.427498L40.179756,38.517160L39.822529,38.666060L39.658779,38.915585L39.731393,39.942930L40.384705,40.341356L41.672779,40.743426Z " data-iso2="TR"/><path d="M812.894743,458.697582L810.400456,461.970680L806.735499,465.084425L802.376809,461.583004L797.897498,461.205298L797.893853,465.389757L797.022458,469.793774L798.057603,473.781084L796.957376,478.418811L801.504932,478.715593L803.517002,482.719737L799.539180,484.011484L794.312259,484.115781L789.755455,485.679462L791.157074,491.153979L787.387847,498.158536L785.764472,503.013114L783.247750,507.525314L781.818307,511.378386L781.900196,515.730482L781.416236,519.803353L793.932596,538.566662L787.394682,558.193325L776.077726,592.168558L695.644540,618.990842L716.629479,663.208402L725.535698,682.157870L731.931788,679.820016L737.158469,679.365809L741.000578,677.482161L744.626748,675.620680L749.548364,673.206324L759.689558,671.644574L764.968373,671.674541L769.007846,673.733144L773.367527,673.483619L778.088081,671.447452L781.766172,667.407979L784.111586,662.720798L782.257664,657.840139L785.079478,654.802440L787.298426,651.153834L793.336808,648.696806L797.521508,648.316902L802.331241,647.788367L808.031159,647.021510L812.326241,647.354613L815.119535,643.778862L817.686463,640.584730L819.233096,636.835714L819.977785,631.366826L822.539084,627.833722L827.043993,624.349107L830.774220,622.770791L837.542413,621.020925L842.843665,620.306204L847.467480,620.633731L852.195593,618.215676L849.842620,612.249936L850.274659,607.651933L848.249454,600.619606L850.404796,596.010640L852.195593,589.633313L852.578900,585.273899L855.226001,581.826570L858.308545,578.788603L862.221284,575.743345L862.236161,579.860792L867.682881,582.645562L871.666305,577.284617L874.078731,573.382840L875.545432,569.459110L878.047278,565.572425L881.051605,561.696703L885.649366,557.404301L890.652817,554.366575L895.567115,548.491729L897.093511,544.344529L900.745521,540.353573L902.532672,535.860109L904.986028,532.572884L906.002437,527.033071L900.727025,523.354980L896.333972,522.223097L891.628268,517.711110L889.324294,513.178940L885.727583,510.648815L883.317087,506.391715L879.767176,502.052539L872.824028,494.793069L868.270870,495.157854L863.624887,494.696089L859.179698,492.529544L854.972804,492.648691L844.035027,489.655353L834.279313,486.707074L829.411575,483.051151L826.127995,479.875514L822.040275,474.198032L819.062028,471.502683L816.977344,468.047821L813.976689,461.674381L812.956394,459.097964L812.894743,458.697582Z M805.025116,429.582770L807.327160,433.804782L806.657283,438.443689L810.112171,441.096633L809.966943,440.468679L812.628894,436.112911L814.438213,429.880812L811.478488,426.865280L815.517719,427.529796L813.656238,423.700848L809.166688,425.495317L805.823415,427.892866L805.216663,428.987464L805.025116,429.582770Z M874.049004,587.656598L877.537264,584.681756L879.145548,580.288944L881.139096,573.879934L877.578195,579.540610L873.953955,582.239846L873.847969,587.574469L874.049004,587.656598Z " data-iso2="OM"/><path d="M657.950500,427.297318L654.354298,425.324008L655.084110,429.382002L656.938032,436.380958L658.635736,432.226225L658.568724,428.198198L657.950500,427.297318Z M662.745866,442.814092L663.356290,438.648129L662.209530,442.546045L662.745866,442.814092Z M659.492013,424.780596L659.592665,424.624163L659.583149,424.086353L659.223725,423.782736L658.866498,423.596550L658.438346,423.857280L658.242913,424.285432L658.486595,424.720902L659.492013,424.780596Z " data-iso2="BH"/><path d="M503.019177,65.970079L500.973253,64.067185L497.535413,61.993732L494.035466,65.706186L491.977104,71.714091L486.612245,71.702886L483.228523,73.869673L487.027477,79.219414L485.871711,83.735528L489.352680,87.972123L489.728670,93.250965L489.753518,99.442616L493.910207,101.193206L489.892179,107.077808L489.080960,113.079146L496.686453,115.934332L496.891375,120.033257L498.611274,125.021858L502.475524,131.797610L502.330055,132.475287L501.762786,133.478508L505.433559,135.671376L506.401451,142.329670L509.783725,144.984089L508.381356,148.741870L510.897087,152.083669L515.513343,153.077642L517.240559,159.704253L520.695206,162.842604L524.770490,164.196725L527.675881,167.220781L531.837690,167.796600L538.795205,168.009591L542.034932,170.582603L537.802224,171.531973L534.298846,174.424444L536.577248,179.822675L539.836944,184.154560L535.793558,188.510087L531.949760,190.820172L528.537519,194.218261L525.712059,197.727991L527.187070,201.955821L523.119560,201.191886L519.787973,204.630209L523.688785,208.826837L522.699449,213.305425L518.849084,217.567135L522.780373,219.888424L525.383353,224.003915L528.179327,227.757569L532.124742,226.738506L532.973460,230.766748L536.152983,233.424812L539.882995,239.005315L537.435723,243.627414L541.402340,244.637953L545.958903,245.304425L549.779541,247.516780L554.871474,250.326425L559.860075,254.414387L563.568134,256.990563L568.902999,257.415042L572.792874,261.144813L575.831297,265.233016L578.612421,269.086303L581.408396,272.209536L584.810880,275.910063L583.113176,279.811866L580.328406,286.386315L580.283803,292.112046L580.239227,297.286833L584.244818,297.324118L589.427378,298.753775L589.330640,308.358659L592.744838,312.673470L596.202889,315.283285L599.464060,321.344075L603.068063,325.112338L604.411730,325.435683L609.106203,323.436318L613.499256,321.783432L612.933676,317.286081L613.879160,310.815902L617.936886,310.287125L622.311417,312.619619L618.327994,313.570705L613.342824,313.746651L621.637413,319.080791L626.596528,319.557165L630.127435,323.927810L634.637946,321.671576L638.681064,319.147562L642.753935,318.336103L645.635444,322.274923L646.387423,326.325359L649.566732,329.288755L652.615877,333.361600L658.814363,337.732244L659.648472,344.254799L664.210637,347.264729L666.874544,350.784672L664.912438,354.701084L669.089580,356.272109L670.906217,361.662781L672.581512,366.785406L675.135493,370.180814L677.577672,376.435107L680.392168,379.398718L684.465012,381.773858L689.423646,381.848429L695.082606,382.101627L699.106961,384.126590L705.395108,387.082669L710.182674,389.420765L712.148211,393.512158L715.938158,396.784506L722.497999,401.065971L726.928096,402.838005L732.922116,404.505741L735.151787,407.938221L739.794365,411.154788L744.879946,412.599295L751.037474,411.914327L755.642767,412.394614L761.937992,415.570250L767.775579,417.774081L772.131347,417.424146L780.433253,412.122921L785.611927,410.514396L792.115718,409.933699L792.354039,405.912990L797.424770,404.334432L801.711569,403.675519L805.912835,400.507441L811.675610,399.170877L817.148171,400.224544L821.392324,400.559603L825.815345,402.495387L829.929147,407.983038L831.458973,412.361242L832.181227,416.858325L834.230823,428.553978L836.961501,433.499450L838.240328,437.466308L843.737227,438.369118L849.265595,438.101071L852.962449,439.910390L856.733633,441.466538L860.862285,443.696450L865.172243,442.583813L869.886713,442.404704L875.802275,443.227368L880.939776,444.247395L883.910705,447.460317L889.917403,446.720989L894.803663,445.416590L899.137237,447.449353L904.211640,447.095531L908.976770,448.152844L915.380178,448.353879L922.003143,450.982216L921.567701,446.998793L926.005089,447.017315L927.494467,451.093831L935.997409,452.322453L941.633961,453.491380L947.527087,455.978376L952.482557,452.791536L953.284501,452.847102L954.306726,448.815430L954.589409,444.571491L955.337743,436.768152L958.193171,432.457228L958.803836,428.428960L965.341026,422.986126L969.853468,421.686848L972.161623,417.695865L977.343942,415.942595L982.578181,415.197906L989.807899,413.976816L994.901038,414.438367L996.308045,408.452121L997.298587,403.157946L998.150977,398.578975L991.565297,398.065289L985.552756,398.236598L985.169448,394.230524L985.779872,384.707529L984.417227,379.197683L984.707924,373.122043L980.675769,371.290288L976.820767,368.198497L972.198641,365.966628L962.262369,363.475987L958.937860,360.948060L954.366206,356.681712L951.584840,351.340522L948.379719,346.868260L946.380569,343.111712L944.478183,339.288366L938.018968,332.605947L933.322297,327.776004L933.465810,327.688031L938.030172,322.952359L941.738258,319.140244L946.883291,313.890887L957.232838,302.938234L959.693512,296.676409L958.647403,292.566279L956.763755,287.845725L948.982101,286.106822L941.961461,285.194979L932.853456,284.018493L931.850235,279.632998L932.174063,271.893240L933.019404,265.404325L929.571833,253.788845L927.784682,248.569482L926.072342,243.342319L927.025384,238.145124L930.391066,234.459715L932.957753,230.727532L929.105190,228.683538L924.739665,226.947074L924.590765,222.881547L924.285432,217.937523L923.622631,213.626358L928.197957,208.485211L932.512795,208.254449L930.681308,204.090201L936.280306,199.459094L938.275811,195.741761L940.003241,189.643686L939.580719,185.364177L941.827437,180.753523L944.318079,176.222559L944.623411,175.204462L944.319044,173.820614L943.704009,173.136584L943.931126,168.211108L942.296520,161.439001L941.849846,155.608973L941.985585,148.042267L935.148664,145.877410L927.978400,145.937104L923.578296,145.974389L918.980294,145.654207L914.322865,139.943326L911.802471,136.175546L905.090084,133.145406L897.934938,130.904048L893.832340,127.828822L893.372291,123.854887L888.717033,122.199829L884.711201,119.564174L878.104801,118.503189L873.818001,118.752473L869.692995,119.184539L862.757138,118.296552L848.440974,111.655091L843.856159,111.634371L839.842768,110.361388L836.161005,102.383095L831.365880,104.445584L826.114352,103.636082L821.518789,102.528323L817.431336,102.550490L813.217123,103.481579L811.776262,107.353173L807.405617,107.144579L802.535949,107.740368L798.451873,106.824638L794.044211,106.764676L788.660830,107.248876L782.227455,110.167670L777.965020,112.207992L774.863714,114.910632L770.977269,117.427114L770.199209,122.713730L766.174586,124.686799L762.198480,125.386911L754.678521,127.635319L746.836674,127.090122L749.507413,135.475712L750.155113,140.713843L746.223834,142.005587L740.326550,141.249937L747.512898,139.010524L742.229686,138.998828L736.816106,139.429409L727.268707,140.825944L717.531567,143.323649L705.432858,145.321105L696.110203,147.649932L685.291572,146.339180L678.947624,144.939243L673.690973,144.150209L668.382175,142.493433L660.716347,138.345089L655.013196,135.673092L650.597970,132.501118L648.241103,128.432161L640.341263,124.359304L627.050504,123.391410L622.612860,121.857448L617.017251,118.380388L613.726362,112.308386L612.357872,105.474728L611.745736,101.471235L611.783259,97.744011L611.754433,97.739071L606.213490,99.252302L600.044731,92.941960L594.974268,91.668736L591.757701,88.984376L588.768250,85.637672L592.308404,83.727969L596.720221,82.778358L594.589004,79.128278L591.707254,76.129312L595.037608,73.698606L595.167986,69.618202L590.655785,65.556562L583.429472,64.673936L576.181474,69.067231L572.138329,70.265912L566.987452,73.765376L562.804923,76.501897L559.193603,78.377987L555.178496,80.574501L552.317466,83.497208L549.319733,86.213491L544.923999,85.373297L540.076471,87.056393L533.517113,85.901833L524.314086,84.181934L519.649580,82.793449L517.292694,78.463762L511.877657,77.066030L509.720359,72.879373L506.094430,70.102403L504.504642,66.196954L503.019177,65.970079Z " data-iso2="IR"/><path d="M586.929446,323.650756L586.702088,323.644886L581.032138,321.865293L571.051049,321.932305L564.684926,325.558502L562.920183,329.638664L559.603233,336.056949L555.623696,341.373291L553.340683,344.751679L549.495894,348.132961L549.540497,348.163679L556.286523,348.908341L561.550462,349.503916L573.969843,350.941131L576.129071,354.931873L577.052386,358.885570L580.105203,363.286156L596.553066,363.144573L598.652600,359.421906L595.919992,355.304190L593.403511,351.968476L591.720415,348.163679L590.581214,344.098367L588.109336,340.606435L583.653157,342.101174L587.264237,334.206699L591.117550,335.848354L590.804900,331.783042L588.176589,328.391521L587.134127,324.612778L586.929446,323.650756Z M593.498292,324.605728L590.588773,330.197194L592.800163,334.277356L596.902975,333.234894L595.942160,327.702880L593.498292,324.605728Z " data-iso2="KW"/><path d="M681.581306,464.537608L684.126308,460.237165L685.365893,453.357357L682.536546,450.044051L682.369124,445.684637L682.715388,441.697300L684.766432,437.776975L684.062942,433.814030L679.937212,432.691394L677.992877,428.522053L673.467757,428.026889L669.849119,430.202951L667.496146,435.118938L665.908341,438.906928L664.391194,442.992934L662.209530,446.581604L662.298977,451.179606L663.635542,456.421378L664.823232,460.460609L664.666559,464.599500L668.136538,469.484796L673.653942,469.231598L677.659534,467.467124L681.581306,464.537608Z " data-iso2="QA"/><path d="M810.112171,441.096633L806.657283,438.443689L807.327160,433.804782L805.025116,429.582770L804.855523,430.643996L803.546970,434.487794L799.114674,438.834314L794.602715,441.444130L790.797167,444.052230L787.852561,447.227839L784.835072,449.953397L781.892878,453.104186L777.857078,457.660990L768.244661,463.468582L764.700567,473.129488L761.506194,475.962507L755.862325,479.112062L745.899973,483.348925L738.223367,483.765845L733.591993,482.068141L728.484459,481.301285L723.957141,481.688479L716.362638,481.293726L712.449871,479.674479L707.301166,483.546315L702.483633,485.485744L697.967760,486.129781L693.898802,485.284708L689.986063,483.750995L688.314413,477.950694L684.494739,481.822503L711.299466,513.392386L779.874723,521.582946L781.416236,519.803353L781.900196,515.730482L781.818307,511.378386L783.247750,507.525314L785.764472,503.013114L787.387847,498.158536L791.157074,491.153979L789.755455,485.679462L794.312259,484.115781L799.539180,484.011484L803.517002,482.719737L801.504932,478.715593L796.957376,478.418811L798.057603,473.781084L797.022458,469.793774L797.893853,465.389757L797.897498,461.205298L802.376809,461.583004L806.735499,465.084425L810.400456,461.970680L812.894743,458.697582L812.442708,456.291000L812.874532,451.131090L812.539473,446.857210L812.182220,442.214873L811.679524,441.838883L810.112171,441.096633Z M743.487547,481.599058L747.835783,481.196987L745.324663,477.772067L741.462343,479.008006L743.487547,481.599058Z M761.941878,473.697748L759.638146,471.201987L758.134160,472.705732L761.941878,473.697748Z " data-iso2="AE"/><path d="M944.319044,173.820614L944.623411,175.204462L944.318079,176.222559L941.827437,180.753523L939.580719,185.364177L940.003241,189.643686L938.275811,195.741761L936.280306,199.459094L930.681308,204.090201L932.512795,208.254449L928.197957,208.485211L923.622631,213.626358L924.285432,217.937523L924.590765,222.881547L924.739665,226.947074L929.105190,228.683538L932.957753,230.727532L930.391066,234.459715L927.025384,238.145124L926.072342,243.342319L927.784682,248.569482L929.571833,253.788845L933.019404,265.404325L932.174063,271.893240L931.850235,279.632998L932.853456,284.018493L941.961461,285.194979L948.982101,286.106822L956.763755,287.845725L958.647403,292.566279L959.693512,296.676409L957.232838,302.938234L946.883291,313.890887L941.738258,319.140244L938.030172,322.952359L933.465810,327.688031L933.322297,327.776004L936.541063,328.715375L958.066706,334.753998L964.038317,336.436611L970.367154,338.231053L974.648351,339.474552L978.683937,339.861746L995.965668,338.305624L1000.000000,337.943373L1000.000000,167.043090L995.995395,167.000982L995.466859,172.041745L993.393138,177.849606L988.437936,179.800239L983.199810,183.191788L978.441971,183.753937L974.090089,184.007375L968.096311,181.096141L964.855378,178.270440L958.818954,178.869633L952.877069,178.192224L948.882441,175.310716L944.850528,173.249915L944.319044,173.820614Z " data-iso2="AF"/><path d="M933.322297,327.776004L938.018968,332.605947L944.478183,339.288366L946.380569,343.111712L948.379719,346.868260L951.584840,351.340522L954.366206,356.681712L958.937860,360.948060L962.262369,363.475987L972.198641,365.966628L976.820767,368.198497L980.675769,371.290288L984.707924,373.122043L984.417227,379.197683L985.779872,384.707529L985.169448,394.230524L985.552756,398.236598L991.565297,398.065289L998.150977,398.578975L997.298587,403.157946L996.308045,408.452121L994.901038,414.438367L989.807899,413.976816L982.578181,415.197906L977.343942,415.942595L972.161623,417.695865L969.853468,421.686848L965.341026,422.986126L958.803836,428.428960L958.193171,432.457228L955.337743,436.768152L954.589409,444.571491L954.306726,448.815430L953.284501,452.847102L953.911973,452.709647L957.890786,453.475297L959.552170,457.143390L964.090452,455.017775L967.299487,452.493762L971.744434,452.931161L976.554409,451.537074L983.672538,451.190570L989.279363,452.203279L993.553243,451.360163L998.043035,452.125063L1000.000000,452.321879L1000.000000,337.943373L995.965668,338.305624L978.683937,339.861746L974.648351,339.474552L970.367154,338.231053L964.038317,336.436611L958.066706,334.753998L936.541063,328.715375L933.322297,327.776004Z " data-iso2="PK"/><path d="M754.678521,127.635319L762.198480,125.386911L766.174586,124.686799L770.199209,122.713730L770.977269,117.427114L774.863714,114.910632L777.965020,112.207992L782.227455,110.167670L788.660830,107.248876L794.044211,106.764676L798.451873,106.824638L802.535949,107.740368L807.405617,107.144579L811.776262,107.353173L813.217123,103.481579L817.431336,102.550490L821.518789,102.528323L826.114352,103.636082L831.365880,104.445584L836.161005,102.383095L839.842768,110.361388L843.856159,111.634371L848.440974,111.655091L862.757138,118.296552L869.692995,119.184539L873.818001,118.752473L878.104801,118.503189L884.711201,119.564174L888.717033,122.199829L893.372291,123.854887L893.832340,127.828822L897.934938,130.904048L905.090084,133.145406L911.802471,136.175546L914.322865,139.943326L918.980294,145.654207L923.578296,145.974389L927.978400,145.937104L935.148664,145.877410L941.985585,148.042267L941.849846,155.608973L942.296520,161.439001L943.931126,168.211108L943.704009,173.136584L944.319044,173.820614L944.850528,173.249915L948.882441,175.310716L952.877069,178.192224L958.818954,178.869633L964.855378,178.270440L968.096311,181.096141L974.090089,184.007375L978.441971,183.753937L983.199810,183.191788L988.437936,179.800239L993.393138,177.849606L995.466859,172.041745L995.995395,167.000982L1000.000000,167.043090L1000.000000,0.000000L745.719668,0.000000L747.567725,5.822953L749.954077,10.096601L750.408295,15.245545L755.341141,19.065435L758.952424,20.796317L763.055009,22.635365L768.899658,26.473558L769.227407,31.324483L765.571486,33.759083L758.270853,31.290855L757.537622,35.911015L751.819199,36.894018L745.512778,39.306443L741.413847,38.997214L739.976870,35.144156L735.702979,36.343059L730.986078,35.546227L725.446272,35.466300L723.123276,31.063746L720.357272,27.091529L719.735403,32.076477L718.063762,36.138124L716.570983,40.937145L714.166111,48.784838L715.471014,54.733782L720.140398,59.685346L723.510727,63.050801L721.142651,59.618578L730.282575,57.656472L733.938253,55.958758L737.891950,57.064575L733.554945,62.142365L736.265147,65.329447L742.093225,69.065295L737.590275,70.496667L733.387294,68.478759L728.763478,69.059446L730.516995,65.144250L727.487595,68.167498L725.699454,73.735653L726.863023,78.191817L726.738016,73.638668L731.850888,74.140533L736.905536,73.951553L739.623048,79.543263L743.040651,82.126995L748.349449,84.509691L747.329407,89.021658L744.679659,94.911006L745.769372,99.996731L744.179852,108.812562L744.068246,113.287490L746.083050,123.935836L746.835800,127.090061L754.678521,127.635319Z M726.996662,0.000000L730.025494,0.543883L732.769393,0.000000L726.996662,0.000000Z M706.539748,0.000000L708.578057,3.980006L707.250735,8.910857L710.811865,11.034766L710.644214,15.381275L714.802602,17.869972L716.885283,21.380313L718.432449,26.369263L717.676800,18.521570L719.861872,13.785906L718.149537,8.399131L721.090503,3.127615L725.051755,0.469318L706.539748,0.000000Z M415.059706,15.227015L416.067564,15.383233L423.062874,17.739851L427.065061,15.383233L432.299301,15.665889L437.451893,16.931796L442.570872,15.818676L445.880773,13.328034L451.546810,15.680765L457.808636,20.691775L460.682585,24.169072L465.946792,24.351585L467.391084,28.658864L472.446938,31.238953L474.323269,35.427299L473.665079,39.430477L470.049604,43.982161L472.156456,48.717833L472.337280,53.308250L482.412936,55.796720L488.801709,54.838317L494.300591,57.071875L498.417797,61.334577L503.108383,65.567767L503.019177,65.970079L504.504642,66.196954L506.094430,70.102403L509.720359,72.879373L511.877657,77.066030L517.292694,78.463762L519.649580,82.793449L524.314086,84.181934L533.517113,85.901833L540.076471,87.056393L544.923999,85.373297L549.319733,86.213491L552.317466,83.497208L555.178496,80.574501L559.193603,78.377987L562.804923,76.501897L566.987452,73.765376L572.138329,70.265912L576.181474,69.067231L583.429472,64.673936L590.655785,65.556562L595.167986,69.618202L595.037608,73.698606L591.707254,76.129312L594.589004,79.128278L596.720221,82.778358L592.308404,83.727969L588.768250,85.637672L591.757701,88.984376L594.974268,91.668736L600.044731,92.941960L606.213490,99.252302L611.754433,97.739071L611.675069,89.691776L612.791852,85.524128L613.443450,81.484899L615.325386,77.821668L619.157974,80.375427L616.872262,83.705549L620.630285,82.188402L621.711978,75.172874L625.851846,73.490024L623.275668,70.359232L625.632291,64.413700L626.441639,60.014784L627.452819,55.672191L630.505634,50.408230L635.818051,48.292460L639.993713,46.960139L645.501417,46.484018L650.359652,47.850328L648.319568,42.887798L644.178665,41.164904L640.028622,40.427124L633.851296,40.383645L629.403472,38.308820L628.539629,34.087075L621.343534,28.938131L619.403603,25.204476L616.216765,18.067596L612.592766,15.191448L606.545132,8.242688L602.985952,5.664805L599.011785,4.603581L596.653708,0.000000L419.041119,0.000000L421.205065,3.499947L420.345116,9.880705L417.325939,12.263404L415.059706,15.227015Z " data-iso2="SU"/><path d="M377.647625,706.021636L374.421810,702.471967L371.903372,705.910021L375.637270,707.711808L380.782572,710.384963L385.186347,710.783121L382.405464,707.577785L378.505859,709.046443L377.647625,706.021636Z M336.498723,645.915199L332.437057,649.768995L330.292678,654.772472L327.299582,658.301904L321.327972,658.063583L317.597718,660.751374L313.554601,662.344808L309.373787,663.197439L307.546455,667.334374L304.938838,671.665776L300.490942,671.860486L293.942547,671.981590L293.832647,678.310427L291.288155,682.113294L292.328420,687.764695L292.892552,691.733269L290.629241,695.456178L288.931537,699.990573L287.256242,704.532527L284.791654,708.523482L283.153403,714.472684L281.336793,719.900642L278.909491,724.353148L280.606954,740.927234L281.247587,746.400036L278.753300,754.150998L279.415859,758.246251L277.751768,762.177540L276.139598,766.324955L273.451566,769.936061L271.005742,778.915644L271.054232,782.980930L270.608791,787.444909L265.842186,787.426145L257.640053,790.666888L451.593397,790.666888L457.674612,787.619863L454.480454,782.861032L449.186520,783.956380L447.284108,779.172460L443.036309,775.460756L437.636122,773.960415L436.849028,768.938174L435.523668,764.977186L432.394833,761.869285L427.206644,757.650463L420.118268,755.260473L417.214324,751.180043L414.533851,747.568963L410.960057,742.989751L405.427803,736.091420L397.669309,733.801814L393.589120,731.702039L389.925906,727.629168L386.199057,725.983840L381.990473,728.509837L378.228564,726.601823L375.996454,721.689482L373.731213,715.753227L369.922744,713.471152L368.378550,719.174716L368.874679,724.166989L365.928116,721.322498L363.642155,713.121244L359.537628,712.207202L358.556816,705.560113L355.489122,702.112542L353.352062,695.969864L352.674626,691.651381L352.227737,687.310489L351.535425,682.299453L350.299486,677.221431L348.251846,671.175491L345.735150,663.253247L341.781453,655.070487L339.443571,651.745977L336.800143,646.812916L336.498723,645.915199Z " data-iso2="ET"/><path d="M449.268521,690.259031L450.288586,696.885774L449.986943,702.514716L447.581978,706.070066L446.885847,710.891168L449.309422,716.825460L445.843286,719.855900L450.251366,722.216181L452.700913,727.323971L452.939160,732.126489L455.154244,738.235734L456.029213,745.089578L456.863180,750.949380L459.055870,755.141350L461.911357,760.494826L461.821989,764.992045L461.155613,770.628503L461.821989,775.215089L465.217264,780.572298L467.361691,784.555802L467.382858,784.877159L482.305398,780.369540L488.943754,781.868208L492.155199,776.622595L501.142802,774.374237L503.237024,769.127500L510.280343,764.754607L511.041552,757.756795L517.365494,746.882238L521.950748,736.003967L526.902374,728.124205L531.265296,722.869885L543.762133,709.034536L543.764019,704.242876L543.769949,681.517719L520.795170,672.425223L508.030449,667.373416L494.590662,662.054475L486.191893,661.615201L479.595009,664.368283L474.818515,663.148980L471.541238,659.995531L466.352669,658.471210L461.358379,661.468163L458.486327,669.306693L457.732321,674.589436L459.722348,680.199794L456.550289,683.274918L452.239348,688.047629L448.783438,689.268619L449.268521,690.259031Z " data-iso2="YE"/><path d="M695.644520,618.990875L674.627865,623.756223L642.053471,631.142186L608.987450,638.637559L589.123174,660.266038L571.695766,679.241182L543.762587,709.655198L543.762133,709.034536L531.265296,722.869885L526.902374,728.124205L521.950748,736.003967L517.365494,746.882238L511.041552,757.756795L510.280343,764.754607L503.237024,769.127500L501.142802,774.374237L492.155199,776.622595L488.943754,781.868208L482.305398,780.369540L467.382858,784.877159L467.410056,785.289204L473.109783,787.135772L478.667993,789.252207L486.229113,790.069379L492.208192,788.327057L495.432195,785.464183L500.688762,785.996532L505.409426,786.998013L508.432504,784.120209L511.541065,780.568591L515.695765,778.830001L520.438720,776.242593L523.212201,772.750563L529.987822,769.630754L536.056269,768.848987L542.772175,768.729813L547.414719,768.942036L553.371302,768.327758L557.592977,766.648756L561.796145,764.880386L566.166801,764.053883L570.179984,762.847669L577.670551,757.840418L580.980138,755.435427L585.423393,753.531190L588.950778,751.619488L593.559783,753.082585L599.851446,752.773554L604.795428,751.816783L611.049872,748.767784L615.422368,744.274272L617.304315,739.505217L622.039703,737.353402L626.477437,735.432395L634.340200,732.357322L640.985450,730.346973L646.875161,730.510780L653.028988,726.787890L656.833782,725.026959L660.895433,724.300996L665.255045,723.355370L670.787079,722.149155L675.295570,721.162629L682.097368,718.329484L686.646658,716.572310L694.546539,712.082505L700.734007,709.967935L701.396600,705.820648L699.890736,699.795147L701.750289,694.933120L707.450118,689.082623L710.904801,686.953124L715.320244,685.806471L719.534557,684.112566L725.535824,682.157969L717.436449,664.929186L716.629375,663.208337L695.644520,618.990875Z M442.853951,715.742101L442.518872,718.039114L442.768366,718.418852L443.196393,718.846981L443.401101,718.932617L443.626362,718.833944L444.078827,718.106114L444.614832,717.086049L445.076499,715.716052L445.299919,714.204539L444.905227,713.936511L443.929744,714.115222L443.125635,715.172507L442.853951,715.742101Z M446.089100,752.632088L446.327347,753.116072L448.069719,755.245545L448.553576,755.424282L448.788141,755.342352L449.056246,753.078827L448.940906,752.349157L448.706238,751.725600L448.207453,751.213675L447.541077,751.425874L446.089100,752.632088Z M759.923320,790.666888L756.152809,789.291293L751.913547,787.758409L744.496397,790.376518L739.908047,787.744426L735.863063,787.381457L733.292544,790.666888L759.923320,790.666888Z " data-iso2="YD"/><path d="M260.607706,234.563771L260.400827,234.657588L254.532066,238.439252L251.390042,241.875618L247.086436,241.063918L242.685824,241.197941L242.728711,241.672626L242.065187,246.586415L238.523532,249.950408L237.183537,256.834104L235.537968,262.716052L234.056176,267.146633L232.164968,271.915435L228.888948,277.830997L226.454355,281.144302L220.579483,287.294754L216.074814,290.541048L211.354019,292.432255L206.313525,293.742765L202.032059,294.249133L197.430679,293.165472L193.112196,294.919010L189.472838,292.156649L180.506416,296.080620L175.634281,295.704389L171.965947,293.012953L168.403358,290.098046L167.573135,291.709975L167.372099,292.774632L167.774908,300.699944L168.606648,303.299129L169.022517,310.784784L172.349475,314.423643L173.389149,315.463317L175.468497,317.022829L175.676432,318.270438L175.156595,318.270438L175.640840,323.638060L174.998286,324.048672L175.056050,325.424479L176.965994,329.794400L178.056705,334.403821L179.441786,338.737422L183.447377,344.675392L190.999233,351.058322L191.723470,359.978211L194.065212,364.194353L197.400712,367.544944L201.475513,369.830905L205.471856,375.541759L208.502479,378.400859L212.456176,380.738955L216.774659,383.203542L221.063415,381.632303L224.734216,378.415735L225.285160,373.062322L224.145959,369.186868L227.243379,362.667958L229.402634,359.190876L231.018450,349.876233L233.125543,343.115598L236.196882,338.268339L239.067186,336.205822L239.446607,336.297226L240.176660,333.748821L241.941376,325.364784L244.457858,320.055974L244.234655,312.215592L245.872665,307.450220L248.024602,302.915825L250.574696,298.743536L251.010166,291.278178L252.812167,285.276841L253.333385,280.116931L254.695816,275.113480L253.824903,269.409917L255.278202,264.678158L254.643895,259.655918L256.489052,252.293892L260.443714,250.438254L260.743543,250.484955L262.966135,247.151067L262.966135,243.004052L260.916461,237.808366L261.069471,234.400021L260.607706,234.563771Z " data-iso2="IL"/><path d="M261.255656,250.564719L267.480438,254.064210L272.081603,256.215906L276.080118,258.903938L279.884942,260.445451L284.024798,261.152586L290.011285,261.353622L297.701079,257.101668L310.345351,250.185084L319.295208,245.382642L328.946116,240.256372L334.699376,237.244485L339.093421,234.928557L341.699082,233.585881L342.116512,233.461856L346.167188,231.496104L357.551639,226.045953L362.725675,223.603560L368.593471,220.833666L374.006819,218.305498L379.352647,215.808021L391.794436,209.925831L401.630056,204.207418L403.476901,200.589021L406.790448,192.324158L406.473911,185.042279L407.631634,180.895105L408.257176,176.814702L411.105044,173.184833L410.379119,166.606470L407.646511,161.818905L408.592235,153.762396L411.615058,149.205592L423.200811,147.240055L437.757226,134.556540L437.148276,133.622047L437.187518,133.011382L437.038618,130.291667L431.603343,129.537731L427.489568,131.857304L423.334835,133.003823L415.505657,134.202477L410.528019,134.477842L403.983269,133.874977L395.628960,133.204859L391.027580,134.641833L385.137831,136.451152L379.754477,139.280766L374.214904,141.454871L369.129806,143.092640L362.964719,144.023488L355.474031,145.110795L350.701315,144.969212L346.293412,144.611744L341.163228,144.582018L337.239258,142.705687L331.997727,139.556131L326.921636,138.796566L321.886234,140.494297L317.486130,142.355751L312.631312,143.234222L307.888564,145.125403L303.612486,145.726821L297.009999,145.624480L291.812804,142.437640L284.547731,141.443425L282.505961,146.681793L282.408714,152.638286L285.286818,155.620204L281.143290,156.979204L276.837727,158.559450L276.838960,163.348972L272.781689,164.305660L269.736189,167.008541L264.708829,165.249910L263.548908,166.941529L262.149219,171.103580L259.654932,174.506306L262.957033,177.283544L264.888662,183.073097L263.735094,187.324085L263.437079,192.454269L264.948865,197.104165L265.440115,198.287969L266.058098,199.546317L270.056372,199.635738L276.876969,199.762229L278.968944,203.730776L281.441063,207.677156L280.644239,214.028429L276.176883,216.976949L273.243213,220.752019L266.013495,224.456191L268.362554,228.009774L265.023168,231.198304L261.270506,234.310601L261.069471,234.400021L260.916461,237.808366L262.966135,243.004052L262.966135,247.151067L260.743543,250.484955L261.255656,250.564719Z " data-iso2="SY"/><path d="M290.800309,538.361982L288.246542,535.238480L281.415009,530.536207L277.457398,527.688339L274.166528,522.766723L268.329183,520.175457L263.266011,518.463117L259.878135,515.171979L257.748633,511.426876L256.103305,506.951934L254.785236,502.685372L253.167705,498.497241L253.713047,493.743074L253.005885,486.479717L261.726455,487.442248L258.828354,484.547578L252.945950,480.928940L250.250600,477.161429L246.282053,474.034282L243.787739,470.438052L242.350765,465.698735L239.618157,460.185244L236.773934,455.568747L233.840264,450.520451L231.115188,445.085177L227.933976,438.719054L224.920133,435.487610L221.867557,430.640350L219.149826,425.904920L217.012980,421.362993L215.173693,417.625181L211.938604,414.155443L211.778526,409.390286L208.774199,401.382267L207.035537,396.963132L204.280734,393.163938L201.413862,389.301376L199.098416,382.354556L199.377667,378.162538L195.338436,375.720386L192.404793,372.846437L188.428660,367.872686L184.638740,363.118519L182.010402,358.922829L179.322371,355.855162L176.154293,351.354165L176.910186,346.272472L175.554859,341.797556L171.304594,337.733692L169.241113,332.616937L172.487406,327.624664L174.666872,325.278286L174.998286,324.048672L175.640840,323.638060L175.156595,318.270438L175.676432,318.270438L175.468497,317.022829L173.680932,315.682154L173.389149,315.463317L172.549627,314.623796L172.159189,314.215518L170.964180,312.908477L169.022517,310.784784L168.606648,303.299129L167.774908,300.699944L167.508905,295.466305L167.372099,292.774632L167.291685,292.787284L163.254652,294.814954L160.317337,291.535021L155.198116,290.719675L155.831190,283.525286L159.364294,286.524011L164.051235,289.260291L160.678235,287.071310L158.243374,283.775776L153.016694,284.472699L148.806180,285.433300L144.387046,284.323825L139.945744,282.283744L135.399903,281.189120L132.957752,284.442972L125.891784,286.363906L121.878393,287.123445L131.587789,281.885319L127.592169,282.880766L121.967813,284.658885L117.894969,284.956658L114.052860,288.329417L111.670402,291.609350L107.686979,288.731729L100.702900,293.683071L96.168264,296.393270L92.110269,298.984537L88.193857,300.615015L83.979672,301.866045L78.656012,301.627724L74.519801,299.438770L67.360741,296.452965L63.165077,295.067884L57.383298,295.365899L50.243001,294.688248L48.172925,290.783041L43.104151,292.681539L37.845573,291.494090L35.172633,288.500726L29.971792,287.149526L22.678708,285.686229L16.022129,284.338675L8.740250,283.549410L3.386863,282.224050L0.000000,281.184244L0.000000,538.527758L7.846688,538.566662L16.826271,538.663401L24.785801,538.596389L29.245866,538.544254L36.594757,538.708004L44.956358,538.573980L60.905171,538.484774L68.343482,538.573980L81.641817,538.678277L85.856003,538.678277L95.557839,538.611265L108.669747,538.544254L116.078332,538.536936L122.012658,538.551786L126.018490,538.581512L138.326256,538.603707L141.743859,535.714881L146.537026,534.274261L148.288581,538.573980L159.479555,538.484774L168.675050,538.447489L172.807616,538.477242L176.939672,538.506968L191.187617,538.574463L198.752152,538.551786L207.318702,538.566662L211.972002,538.589071L216.305576,538.663401L222.459459,538.678277L232.053354,538.633674L239.677851,538.529377L244.100631,538.544254L251.911287,538.618798L260.920597,538.640992L267.457788,538.589071L274.769635,538.581512L281.418655,538.596389L286.303200,538.573980L290.602919,538.556182L290.800309,538.361982Z " data-iso2="EG"/><path d="M776.077721,592.168561L787.394758,558.193418L793.932542,538.566571L781.416293,519.803344L711.299494,513.392404L684.494767,481.822635L683.054037,477.965590L679.167339,476.528542L679.796495,471.591973L675.768383,468.442409L671.843955,470.045106L665.264657,466.454376L661.891366,463.641835L659.313186,458.301370L656.372217,452.672300L654.994679,447.050796L651.350011,445.401575L646.037411,439.415185L645.112338,434.860271L641.890277,430.804193L642.778029,426.118908L646.231076,428.630011L647.936229,423.291336L644.995055,419.434496L642.117277,416.288664L641.957048,411.437782L646.309299,414.114482L640.767142,408.555812L636.320820,407.216005L631.935031,403.016723L628.947638,399.546957L621.883258,395.407135L618.679705,392.680076L623.525015,392.611210L619.997630,389.763238L615.695994,388.899516L610.930441,387.924135L609.850866,382.894414L605.878685,376.706997L602.349460,368.758700L601.891372,364.458751L596.553003,363.144507L580.105169,363.286126L577.052438,358.885664L576.129001,354.931940L574.061058,351.342437L561.550535,349.503897L556.286402,348.908382L550.590152,348.297733L546.271951,349.273216L538.109385,348.618958L500.569638,345.609837L476.142984,327.646118L456.163266,312.952823L452.402645,310.285787L429.894645,294.323546L412.605584,287.309576L385.086014,271.896837L376.006759,270.354776L360.271518,267.682525L352.475729,266.358669L349.137920,268.963128L333.486832,273.750767L320.039887,277.104425L312.610467,278.964286L306.242831,280.563710L299.012598,282.408846L293.733945,283.765320L301.499773,291.493929L306.726891,296.698654L320.434579,310.607267L311.484673,315.104511L307.069435,324.061779L294.515763,326.317865L286.720076,327.747449L280.204993,337.449214L274.098304,341.905454L268.664228,345.862910L254.487408,343.621753L245.001498,342.162413L238.948184,341.254007L237.250393,345.781007L235.762423,354.021489L234.391225,360.106705L234.279566,364.505276L231.740651,370.031890L228.955922,374.261029L235.869277,375.817201L239.904853,374.759916L244.286757,376.211894L247.890524,380.374058L250.518807,383.739475L253.266316,387.566662L255.150001,392.659524L259.416564,396.322801L261.434302,400.298867L264.271077,404.550399L267.640380,407.309054L269.390114,411.247849L272.465239,414.017649L275.045157,418.053277L279.698846,426.396215L282.513228,429.702224L285.692649,432.565074L285.469126,437.065999L291.783182,440.855966L295.669880,446.516581L297.043635,450.412584L299.906484,453.253091L301.060704,458.792793L298.879057,462.474680L300.695869,466.186425L303.480598,469.417892L305.654678,472.775845L307.728245,477.515120L313.826447,478.010274L317.143499,480.370607L320.762194,482.544687L326.986678,486.170847L332.375558,490.602905L335.238510,497.678227L338.478566,500.425173L339.378281,505.244971L343.665193,512.327706L345.772400,515.892463L348.884744,522.923050L350.023831,528.447823L348.028487,532.803550L347.015784,542.929865L349.525046,547.851454L351.580105,551.939179L350.038759,557.858543L351.889110,562.575475L354.469131,566.718978L358.324028,569.464647L361.795685,575.698639L364.170793,579.548015L368.727752,583.218859L372.867523,584.603759L377.442887,585.854607L381.515786,589.272173L385.890123,591.937778L391.654984,597.710103L395.104350,599.744661L396.621360,604.664461L401.980383,614.126189L405.511550,617.231068L405.498462,622.554763L406.328748,627.007323L409.481992,630.186642L412.564581,633.388303L413.603256,637.989793L416.817852,642.525074L419.008906,647.133159L422.016953,650.282723L430.132892,655.167195L435.847445,660.583990L436.350013,665.792294L437.087250,670.416126L441.502488,671.793562L442.100048,675.946472L445.634897,678.427666L447.235753,682.701592L448.774133,687.035028L448.783438,689.268619L452.239348,688.047629L456.550289,683.274918L459.722348,680.199794L457.732321,674.589436L458.486327,669.306693L461.358379,661.468163L466.352669,658.471210L471.541238,659.995531L474.818515,663.148980L479.595009,664.368283L486.191893,661.615201L494.590662,662.054475L508.030449,667.373416L520.795170,672.425223L543.769949,681.517719L543.764019,704.242876L543.762587,709.655198L571.695766,679.241182L589.123174,660.266038L608.987450,638.637559L642.053471,631.142186L674.627865,623.756223L695.644520,618.990875L776.077721,592.168561Z M424.563435,672.597671L423.870985,677.147063L425.994757,673.232451L424.563435,672.597671Z M432.187951,684.302448L431.435786,680.199794L426.484339,680.385995L423.379562,677.310871L424.749533,681.130491L429.179700,681.331518L432.187951,684.302448Z " data-iso2="SA"/></g></svg>