<?xml version="1.0" ?><!DOCTYPE svg  PUBLIC '-//W3C//DTD SVG 1.1//EN'  'http://www.w3.org/Graphics/SVG/1.1/DTD/svg11.dtd'><svg enable_background="new 0 0 1000 687" height="687px" pretty_print="False" style="stroke-linejoin: round; stroke:#000; fill: none;" version="1.1" viewBox="0 0 1000 687" width="1000px" xmlns="http://www.w3.org/2000/svg" xmlns:xlink="http://www.w3.org/1999/xlink"><defs><style type="text/css"><![CDATA[path { fill-rule: evenodd; }]]></style></defs><metadata><views><view h="687.511722" padding="0" w="1000"><proj flip="auto" id="mercator" lon0="0"/><bbox h="478.46" w="696.95" x="-2044.27" y="-604.81"/></view></views></metadata><g class="" id="countries"><path d="M732.785231,423.987592L734.155184,422.500345L734.393278,421.330188L733.448230,420.751404L733.295606,421.937066L732.622839,422.940680L731.537377,423.892893L730.736406,426.605151L730.858505,427.651264L732.785231,423.987592Z M730.343246,410.810101L732.895120,405.144800L730.274871,408.809033L730.343246,410.810101Z M721.714494,396.399440L717.572888,396.284867L714.449590,401.192173L710.513111,406.953520L707.668199,410.708720L702.840395,408.844980L700.041881,411.414487L700.063859,413.703005L699.823323,420.070091L699.546158,427.436433L699.341031,432.842673L699.068750,440.049349L698.789143,447.406034L698.409414,457.420742L698.162774,463.882846L705.673097,464.002180L706.751234,463.981868L706.309234,462.281724L711.724335,454.690944L717.576551,449.840592L721.270053,444.650457L722.560642,436.023542L721.756008,430.030392L722.426332,424.780943L722.312780,419.083806L723.919606,412.882141L726.676607,405.638158L725.849995,399.606305L721.714494,399.781254L720.373844,399.392756L721.714494,396.399440Z " data-iso2="BZ"/><path d="M785.528435,588.670618L781.935054,591.770093L786.250041,595.098252L787.538188,599.046155L783.355068,605.081568L784.208542,611.823141L787.096189,616.248714L796.259736,619.996633L800.274358,624.838944L804.093622,622.830011L806.965396,619.742611L800.105861,614.754776L797.544220,608.678273L803.498999,612.258488L811.253521,617.751058L812.365845,622.738347L814.588051,626.150317L823.570891,628.834358L831.742992,633.550479L835.709996,636.745522L838.729510,641.568724L838.078721,647.412283L839.015222,653.699122L844.714814,655.353197L843.590280,650.186361L850.076191,650.971750L851.052985,656.915672L855.455883,661.245128L857.154284,664.051060L855.426580,659.347752L857.597504,654.376833L857.745244,649.780057L857.088350,645.478839L860.638996,643.118632L857.104223,639.137042L855.566994,634.248217L855.641474,629.172280L859.112755,625.555951L863.037025,627.735091L865.050441,625.939817L863.885614,624.941731L859.678075,623.584345L853.424152,615.419333L845.464504,607.185428L842.928503,603.358347L839.751481,596.520078L838.701427,592.885444L838.083605,591.873304L833.852867,596.302595L826.725935,595.477348L822.740616,592.293595L819.082523,590.415785L813.273042,588.603440L809.192486,589.614775L799.650431,588.747748L794.914202,587.053208L790.654160,585.527544L786.858095,587.282155L785.512562,588.182944L785.528435,588.670618Z " data-iso2="CR"/><path d="M694.811150,413.699157L685.877149,413.690180L674.504827,413.679920L663.541538,413.669660L654.360897,413.661965L654.329151,418.798129L654.299847,423.342578L654.265659,428.451682L649.200983,428.408212L643.846932,428.362185L648.484261,432.120912L651.292543,435.680144L654.694228,438.512146L658.690535,440.620735L662.592827,444.698881L664.697817,448.953235L668.668484,450.955615L667.596453,456.912273L661.511027,459.288935L654.600211,459.295289L648.243725,459.299101L643.237657,459.304183L635.671168,459.311807L633.599144,462.896328L630.153504,468.851970L627.030205,474.243446L624.403851,478.773769L627.213354,485.165771L625.191391,489.641569L625.085165,495.080746L623.203616,498.843552L633.607691,507.031914L638.063092,509.953530L644.654008,513.169406L650.437848,514.833927L663.918824,514.745869L667.115382,515.469165L676.714823,519.702785L677.891860,515.388664L682.278885,511.741044L686.319149,509.273629L689.841711,507.123866L689.757463,502.854731L693.628008,501.795780L694.518112,501.885294L695.034592,502.185345L695.614563,501.030440L699.806229,497.255200L699.294634,492.554401L699.842859,486.054646L704.691420,483.392651L708.354396,480.585090L711.991732,477.746959L715.771924,474.615945L719.991674,471.116725L723.398242,468.182249L714.255452,462.430302L714.019801,467.268856L709.144378,464.713052L708.102872,464.544228L706.751234,463.981868L705.673097,464.002180L698.162774,463.882846L698.409414,457.420742L698.789143,447.406034L699.068750,440.049349L699.341031,432.842673L699.546158,427.436433L699.823323,420.070091L700.063859,413.703005L694.811150,413.699157Z " data-iso2="GT"/><path d="M723.398242,468.182249L719.991674,471.116725L715.771924,474.615945L711.991732,477.746959L708.354396,480.585090L704.691420,483.392651L699.842859,486.054646L699.294634,492.554401L699.806229,497.255200L695.614563,501.030440L695.034592,502.185345L695.668287,502.305109L699.847743,503.623609L704.096796,506.399544L707.394696,508.696910L711.412982,512.089671L716.290846,513.458812L722.200449,514.393623L727.095407,513.931898L731.808437,515.622619L735.823060,517.011067L735.145409,521.930935L735.818176,526.222818L733.753478,528.380813L734.874349,528.959415L739.053805,528.729738L742.649628,533.102180L745.798567,536.458796L745.680130,539.165862L752.633681,538.852604L755.785063,535.616362L757.275894,531.790142L761.347903,530.585735L760.026790,522.309124L763.859484,518.716003L769.693386,519.210043L773.162225,515.506900L776.887472,511.957522L784.452740,516.924298L787.072990,513.365701L792.196273,510.114680L797.019193,505.395421L799.336636,501.394840L802.640641,497.873436L804.496550,493.492601L809.397613,492.511464L812.978783,495.854458L817.789493,496.303743L821.830977,495.175415L826.270505,494.046862L832.449947,492.405385L837.292402,490.101457L840.720949,487.682825L850.198291,487.266977L848.496227,485.992695L844.905289,480.871100L837.973716,477.541827L841.685533,481.334252L837.329032,480.333238L832.365698,477.948285L827.932275,476.784543L835.000600,476.580641L822.594097,465.749990L816.137490,464.446486L804.782262,461.400326L800.032602,463.265818L792.030218,463.750813L784.521116,461.063730L779.478418,460.508616L774.588344,464.124050L770.201318,466.774035L760.189182,466.487272L746.964614,465.442864L741.937789,466.592590L738.655762,463.481659L732.234563,464.275115L728.847531,466.696636L725.829238,468.909044L723.398242,468.182249Z M768.618912,451.285238L772.729993,449.985711L768.159819,450.359948L763.355215,453.281611L768.618912,451.285238Z M782.346529,449.117477L783.009527,448.433734L783.275704,447.830129L782.164601,447.749897L781.014426,448.549607L780.095019,449.947522L780.439339,450.627243L782.346529,449.117477Z " data-iso2="HN"/><path d="M636.993502,390.993317L640.668689,388.810730L633.682171,391.031983L636.993502,390.993317Z M156.110576,389.300713L155.419495,387.709363L154.236353,386.086476L152.972626,386.958626L152.379224,388.239446L154.601430,389.857680L156.110576,389.300713Z M755.622671,347.860991L758.894930,343.455678L754.664192,342.886108L754.328419,348.691506L755.622671,347.860991Z M761.264876,322.828421L760.942534,322.157659L760.638507,321.737064L760.292966,321.768512L760.705661,322.989544L761.274644,323.969242L761.708096,324.123771L761.264876,322.828421Z M266.441881,312.848197L263.013335,310.507175L265.714170,315.061807L266.441881,312.848197Z M183.851521,243.894602L181.719669,238.580910L183.309400,243.990945L183.851521,243.894602Z M136.495335,237.241835L132.545425,233.275189L136.159563,238.538025L136.495335,237.241835Z M164.789390,220.455946L164.093424,219.388753L161.717373,218.127091L161.491489,218.303698L161.387705,219.264765L162.537880,221.411015L164.219186,223.087460L165.502449,223.542449L164.789390,220.455946Z M127.533252,233.063113L125.709090,228.004312L124.004584,223.710698L125.672460,214.355468L123.406298,221.899895L121.544285,226.350457L124.892246,230.186715L127.533252,233.063113Z M151.463480,192.272986L148.353612,197.408980L150.589249,192.869408L151.463480,192.272986Z M49.681563,134.746703L49.022227,127.412272L45.122378,133.766849L49.339685,135.657075L49.681563,134.746703Z M123.887369,108.105566L122.378223,102.339630L118.374589,102.429154L115.687185,111.286959L120.081536,114.736586L123.887369,108.105566Z M100.068252,106.763611L98.904646,99.614835L94.611637,98.551940L93.559142,94.331554L89.275901,91.828111L89.440735,96.419383L97.339334,105.490913L100.068252,106.763611Z M61.596006,29.842350L61.751072,29.295492L61.222382,28.334995L59.671722,27.240564L59.334728,27.366977L59.218734,28.613560L60.768173,29.967208L61.596006,29.842350Z M2.357123,11.025120L6.094581,15.315403L7.736815,21.253604L13.418092,25.563591L10.885754,28.991156L12.383912,33.975406L17.476671,39.953132L20.603632,44.582093L21.199476,49.016623L27.387465,56.211769L28.227508,63.206960L29.046794,67.534217L33.552255,70.746331L34.204265,77.094780L35.226236,81.381249L37.098017,86.551742L46.166326,93.009937L49.787790,96.017077L54.110102,97.246249L57.050252,100.187434L62.349358,105.552395L71.221088,115.969119L75.315075,119.517638L77.741187,124.618741L76.634968,130.437416L74.321187,136.336218L75.019595,140.449345L75.576368,144.445233L71.395690,143.057268L64.699768,142.825420L58.360376,141.525088L53.035629,141.188182L57.480041,146.349562L61.058769,149.725100L65.453121,152.781955L66.958604,156.935068L70.616697,160.466574L76.201516,161.929089L79.041544,165.249466L85.039058,168.526659L88.992631,172.716477L93.310059,170.629782L98.814293,168.915370L100.977891,172.850438L103.440632,176.578590L112.501616,184.021917L119.532090,186.889381L124.618744,195.277087L125.970382,199.363244L126.630939,204.389375L127.015551,211.600969L125.751824,219.361800L127.151081,224.962215L132.760320,229.642588L135.207189,232.830888L139.512407,235.884806L143.485516,239.015094L153.066643,245.149532L156.583100,248.846159L159.850476,251.397443L163.224077,255.215593L169.907789,258.829783L172.873579,264.083913L176.825931,275.151696L180.891836,278.398838L185.768479,275.793662L191.587728,270.956252L193.606028,264.266192L191.239745,259.021656L187.065173,257.283768L184.579232,251.728575L181.648851,247.128680L178.407116,243.249570L172.403497,238.588951L171.554908,242.694104L165.299764,242.165326L162.490261,238.673380L160.609933,231.849464L162.042157,226.381390L160.081243,220.701138L156.623393,216.569582L153.630741,208.934781L150.231499,204.715607L146.679632,198.689350L145.710164,194.755777L145.666208,189.354515L143.854256,185.464136L142.356098,181.462744L140.320704,176.691911L134.085097,168.278900L134.503897,173.669119L131.887311,169.386139L128.738371,165.827638L126.511282,160.805510L121.898373,155.137577L120.733546,150.179484L115.146285,146.397809L110.610299,141.636922L110.228128,136.857576L109.068186,130.840632L107.329493,126.765813L103.119511,123.298094L98.819177,114.005182L94.411394,109.781805L90.494451,107.588965L85.068362,97.732449L77.405414,90.779224L74.472591,87.187383L69.636240,84.424419L65.188165,78.883469L63.201611,75.009856L63.117362,64.852779L61.365238,57.345927L59.923246,51.707547L57.831687,48.155661L57.744996,34.766312L57.961112,27.109834L63.730300,28.177034L72.350506,34.282052L76.930448,35.575609L80.260094,32.083179L84.969461,34.184617L88.130610,36.828473L91.936443,41.925676L98.172051,43.027114L102.791064,45.270060L100.993764,49.100709L101.197670,56.527333L102.517562,60.666173L105.165894,64.762079L108.340474,70.846739L109.980267,75.895111L110.501631,79.946560L114.639574,87.613410L118.599252,92.880830L119.507670,98.299813L123.376994,100.542977L124.163313,104.883009L127.843384,111.232569L131.000870,114.030261L133.155922,118.300484L136.965417,123.356431L142.176613,125.818070L146.909179,133.447083L150.936011,137.647049L155.951847,139.858147L159.996995,139.113462L165.727112,140.555693L163.586712,146.498438L164.957886,152.245399L167.029910,155.835808L172.046968,160.348555L180.377798,162.676548L181.705017,168.174863L185.109143,173.230419L191.908849,173.022665L197.074867,177.958640L198.581572,182.946985L195.127385,188.991393L194.356939,200.428717L197.632861,203.712444L201.880693,203.539127L205.604720,201.451845L202.271411,205.298953L206.654773,206.407165L210.210302,208.826629L217.329908,213.228287L226.668057,217.970698L221.968458,218.301002L228.611877,226.522603L230.210156,231.160555L236.252847,233.630857L240.269911,234.187773L240.810811,238.162756L235.825499,235.090725L251.873001,247.591212L255.608016,251.281273L260.777698,258.672547L264.835055,263.069903L268.942473,269.982687L273.135361,273.644492L278.457666,279.941187L284.207319,285.405786L287.865412,293.540182L287.775058,302.688243L290.817771,307.259983L292.568674,311.190447L298.788408,316.074974L298.380597,322.549388L296.456313,328.531865L292.595536,333.425065L295.828723,335.854419L297.501483,340.502695L290.439263,342.668425L287.267125,345.666740L289.743298,349.873207L290.693230,353.933713L296.845810,363.743566L301.314642,367.574335L305.545380,374.278687L313.934818,378.423246L318.881057,380.055417L327.871224,384.799871L336.541490,392.164745L339.508501,396.084035L342.976119,400.273903L353.556017,403.921457L361.531539,407.184697L373.608373,409.956640L379.137027,409.554881L384.966044,412.989887L389.019738,417.989686L394.390883,421.592666L400.333453,424.766868L403.981777,427.831562L407.836450,429.811832L418.236862,433.381690L422.959661,435.470774L428.423601,437.135274L436.771525,442.382944L445.339228,443.815714L454.000947,445.989579L459.988693,447.207347L466.037489,453.201466L475.573439,455.768033L485.180206,461.999795L499.436512,463.496894L508.856468,468.249478L516.286206,470.184818L523.719607,469.115776L534.767145,464.055499L542.453291,461.795323L550.705978,456.532159L555.333539,455.671397L559.422642,455.174200L553.544785,453.910008L556.555752,450.265755L559.296880,453.661966L563.647275,452.088208L567.300484,456.281701L579.040325,460.644542L574.235720,457.348288L569.815728,456.051574L577.097726,457.357186L581.170956,459.743808L585.714269,464.037726L590.545735,467.626620L599.904641,475.476142L603.467496,479.049747L608.855735,483.498902L615.806844,491.237119L622.468578,498.265791L623.203616,498.843552L625.085165,495.080746L625.191391,489.641569L627.213354,485.165771L624.403851,478.773769L627.030205,474.243446L630.153504,468.851970L633.599144,462.896328L635.671168,459.311807L643.237657,459.304183L648.243725,459.299101L654.600211,459.295289L661.511027,459.288935L667.596453,456.912273L668.668484,450.955615L664.697817,448.953235L662.592827,444.698881L658.690535,440.620735L654.694228,438.512146L651.292543,435.680144L648.484261,432.120912L643.846932,428.362185L649.200983,428.408212L654.265659,428.451682L654.299847,423.342578L654.329151,418.798129L654.360897,413.661965L663.541538,413.669660L674.504827,413.679920L685.877149,413.690180L694.811150,413.699157L700.063859,413.703005L700.041881,411.414487L702.840395,408.844980L707.668199,410.708720L710.513111,406.953520L714.449590,401.192173L717.572888,396.284867L721.714494,396.399440L722.212659,395.288346L724.187003,389.875729L727.262683,386.843811L727.696135,395.026948L732.058741,401.630665L735.063603,397.091965L735.770557,391.582291L737.783973,387.793200L739.271142,381.241365L741.583701,374.850496L737.642338,373.140019L741.288221,371.198416L743.492112,367.013223L739.427429,367.287957L739.465280,361.804181L743.067207,359.623743L742.431070,353.221265L748.581208,342.419444L752.623914,339.108249L755.958443,334.958602L758.726433,329.103461L759.820442,325.209234L758.512759,317.932641L753.244178,313.348535L748.700865,313.612468L744.444486,314.444853L748.847384,314.647015L742.098960,316.568339L736.888986,314.864917L728.936663,313.030742L724.821919,313.045188L717.437358,313.963036L710.436188,317.221689L683.602441,321.881198L674.521921,326.003829L670.265542,328.990980L668.214275,335.732986L666.989620,341.109111L667.134918,345.816533L666.933454,349.974703L667.032355,355.255580L662.839467,361.366885L660.609935,373.142607L655.214370,378.455559L650.690594,381.476449L643.170502,385.381922L646.380491,388.459973L647.207103,392.388943L643.075265,394.568500L639.093609,397.064935L634.010618,396.447070L630.517359,393.999238L629.739587,389.976284L623.753062,390.794827L618.055912,391.047449L611.327024,392.726509L606.959534,396.498562L600.893645,397.690437L590.266128,397.505112L584.963358,399.417199L574.345610,403.700398L569.262619,404.471488L562.027018,399.665480L559.113731,395.287058L553.698630,393.809897L549.519173,390.375906L540.027179,389.889910L536.066281,388.590221L539.604716,390.647887L533.533943,388.952573L531.234814,385.187053L529.443618,381.046313L525.960127,377.200333L521.819743,373.367777L519.849061,367.440867L517.656159,359.404339L511.338745,350.927082L501.017697,339.542679L499.178883,334.594211L495.123967,326.456691L491.536692,318.567404L489.110580,314.863604L485.204626,301.647851L489.291287,308.780061L492.636806,312.806171L493.441440,316.759894L493.822390,321.936230L495.630679,317.497165L495.048266,312.737877L489.431701,307.526961L484.967754,299.510868L484.490346,294.826911L482.987304,288.579192L483.631988,281.371657L485.419521,276.865123L484.903041,266.974011L485.865183,255.354309L486.124033,248.562866L487.358456,237.341043L491.374300,220.150106L493.449987,214.113865L498.430414,204.359593L499.942003,199.657435L500.397433,193.917978L495.585502,195.316453L489.369431,193.286431L484.014159,191.676454L476.977580,191.052630L472.170533,189.751592L466.898289,186.592677L461.759132,185.145514L457.213378,182.221987L451.347731,180.388322L448.292808,171.578946L442.950967,163.874854L442.661592,158.338810L441.893588,153.713140L441.406412,149.477227L435.181793,144.351434L431.795982,140.468682L429.001130,135.356876L426.236804,131.810349L421.633663,127.417821L420.330864,122.904982L415.290608,113.361397L413.124568,109.035222L410.167324,103.034769L405.928039,99.246577L403.064812,95.067863L396.440929,90.072731L393.018488,85.962383L388.736468,85.671176L379.251800,85.419335L374.946581,84.567979L370.446003,83.422120L367.115137,86.186044L360.665855,89.788961L358.170147,95.537601L357.377723,100.871886L353.447349,104.474874L349.810013,108.309390L343.442538,106.235599L337.415720,102.336833L332.690480,99.924249L326.247304,97.197204L321.205827,92.708210L316.409769,88.818036L313.453747,83.730449L311.975125,79.799950L311.975125,75.643823L308.110685,66.571289L306.060639,62.632611L301.552735,58.644387L297.109544,56.120789L291.153544,51.065324L283.684734,43.464138L278.399058,38.876212L272.606671,34.568607L270.324636,30.624411L262.170850,27.909914L256.673943,27.876881L251.177035,27.842412L245.680128,27.809379L240.183221,27.776345L234.685093,27.741874L229.188185,27.708839L223.692499,27.674368L223.658311,34.283485L223.626566,40.876687L214.789023,40.895269L205.950260,40.915281L197.112718,40.935292L188.273955,40.953874L179.436413,40.972456L170.597650,40.991037L161.760108,41.011048L152.921345,41.029630L141.063068,36.692476L129.203570,32.351324L117.344071,28.000393L105.485794,23.643933L93.627517,19.279018L81.768019,14.908474L69.908521,10.530813L58.050244,6.145980L60.830444,0.000000L50.817086,0.951818L43.660850,1.588590L36.505836,2.223760L29.349600,2.860228L22.194585,3.496543L15.039570,4.131258L7.884555,4.767269L0.728320,5.403129L2.357123,11.025120Z " data-iso2="MX"/><path d="M745.647164,539.917621L741.661845,539.039308L737.355405,539.514188L742.606893,544.851983L749.401715,551.238544L757.839993,557.910070L762.727625,564.718554L767.394257,570.934228L780.091356,581.319753L783.407571,584.701114L785.490584,587.508607L785.512562,588.182944L786.858095,587.282155L790.654160,585.527544L794.914202,587.053208L799.650431,588.747748L809.192486,589.614775L813.273042,588.603440L819.082523,590.415785L822.740616,592.293595L826.725935,595.477348L833.852867,596.302595L838.083605,591.873304L836.281421,591.450503L833.336387,586.439744L832.435295,582.117925L834.717330,576.916403L837.839407,573.391780L836.518293,568.730306L834.799136,564.824649L837.402292,558.427314L836.227697,553.840695L837.092160,549.707537L839.299714,545.992362L838.541477,551.079707L841.272837,540.071721L839.950502,530.407563L841.790538,519.643708L843.827153,513.007081L847.115285,508.956314L849.442496,504.145380L846.654971,493.580984L845.525553,489.621353L849.502325,488.216177L850.198291,487.266977L840.720949,487.682825L837.292402,490.101457L832.449947,492.405385L826.270505,494.046862L821.830977,495.175415L817.789493,496.303743L812.978783,495.854458L809.397613,492.511464L804.496550,493.492601L802.640641,497.873436L799.336636,501.394840L797.019193,505.395421L792.196273,510.114680L787.072990,513.365701L784.452740,516.924298L776.887472,511.957522L773.162225,515.506900L769.693386,519.210043L763.859484,518.716003L760.026790,522.309124L761.347903,530.585735L757.275894,531.790142L755.785063,535.616362L752.633681,538.852604L745.680130,539.165862L745.647164,539.917621Z " data-iso2="NI"/><path d="M889.063696,682.669561L886.383618,678.818139L887.692522,682.802515L889.063696,682.669561Z M952.524770,659.414376L952.027826,658.363146L951.753103,658.373017L950.971668,659.473597L951.401457,660.535813L952.524770,659.414376Z M956.703005,658.907283L957.757943,654.510148L955.037572,657.593161L956.703005,658.907283Z M873.304349,630.907486L872.656002,629.651291L872.246969,629.610446L871.098016,629.959477L873.030846,632.089259L873.304349,630.907486Z M981.638110,685.277877L983.459830,679.895638L984.949441,674.213868L988.703992,676.825411L995.401135,673.260250L997.097093,668.154351L997.105640,661.110671L994.523241,656.951460L992.207019,653.241116L994.343755,649.542936L994.815058,649.198358L986.738195,643.349736L983.397560,638.826699L977.097239,634.567376L966.555192,630.258990L961.739599,629.537420L955.870289,629.697086L951.353838,626.951407L945.272076,626.128029L939.725108,625.402400L936.079225,628.408532L932.778883,630.974313L925.976735,635.235348L915.479864,638.476778L908.183214,643.406585L902.571534,645.293504L895.277326,646.105244L890.505688,644.930237L886.339662,640.071715L883.084497,637.545651L884.638820,641.634236L877.195651,642.200337L873.036951,639.753986L874.438650,635.695477L869.756145,632.008829L866.631626,627.294355L865.050441,625.939817L863.037025,627.735091L859.112755,625.555951L855.641474,629.172280L855.566994,634.248217L857.104223,639.137042L860.638996,643.118632L857.088350,645.478839L857.745244,649.780057L857.597504,654.376833L855.426580,659.347752L857.154284,664.051060L857.779432,663.322209L859.609699,658.168188L865.866064,658.575375L870.019879,658.892477L875.145605,660.914532L879.811016,660.402580L885.953829,662.361427L891.542310,672.873358L897.437261,675.288126L899.663130,670.694669L903.271162,673.127181L906.283350,680.029856L906.619123,684.072883L912.483549,685.370185L918.180699,684.128273L921.970659,680.329070L926.389430,680.132058L928.153764,675.936079L922.629995,669.580506L920.013408,665.885907L917.505490,662.300990L919.935265,658.540827L924.151351,657.904123L935.395469,650.786523L935.880203,646.237439L939.848428,642.999988L943.120687,640.399323L947.992446,640.043281L952.000964,640.623078L957.955743,644.545949L961.407489,646.804495L966.312215,649.960364L967.428202,654.549648L972.762717,654.371896L976.679660,653.278152L978.854247,657.615373L982.844450,660.374206L977.972691,658.642004L972.135127,659.582168L971.279211,664.144783L969.709015,668.362678L974.912884,677.348876L980.922608,684.597237L981.638110,685.277877Z " data-iso2="PA"/><path d="M694.518112,501.885294L693.628008,501.795780L689.757463,502.854731L689.841711,507.123866L686.319149,509.273629L682.278885,511.741044L677.891860,515.388664L676.714823,519.702785L679.834459,521.076468L683.991937,524.242420L691.017527,525.553548L697.159118,526.352144L707.426442,531.359844L716.304277,533.911092L712.707234,531.978310L718.676665,533.151094L724.589931,534.422721L730.836527,533.995112L733.149087,528.724717L733.753478,528.380813L735.818176,526.222818L735.145409,521.930935L735.823060,517.011067L731.808437,515.622619L727.095407,513.931898L722.200449,514.393623L716.290846,513.458812L711.412982,512.089671L707.394696,508.696910L704.096796,506.399544L699.847743,503.623609L695.668287,502.305109L695.034592,502.185345L694.518112,501.885294Z " data-iso2="SV"/></g><g class="" id="lands"><path d="M987.725977,241.197254L982.928699,240.976287L981.315768,245.542776L984.010498,251.218513L989.826084,255.164907L991.136209,250.471981L990.131332,244.285311L985.286435,243.554704L987.725977,241.197254Z M995.481720,220.168969L997.442634,219.341584L997.281463,219.012730L995.943255,218.260558L992.888333,218.323920L990.986027,218.960164L990.121564,219.722961L990.639265,220.177053L992.657565,220.741552L995.481720,220.168969Z M985.572147,228.614557L981.193669,222.128823L979.784644,218.210677L975.096033,214.964124L975.182724,219.934519L971.694349,227.334799L971.190079,231.838722L974.375648,235.251702L977.270620,238.036764L982.137496,237.914788L985.537959,235.322798L985.572147,228.614557Z M966.842125,172.499119L963.331773,174.454801L959.210924,176.601801L955.766504,174.055835L959.181620,178.110122L966.258491,177.246166L973.318268,175.065449L981.014183,174.337302L976.949499,172.911949L972.467237,172.678201L966.842125,172.499119Z M1000.000000,176.128514L996.773530,172.985760L992.934730,169.491505L987.365785,167.319163L982.603915,166.585130L991.404827,169.223293L995.922498,175.596769L999.020156,179.213955L997.977428,184.794177L996.822370,190.188048L998.010395,195.753524L999.989624,186.153014L1000.000000,176.128514Z " data-iso2="BS"/><path d="M732.785231,423.987592L734.155184,422.500345L734.393278,421.330188L733.448230,420.751404L733.295606,421.937066L732.622839,422.940680L731.537377,423.892893L730.736406,426.605151L730.858505,427.651264L732.785231,423.987592Z M730.343246,410.810101L732.895120,405.144800L730.274871,408.809033L730.343246,410.810101Z M721.714494,396.399440L717.572888,396.284867L714.449590,401.192173L710.513111,406.953520L707.668199,410.708720L702.840395,408.844980L700.041881,411.414487L700.063859,413.703005L699.823323,420.070091L699.546158,427.436433L699.341031,432.842673L699.068750,440.049349L698.789143,447.406034L698.409414,457.420742L698.162774,463.882846L705.673097,464.002180L706.751234,463.981868L706.309234,462.281724L711.724335,454.690944L717.576551,449.840592L721.270053,444.650457L722.560642,436.023542L721.756008,430.030392L722.426332,424.780943L722.312780,419.083806L723.919606,412.882141L726.676607,405.638158L725.849995,399.606305L721.714494,399.781254L720.373844,399.392756L721.714494,396.399440Z " data-iso2="BZ"/><path d="M994.815058,649.198358L994.343755,649.542936L992.207019,653.241116L994.523241,656.951460L997.105640,661.110671L997.097093,668.154351L995.401135,673.260250L988.703992,676.825411L984.949441,674.213868L983.459830,679.895638L981.638110,685.277877L981.883651,685.511722L1000.000000,685.511722L1000.000000,655.056824L995.567190,649.744242L994.815058,649.198358Z " data-iso2="CO"/><path d="M785.528435,588.670618L781.935054,591.770093L786.250041,595.098252L787.538188,599.046155L783.355068,605.081568L784.208542,611.823141L787.096189,616.248714L796.259736,619.996633L800.274358,624.838944L804.093622,622.830011L806.965396,619.742611L800.105861,614.754776L797.544220,608.678273L803.498999,612.258488L811.253521,617.751058L812.365845,622.738347L814.588051,626.150317L823.570891,628.834358L831.742992,633.550479L835.709996,636.745522L838.729510,641.568724L838.078721,647.412283L839.015222,653.699122L844.714814,655.353197L843.590280,650.186361L850.076191,650.971750L851.052985,656.915672L855.455883,661.245128L857.154284,664.051060L855.426580,659.347752L857.597504,654.376833L857.745244,649.780057L857.088350,645.478839L860.638996,643.118632L857.104223,639.137042L855.566994,634.248217L855.641474,629.172280L859.112755,625.555951L863.037025,627.735091L865.050441,625.939817L863.885614,624.941731L859.678075,623.584345L853.424152,615.419333L845.464504,607.185428L842.928503,603.358347L839.751481,596.520078L838.701427,592.885444L838.083605,591.873304L833.852867,596.302595L826.725935,595.477348L822.740616,592.293595L819.082523,590.415785L813.273042,588.603440L809.192486,589.614775L799.650431,588.747748L794.914202,587.053208L790.654160,585.527544L786.858095,587.282155L785.512562,588.182944L785.528435,588.670618Z " data-iso2="CR"/><path d="M865.095618,313.901328L863.404543,308.648590L860.244615,304.806343L854.356990,303.911328L852.073735,307.988538L854.797769,313.347222L849.630529,312.519856L852.454684,316.650997L857.808736,317.335817L862.768406,315.326935L865.095618,313.901328Z M987.443928,303.662530L984.807806,300.128898L986.417074,304.487847L987.443928,303.662530Z M982.182672,298.925689L979.525793,294.210656L981.358503,299.002136L982.182672,298.925689Z M978.489171,294.668568L975.401281,290.711794L977.978796,295.118509L978.489171,294.668568Z M963.409916,287.443687L961.775007,287.938117L962.322012,288.618843L963.437999,289.177870L965.472172,289.831946L968.550294,289.937644L969.415977,290.343234L970.589351,290.343234L972.067972,290.063157L970.384224,287.812533L969.175442,287.573250L968.031372,287.673724L966.842125,288.017431L963.409916,287.443687Z M945.419816,284.418836L939.678710,280.546556L945.461329,285.129308L945.419816,284.418836Z M1000.000000,311.740793L995.617250,308.961484L991.738158,305.827458L988.248562,307.828110L982.541644,305.047172L975.588093,299.414662L962.000891,292.460311L956.613873,291.671994L949.584620,291.891208L945.201258,290.240189L940.427178,286.752169L937.240388,282.273364L932.887551,279.991528L927.273428,276.866449L922.499349,277.066650L917.671545,275.979334L913.815652,273.024713L903.957360,272.858802L899.682666,273.678995L895.056326,271.775546L889.759662,272.134011L883.207817,270.868602L876.608354,270.123492L870.377630,271.115611L864.444829,273.546290L849.705010,275.761832L828.007977,284.361939L822.095932,289.555794L819.553826,295.468132L820.970177,300.362116L816.772406,301.244788L807.194943,305.220875L812.060597,305.087966L816.594141,304.246983L816.563616,308.398783L823.113019,305.107705L828.357181,303.900798L830.048255,299.882488L836.967618,297.511135L841.985897,297.317302L846.832015,294.180302L850.542611,291.929503L853.901560,288.478742L857.607272,286.282710L881.558256,284.009955L885.503283,285.258951L885.217570,289.757955L879.817121,290.973331L882.908674,296.599899L893.118611,297.406967L897.037997,299.414662L899.510506,295.133022L901.232105,298.745109L905.101430,300.940487L916.675215,300.653288L921.385804,304.162743L925.695906,306.969312L931.397940,309.303271L945.223236,313.538936L949.429554,314.408095L958.588218,312.630181L963.251187,315.410933L965.732243,321.284974L966.894628,327.804500L971.318283,331.185105L976.257197,335.616772L982.745550,336.906685L989.351118,337.535825L995.481720,338.009574L999.447503,341.012612L1000.000000,315.411669L995.016522,312.799604L999.640420,313.202774L1000.000000,311.740793Z M1000.000000,347.030252L990.325470,353.754312L986.291311,359.784719L992.590411,359.627638L998.872416,358.766834L1000.000000,347.030252Z " data-iso2="CU"/><path d="M894.908586,373.231900L901.470199,374.389950L897.027008,372.869542L894.908586,373.231900Z M929.680004,363.698173L929.777684,363.651482L929.358883,363.403751L928.749608,363.430990L927.465124,363.651482L927.063418,363.753942L926.631187,364.019808L926.251458,364.376432L926.007259,364.756365L926.799683,364.821197L928.636056,363.734488L929.435806,363.848618L929.680004,363.698173Z M933.571307,363.599602L935.599375,362.564474L935.599375,362.398414L934.997426,362.170072L934.527344,362.172667L934.078018,362.372467L933.550550,362.744796L931.500504,363.848618L932.404038,364.004246L933.571307,363.599602Z " data-iso2="KY"/><path d="M694.811150,413.699157L685.877149,413.690180L674.504827,413.679920L663.541538,413.669660L654.360897,413.661965L654.329151,418.798129L654.299847,423.342578L654.265659,428.451682L649.200983,428.408212L643.846932,428.362185L648.484261,432.120912L651.292543,435.680144L654.694228,438.512146L658.690535,440.620735L662.592827,444.698881L664.697817,448.953235L668.668484,450.955615L667.596453,456.912273L661.511027,459.288935L654.600211,459.295289L648.243725,459.299101L643.237657,459.304183L635.671168,459.311807L633.599144,462.896328L630.153504,468.851970L627.030205,474.243446L624.403851,478.773769L627.213354,485.165771L625.191391,489.641569L625.085165,495.080746L623.203616,498.843552L633.607691,507.031914L638.063092,509.953530L644.654008,513.169406L650.437848,514.833927L663.918824,514.745869L667.115382,515.469165L676.714823,519.702785L677.891860,515.388664L682.278885,511.741044L686.319149,509.273629L689.841711,507.123866L689.757463,502.854731L693.628008,501.795780L694.518112,501.885294L695.034592,502.185345L695.614563,501.030440L699.806229,497.255200L699.294634,492.554401L699.842859,486.054646L704.691420,483.392651L708.354396,480.585090L711.991732,477.746959L715.771924,474.615945L719.991674,471.116725L723.398242,468.182249L714.255452,462.430302L714.019801,467.268856L709.144378,464.713052L708.102872,464.544228L706.751234,463.981868L705.673097,464.002180L698.162774,463.882846L698.409414,457.420742L698.789143,447.406034L699.068750,440.049349L699.341031,432.842673L699.546158,427.436433L699.823323,420.070091L700.063859,413.703005L694.811150,413.699157Z " data-iso2="GT"/><path d="M723.398242,468.182249L719.991674,471.116725L715.771924,474.615945L711.991732,477.746959L708.354396,480.585090L704.691420,483.392651L699.842859,486.054646L699.294634,492.554401L699.806229,497.255200L695.614563,501.030440L695.034592,502.185345L695.668287,502.305109L699.847743,503.623609L704.096796,506.399544L707.394696,508.696910L711.412982,512.089671L716.290846,513.458812L722.200449,514.393623L727.095407,513.931898L731.808437,515.622619L735.823060,517.011067L735.145409,521.930935L735.818176,526.222818L733.753478,528.380813L734.874349,528.959415L739.053805,528.729738L742.649628,533.102180L745.798567,536.458796L745.680130,539.165862L752.633681,538.852604L755.785063,535.616362L757.275894,531.790142L761.347903,530.585735L760.026790,522.309124L763.859484,518.716003L769.693386,519.210043L773.162225,515.506900L776.887472,511.957522L784.452740,516.924298L787.072990,513.365701L792.196273,510.114680L797.019193,505.395421L799.336636,501.394840L802.640641,497.873436L804.496550,493.492601L809.397613,492.511464L812.978783,495.854458L817.789493,496.303743L821.830977,495.175415L826.270505,494.046862L832.449947,492.405385L837.292402,490.101457L840.720949,487.682825L850.198291,487.266977L848.496227,485.992695L844.905289,480.871100L837.973716,477.541827L841.685533,481.334252L837.329032,480.333238L832.365698,477.948285L827.932275,476.784543L835.000600,476.580641L822.594097,465.749990L816.137490,464.446486L804.782262,461.400326L800.032602,463.265818L792.030218,463.750813L784.521116,461.063730L779.478418,460.508616L774.588344,464.124050L770.201318,466.774035L760.189182,466.487272L746.964614,465.442864L741.937789,466.592590L738.655762,463.481659L732.234563,464.275115L728.847531,466.696636L725.829238,468.909044L723.398242,468.182249Z M768.618912,451.285238L772.729993,449.985711L768.159819,450.359948L763.355215,453.281611L768.618912,451.285238Z M782.346529,449.117477L783.009527,448.433734L783.275704,447.830129L782.164601,447.749897L781.014426,448.549607L780.095019,449.947522L780.439339,450.627243L782.346529,449.117477Z " data-iso2="HN"/><path d="M1000.000000,397.529657L995.314444,396.556490L982.331633,395.086183L976.802980,397.126717L971.015477,399.632034L977.325565,403.808358L980.092334,407.586661L984.964093,412.059850L992.573317,412.620460L997.174016,414.630151L1000.000000,397.529657Z " data-iso2="JM"/><path d="M636.993502,390.993317L640.668689,388.810730L633.682171,391.031983L636.993502,390.993317Z M156.110576,389.300713L155.419495,387.709363L154.236353,386.086476L152.972626,386.958626L152.379224,388.239446L154.601430,389.857680L156.110576,389.300713Z M755.622671,347.860991L758.894930,343.455678L754.664192,342.886108L754.328419,348.691506L755.622671,347.860991Z M761.264876,322.828421L760.942534,322.157659L760.638507,321.737064L760.292966,321.768512L760.705661,322.989544L761.274644,323.969242L761.708096,324.123771L761.264876,322.828421Z M266.441881,312.848197L263.013335,310.507175L265.714170,315.061807L266.441881,312.848197Z M183.851521,243.894602L181.719669,238.580910L183.309400,243.990945L183.851521,243.894602Z M136.495335,237.241835L132.545425,233.275189L136.159563,238.538025L136.495335,237.241835Z M164.789390,220.455946L164.093424,219.388753L161.717373,218.127091L161.491489,218.303698L161.387705,219.264765L162.537880,221.411015L164.219186,223.087460L165.502449,223.542449L164.789390,220.455946Z M127.533252,233.063113L125.709090,228.004312L124.004584,223.710698L125.672460,214.355468L123.406298,221.899895L121.544285,226.350457L124.892246,230.186715L127.533252,233.063113Z M151.463480,192.272986L148.353612,197.408980L150.589249,192.869408L151.463480,192.272986Z M49.681563,134.746703L49.022227,127.412272L45.122378,133.766849L49.339685,135.657075L49.681563,134.746703Z M123.887369,108.105566L122.378223,102.339630L118.374589,102.429154L115.687185,111.286959L120.081536,114.736586L123.887369,108.105566Z M100.068252,106.763611L98.904646,99.614835L94.611637,98.551940L93.559142,94.331554L89.275901,91.828111L89.440735,96.419383L97.339334,105.490913L100.068252,106.763611Z M61.596006,29.842350L61.751072,29.295492L61.222382,28.334995L59.671722,27.240564L59.334728,27.366977L59.218734,28.613560L60.768173,29.967208L61.596006,29.842350Z M2.357123,11.025120L6.094581,15.315403L7.736815,21.253604L13.418092,25.563591L10.885754,28.991156L12.383912,33.975406L17.476671,39.953132L20.603632,44.582093L21.199476,49.016623L27.387465,56.211769L28.227508,63.206960L29.046794,67.534217L33.552255,70.746331L34.204265,77.094780L35.226236,81.381249L37.098017,86.551742L46.166326,93.009937L49.787790,96.017077L54.110102,97.246249L57.050252,100.187434L62.349358,105.552395L71.221088,115.969119L75.315075,119.517638L77.741187,124.618741L76.634968,130.437416L74.321187,136.336218L75.019595,140.449345L75.576368,144.445233L71.395690,143.057268L64.699768,142.825420L58.360376,141.525088L53.035629,141.188182L57.480041,146.349562L61.058769,149.725100L65.453121,152.781955L66.958604,156.935068L70.616697,160.466574L76.201516,161.929089L79.041544,165.249466L85.039058,168.526659L88.992631,172.716477L93.310059,170.629782L98.814293,168.915370L100.977891,172.850438L103.440632,176.578590L112.501616,184.021917L119.532090,186.889381L124.618744,195.277087L125.970382,199.363244L126.630939,204.389375L127.015551,211.600969L125.751824,219.361800L127.151081,224.962215L132.760320,229.642588L135.207189,232.830888L139.512407,235.884806L143.485516,239.015094L153.066643,245.149532L156.583100,248.846159L159.850476,251.397443L163.224077,255.215593L169.907789,258.829783L172.873579,264.083913L176.825931,275.151696L180.891836,278.398838L185.768479,275.793662L191.587728,270.956252L193.606028,264.266192L191.239745,259.021656L187.065173,257.283768L184.579232,251.728575L181.648851,247.128680L178.407116,243.249570L172.403497,238.588951L171.554908,242.694104L165.299764,242.165326L162.490261,238.673380L160.609933,231.849464L162.042157,226.381390L160.081243,220.701138L156.623393,216.569582L153.630741,208.934781L150.231499,204.715607L146.679632,198.689350L145.710164,194.755777L145.666208,189.354515L143.854256,185.464136L142.356098,181.462744L140.320704,176.691911L134.085097,168.278900L134.503897,173.669119L131.887311,169.386139L128.738371,165.827638L126.511282,160.805510L121.898373,155.137577L120.733546,150.179484L115.146285,146.397809L110.610299,141.636922L110.228128,136.857576L109.068186,130.840632L107.329493,126.765813L103.119511,123.298094L98.819177,114.005182L94.411394,109.781805L90.494451,107.588965L85.068362,97.732449L77.405414,90.779224L74.472591,87.187383L69.636240,84.424419L65.188165,78.883469L63.201611,75.009856L63.117362,64.852779L61.365238,57.345927L59.923246,51.707547L57.831687,48.155661L57.744996,34.766312L57.961112,27.109834L63.730300,28.177034L72.350506,34.282052L76.930448,35.575609L80.260094,32.083179L84.969461,34.184617L88.130610,36.828473L91.936443,41.925676L98.172051,43.027114L102.791064,45.270060L100.993764,49.100709L101.197670,56.527333L102.517562,60.666173L105.165894,64.762079L108.340474,70.846739L109.980267,75.895111L110.501631,79.946560L114.639574,87.613410L118.599252,92.880830L119.507670,98.299813L123.376994,100.542977L124.163313,104.883009L127.843384,111.232569L131.000870,114.030261L133.155922,118.300484L136.965417,123.356431L142.176613,125.818070L146.909179,133.447083L150.936011,137.647049L155.951847,139.858147L159.996995,139.113462L165.727112,140.555693L163.586712,146.498438L164.957886,152.245399L167.029910,155.835808L172.046968,160.348555L180.377798,162.676548L181.705017,168.174863L185.109143,173.230419L191.908849,173.022665L197.074867,177.958640L198.581572,182.946985L195.127385,188.991393L194.356939,200.428717L197.632861,203.712444L201.880693,203.539127L205.604720,201.451845L202.271411,205.298953L206.654773,206.407165L210.210302,208.826629L217.329908,213.228287L226.668057,217.970698L221.968458,218.301002L228.611877,226.522603L230.210156,231.160555L236.252847,233.630857L240.269911,234.187773L240.810811,238.162756L235.825499,235.090725L251.873001,247.591212L255.608016,251.281273L260.777698,258.672547L264.835055,263.069903L268.942473,269.982687L273.135361,273.644492L278.457666,279.941187L284.207319,285.405786L287.865412,293.540182L287.775058,302.688243L290.817771,307.259983L292.568674,311.190447L298.788408,316.074974L298.380597,322.549388L296.456313,328.531865L292.595536,333.425065L295.828723,335.854419L297.501483,340.502695L290.439263,342.668425L287.267125,345.666740L289.743298,349.873207L290.693230,353.933713L296.845810,363.743566L301.314642,367.574335L305.545380,374.278687L313.934818,378.423246L318.881057,380.055417L327.871224,384.799871L336.541490,392.164745L339.508501,396.084035L342.976119,400.273903L353.556017,403.921457L361.531539,407.184697L373.608373,409.956640L379.137027,409.554881L384.966044,412.989887L389.019738,417.989686L394.390883,421.592666L400.333453,424.766868L403.981777,427.831562L407.836450,429.811832L418.236862,433.381690L422.959661,435.470774L428.423601,437.135274L436.771525,442.382944L445.339228,443.815714L454.000947,445.989579L459.988693,447.207347L466.037489,453.201466L475.573439,455.768033L485.180206,461.999795L499.436512,463.496894L508.856468,468.249478L516.286206,470.184818L523.719607,469.115776L534.767145,464.055499L542.453291,461.795323L550.705978,456.532159L555.333539,455.671397L559.422642,455.174200L553.544785,453.910008L556.555752,450.265755L559.296880,453.661966L563.647275,452.088208L567.300484,456.281701L579.040325,460.644542L574.235720,457.348288L569.815728,456.051574L577.097726,457.357186L581.170956,459.743808L585.714269,464.037726L590.545735,467.626620L599.904641,475.476142L603.467496,479.049747L608.855735,483.498902L615.806844,491.237119L622.468578,498.265791L623.203616,498.843552L625.085165,495.080746L625.191391,489.641569L627.213354,485.165771L624.403851,478.773769L627.030205,474.243446L630.153504,468.851970L633.599144,462.896328L635.671168,459.311807L643.237657,459.304183L648.243725,459.299101L654.600211,459.295289L661.511027,459.288935L667.596453,456.912273L668.668484,450.955615L664.697817,448.953235L662.592827,444.698881L658.690535,440.620735L654.694228,438.512146L651.292543,435.680144L648.484261,432.120912L643.846932,428.362185L649.200983,428.408212L654.265659,428.451682L654.299847,423.342578L654.329151,418.798129L654.360897,413.661965L663.541538,413.669660L674.504827,413.679920L685.877149,413.690180L694.811150,413.699157L700.063859,413.703005L700.041881,411.414487L702.840395,408.844980L707.668199,410.708720L710.513111,406.953520L714.449590,401.192173L717.572888,396.284867L721.714494,396.399440L722.212659,395.288346L724.187003,389.875729L727.262683,386.843811L727.696135,395.026948L732.058741,401.630665L735.063603,397.091965L735.770557,391.582291L737.783973,387.793200L739.271142,381.241365L741.583701,374.850496L737.642338,373.140019L741.288221,371.198416L743.492112,367.013223L739.427429,367.287957L739.465280,361.804181L743.067207,359.623743L742.431070,353.221265L748.581208,342.419444L752.623914,339.108249L755.958443,334.958602L758.726433,329.103461L759.820442,325.209234L758.512759,317.932641L753.244178,313.348535L748.700865,313.612468L744.444486,314.444853L748.847384,314.647015L742.098960,316.568339L736.888986,314.864917L728.936663,313.030742L724.821919,313.045188L717.437358,313.963036L710.436188,317.221689L683.602441,321.881198L674.521921,326.003829L670.265542,328.990980L668.214275,335.732986L666.989620,341.109111L667.134918,345.816533L666.933454,349.974703L667.032355,355.255580L662.839467,361.366885L660.609935,373.142607L655.214370,378.455559L650.690594,381.476449L643.170502,385.381922L646.380491,388.459973L647.207103,392.388943L643.075265,394.568500L639.093609,397.064935L634.010618,396.447070L630.517359,393.999238L629.739587,389.976284L623.753062,390.794827L618.055912,391.047449L611.327024,392.726509L606.959534,396.498562L600.893645,397.690437L590.266128,397.505112L584.963358,399.417199L574.345610,403.700398L569.262619,404.471488L562.027018,399.665480L559.113731,395.287058L553.698630,393.809897L549.519173,390.375906L540.027179,389.889910L536.066281,388.590221L539.604716,390.647887L533.533943,388.952573L531.234814,385.187053L529.443618,381.046313L525.960127,377.200333L521.819743,373.367777L519.849061,367.440867L517.656159,359.404339L511.338745,350.927082L501.017697,339.542679L499.178883,334.594211L495.123967,326.456691L491.536692,318.567404L489.110580,314.863604L485.204626,301.647851L489.291287,308.780061L492.636806,312.806171L493.441440,316.759894L493.822390,321.936230L495.630679,317.497165L495.048266,312.737877L489.431701,307.526961L484.967754,299.510868L484.490346,294.826911L482.987304,288.579192L483.631988,281.371657L485.419521,276.865123L484.903041,266.974011L485.865183,255.354309L486.124033,248.562866L487.358456,237.341043L491.374300,220.150106L493.449987,214.113865L498.430414,204.359593L499.942003,199.657435L500.397433,193.917978L495.585502,195.316453L489.369431,193.286431L484.014159,191.676454L476.977580,191.052630L472.170533,189.751592L466.898289,186.592677L461.759132,185.145514L457.213378,182.221987L451.347731,180.388322L448.292808,171.578946L442.950967,163.874854L442.661592,158.338810L441.893588,153.713140L441.406412,149.477227L435.181793,144.351434L431.795982,140.468682L429.001130,135.356876L426.236804,131.810349L421.633663,127.417821L420.330864,122.904982L415.290608,113.361397L413.124568,109.035222L410.167324,103.034769L405.928039,99.246577L403.064812,95.067863L396.440929,90.072731L393.018488,85.962383L388.736468,85.671176L379.251800,85.419335L374.946581,84.567979L370.446003,83.422120L367.115137,86.186044L360.665855,89.788961L358.170147,95.537601L357.377723,100.871886L353.447349,104.474874L349.810013,108.309390L343.442538,106.235599L337.415720,102.336833L332.690480,99.924249L326.247304,97.197204L321.205827,92.708210L316.409769,88.818036L313.453747,83.730449L311.975125,79.799950L311.975125,75.643823L308.110685,66.571289L306.060639,62.632611L301.552735,58.644387L297.109544,56.120789L291.153544,51.065324L283.684734,43.464138L278.399058,38.876212L272.606671,34.568607L270.324636,30.624411L262.170850,27.909914L256.673943,27.876881L251.177035,27.842412L245.680128,27.809379L240.183221,27.776345L234.685093,27.741874L229.188185,27.708839L223.692499,27.674368L223.658311,34.283485L223.626566,40.876687L214.789023,40.895269L205.950260,40.915281L197.112718,40.935292L188.273955,40.953874L179.436413,40.972456L170.597650,40.991037L161.760108,41.011048L152.921345,41.029630L141.063068,36.692476L129.203570,32.351324L117.344071,28.000393L105.485794,23.643933L93.627517,19.279018L81.768019,14.908474L69.908521,10.530813L58.050244,6.145980L60.830444,0.000000L50.817086,0.951818L43.660850,1.588590L36.505836,2.223760L29.349600,2.860228L22.194585,3.496543L15.039570,4.131258L7.884555,4.767269L0.728320,5.403129L2.357123,11.025120Z " data-iso2="MX"/><path d="M745.647164,539.917621L741.661845,539.039308L737.355405,539.514188L742.606893,544.851983L749.401715,551.238544L757.839993,557.910070L762.727625,564.718554L767.394257,570.934228L780.091356,581.319753L783.407571,584.701114L785.490584,587.508607L785.512562,588.182944L786.858095,587.282155L790.654160,585.527544L794.914202,587.053208L799.650431,588.747748L809.192486,589.614775L813.273042,588.603440L819.082523,590.415785L822.740616,592.293595L826.725935,595.477348L833.852867,596.302595L838.083605,591.873304L836.281421,591.450503L833.336387,586.439744L832.435295,582.117925L834.717330,576.916403L837.839407,573.391780L836.518293,568.730306L834.799136,564.824649L837.402292,558.427314L836.227697,553.840695L837.092160,549.707537L839.299714,545.992362L838.541477,551.079707L841.272837,540.071721L839.950502,530.407563L841.790538,519.643708L843.827153,513.007081L847.115285,508.956314L849.442496,504.145380L846.654971,493.580984L845.525553,489.621353L849.502325,488.216177L850.198291,487.266977L840.720949,487.682825L837.292402,490.101457L832.449947,492.405385L826.270505,494.046862L821.830977,495.175415L817.789493,496.303743L812.978783,495.854458L809.397613,492.511464L804.496550,493.492601L802.640641,497.873436L799.336636,501.394840L797.019193,505.395421L792.196273,510.114680L787.072990,513.365701L784.452740,516.924298L776.887472,511.957522L773.162225,515.506900L769.693386,519.210043L763.859484,518.716003L760.026790,522.309124L761.347903,530.585735L757.275894,531.790142L755.785063,535.616362L752.633681,538.852604L745.680130,539.165862L745.647164,539.917621Z " data-iso2="NI"/><path d="M889.063696,682.669561L886.383618,678.818139L887.692522,682.802515L889.063696,682.669561Z M952.524770,659.414376L952.027826,658.363146L951.753103,658.373017L950.971668,659.473597L951.401457,660.535813L952.524770,659.414376Z M956.703005,658.907283L957.757943,654.510148L955.037572,657.593161L956.703005,658.907283Z M873.304349,630.907486L872.656002,629.651291L872.246969,629.610446L871.098016,629.959477L873.030846,632.089259L873.304349,630.907486Z M981.638110,685.277877L983.459830,679.895638L984.949441,674.213868L988.703992,676.825411L995.401135,673.260250L997.097093,668.154351L997.105640,661.110671L994.523241,656.951460L992.207019,653.241116L994.343755,649.542936L994.815058,649.198358L986.738195,643.349736L983.397560,638.826699L977.097239,634.567376L966.555192,630.258990L961.739599,629.537420L955.870289,629.697086L951.353838,626.951407L945.272076,626.128029L939.725108,625.402400L936.079225,628.408532L932.778883,630.974313L925.976735,635.235348L915.479864,638.476778L908.183214,643.406585L902.571534,645.293504L895.277326,646.105244L890.505688,644.930237L886.339662,640.071715L883.084497,637.545651L884.638820,641.634236L877.195651,642.200337L873.036951,639.753986L874.438650,635.695477L869.756145,632.008829L866.631626,627.294355L865.050441,625.939817L863.037025,627.735091L859.112755,625.555951L855.641474,629.172280L855.566994,634.248217L857.104223,639.137042L860.638996,643.118632L857.088350,645.478839L857.745244,649.780057L857.597504,654.376833L855.426580,659.347752L857.154284,664.051060L857.779432,663.322209L859.609699,658.168188L865.866064,658.575375L870.019879,658.892477L875.145605,660.914532L879.811016,660.402580L885.953829,662.361427L891.542310,672.873358L897.437261,675.288126L899.663130,670.694669L903.271162,673.127181L906.283350,680.029856L906.619123,684.072883L912.483549,685.370185L918.180699,684.128273L921.970659,680.329070L926.389430,680.132058L928.153764,675.936079L922.629995,669.580506L920.013408,665.885907L917.505490,662.300990L919.935265,658.540827L924.151351,657.904123L935.395469,650.786523L935.880203,646.237439L939.848428,642.999988L943.120687,640.399323L947.992446,640.043281L952.000964,640.623078L957.955743,644.545949L961.407489,646.804495L966.312215,649.960364L967.428202,654.549648L972.762717,654.371896L976.679660,653.278152L978.854247,657.615373L982.844450,660.374206L977.972691,658.642004L972.135127,659.582168L971.279211,664.144783L969.709015,668.362678L974.912884,677.348876L980.922608,684.597237L981.638110,685.277877Z " data-iso2="PA"/><path d="M694.518112,501.885294L693.628008,501.795780L689.757463,502.854731L689.841711,507.123866L686.319149,509.273629L682.278885,511.741044L677.891860,515.388664L676.714823,519.702785L679.834459,521.076468L683.991937,524.242420L691.017527,525.553548L697.159118,526.352144L707.426442,531.359844L716.304277,533.911092L712.707234,531.978310L718.676665,533.151094L724.589931,534.422721L730.836527,533.995112L733.149087,528.724717L733.753478,528.380813L735.818176,526.222818L735.145409,521.930935L735.823060,517.011067L731.808437,515.622619L727.095407,513.931898L722.200449,514.393623L716.290846,513.458812L711.412982,512.089671L707.394696,508.696910L704.096796,506.399544L699.847743,503.623609L695.668287,502.305109L695.034592,502.185345L694.518112,501.885294Z " data-iso2="SV"/><path d="M884.548467,233.093985L885.651023,232.821491L885.677884,232.245558L884.952615,232.210650L883.858606,232.730207L883.913551,233.155730L884.548467,233.093985Z M889.978219,231.572843L890.840240,231.180701L890.854892,230.401655L890.088109,229.117189L889.664424,230.761650L888.357962,231.844093L889.978219,231.572843Z M895.776712,230.181342L896.151556,229.709769L896.089286,229.230069L893.644859,227.442360L893.604566,227.920966L894.670493,229.747390L894.670493,230.572255L895.027022,230.746875L895.776712,230.181342Z M903.044058,228.356493L904.426221,228.051361L905.887749,227.181518L902.017203,227.877948L900.714404,228.529882L901.898767,229.008336L903.044058,228.356493Z M908.415203,225.964442L909.481129,225.485562L909.520201,225.094068L909.164892,224.789990L908.178330,225.573003L907.941458,225.964442L908.415203,225.964442Z M913.194166,223.222078L913.786348,222.263480L913.509182,222.175954L912.522621,223.352653L913.194166,223.222078Z M919.606818,216.623534L922.726453,210.947119L919.061034,215.599653L915.188047,220.515225L919.606818,216.623534Z M878.212738,180.201488L874.107762,177.562841L877.321413,180.929668L878.212738,180.201488Z M877.047911,177.442726L874.913616,173.291923L877.012502,179.084352L877.047911,177.442726Z M499.785716,188.409224L495.271707,170.471104L494.402361,159.385027L493.999433,169.937561L497.369372,183.658197L499.440175,189.702640L499.785716,188.409224Z M495.211879,156.472052L497.780847,149.678281L502.540274,141.748751L496.677070,150.189121L494.646559,155.677757L495.211879,156.472052Z M924.484682,157.080691L920.264933,145.800860L918.229539,140.942383L919.750895,146.794793L922.592144,154.345693L924.891273,159.151649L924.484682,157.080691Z M503.695333,139.497571L508.061602,134.195920L504.587878,136.319622L503.695333,139.497571Z M509.945593,132.387876L515.459594,128.897494L518.968726,125.886073L512.015175,130.200449L509.945593,132.387876Z M553.073482,104.083459L557.443413,101.018834L551.824407,104.357455L553.073482,104.083459Z M634.242607,93.906513L632.203550,89.874657L633.313432,94.316124L634.242607,93.906513Z M806.428159,89.826893L810.697969,87.242222L804.111937,90.270791L806.428159,89.826893Z M706.869670,87.813044L707.286028,86.650191L706.572969,87.236598L705.574197,88.744957L705.511926,89.319698L706.869670,87.813044Z M708.416667,85.073194L708.455739,79.515167L707.710933,85.990518L708.416667,85.073194Z M698.500989,77.097602L698.833099,75.879583L699.483887,74.652570L697.188422,76.324227L696.908815,76.805494L696.348379,77.252817L695.549850,77.711355L697.364245,77.772018L698.588900,78.440633L698.500989,77.097602Z M715.151660,73.285148L711.032032,71.885969L714.837865,73.607286L715.151660,73.285148Z M727.323732,72.230881L726.372579,71.611706L722.508139,72.161619L721.199235,72.575751L721.862234,72.793394L725.123504,72.851335L727.323732,72.230881Z M893.671721,51.337326L892.873192,52.037857L892.030707,53.482504L892.078326,55.923182L892.559397,58.434174L893.671721,51.337326Z M500.548836,192.018896L493.993328,181.795361L492.406039,173.543392L490.888345,167.498536L491.138649,163.410119L491.923747,158.234444L486.740634,156.834776L484.838328,152.037631L490.954279,156.080427L494.540333,153.113472L496.834578,146.026970L493.264396,141.319359L497.763753,140.831906L502.226479,137.106469L500.141025,132.621903L504.888243,131.339383L508.883329,130.469287L509.717267,124.747859L515.013932,126.296836L518.530389,123.732819L513.055460,116.571968L517.839308,119.829150L522.175051,118.101519L526.183569,119.039182L523.195801,122.832743L528.549852,120.047467L532.725646,118.523086L537.665780,115.549975L544.372691,111.160048L550.261537,105.991116L553.608277,100.829900L556.859779,97.644182L554.245635,93.038003L553.494724,88.108253L558.259036,86.661442L559.610675,92.552423L563.935429,91.978322L560.313966,96.282016L564.707096,94.372231L576.580025,89.027423L581.810756,88.482140L583.036633,80.111487L582.864473,84.752343L586.703272,86.162132L594.363778,85.970824L599.684862,85.901893L605.268460,87.768057L609.296514,90.055874L622.561374,92.294162L626.982587,91.259484L627.077824,86.426566L631.755446,84.256925L637.274331,86.848486L639.966619,90.899998L645.813951,93.537533L650.204639,98.214365L654.021461,102.720089L660.315676,104.514013L664.436525,100.484190L669.613532,99.808047L672.926084,104.509819L677.027397,101.395265L677.786855,95.897916L675.117765,92.859779L682.165333,95.133771L684.287418,98.715811L688.591415,99.599434L693.019954,102.701906L695.261696,106.249568L700.212820,107.783050L703.566886,104.174328L699.581567,98.644381L691.256841,96.223143L687.227567,92.816274L687.545025,88.645174L690.831936,86.096019L695.238497,84.712938L694.076113,80.170689L690.013871,79.465821L685.502305,81.551729L686.230016,77.264105L681.745312,75.889465L674.711175,78.686034L668.767385,75.471578L670.794232,71.500014L675.945598,68.849218L680.239828,71.755909L689.386281,74.730244L696.085866,69.538324L702.750042,68.873276L707.278702,67.480415L711.801258,69.246854L720.357971,68.721850L725.720570,68.921391L727.147910,63.130387L728.824332,59.411247L731.033107,63.266516L731.668023,67.542712L734.351764,71.088553L729.482447,72.171514L738.553198,71.871833L741.278453,68.877522L747.085493,69.713757L749.495731,66.395661L753.266155,63.487710L751.018309,68.049533L762.124454,67.869749L766.031630,66.007540L772.683596,65.255228L776.023010,67.784808L767.755671,67.978753L774.739747,69.908985L782.728699,73.328950L787.224393,71.450529L788.865406,75.238608L791.514960,80.225662L795.282942,83.112350L794.713959,88.313475L799.473387,87.948000L804.895814,86.870987L809.113121,86.072106L815.378033,82.474401L819.558710,82.199743L821.387757,77.656334L828.025071,76.527470L836.773481,81.663029L846.873529,95.309051L859.905179,106.783165L862.852655,111.472435L862.623108,122.921652L860.425322,129.998112L858.050492,141.070809L860.566957,144.932114L864.225050,140.300175L868.996688,140.592984L866.118809,145.810512L863.243372,150.147817L868.106584,163.229142L870.289719,166.707024L874.625462,169.388875L876.749989,165.930383L877.195651,173.190783L878.152909,177.450916L882.105261,174.300413L880.169988,179.186670L883.857385,188.779213L886.257856,193.314955L889.939147,195.862104L895.023359,197.543279L898.469000,204.416449L901.315133,210.403947L905.638666,213.253940L901.707071,211.734696L901.385950,216.740876L907.594696,215.687349L915.211246,214.132762L919.979221,211.399694L921.632444,203.441633L925.180648,196.229892L926.389430,189.183159L928.122018,176.988163L927.903460,170.296002L926.937656,165.074075L923.500562,159.088497L912.898686,131.584571L910.434724,125.902727L909.470140,120.792685L908.195424,115.178128L911.644727,119.645584L910.857187,123.574492L913.580000,127.625878L913.901121,131.678763L916.663006,138.567613L914.830296,131.585957L914.622727,126.366216L915.043970,120.913626L906.649648,106.832050L901.534911,95.163219L897.909785,85.474207L895.719325,75.446164L892.716905,60.964206L891.240725,56.280002L892.361596,50.240611L893.102738,44.672024L896.935433,42.794291L897.699774,37.754509L898.088050,33.698821L900.095361,28.722681L901.316354,24.752755L906.063572,22.799428L907.919480,17.814789L911.794909,14.807454L909.202743,10.439746L913.505519,11.538120L917.295480,8.681409L913.296730,6.044628L917.627589,5.759376L922.444404,5.284369L928.610415,2.834134L931.558474,0.000000L60.830444,0.000000L58.050244,6.145980L69.908521,10.530813L81.768019,14.908474L93.627517,19.279018L105.485794,23.643933L117.344071,28.000393L129.203570,32.351324L141.063068,36.692476L152.921345,41.029630L161.760108,41.011048L170.597650,40.991037L179.436413,40.972456L188.273955,40.953874L197.112718,40.935292L205.950260,40.915281L214.789023,40.895269L223.626566,40.876687L223.658311,34.283485L223.692499,27.674368L229.188185,27.708839L234.685093,27.741874L240.183221,27.776345L245.680128,27.809379L251.177035,27.842412L256.673943,27.876881L262.170850,27.909914L270.324636,30.624411L272.606671,34.568607L278.399058,38.876212L283.684734,43.464138L291.153544,51.065324L297.109544,56.120789L301.552735,58.644387L306.060639,62.632611L308.110685,66.571289L311.975125,75.643823L311.975125,79.799950L313.453747,83.730449L316.409769,88.818036L321.205827,92.708210L326.247304,97.197204L332.690480,99.924249L337.415720,102.336833L343.442538,106.235599L349.810013,108.309390L353.447349,104.474874L357.377723,100.871886L358.170147,95.537601L360.665855,89.788961L367.115137,86.186044L370.446003,83.422120L374.946581,84.567979L379.251800,85.419335L388.736468,85.671176L393.018488,85.962383L396.440929,90.072731L403.064812,95.067863L405.928039,99.246577L410.167324,103.034769L413.124568,109.035222L415.290608,113.361397L420.330864,122.904982L421.633663,127.417821L426.236804,131.810349L429.001130,135.356876L431.795982,140.468682L435.181793,144.351434L441.406412,149.477227L441.893588,153.713140L442.661592,158.338810L442.950967,163.874854L448.292808,171.578946L451.347731,180.388322L457.213378,182.221987L461.759132,185.145514L466.898289,186.592677L472.170533,189.751592L476.977580,191.052630L484.014159,191.676454L489.369431,193.286431L495.585502,195.316453L500.397433,193.917978L500.548836,192.018896Z M0.728320,5.403129L7.884555,4.767269L15.039570,4.131258L22.194585,3.496543L29.349600,2.860228L36.505836,2.223760L43.660850,1.588590L50.817086,0.951818L60.830444,0.000000L0.000000,0.000000L0.000000,1.469333L0.499994,1.965650L0.673375,5.213401L0.728320,5.403129Z " data-iso2="US"/></g></svg>