<?xml version="1.0" ?><!DOCTYPE svg  PUBLIC '-//W3C//DTD SVG 1.1//EN'  'http://www.w3.org/Graphics/SVG/1.1/DTD/svg11.dtd'><svg enable_background="new 0 0 1000 644" height="644px" pretty_print="False" style="stroke-linejoin: round; stroke:#000; fill: none;" version="1.1" viewBox="0 0 1000 644" width="1000px" xmlns="http://www.w3.org/2000/svg" xmlns:xlink="http://www.w3.org/1999/xlink"><defs><style type="text/css"><![CDATA[path { fill-rule: evenodd; }]]></style></defs><metadata><views><view h="644.729607466" padding="0" w="1000"><proj flip="auto" id="mercator" lon0="0"/><bbox h="734.24" w="1140.6" x="1975.45" y="187.98"/></view></views></metadata><g class="" id="countries"><path d="M522.849272,572.816121L522.641883,571.750866L522.183839,570.364700L521.746682,570.336008L520.984269,571.418541L520.766436,572.278251L520.441180,572.442462L520.230807,573.044066L519.901075,573.516513L519.008857,573.150865L519.013333,573.535004L519.759335,574.988387L520.945477,574.628484L522.128634,575.000728L522.849272,572.816121Z M524.048842,569.534951L523.478897,566.969211L522.795560,566.174344L522.410623,566.893586L522.285295,567.535523L521.933182,567.879112L522.567283,568.331236L522.738863,569.360874L523.090976,569.536999L524.048842,569.534951Z M534.280994,558.461738L534.224298,557.840550L535.277652,557.241976L534.868843,556.497696L533.796094,556.025391L533.035172,557.006680L533.159009,557.483401L533.141105,558.553114L533.423093,558.644497L534.280994,558.461738Z M487.509701,519.062772L482.553269,516.755263L481.446203,522.985990L482.235473,527.239945L483.279874,531.292756L485.562638,536.475610L487.699186,540.216482L490.492214,544.176893L492.358709,548.459593L494.908542,551.778345L489.890937,548.528101L490.475802,553.172933L494.302789,562.965152L497.265905,566.084467L500.194706,570.618854L504.827374,570.815654L502.790791,575.978131L508.443988,575.395714L512.814063,577.133464L516.717142,575.035696L517.958488,571.178583L521.378157,567.140918L522.720959,562.963115L528.004140,561.824588L528.087692,567.059150L532.395103,567.780934L532.041499,563.670364L531.344734,557.381957L532.830768,552.766529L533.705082,547.279391L535.952037,543.157070L537.035231,547.343811L537.511180,542.288439L537.218747,536.519535L537.457468,530.471662L537.048659,525.710203L535.975909,520.438930L532.210095,518.918929L526.907518,520.233797L524.357686,523.407019L519.025269,523.256777L515.219171,524.554156L510.907284,526.258885L503.829224,525.765655L499.403945,523.871688L495.660511,521.433483L491.177043,518.723879L487.509701,519.062772Z M536.307134,513.593800L536.023653,513.391672L535.638717,513.352427L534.479431,513.721372L534.627139,514.172879L535.556657,515.151007L536.307134,513.593800Z M483.558879,513.425031L483.657351,512.091320L483.543959,511.981544L483.051598,512.691327L482.424957,512.993392L483.003854,515.088134L483.558879,513.425031Z M537.672316,509.416105L533.585721,510.416243L537.567876,511.975663L537.672316,509.416105Z M532.693504,498.455172L529.130602,500.696690L533.066504,506.714926L537.262015,506.724689L536.812923,502.616752L532.693504,498.455172Z M470.474017,505.598500L473.729567,502.359809L472.970137,496.081692L469.463932,498.065127L469.857820,502.953577L470.474017,505.598500Z M491.657468,473.505859L491.251644,473.141821L490.180386,472.876952L488.815204,474.224683L490.992035,474.070210L492.278141,474.798861L492.188621,474.430673L491.657468,473.505859Z M494.286377,470.854918L493.370287,470.061748L491.365036,470.154927L491.220312,470.584772L491.135267,471.551450L491.984217,472.143582L494.286377,470.854918Z M373.741530,420.765984L369.732519,418.016802L359.107970,420.957163L360.886437,426.318286L365.023760,426.144867L370.468077,426.087680L374.878436,423.767004L380.088508,423.949357L373.741530,420.765984Z M617.309439,271.632446L617.051323,271.392066L615.730901,271.097936L615.202732,272.824711L615.125148,275.571962L615.595128,276.286364L615.994985,276.377368L617.309439,271.632446Z M615.838325,269.560795L616.209833,264.787584L615.508592,269.817739L615.838325,269.560795Z M0.000000,248.049910L0.344043,248.669860L0.749868,247.965575L0.220207,246.617496L0.000000,246.292862L0.000000,248.049910Z M610.261220,242.830470L611.238481,238.797591L614.428382,231.198713L613.388457,225.727713L612.554427,230.232097L609.659943,233.393803L609.063142,237.708419L609.183994,242.459447L610.261220,242.830470Z M580.761347,204.846010L579.437941,204.341751L579.030624,205.501719L581.335768,209.013025L582.162337,209.598250L582.517434,209.373270L583.041127,208.672396L582.712886,207.807209L582.017613,206.580894L582.190685,205.493583L581.760989,205.216958L581.283548,205.269026L580.761347,204.846010Z M571.137931,185.468667L571.628800,185.210622L571.211039,183.912771L570.706742,183.622668L570.648554,184.565636L570.308378,185.223524L570.706742,185.504150L571.137931,185.468667Z M562.148616,183.330990L562.142648,182.609205L561.903928,180.950592L561.339951,181.367549L561.250431,182.626924L561.618956,183.828960L562.148616,183.330990Z M35.327025,160.256181L35.501589,159.088263L35.149476,158.298796L33.923050,159.578020L33.224793,160.637629L33.369517,161.282554L34.439283,161.534823L35.327025,160.256181Z M548.634058,152.159057L548.657930,151.931594L548.032781,151.018766L547.676193,149.912365L547.031647,152.031802L547.773173,152.326088L548.270010,152.338815L548.634058,152.159057Z M546.980919,149.853561L547.297224,149.605646L547.474772,148.136134L546.921239,148.536393L546.536303,149.073346L546.237902,149.750260L546.643727,149.925079L546.980919,149.853561Z M506.383533,118.813611L505.937424,118.727215L505.658419,118.976985L504.984034,119.198497L503.641232,119.143510L503.906808,119.797140L505.054158,120.931929L505.731527,122.347136L506.696853,122.894543L507.128042,122.312534L507.356318,121.530945L506.696853,120.339329L506.383533,118.813611Z M402.199985,100.907145L403.906836,100.585569L403.741223,99.747450L402.713234,98.923606L402.199985,99.861370L401.421160,100.524692L401.627056,101.180356L402.199985,100.907145Z M402.943002,92.263111L403.735255,91.568914L405.844947,91.337031L404.420085,89.557249L404.166444,89.429716L402.195509,90.118765L399.660597,90.577698L398.678859,91.537788L397.670265,93.105386L397.440497,94.508655L397.622521,94.952665L398.837011,94.584989L399.508412,94.597452L400.597574,94.232934L401.166027,93.468212L401.762828,93.665993L402.943002,92.263111Z M366.059209,79.617488L365.714557,78.981879L365.614593,77.788512L364.774595,76.708661L364.410547,77.622715L364.068878,77.833449L363.752574,78.563376L364.400103,78.789671L364.574667,79.580279L365.405712,80.352471L366.059209,79.617488Z M358.379873,77.238471L358.705129,75.904815L358.303781,75.739114L357.333979,75.889329L357.031102,76.522783L357.207159,77.224528L357.465275,77.305091L358.379873,77.238471Z M362.530624,77.106785L362.951368,76.614172L362.746964,75.245159L362.269523,75.903266L362.287427,77.224528L362.530624,77.106785Z M175.138099,73.650763L175.257459,72.931216L174.638278,72.207185L174.429398,71.565281L173.947481,71.520430L173.714729,71.916379L173.389472,72.674383L174.014621,73.341261L174.022081,73.960294L174.562186,74.098045L175.138099,73.650763Z M184.328834,60.642287L184.248266,60.218361L184.318390,58.990036L183.735017,58.694193L183.084504,59.261247L182.684647,60.834998L183.350080,61.624453L184.328834,60.642287Z M360.268748,48.419678L355.838993,49.378502L355.885245,53.497868L359.276566,55.924951L363.579501,55.381523L361.392226,50.652714L360.268748,48.419678Z M352.977332,48.743868L353.557721,48.218418L353.283192,46.889766L352.641631,46.230993L351.788206,47.362803L351.403269,47.620849L351.218261,48.052503L351.224229,48.619412L352.614775,48.923644L352.977332,48.743868Z M354.524538,13.937663L355.146703,13.639141L356.538742,12.486367L356.673022,11.810376L356.213485,12.140746L353.435377,13.534054L352.104510,15.098439L354.524538,13.937663Z M264.698530,15.138051L263.437788,11.096436L260.699964,14.808978L265.359487,17.577939L264.698530,15.138051Z M267.136462,10.410005L264.200202,7.403738L264.140521,11.496776L267.534827,16.122374L272.210763,18.995878L277.422327,15.631708L280.107932,12.490935L277.856500,8.396983L273.311861,9.760200L269.174538,10.539368L267.136462,10.410005Z M358.494757,10.454140L361.271373,4.747538L357.902432,10.126940L358.494757,10.454140Z M297.303260,9.268724L297.301768,4.516505L297.001876,9.510651L297.303260,9.268724Z M447.992524,0.000000L443.591117,3.721658L443.142024,8.807730L441.638086,14.396148L440.278872,18.523179L436.260909,25.631485L438.760013,29.193303L436.963642,33.183661L435.601444,39.858105L433.902053,44.487115L433.084436,50.352950L434.281022,56.830337L434.961375,64.958502L434.624182,70.379245L432.639819,76.874411L431.747602,81.627461L431.174673,86.657954L429.088853,93.429280L425.221583,99.308975L423.150683,105.705271L418.271835,109.070676L413.666024,110.351526L409.637617,109.537228L405.721111,107.727802L401.915012,105.162727L397.538969,101.758084L395.335282,97.468391L389.465744,95.529195L383.649918,94.580315L378.575618,90.725504L375.379749,86.847530L369.201367,84.196050L364.661203,81.208613L360.016599,80.519959L356.407445,77.667650L353.311540,75.129036L348.884769,71.563734L342.181202,67.293190L340.262487,63.464646L345.447195,56.021946L348.655001,50.480539L348.268572,45.552380L348.240224,40.567887L351.888170,38.633542L356.394017,39.326238L358.430601,35.853286L363.825682,25.613157L358.666337,22.231476L353.477153,22.200954L353.332428,26.925358L349.480078,23.135022L345.438243,23.921207L347.661327,20.031426L342.455730,21.091638L337.402318,23.608242L331.852069,21.746206L327.014997,21.094690L322.416645,20.264802L317.330409,17.521537L311.662292,17.274592L306.346287,15.549428L303.896419,11.606382L299.651672,11.857570L293.340502,8.033427L288.521334,7.610583L289.350887,11.947393L295.497937,12.209259L298.088053,15.884653L297.870221,20.693455L294.517692,24.756406L289.216607,24.531939L284.055770,24.490712L279.655855,24.472389L273.658005,23.107547L271.170837,27.258440L266.994722,27.825354L263.791393,30.902748L260.250871,35.126000L261.650369,40.535691L256.732729,43.667651L254.461902,47.098632L253.248904,51.190815L249.418933,54.868959L249.796410,59.225804L252.532742,62.875307L252.001589,67.473918L248.228315,65.680972L245.700863,69.822711L243.292771,65.458657L236.835384,63.824161L232.598098,65.731921L229.767769,68.904632L229.567841,64.557196L225.408138,59.153377L222.127224,54.579617L218.838851,52.001191L213.363202,49.418459L208.418706,48.176939L206.944607,52.913275L202.728208,51.804347L198.387973,50.840272L197.388332,54.919751L196.885527,59.301314L192.573640,58.509303L187.951416,60.284644L184.021481,62.778122L187.154687,67.534162L182.405643,67.798324L178.832297,69.830440L182.405643,72.142215L177.479051,71.801920L174.593518,75.146067L171.843757,79.301218L175.918416,80.051635L174.826270,84.949172L177.579015,89.081361L172.929935,89.219766L168.855277,88.448513L164.717954,88.925859L160.626883,86.002293L159.616797,90.635264L161.131180,94.664441L164.094297,97.777156L160.171822,99.209117L159.318397,105.720908L154.797629,99.664743L151.871813,94.532022L150.287306,90.092320L147.252573,94.449459L143.440507,98.163936L139.443432,101.245930L137.644077,105.928885L138.379634,110.606825L139.083859,114.591178L135.552290,121.427170L132.169920,123.719005L129.814048,128.245370L127.719277,132.927718L125.338041,136.381617L120.147364,140.991210L111.526574,144.847488L101.352609,146.738897L95.104103,147.615257L85.825340,151.677114L81.346348,152.731782L77.388066,153.522674L71.782613,156.741330L65.273006,159.168022L61.190887,157.857122L56.565680,157.957568L43.955275,164.223580L40.296885,167.694750L35.479209,171.786577L30.980821,174.067834L26.357106,175.800292L22.442091,179.195036L19.602811,184.452782L16.366657,187.671289L14.649362,183.137633L15.410284,178.661068L10.100247,185.626734L8.385936,190.680929L10.101739,195.266861L9.639218,199.682003L6.401573,208.881005L4.390354,215.558950L4.335149,220.642960L6.650737,224.965611L8.202420,229.748136L13.121552,239.339916L16.505414,244.540711L16.338309,249.211532L14.612062,253.765097L11.396797,247.532165L8.848457,244.187606L6.195677,240.701326L5.797312,245.335009L8.747001,250.867372L10.732856,255.589803L6.840222,256.572014L4.484350,250.431666L3.041583,254.169886L8.791761,261.525609L13.661657,270.098233L15.271528,280.951814L18.633009,286.469217L21.442450,290.776477L22.255591,294.760237L26.322790,301.243363L27.883424,306.334355L27.625308,311.393551L28.034117,317.044580L29.700683,326.213866L31.212082,330.611846L35.455337,339.431509L39.180867,346.455369L39.592660,359.190960L37.960409,364.009918L38.760122,370.104092L37.745561,376.860930L33.991682,381.765528L30.021464,380.670922L28.138557,384.782755L28.104241,389.330285L30.464589,394.698593L37.142792,396.253378L43.585258,403.107633L51.689816,406.700140L57.010296,407.421478L61.265487,407.554489L67.957118,408.750288L72.252593,407.951769L76.415280,406.676466L82.290786,402.030614L88.023059,397.255776L93.406204,396.821444L99.326470,390.252549L102.671539,387.920921L108.099444,387.197831L113.006641,386.908329L117.345384,386.016783L126.367523,385.197582L131.326939,385.855065L136.390795,386.074287L147.336125,386.376217L151.767372,386.555964L156.317980,386.644048L160.671643,385.373603L164.001793,380.966444L167.939187,372.423872L171.715445,369.307274L177.605871,367.929780L185.364284,363.056674L189.961143,361.088171L195.304004,357.308305L208.475402,357.560731L213.131941,357.306540L222.206300,354.676921L228.159390,353.147998L235.468710,349.927453L241.581444,346.600917L251.094452,345.247631L259.664514,344.383994L269.644519,344.830647L275.154484,342.889014L283.978186,346.486932L291.517275,352.077891L298.147733,351.036611L306.756588,355.263855L311.939804,355.247989L317.727282,359.383586L322.371885,361.861481L320.327842,365.492280L321.445352,369.684290L328.078795,373.532427L331.729725,378.185341L334.715222,384.296236L337.417238,387.645676L338.839117,391.994088L340.947316,399.132042L336.760757,397.565311L340.362451,401.629422L343.965637,405.800767L348.114896,406.215796L347.862747,401.783714L351.200357,396.307643L355.930005,388.939568L361.320610,385.251464L365.155056,383.226781L370.039872,377.920728L371.385658,373.594829L375.020176,369.664726L376.573351,364.644543L379.793092,371.782615L377.859457,375.796482L378.865066,380.649431L374.565115,385.792179L372.173435,391.359265L371.640791,395.385399L372.160007,399.441954L370.602357,405.309431L366.590362,405.522324L362.849912,411.404087L368.789574,410.262787L373.281993,409.689721L377.983293,401.850882L378.672598,396.814206L380.537601,392.997347L383.945335,396.522912L386.571259,400.528044L387.715625,407.381394L386.014742,413.014324L382.723385,418.396649L387.879745,418.954668L391.685844,417.000676L395.454642,415.215862L399.500952,413.943593L399.606885,418.370956L394.710133,417.796644L398.926532,422.435950L402.302933,425.888465L406.322388,432.723137L408.282879,438.249820L407.160893,442.838078L406.525300,447.412747L408.549947,451.449978L413.703324,457.037121L416.427720,461.955849L420.045826,464.508715L425.907904,465.450401L432.222058,471.022359L436.817426,469.229113L443.886534,471.722781L447.983572,471.467695L453.856094,475.264481L459.756964,478.440157L464.531372,479.963674L468.698534,477.571959L473.126798,472.949357L476.597195,470.725546L481.738636,468.034246L477.617725,466.614635L485.192622,462.016354L488.685399,465.729047L485.499974,470.643743L489.774561,471.414400L492.451214,468.339990L495.136818,471.614268L495.032378,475.827629L498.935456,476.948871L501.143620,481.550204L506.016500,482.781584L508.242568,486.343756L509.260113,480.344813L505.454015,478.132210L515.222155,476.880081L523.453533,468.212747L527.056719,465.037271L530.804629,462.682070L534.683835,461.169528L547.109232,459.862471L552.525201,460.126808L556.604335,458.732039L560.331357,455.218117L562.676785,451.468748L562.488793,446.235936L562.636501,441.746992L564.203104,436.123571L565.213189,427.968623L566.227751,422.553727L568.959608,417.860853L571.913772,410.927376L574.794829,407.058945L575.800439,402.255763L576.555392,397.612381L579.895986,391.384508L581.602836,387.724826L583.452919,382.855512L585.601403,377.320149L587.806583,373.746385L590.941280,368.263825L596.309505,365.651945L598.860829,362.024329L601.692650,357.908541L602.344655,352.773029L605.806100,348.104494L608.221652,341.799254L608.806517,337.756005L609.809143,332.375947L609.545058,326.265848L611.953150,319.191720L613.239257,314.402647L614.379146,307.439662L616.139709,299.621252L618.315049,296.204226L617.773452,290.611736L617.873416,285.525645L615.623476,279.588942L612.102351,271.086172L611.554786,263.838047L610.364168,252.233317L611.598054,246.453199L607.863572,241.775551L607.756148,237.432499L603.796373,233.542204L601.470341,229.527592L599.195037,225.630793L595.784320,223.361831L592.313922,216.708584L589.077769,213.986767L582.132497,210.420113L578.350271,206.694865L575.206622,199.617083L575.203638,195.074110L574.914189,189.661116L572.759738,186.207480L566.832012,186.301059L564.407508,182.858904L563.328790,188.758050L558.719995,187.417840L555.971726,180.536928L554.994465,176.285415L552.996673,171.530032L551.095862,165.774596L546.627315,161.194745L543.133045,156.865636L545.230801,153.379436L541.861859,149.777277L535.585005,146.697626L531.398446,145.290067L526.362937,141.288984L523.804153,137.324083L519.529566,137.567661L514.796934,135.019114L511.104228,133.461468L507.988927,130.836378L506.893797,125.826912L502.623686,119.482876L503.262263,114.732347L504.054517,109.242885L502.892247,105.170544L500.633355,100.198476L496.604948,94.703388L493.362827,89.603908L493.850712,84.039236L492.193097,78.402189L491.330720,72.467075L491.084539,67.751979L487.837942,63.983101L481.476043,59.268952L478.802375,55.158325L474.781428,56.263674L470.991742,58.802049L467.102092,54.097944L465.299753,49.346230L465.259469,42.756323L464.119579,37.276098L462.370952,31.658318L460.722289,27.943025L457.981481,24.887732L459.030359,19.433553L454.349947,17.355381L454.050054,11.285185L452.931052,6.348371L449.463639,2.598771L447.992524,0.000000Z M443.045751,0.000000L443.115168,0.382662L443.943230,0.850403L445.160872,0.000000L443.045751,0.000000Z " data-iso2="AU"/><path d="M819.095312,621.233505L818.868527,620.857876L818.168778,620.341574L816.357487,620.983784L815.821858,622.194445L816.236635,622.378177L816.733472,622.237171L817.509313,622.732901L818.304550,622.852590L818.834211,622.848316L819.014744,622.307672L819.095312,621.233505Z M822.658214,610.869158L822.401589,610.883975L821.331823,612.188542L821.919672,612.977034L823.317679,613.475401L822.658214,610.869158Z M928.614260,520.616474L929.276709,519.064743L929.375181,517.575825L928.441188,518.247209L927.983143,518.308260L927.052133,519.202689L926.652277,520.975581L926.570217,521.790834L928.614260,520.616474Z M855.034667,642.729607L864.018014,640.973160L867.557043,636.155529L871.649606,632.321652L873.930878,628.598629L879.106634,626.487317L879.496047,622.504242L881.261086,618.248727L883.161897,611.665279L885.814678,607.829148L887.106752,601.975258L887.614033,596.678122L888.865823,591.986965L890.845710,588.447864L894.962145,587.631125L899.020391,585.225552L901.458323,582.034208L905.406162,580.849603L910.810195,581.595796L914.996754,583.128835L916.138136,579.278045L911.691968,577.535297L909.956769,573.812396L911.706888,568.634105L915.745739,565.755653L919.950202,561.175326L922.968523,554.465782L927.471386,549.354519L929.519906,545.430677L933.209628,540.697109L932.514354,536.745173L931.032796,532.956386L933.540852,529.708680L935.572960,525.474557L932.027962,528.408251L934.103337,524.765891L929.909318,523.237010L928.900725,527.170553L929.197633,523.067023L923.234099,525.440897L919.801002,527.650421L915.689043,527.140815L915.286202,522.434703L911.077263,518.794803L910.555062,514.168952L906.514720,515.746481L903.529223,518.497341L901.492639,522.306299L900.788414,527.460039L899.526180,532.406918L896.774928,536.703237L892.278032,538.797657L890.510009,543.219281L889.013531,547.665961L887.937797,552.063205L884.507683,558.163287L881.644531,561.338119L880.039136,565.118689L875.813785,565.284024L872.476176,567.924113L869.074410,571.816521L866.117261,574.924625L861.399549,577.590945L856.117861,580.833072L850.570595,585.389375L845.238179,586.208812L841.247072,590.318181L836.057888,596.238754L831.796729,601.393275L830.292790,605.146283L825.943603,606.191740L823.366915,609.654794L826.131595,613.051246L821.575020,613.640860L819.046076,617.144070L822.831286,618.523449L820.068097,622.177355L815.529426,624.645055L818.904335,627.203552L818.573111,631.722962L824.503821,634.276989L828.608319,634.102238L833.394663,633.030555L835.835579,636.860193L841.139648,636.771547L843.225467,640.840824L846.992774,642.292970L851.049528,641.563423L855.034667,642.729607Z M953.494893,430.976807L951.450850,427.032469L952.447507,431.643243L953.494893,430.976807Z M918.756600,405.709767L915.471210,400.379319L915.311566,396.314878L910.147746,396.797921L912.512570,400.083725L915.092242,403.198479L917.552554,407.228359L917.087049,411.553889L919.436953,415.217693L922.916303,413.091131L920.937907,417.079520L929.079765,429.018113L931.407289,433.095633L929.966014,428.458170L928.611276,423.969619L930.474787,428.007412L933.794493,430.405023L936.745673,434.232235L932.803803,435.018914L935.753492,439.466737L937.184322,443.588324L941.866226,443.623793L941.136637,448.822811L941.059053,453.309323L942.843487,457.866419L942.166118,461.933161L940.847188,468.338091L939.895291,472.286416L939.044849,479.261042L936.005640,482.745125L931.008924,484.094720L927.540018,486.222561L926.603041,490.895271L932.189098,494.695184L936.865034,498.008861L940.418983,500.236044L945.338116,502.326722L948.407165,507.263717L948.259456,513.397559L945.453000,520.292966L942.870344,524.564049L940.381683,527.787274L943.289596,531.583144L947.726812,531.849720L949.929007,535.792964L955.697089,531.734329L960.213380,527.698021L962.287264,523.962664L965.269776,518.704178L967.753961,514.697209L970.997574,509.146136L975.263209,501.501737L977.431088,496.777409L974.770848,493.161201L976.230026,488.737119L980.283797,485.759040L985.772874,485.166883L989.128388,487.920253L989.661033,483.908425L990.666642,478.030851L995.120270,474.684389L996.336252,467.857666L997.049429,463.187239L998.914432,459.266005L995.188902,455.585122L991.170939,455.353616L986.865020,458.260503L984.282364,461.970975L979.939145,463.830784L972.238920,461.819724L964.931092,457.768386L961.053377,456.236551L959.268943,448.618613L958.582621,443.890771L956.993639,439.641728L953.263633,436.673424L952.726512,441.010736L953.629173,445.589003L948.941302,444.150329L944.463802,441.888694L941.791626,438.015484L941.720010,433.093779L939.159733,427.215222L937.232066,423.505486L937.688619,419.424738L937.018710,415.419158L934.812038,411.533793L928.754508,407.991867L921.861457,405.937277L918.756600,405.709767Z " data-iso2="NZ"/></g><g class="" id="lands"><path d="M159.818218,26.798550L159.481025,26.771049L159.491469,26.931469L159.828662,26.958971L159.818218,26.798550Z "/><path d="M522.849272,572.816121L522.641883,571.750866L522.183839,570.364700L521.746682,570.336008L520.984269,571.418541L520.766436,572.278251L520.441180,572.442462L520.230807,573.044066L519.901075,573.516513L519.008857,573.150865L519.013333,573.535004L519.759335,574.988387L520.945477,574.628484L522.128634,575.000728L522.849272,572.816121Z M524.048842,569.534951L523.478897,566.969211L522.795560,566.174344L522.410623,566.893586L522.285295,567.535523L521.933182,567.879112L522.567283,568.331236L522.738863,569.360874L523.090976,569.536999L524.048842,569.534951Z M534.280994,558.461738L534.224298,557.840550L535.277652,557.241976L534.868843,556.497696L533.796094,556.025391L533.035172,557.006680L533.159009,557.483401L533.141105,558.553114L533.423093,558.644497L534.280994,558.461738Z M487.509701,519.062772L482.553269,516.755263L481.446203,522.985990L482.235473,527.239945L483.279874,531.292756L485.562638,536.475610L487.699186,540.216482L490.492214,544.176893L492.358709,548.459593L494.908542,551.778345L489.890937,548.528101L490.475802,553.172933L494.302789,562.965152L497.265905,566.084467L500.194706,570.618854L504.827374,570.815654L502.790791,575.978131L508.443988,575.395714L512.814063,577.133464L516.717142,575.035696L517.958488,571.178583L521.378157,567.140918L522.720959,562.963115L528.004140,561.824588L528.087692,567.059150L532.395103,567.780934L532.041499,563.670364L531.344734,557.381957L532.830768,552.766529L533.705082,547.279391L535.952037,543.157070L537.035231,547.343811L537.511180,542.288439L537.218747,536.519535L537.457468,530.471662L537.048659,525.710203L535.975909,520.438930L532.210095,518.918929L526.907518,520.233797L524.357686,523.407019L519.025269,523.256777L515.219171,524.554156L510.907284,526.258885L503.829224,525.765655L499.403945,523.871688L495.660511,521.433483L491.177043,518.723879L487.509701,519.062772Z M536.307134,513.593800L536.023653,513.391672L535.638717,513.352427L534.479431,513.721372L534.627139,514.172879L535.556657,515.151007L536.307134,513.593800Z M483.558879,513.425031L483.657351,512.091320L483.543959,511.981544L483.051598,512.691327L482.424957,512.993392L483.003854,515.088134L483.558879,513.425031Z M537.672316,509.416105L533.585721,510.416243L537.567876,511.975663L537.672316,509.416105Z M532.693504,498.455172L529.130602,500.696690L533.066504,506.714926L537.262015,506.724689L536.812923,502.616752L532.693504,498.455172Z M470.474017,505.598500L473.729567,502.359809L472.970137,496.081692L469.463932,498.065127L469.857820,502.953577L470.474017,505.598500Z M491.657468,473.505859L491.251644,473.141821L490.180386,472.876952L488.815204,474.224683L490.992035,474.070210L492.278141,474.798861L492.188621,474.430673L491.657468,473.505859Z M494.286377,470.854918L493.370287,470.061748L491.365036,470.154927L491.220312,470.584772L491.135267,471.551450L491.984217,472.143582L494.286377,470.854918Z M373.741530,420.765984L369.732519,418.016802L359.107970,420.957163L360.886437,426.318286L365.023760,426.144867L370.468077,426.087680L374.878436,423.767004L380.088508,423.949357L373.741530,420.765984Z M617.309439,271.632446L617.051323,271.392066L615.730901,271.097936L615.202732,272.824711L615.125148,275.571962L615.595128,276.286364L615.994985,276.377368L617.309439,271.632446Z M615.838325,269.560795L616.209833,264.787584L615.508592,269.817739L615.838325,269.560795Z M0.000000,248.049910L0.344043,248.669860L0.749868,247.965575L0.220207,246.617496L0.000000,246.292862L0.000000,248.049910Z M610.261220,242.830470L611.238481,238.797591L614.428382,231.198713L613.388457,225.727713L612.554427,230.232097L609.659943,233.393803L609.063142,237.708419L609.183994,242.459447L610.261220,242.830470Z M580.761347,204.846010L579.437941,204.341751L579.030624,205.501719L581.335768,209.013025L582.162337,209.598250L582.517434,209.373270L583.041127,208.672396L582.712886,207.807209L582.017613,206.580894L582.190685,205.493583L581.760989,205.216958L581.283548,205.269026L580.761347,204.846010Z M571.137931,185.468667L571.628800,185.210622L571.211039,183.912771L570.706742,183.622668L570.648554,184.565636L570.308378,185.223524L570.706742,185.504150L571.137931,185.468667Z M562.148616,183.330990L562.142648,182.609205L561.903928,180.950592L561.339951,181.367549L561.250431,182.626924L561.618956,183.828960L562.148616,183.330990Z M35.327025,160.256181L35.501589,159.088263L35.149476,158.298796L33.923050,159.578020L33.224793,160.637629L33.369517,161.282554L34.439283,161.534823L35.327025,160.256181Z M548.634058,152.159057L548.657930,151.931594L548.032781,151.018766L547.676193,149.912365L547.031647,152.031802L547.773173,152.326088L548.270010,152.338815L548.634058,152.159057Z M546.980919,149.853561L547.297224,149.605646L547.474772,148.136134L546.921239,148.536393L546.536303,149.073346L546.237902,149.750260L546.643727,149.925079L546.980919,149.853561Z M506.383533,118.813611L505.937424,118.727215L505.658419,118.976985L504.984034,119.198497L503.641232,119.143510L503.906808,119.797140L505.054158,120.931929L505.731527,122.347136L506.696853,122.894543L507.128042,122.312534L507.356318,121.530945L506.696853,120.339329L506.383533,118.813611Z M402.199985,100.907145L403.906836,100.585569L403.741223,99.747450L402.713234,98.923606L402.199985,99.861370L401.421160,100.524692L401.627056,101.180356L402.199985,100.907145Z M402.943002,92.263111L403.735255,91.568914L405.844947,91.337031L404.420085,89.557249L404.166444,89.429716L402.195509,90.118765L399.660597,90.577698L398.678859,91.537788L397.670265,93.105386L397.440497,94.508655L397.622521,94.952665L398.837011,94.584989L399.508412,94.597452L400.597574,94.232934L401.166027,93.468212L401.762828,93.665993L402.943002,92.263111Z M366.059209,79.617488L365.714557,78.981879L365.614593,77.788512L364.774595,76.708661L364.410547,77.622715L364.068878,77.833449L363.752574,78.563376L364.400103,78.789671L364.574667,79.580279L365.405712,80.352471L366.059209,79.617488Z M358.379873,77.238471L358.705129,75.904815L358.303781,75.739114L357.333979,75.889329L357.031102,76.522783L357.207159,77.224528L357.465275,77.305091L358.379873,77.238471Z M362.530624,77.106785L362.951368,76.614172L362.746964,75.245159L362.269523,75.903266L362.287427,77.224528L362.530624,77.106785Z M175.138099,73.650763L175.257459,72.931216L174.638278,72.207185L174.429398,71.565281L173.947481,71.520430L173.714729,71.916379L173.389472,72.674383L174.014621,73.341261L174.022081,73.960294L174.562186,74.098045L175.138099,73.650763Z M184.328834,60.642287L184.248266,60.218361L184.318390,58.990036L183.735017,58.694193L183.084504,59.261247L182.684647,60.834998L183.350080,61.624453L184.328834,60.642287Z M360.268748,48.419678L355.838993,49.378502L355.885245,53.497868L359.276566,55.924951L363.579501,55.381523L361.392226,50.652714L360.268748,48.419678Z M352.977332,48.743868L353.557721,48.218418L353.283192,46.889766L352.641631,46.230993L351.788206,47.362803L351.403269,47.620849L351.218261,48.052503L351.224229,48.619412L352.614775,48.923644L352.977332,48.743868Z M354.524538,13.937663L355.146703,13.639141L356.538742,12.486367L356.673022,11.810376L356.213485,12.140746L353.435377,13.534054L352.104510,15.098439L354.524538,13.937663Z M264.698530,15.138051L263.437788,11.096436L260.699964,14.808978L265.359487,17.577939L264.698530,15.138051Z M267.136462,10.410005L264.200202,7.403738L264.140521,11.496776L267.534827,16.122374L272.210763,18.995878L277.422327,15.631708L280.107932,12.490935L277.856500,8.396983L273.311861,9.760200L269.174538,10.539368L267.136462,10.410005Z M358.494757,10.454140L361.271373,4.747538L357.902432,10.126940L358.494757,10.454140Z M297.303260,9.268724L297.301768,4.516505L297.001876,9.510651L297.303260,9.268724Z M447.992524,0.000000L443.591117,3.721658L443.142024,8.807730L441.638086,14.396148L440.278872,18.523179L436.260909,25.631485L438.760013,29.193303L436.963642,33.183661L435.601444,39.858105L433.902053,44.487115L433.084436,50.352950L434.281022,56.830337L434.961375,64.958502L434.624182,70.379245L432.639819,76.874411L431.747602,81.627461L431.174673,86.657954L429.088853,93.429280L425.221583,99.308975L423.150683,105.705271L418.271835,109.070676L413.666024,110.351526L409.637617,109.537228L405.721111,107.727802L401.915012,105.162727L397.538969,101.758084L395.335282,97.468391L389.465744,95.529195L383.649918,94.580315L378.575618,90.725504L375.379749,86.847530L369.201367,84.196050L364.661203,81.208613L360.016599,80.519959L356.407445,77.667650L353.311540,75.129036L348.884769,71.563734L342.181202,67.293190L340.262487,63.464646L345.447195,56.021946L348.655001,50.480539L348.268572,45.552380L348.240224,40.567887L351.888170,38.633542L356.394017,39.326238L358.430601,35.853286L363.825682,25.613157L358.666337,22.231476L353.477153,22.200954L353.332428,26.925358L349.480078,23.135022L345.438243,23.921207L347.661327,20.031426L342.455730,21.091638L337.402318,23.608242L331.852069,21.746206L327.014997,21.094690L322.416645,20.264802L317.330409,17.521537L311.662292,17.274592L306.346287,15.549428L303.896419,11.606382L299.651672,11.857570L293.340502,8.033427L288.521334,7.610583L289.350887,11.947393L295.497937,12.209259L298.088053,15.884653L297.870221,20.693455L294.517692,24.756406L289.216607,24.531939L284.055770,24.490712L279.655855,24.472389L273.658005,23.107547L271.170837,27.258440L266.994722,27.825354L263.791393,30.902748L260.250871,35.126000L261.650369,40.535691L256.732729,43.667651L254.461902,47.098632L253.248904,51.190815L249.418933,54.868959L249.796410,59.225804L252.532742,62.875307L252.001589,67.473918L248.228315,65.680972L245.700863,69.822711L243.292771,65.458657L236.835384,63.824161L232.598098,65.731921L229.767769,68.904632L229.567841,64.557196L225.408138,59.153377L222.127224,54.579617L218.838851,52.001191L213.363202,49.418459L208.418706,48.176939L206.944607,52.913275L202.728208,51.804347L198.387973,50.840272L197.388332,54.919751L196.885527,59.301314L192.573640,58.509303L187.951416,60.284644L184.021481,62.778122L187.154687,67.534162L182.405643,67.798324L178.832297,69.830440L182.405643,72.142215L177.479051,71.801920L174.593518,75.146067L171.843757,79.301218L175.918416,80.051635L174.826270,84.949172L177.579015,89.081361L172.929935,89.219766L168.855277,88.448513L164.717954,88.925859L160.626883,86.002293L159.616797,90.635264L161.131180,94.664441L164.094297,97.777156L160.171822,99.209117L159.318397,105.720908L154.797629,99.664743L151.871813,94.532022L150.287306,90.092320L147.252573,94.449459L143.440507,98.163936L139.443432,101.245930L137.644077,105.928885L138.379634,110.606825L139.083859,114.591178L135.552290,121.427170L132.169920,123.719005L129.814048,128.245370L127.719277,132.927718L125.338041,136.381617L120.147364,140.991210L111.526574,144.847488L101.352609,146.738897L95.104103,147.615257L85.825340,151.677114L81.346348,152.731782L77.388066,153.522674L71.782613,156.741330L65.273006,159.168022L61.190887,157.857122L56.565680,157.957568L43.955275,164.223580L40.296885,167.694750L35.479209,171.786577L30.980821,174.067834L26.357106,175.800292L22.442091,179.195036L19.602811,184.452782L16.366657,187.671289L14.649362,183.137633L15.410284,178.661068L10.100247,185.626734L8.385936,190.680929L10.101739,195.266861L9.639218,199.682003L6.401573,208.881005L4.390354,215.558950L4.335149,220.642960L6.650737,224.965611L8.202420,229.748136L13.121552,239.339916L16.505414,244.540711L16.338309,249.211532L14.612062,253.765097L11.396797,247.532165L8.848457,244.187606L6.195677,240.701326L5.797312,245.335009L8.747001,250.867372L10.732856,255.589803L6.840222,256.572014L4.484350,250.431666L3.041583,254.169886L8.791761,261.525609L13.661657,270.098233L15.271528,280.951814L18.633009,286.469217L21.442450,290.776477L22.255591,294.760237L26.322790,301.243363L27.883424,306.334355L27.625308,311.393551L28.034117,317.044580L29.700683,326.213866L31.212082,330.611846L35.455337,339.431509L39.180867,346.455369L39.592660,359.190960L37.960409,364.009918L38.760122,370.104092L37.745561,376.860930L33.991682,381.765528L30.021464,380.670922L28.138557,384.782755L28.104241,389.330285L30.464589,394.698593L37.142792,396.253378L43.585258,403.107633L51.689816,406.700140L57.010296,407.421478L61.265487,407.554489L67.957118,408.750288L72.252593,407.951769L76.415280,406.676466L82.290786,402.030614L88.023059,397.255776L93.406204,396.821444L99.326470,390.252549L102.671539,387.920921L108.099444,387.197831L113.006641,386.908329L117.345384,386.016783L126.367523,385.197582L131.326939,385.855065L136.390795,386.074287L147.336125,386.376217L151.767372,386.555964L156.317980,386.644048L160.671643,385.373603L164.001793,380.966444L167.939187,372.423872L171.715445,369.307274L177.605871,367.929780L185.364284,363.056674L189.961143,361.088171L195.304004,357.308305L208.475402,357.560731L213.131941,357.306540L222.206300,354.676921L228.159390,353.147998L235.468710,349.927453L241.581444,346.600917L251.094452,345.247631L259.664514,344.383994L269.644519,344.830647L275.154484,342.889014L283.978186,346.486932L291.517275,352.077891L298.147733,351.036611L306.756588,355.263855L311.939804,355.247989L317.727282,359.383586L322.371885,361.861481L320.327842,365.492280L321.445352,369.684290L328.078795,373.532427L331.729725,378.185341L334.715222,384.296236L337.417238,387.645676L338.839117,391.994088L340.947316,399.132042L336.760757,397.565311L340.362451,401.629422L343.965637,405.800767L348.114896,406.215796L347.862747,401.783714L351.200357,396.307643L355.930005,388.939568L361.320610,385.251464L365.155056,383.226781L370.039872,377.920728L371.385658,373.594829L375.020176,369.664726L376.573351,364.644543L379.793092,371.782615L377.859457,375.796482L378.865066,380.649431L374.565115,385.792179L372.173435,391.359265L371.640791,395.385399L372.160007,399.441954L370.602357,405.309431L366.590362,405.522324L362.849912,411.404087L368.789574,410.262787L373.281993,409.689721L377.983293,401.850882L378.672598,396.814206L380.537601,392.997347L383.945335,396.522912L386.571259,400.528044L387.715625,407.381394L386.014742,413.014324L382.723385,418.396649L387.879745,418.954668L391.685844,417.000676L395.454642,415.215862L399.500952,413.943593L399.606885,418.370956L394.710133,417.796644L398.926532,422.435950L402.302933,425.888465L406.322388,432.723137L408.282879,438.249820L407.160893,442.838078L406.525300,447.412747L408.549947,451.449978L413.703324,457.037121L416.427720,461.955849L420.045826,464.508715L425.907904,465.450401L432.222058,471.022359L436.817426,469.229113L443.886534,471.722781L447.983572,471.467695L453.856094,475.264481L459.756964,478.440157L464.531372,479.963674L468.698534,477.571959L473.126798,472.949357L476.597195,470.725546L481.738636,468.034246L477.617725,466.614635L485.192622,462.016354L488.685399,465.729047L485.499974,470.643743L489.774561,471.414400L492.451214,468.339990L495.136818,471.614268L495.032378,475.827629L498.935456,476.948871L501.143620,481.550204L506.016500,482.781584L508.242568,486.343756L509.260113,480.344813L505.454015,478.132210L515.222155,476.880081L523.453533,468.212747L527.056719,465.037271L530.804629,462.682070L534.683835,461.169528L547.109232,459.862471L552.525201,460.126808L556.604335,458.732039L560.331357,455.218117L562.676785,451.468748L562.488793,446.235936L562.636501,441.746992L564.203104,436.123571L565.213189,427.968623L566.227751,422.553727L568.959608,417.860853L571.913772,410.927376L574.794829,407.058945L575.800439,402.255763L576.555392,397.612381L579.895986,391.384508L581.602836,387.724826L583.452919,382.855512L585.601403,377.320149L587.806583,373.746385L590.941280,368.263825L596.309505,365.651945L598.860829,362.024329L601.692650,357.908541L602.344655,352.773029L605.806100,348.104494L608.221652,341.799254L608.806517,337.756005L609.809143,332.375947L609.545058,326.265848L611.953150,319.191720L613.239257,314.402647L614.379146,307.439662L616.139709,299.621252L618.315049,296.204226L617.773452,290.611736L617.873416,285.525645L615.623476,279.588942L612.102351,271.086172L611.554786,263.838047L610.364168,252.233317L611.598054,246.453199L607.863572,241.775551L607.756148,237.432499L603.796373,233.542204L601.470341,229.527592L599.195037,225.630793L595.784320,223.361831L592.313922,216.708584L589.077769,213.986767L582.132497,210.420113L578.350271,206.694865L575.206622,199.617083L575.203638,195.074110L574.914189,189.661116L572.759738,186.207480L566.832012,186.301059L564.407508,182.858904L563.328790,188.758050L558.719995,187.417840L555.971726,180.536928L554.994465,176.285415L552.996673,171.530032L551.095862,165.774596L546.627315,161.194745L543.133045,156.865636L545.230801,153.379436L541.861859,149.777277L535.585005,146.697626L531.398446,145.290067L526.362937,141.288984L523.804153,137.324083L519.529566,137.567661L514.796934,135.019114L511.104228,133.461468L507.988927,130.836378L506.893797,125.826912L502.623686,119.482876L503.262263,114.732347L504.054517,109.242885L502.892247,105.170544L500.633355,100.198476L496.604948,94.703388L493.362827,89.603908L493.850712,84.039236L492.193097,78.402189L491.330720,72.467075L491.084539,67.751979L487.837942,63.983101L481.476043,59.268952L478.802375,55.158325L474.781428,56.263674L470.991742,58.802049L467.102092,54.097944L465.299753,49.346230L465.259469,42.756323L464.119579,37.276098L462.370952,31.658318L460.722289,27.943025L457.981481,24.887732L459.030359,19.433553L454.349947,17.355381L454.050054,11.285185L452.931052,6.348371L449.463639,2.598771L447.992524,0.000000Z M443.045751,0.000000L443.115168,0.382662L443.943230,0.850403L445.160872,0.000000L443.045751,0.000000Z "/><path d="M939.538702,175.127389L939.508862,174.814289L939.149289,174.674612L938.889681,174.881723L938.977709,175.247823L939.419342,175.305634L939.538702,175.127389Z M998.484735,130.789046L994.214624,130.716471L990.399574,133.172472L995.430606,131.267140L998.484735,130.789046Z M1000.000000,109.443623L996.203463,106.089960L990.117585,105.395680L985.193977,106.451239L981.874272,109.184959L979.785468,112.903968L981.607203,117.035964L987.528961,118.625114L992.007952,119.121516L996.096039,117.269883L1000.000000,111.680176L1000.000000,109.443623Z M979.330408,101.427048L979.966001,100.752597L980.143549,99.853567L979.686996,99.942522L979.407992,100.025236L978.963375,100.423234L978.545614,101.695621L979.330408,101.427048Z M1000.000000,93.070698L999.946898,93.041546L999.705193,93.711158L999.311305,94.295242L998.880116,94.703388L998.630951,95.689709L1000.000000,95.860578L1000.000000,93.070698Z M977.608637,28.046946L977.692189,27.849805L977.556417,27.684764L976.785051,27.600718L976.155426,27.765755L975.848074,27.822298L976.048002,28.075983L977.011836,28.205888L977.608637,28.046946Z "/><path d="M151.211290,0.000000L148.079142,2.983166L154.017312,1.536913L151.211290,0.000000Z "/><path d="M831.289448,190.440076L831.061171,189.711207L829.746717,189.085956L829.419969,190.362492L829.751193,190.703561L830.204762,190.937974L830.804547,191.067316L831.289448,190.440076Z M838.416743,170.773384L838.167579,170.395150L838.019871,169.784652L838.073583,169.262407L837.118701,169.835922L835.429755,170.161188L836.402540,172.310976L836.353304,173.271873L837.352946,173.660191L837.742358,174.249209L838.348111,174.274891L840.093754,173.825487L840.374251,171.023436L839.134397,171.076335L838.416743,170.773384Z M829.096204,166.356882L827.455001,161.951603L823.823467,159.152070L824.081584,163.681757L828.260683,166.489676L829.096204,166.356882Z M816.047151,158.801155L817.941994,154.745308L815.234009,158.962251L816.047151,158.801155Z M780.228648,151.419479L781.917594,157.723201L785.684901,162.186372L790.204176,167.027324L796.112506,172.341450L801.891031,175.607556L806.669915,178.632121L810.392461,181.617116L814.055327,183.382555L819.520532,186.354303L822.091253,181.633218L818.229950,179.373589L815.225057,176.571396L808.576694,171.658301L804.986936,169.686923L801.313626,166.673679L798.717542,163.421277L795.345617,159.946597L786.122057,153.619763L781.951910,152.442221L780.228648,151.419479Z M715.287749,136.248814L715.644337,135.060200L715.411585,133.060356L714.928176,134.025338L715.053504,136.595066L715.287749,136.248814Z "/><path d="M837.324598,299.053005L837.036641,298.988171L836.815825,299.235575L837.005309,299.182679L837.097813,299.242400L837.088861,299.370382L836.972485,299.532505L836.911313,299.667334L836.939661,299.826069L837.000833,300.000183L837.033657,300.191385L837.127653,300.191385L837.238062,300.005304L837.400690,300.018961L837.557350,300.179434L837.649854,300.427002L837.648362,300.355289L837.667758,300.290409L837.702074,300.235774L837.755786,300.191385L837.928859,300.066760L838.076567,299.774863L838.103423,299.479600L837.915431,299.343078L837.634934,299.238988L837.324598,299.053005Z "/><path d="M819.095312,621.233505L818.868527,620.857876L818.168778,620.341574L816.357487,620.983784L815.821858,622.194445L816.236635,622.378177L816.733472,622.237171L817.509313,622.732901L818.304550,622.852590L818.834211,622.848316L819.014744,622.307672L819.095312,621.233505Z M822.658214,610.869158L822.401589,610.883975L821.331823,612.188542L821.919672,612.977034L823.317679,613.475401L822.658214,610.869158Z M928.614260,520.616474L929.276709,519.064743L929.375181,517.575825L928.441188,518.247209L927.983143,518.308260L927.052133,519.202689L926.652277,520.975581L926.570217,521.790834L928.614260,520.616474Z M855.034667,642.729607L864.018014,640.973160L867.557043,636.155529L871.649606,632.321652L873.930878,628.598629L879.106634,626.487317L879.496047,622.504242L881.261086,618.248727L883.161897,611.665279L885.814678,607.829148L887.106752,601.975258L887.614033,596.678122L888.865823,591.986965L890.845710,588.447864L894.962145,587.631125L899.020391,585.225552L901.458323,582.034208L905.406162,580.849603L910.810195,581.595796L914.996754,583.128835L916.138136,579.278045L911.691968,577.535297L909.956769,573.812396L911.706888,568.634105L915.745739,565.755653L919.950202,561.175326L922.968523,554.465782L927.471386,549.354519L929.519906,545.430677L933.209628,540.697109L932.514354,536.745173L931.032796,532.956386L933.540852,529.708680L935.572960,525.474557L932.027962,528.408251L934.103337,524.765891L929.909318,523.237010L928.900725,527.170553L929.197633,523.067023L923.234099,525.440897L919.801002,527.650421L915.689043,527.140815L915.286202,522.434703L911.077263,518.794803L910.555062,514.168952L906.514720,515.746481L903.529223,518.497341L901.492639,522.306299L900.788414,527.460039L899.526180,532.406918L896.774928,536.703237L892.278032,538.797657L890.510009,543.219281L889.013531,547.665961L887.937797,552.063205L884.507683,558.163287L881.644531,561.338119L880.039136,565.118689L875.813785,565.284024L872.476176,567.924113L869.074410,571.816521L866.117261,574.924625L861.399549,577.590945L856.117861,580.833072L850.570595,585.389375L845.238179,586.208812L841.247072,590.318181L836.057888,596.238754L831.796729,601.393275L830.292790,605.146283L825.943603,606.191740L823.366915,609.654794L826.131595,613.051246L821.575020,613.640860L819.046076,617.144070L822.831286,618.523449L820.068097,622.177355L815.529426,624.645055L818.904335,627.203552L818.573111,631.722962L824.503821,634.276989L828.608319,634.102238L833.394663,633.030555L835.835579,636.860193L841.139648,636.771547L843.225467,640.840824L846.992774,642.292970L851.049528,641.563423L855.034667,642.729607Z M953.494893,430.976807L951.450850,427.032469L952.447507,431.643243L953.494893,430.976807Z M918.756600,405.709767L915.471210,400.379319L915.311566,396.314878L910.147746,396.797921L912.512570,400.083725L915.092242,403.198479L917.552554,407.228359L917.087049,411.553889L919.436953,415.217693L922.916303,413.091131L920.937907,417.079520L929.079765,429.018113L931.407289,433.095633L929.966014,428.458170L928.611276,423.969619L930.474787,428.007412L933.794493,430.405023L936.745673,434.232235L932.803803,435.018914L935.753492,439.466737L937.184322,443.588324L941.866226,443.623793L941.136637,448.822811L941.059053,453.309323L942.843487,457.866419L942.166118,461.933161L940.847188,468.338091L939.895291,472.286416L939.044849,479.261042L936.005640,482.745125L931.008924,484.094720L927.540018,486.222561L926.603041,490.895271L932.189098,494.695184L936.865034,498.008861L940.418983,500.236044L945.338116,502.326722L948.407165,507.263717L948.259456,513.397559L945.453000,520.292966L942.870344,524.564049L940.381683,527.787274L943.289596,531.583144L947.726812,531.849720L949.929007,535.792964L955.697089,531.734329L960.213380,527.698021L962.287264,523.962664L965.269776,518.704178L967.753961,514.697209L970.997574,509.146136L975.263209,501.501737L977.431088,496.777409L974.770848,493.161201L976.230026,488.737119L980.283797,485.759040L985.772874,485.166883L989.128388,487.920253L989.661033,483.908425L990.666642,478.030851L995.120270,474.684389L996.336252,467.857666L997.049429,463.187239L998.914432,459.266005L995.188902,455.585122L991.170939,455.353616L986.865020,458.260503L984.282364,461.970975L979.939145,463.830784L972.238920,461.819724L964.931092,457.768386L961.053377,456.236551L959.268943,448.618613L958.582621,443.890771L956.993639,439.641728L953.263633,436.673424L952.726512,441.010736L953.629173,445.589003L948.941302,444.150329L944.463802,441.888694L941.791626,438.015484L941.720010,433.093779L939.159733,427.215222L937.232066,423.505486L937.688619,419.424738L937.018710,415.419158L934.812038,411.533793L928.754508,407.991867L921.861457,405.937277L918.756600,405.709767Z "/><path d="M617.269155,11.970230L612.188887,9.600426L614.868523,13.270586L619.765275,14.097594L617.269155,11.970230Z M628.645674,10.181725L627.990685,9.830198L625.910833,9.402619L626.154030,10.245642L624.714247,9.971718L624.832116,10.323257L625.334920,11.084259L626.207742,11.183199L627.863865,10.743314L628.420382,11.030984L628.645674,10.181725Z "/><path d="M821.889832,14.917143L821.063263,14.364159L820.763370,13.570606L819.777157,13.453337L819.113216,13.757938L820.006925,15.107580L820.539570,15.170046L821.889832,14.917143Z M724.829104,16.988033L717.206464,12.230574L721.449719,15.646945L724.829104,16.988033Z M805.525147,0.000000L805.186865,0.829141L804.491592,0.757763L804.500544,1.204277L804.933224,2.126298L805.501677,2.085281L806.226790,2.241753L807.207036,1.122261L808.120142,0.977977L808.508062,1.053915L809.728520,0.785099L809.677792,0.589192L810.035546,0.000000L805.525147,0.000000Z M743.082052,0.000000L747.233013,1.205796L751.183836,1.940968L743.082052,0.000000Z "/><path d="M867.221343,150.451198L866.549942,149.821775L866.200813,149.769331L864.996767,149.909186L864.795347,150.703965L865.857653,151.338378L866.684222,151.349509L867.221343,150.451198Z M861.034009,139.949269L858.672169,136.533401L858.833305,141.301656L861.034009,139.949269Z M858.636361,130.241630L856.247665,126.768831L857.317431,130.937356L858.636361,130.241630Z M845.060630,107.751273L841.166504,109.396315L844.351929,112.001187L845.060630,107.751273Z M845.075550,95.544779L841.293324,92.594700L845.279955,96.442520L845.075550,95.544779Z M842.782343,88.495156L840.753219,84.439824L837.164953,86.779157L841.036700,88.658412L842.782343,88.495156Z M829.273752,84.666536L826.847756,81.183794L826.303176,85.610827L829.097696,89.515256L834.579313,91.360374L833.381235,87.285776L829.977978,85.011294L829.273752,84.666536Z M826.316604,78.760221L826.552340,77.504958L824.790285,77.148614L824.418776,78.143377L826.039091,79.172549L826.316604,78.760221Z M841.502205,82.671718L841.053112,75.334963L840.988956,81.961027L841.502205,82.671718Z M836.894901,74.189366L838.288431,71.769439L835.595367,72.225748L833.272319,74.437028L833.975052,74.847261L835.869895,74.916929L836.894901,74.189366Z M841.139648,72.490281L840.333967,67.072314L840.242954,72.335581L841.139648,72.490281Z M819.087852,64.549479L817.591373,70.634354L818.371690,75.452642L824.406840,76.487158L824.982753,69.428555L820.071081,69.777883L819.087852,64.549479Z M831.907137,55.617050L832.121985,54.401098L830.709059,53.745580L829.679577,54.159496L829.246896,54.616553L829.136488,55.941887L829.545297,56.152816L831.271544,56.416110L831.907137,55.617050Z M830.440498,50.045525L830.589699,49.688945L831.265576,49.509131L831.420744,49.077306L831.428204,48.577928L831.332716,47.991054L830.321138,46.934303L829.187216,47.540976L828.957448,48.175402L829.863093,50.079340L830.216698,50.200771L830.440498,50.045525Z "/></g></svg>