<?xml version="1.0" ?><!DOCTYPE svg  PUBLIC '-//W3C//DTD SVG 1.1//EN'  'http://www.w3.org/Graphics/SVG/1.1/DTD/svg11.dtd'><svg enable_background="new 0 0 1000 418" height="418px" pretty_print="False" style="stroke-linejoin: round; stroke:#000; fill: none;" version="1.1" viewBox="0 0 1000 418" width="1000px" xmlns="http://www.w3.org/2000/svg" xmlns:xlink="http://www.w3.org/1999/xlink"><defs><style type="text/css"><![CDATA[path { fill-rule: evenodd; }]]></style></defs><metadata><views><view h="418.893981223" padding="0" w="1000"><proj flip="auto" id="mercator" lon0="0"/><bbox h="263.33" w="630.14" x="-165.45" y="-933.74"/></view></views></metadata><g class="" id="countries"><path d="M817.013711,176.672992L811.876073,179.056259L808.586798,174.532942L804.628334,176.090535L800.972084,181.713067L797.210600,187.921889L797.261868,192.395875L798.098353,197.291690L797.580272,202.070503L801.058431,202.550572L804.026604,210.539880L800.294801,218.500688L801.384930,225.432396L800.721139,230.216131L800.864151,236.542793L798.727066,241.751894L797.445355,246.378950L800.257025,253.419227L798.071370,257.866632L801.509054,262.855456L811.657508,268.868862L814.779486,275.043409L815.629463,277.606901L815.785967,280.899171L821.465971,282.906431L823.870191,278.282911L825.262534,274.382338L826.352663,269.820342L830.313825,267.968142L833.916108,266.202759L835.008936,261.537173L837.027293,256.264019L840.111495,253.504353L843.435849,250.034834L843.047288,244.412773L842.159535,242.314947L842.394290,239.591121L842.237786,238.800852L836.220490,237.567660L833.878331,231.843192L829.261473,224.100792L829.355915,219.729303L828.147059,214.940800L830.025103,211.034486L831.034282,202.320514L831.395859,201.900191L831.816800,200.276178L830.197797,190.823573L827.032645,186.962983L822.396898,184.571308L818.611128,177.619633L817.518301,176.771886L817.013711,176.672992Z " data-iso2="AL"/><path d="M310.489564,177.583020L311.215417,176.416583L311.193830,175.696654L310.376234,174.626427L306.460943,173.478687L304.615279,173.188913L303.441502,173.979288L302.596922,174.947180L302.224551,176.729765L302.421529,177.388959L302.650888,178.624449L302.591525,179.992793L303.163573,180.886908L304.197037,180.998420L305.519223,180.727858L306.965533,180.193953L309.510067,178.668365L310.270998,178.419494L310.489564,177.583020Z " data-iso2="AD"/><path d="M772.545081,176.304852L773.030782,176.125340L775.499762,172.007437L773.365376,168.130417L772.752853,160.921242L777.720495,158.683622L777.895887,153.917107L781.190559,148.992494L785.235370,146.537377L788.856541,148.655163L787.396740,142.955713L790.332533,140.086737L792.661200,139.411273L793.489590,139.493158L795.151767,137.545737L799.161499,138.186371L801.608892,132.994698L798.179303,127.591082L795.227320,123.812928L800.537652,122.480283L804.250567,119.966569L800.006079,115.694395L794.517657,110.833824L791.392980,107.767554L791.778843,102.976921L794.285600,98.100305L797.361707,91.449910L796.759977,86.898704L791.754558,86.814900L789.282879,87.917438L788.316873,88.001201L786.498193,88.157297L782.272593,86.218656L781.104213,81.859162L773.980597,79.538649L768.362655,77.642252L764.280067,78.225489L759.069574,78.519918L751.927070,76.697277L747.952417,78.101206L741.813695,76.479149L736.322575,76.172968L730.610190,72.062254L727.078064,75.189079L719.889689,74.411614L715.313305,80.614215L709.573938,80.071720L706.009432,75.474336L702.140013,74.449919L698.637569,82.601600L697.987269,88.499908L701.913353,95.289949L706.581479,100.892018L709.919325,108.075122L711.147069,113.357651L713.518910,116.848711L718.270685,121.537027L721.543771,124.968756L724.228618,128.730042L730.146076,135.078371L735.194669,140.131389L739.711689,141.896300L740.464525,146.702494L743.972366,152.202088L750.121881,158.113265L749.026356,162.056751L753.311318,162.920915L758.246581,166.994190L761.719343,169.484708L768.888831,174.815218L770.065307,175.293544L772.545081,176.304852Z " data-iso2="BA"/><path d="M307.173305,317.882783L302.818185,314.477912L306.544592,318.351048L307.173305,317.882783Z M303.063734,309.139173L307.993600,304.869753L300.395077,303.375480L297.842448,307.196270L302.062650,311.319685L303.063734,309.139173Z M350.039122,278.000238L350.638153,273.766820L343.393113,273.745714L328.652085,284.356957L332.195005,289.201671L335.913316,286.396422L339.664008,291.621369L348.036954,295.515907L352.786031,292.466400L355.659763,286.415671L358.784440,281.318288L355.478974,278.121387L350.039122,278.000238Z M381.768893,276.138358L379.893547,269.272405L375.290181,267.730127L369.604780,268.165588L372.761837,272.392783L381.261605,276.554768L381.768893,276.138358Z M20.609677,199.398457L25.790489,195.246640L33.170447,192.925199L37.286763,194.626964L36.188539,199.917150L37.288112,203.892438L42.332657,202.708159L50.563941,201.351124L55.550472,203.298562L62.293622,202.244426L64.797681,198.260927L68.872173,199.042924L73.429668,199.242465L77.903515,199.639682L81.940230,201.883884L81.899755,208.186384L86.522010,209.617182L90.627533,211.967461L89.349870,217.384854L86.206304,220.319102L81.708173,222.957034L78.275885,226.236026L75.909442,230.155251L72.048118,232.709079L73.645535,238.552837L74.732966,246.734650L74.254011,252.950981L74.959626,258.033031L71.138778,261.348032L68.945028,265.290471L72.023833,268.389459L72.168194,272.707771L70.394036,277.701729L66.462556,281.895115L57.166777,281.931929L57.415025,287.113775L61.265555,294.199214L64.950137,301.438552L69.770720,304.242614L68.441788,309.553581L63.637395,314.396582L61.801175,318.686211L60.435815,323.913506L66.774214,335.202918L70.886483,334.960899L69.082644,339.988825L64.589909,341.335021L61.639275,344.835941L59.244499,349.037264L55.801418,356.051005L56.805200,361.535912L58.491662,370.170990L64.879980,369.153090L70.414274,369.512195L73.478238,366.719365L83.738673,377.955607L86.397886,382.205100L91.354736,379.375115L85.954010,385.750946L89.913822,390.302206L91.092997,396.155565L96.221190,404.317383L102.639190,407.742117L107.693180,409.874940L112.196708,408.239593L115.866449,402.697046L118.606613,397.969224L126.763692,393.558646L133.980401,393.407584L138.729478,389.186138L142.470725,386.121260L157.365558,384.813149L164.244974,385.372164L168.322164,386.473009L173.077987,384.823253L182.949861,385.257676L189.339529,385.106141L195.356825,382.221956L199.425921,382.612988L202.682816,385.178542L209.546042,378.259490L213.461332,368.317812L217.789468,362.964342L226.449788,356.900435L237.210765,356.544696L241.803338,355.676419L240.388059,351.649605L242.332213,346.803333L244.253430,341.836667L245.259911,336.227384L248.740769,330.408052L252.596695,326.236364L261.673909,320.937907L266.897893,317.008225L267.410578,312.476775L262.187942,310.115264L257.468547,304.023686L254.041656,291.376885L261.054640,274.911560L264.320979,269.936609L267.507718,266.592628L273.179627,258.905556L279.601674,248.174699L286.871000,245.562424L285.127873,241.274266L291.671346,231.828878L296.450105,230.527667L306.417770,226.930017L320.675794,223.556812L326.984512,216.961781L346.158910,205.839602L350.082295,202.369426L352.877775,199.280557L352.602544,194.148921L350.621963,187.652122L354.499477,186.439613L352.651114,183.490517L351.865898,181.122722L347.478398,180.521258L343.023440,180.190296L339.100055,181.800784L334.086540,184.315761L328.738432,182.652196L323.929992,181.504727L319.296943,184.027323L314.518184,180.151894L310.270998,178.419494L309.510067,178.668365L306.965533,180.193953L305.519223,180.727858L304.197037,180.998420L303.163573,180.886908L302.591525,179.992793L302.650888,178.624449L302.421529,177.388959L302.224551,176.729765L302.596922,174.947180L300.416663,171.387106L293.832716,169.455316L284.253611,165.840850L280.869894,171.012625L273.554696,171.030983L268.694987,170.309393L261.993662,171.445842L257.457754,167.827110L253.775870,166.188568L249.836294,167.299445L242.678949,163.145656L237.328143,161.636530L230.652451,158.930918L227.167546,156.611947L222.766555,157.773568L224.245245,152.270566L219.985916,149.157435L215.803491,148.100869L213.559822,144.289508L212.607308,144.536491L208.109176,146.656114L202.434569,147.535315L191.094798,144.083359L183.690555,142.496694L178.977906,145.648515L168.691837,142.600771L163.531263,140.019757L158.850993,141.604412L152.183397,142.167705L143.964256,144.007209L138.154731,143.970062L122.067233,140.691323L116.252312,138.735610L106.578766,137.618376L101.581441,135.229397L95.131061,137.143387L84.201438,137.754335L72.458266,137.497310L68.028942,138.705824L62.475760,137.154565L58.680546,133.291416L53.285216,132.085646L46.152157,132.864056L41.953541,133.345530L38.293244,135.840855L34.101374,139.253077L32.261106,144.688753L27.243544,146.960348L17.942369,147.060514L13.774784,150.683967L9.531646,153.145783L7.940975,158.377234L9.493869,163.090394L13.302575,166.745912L13.483363,172.451478L19.659862,173.278784L19.643672,179.665415L20.824195,183.853879L20.739198,189.364981L17.568649,193.290746L17.814198,199.182604L18.531956,199.924403L20.609677,199.398457Z " data-iso2="ES"/><path d="M900.130655,404.270576L898.584507,399.530464L896.180286,403.202148L899.809553,405.756304L900.130655,404.270576Z M967.235653,397.317320L966.820109,395.860436L965.206502,394.531948L964.871908,394.820515L965.363006,395.612233L965.314436,396.896599L964.880003,397.786573L964.143357,398.473544L965.951244,399.120140L967.235653,397.317320Z M994.264918,390.692047L993.177487,389.355932L991.760859,388.861651L992.152118,389.919031L990.848820,390.858384L988.992363,390.347579L988.997759,392.015735L990.695015,393.238049L992.081961,391.513550L994.264918,390.692047Z M941.077953,384.547071L936.150785,385.218951L940.937639,387.297502L941.077953,384.547071Z M964.453666,387.640685L962.081826,383.671181L963.973361,388.180603L964.453666,387.640685Z M977.651243,383.627378L981.113212,380.545930L976.960468,382.420850L977.651243,383.627378Z M946.194004,379.103426L947.362385,378.143005L946.061785,375.562146L945.103875,375.638189L944.815153,376.435665L944.966260,377.795210L945.689415,379.253618L946.194004,379.103426Z M961.612315,374.018839L961.407241,373.472632L961.512476,371.613325L960.400760,371.242660L957.953367,372.667489L956.820064,375.176826L957.589091,376.398500L959.415866,376.687361L961.612315,374.018839Z M968.989574,377.508160L970.149860,371.103859L963.905903,373.949512L966.525990,378.818206L968.989574,377.508160Z M940.740660,372.055009L941.083350,370.579055L940.894466,369.723908L939.642436,369.103963L938.465961,369.913588L938.012640,371.816408L939.717990,372.576134L940.740660,372.055009Z M938.314854,364.442901L938.190730,359.894204L936.744420,365.496564L938.314854,364.442901Z M952.327329,359.256616L951.323547,358.720922L951.013238,360.898726L951.037523,362.281647L951.461162,362.838685L952.189714,362.869251L952.327329,359.256616Z M965.033809,361.845104L966.544879,360.873236L966.698684,360.037003L963.525437,358.710717L962.545940,359.402850L962.392135,362.059138L965.033809,361.845104Z M982.346353,358.006490L987.197967,356.643423L991.245476,352.952230L987.381454,354.209904L981.447806,356.745550L982.346353,358.006490Z M960.975506,355.558924L956.442297,353.870835L958.225899,357.460328L960.975506,355.558924Z M936.110310,356.352338L937.348848,353.835052L936.749817,352.659026L935.128115,352.832907L933.940846,355.506135L934.259250,358.045619L936.110310,356.352338Z M1000.000000,348.945029L999.183990,349.230165L997.591970,351.226622L998.471629,351.688830L1000.000000,351.779112L1000.000000,348.945029Z M840.300379,348.373093L834.857829,344.027011L833.298189,347.751452L838.368368,353.286306L843.214585,351.775804L840.300379,348.373093Z M953.676499,349.972618L952.699700,344.894078L948.115222,341.903432L947.454129,346.087314L950.702929,349.592031L953.676499,349.972618Z M913.867900,344.155294L913.422674,342.601788L912.888403,342.047226L912.008744,341.869194L911.415110,342.245787L910.775603,343.636993L910.230539,343.967144L910.670368,344.659811L911.541932,344.977862L912.775073,345.020608L913.867900,344.155294Z M832.669476,328.080389L829.053701,330.375379L825.483798,333.771069L829.531307,335.084486L836.787141,339.082400L834.960366,332.910544L832.669476,328.080389Z M836.714286,329.979838L835.127663,325.679967L835.348926,330.361622L836.714286,329.979838Z M984.135352,333.899865L985.670707,325.078646L981.882239,320.371718L977.284269,321.350387L980.430532,326.928676L980.228157,330.923876L981.496376,335.887657L984.135352,333.899865Z M834.725610,320.124833L835.634950,313.380599L831.166501,318.243925L834.725610,320.124833Z M944.917690,313.023956L941.860471,308.303215L941.873963,312.662068L944.917690,313.023956Z M910.122605,307.720308L905.778279,305.135501L898.266102,309.238013L902.621222,311.761451L908.703279,315.654312L912.605077,319.974619L916.625603,325.974545L923.131299,327.467584L927.383881,327.846301L930.257613,333.020488L932.132958,337.433223L936.207451,340.906918L940.155121,342.612057L942.532358,337.206850L936.212847,335.853338L932.356920,329.656481L931.455675,325.256128L930.549033,320.846428L922.910035,317.369492L917.667162,314.602498L913.150142,312.873320L910.122605,307.720308Z M920.190109,302.179421L915.055169,298.822892L917.049242,302.857489L920.190109,302.179421Z M923.179869,300.615688L925.470759,296.713408L921.887364,301.033242L923.179869,300.615688Z M992.869876,294.509702L986.107838,292.934186L982.268101,296.110371L977.230302,299.127583L983.536321,302.848797L986.399259,299.333012L984.518516,303.366790L992.316717,307.177181L996.655646,306.458615L997.513718,302.353302L992.389572,296.628015L992.869876,294.509702Z M817.904163,290.817975L813.743324,288.198161L813.101119,284.127522L814.005063,279.558924L807.663966,277.712265L810.470239,285.353265L812.545261,289.787156L818.503194,292.824229L817.904163,290.817975Z M965.999814,271.042631L961.801198,272.016153L955.508671,270.452697L955.624700,275.758783L960.090451,274.312001L963.770986,277.352252L964.955557,272.259033L965.999814,271.042631Z M972.853596,255.005984L969.615589,251.762225L969.728919,255.954000L972.853596,255.005984Z M947.667297,248.149817L947.651107,243.957033L943.498363,241.671702L940.551777,245.526839L944.121680,249.450475L947.667297,248.149817Z M990.403594,207.723720L987.079240,206.714944L983.360929,209.326395L985.503410,214.931790L985.276750,219.937907L979.418655,222.655292L973.908646,222.540333L968.468795,223.100707L964.459062,224.404147L957.591789,222.513388L953.727767,220.702033L949.674862,219.624994L944.264692,218.677014L940.594950,213.787245L934.272741,214.802042L927.823711,214.720946L922.982890,217.350651L916.193868,219.900144L910.619100,219.459529L905.270991,219.966678L899.350835,222.150508L896.323298,221.758824L894.755563,221.719292L891.039950,227.557485L884.650283,229.759497L877.580634,228.414162L870.829389,229.302776L864.920026,235.915874L860.721410,237.894312L856.082965,237.628353L847.459073,239.107714L846.144982,239.362808L842.394290,239.591121L842.159535,242.314947L843.047288,244.412773L843.435849,250.034834L840.111495,253.504353L837.027293,256.264019L835.008936,261.537173L833.916108,266.202759L830.313825,267.968142L826.352663,269.820342L825.262534,274.382338L823.870191,278.282911L821.465971,282.906431L815.785967,280.899171L818.497798,283.346233L821.039633,286.769121L824.061773,294.593422L828.689425,297.157749L831.546966,300.993230L834.852432,303.849921L841.247496,304.942706L845.276116,305.102501L847.591292,309.019520L840.429899,308.343111L836.986818,310.711481L839.879438,314.211416L843.166015,318.522090L845.033266,323.849718L846.509257,328.033918L851.762924,328.412551L852.529252,324.413410L856.439146,330.263602L861.344727,329.114595L865.616198,328.658632L870.054966,327.054374L877.281118,329.155885L881.657824,328.002936L887.132755,329.434580L891.844055,331.386309L896.779318,334.466492L901.228879,334.660489L902.016794,338.984714L897.394539,338.940153L896.442025,343.019342L890.672976,339.911732L886.371823,337.584127L877.747931,334.931718L869.723070,330.270481L864.061954,331.924277L861.574085,335.410590L855.848210,334.368629L851.895143,340.595214L847.388916,344.386187L851.352776,349.452070L854.882204,354.151976L859.167167,357.601558L862.140737,362.955851L859.374939,369.444443L859.488269,373.584250L863.775930,381.114279L868.039306,385.459709L869.356096,380.127601L871.336677,375.815615L875.564974,379.746323L881.401482,386.679998L881.369102,393.162510L887.823530,383.996304L892.561813,383.773944L898.171661,392.653826L901.595853,395.283497L899.777172,388.656514L900.675719,384.161378L898.506255,375.837581L894.528903,366.305610L892.151666,362.743589L891.056140,357.562423L897.000581,358.435173L901.309829,361.099244L903.106923,364.811138L912.162550,361.112838L909.939118,357.582842L905.902403,355.705366L902.710267,351.487583L901.023805,346.702521L903.994677,342.993675L910.254824,341.834955L914.682798,341.187762L918.892208,345.618975L922.885750,349.337706L925.489647,352.867000L927.996404,349.452070L927.186902,343.123720L926.952147,336.651122L925.362825,331.896780L921.744352,330.119145L917.543038,329.169649L914.383283,324.339292L908.838196,323.063444L905.632569,318.266386L899.205125,315.410427L892.399913,313.337320L888.538590,311.553571L893.190526,309.746023L900.486836,304.901019L896.957408,302.282012L894.194309,297.039266L898.446891,294.452142L903.112320,297.068887L901.943939,301.525520L907.699496,300.024033L906.614764,295.960461L901.501411,288.694722L898.058330,286.123423L894.105263,277.622706L887.375605,269.108529L887.742579,260.449852L888.279549,254.931545L891.512159,251.013188L896.495992,249.034766L894.536998,252.679570L901.355701,259.439890L907.265064,262.620479L907.712988,267.194069L909.574842,270.806674L915.978001,273.177538L911.550027,267.772442L909.321198,262.420819L917.006069,262.353673L921.725464,269.637123L925.772973,270.655227L925.376317,266.305084L921.396266,263.030349L918.552217,260.092610L921.396266,257.130092L927.823711,259.466426L932.696911,262.666416L932.154545,258.588793L927.119444,255.631539L922.594329,255.296630L922.928923,250.725582L920.160427,247.684111L919.720598,243.317785L924.785381,243.298195L932.750878,241.919398L936.879337,237.294523L941.652699,236.458856L945.028322,238.875787L954.035378,235.290580L960.816304,236.560651L967.632309,238.206643L977.548706,239.803362L981.833669,242.539420L982.613489,244.085219L986.480209,240.445321L990.684222,235.767605L990.727395,231.746566L990.673428,225.344483L996.358829,221.507249L998.385282,215.277749L995.214733,210.805247L992.880670,208.471890L990.403594,207.723720Z " data-iso2="GR"/><path d="M749.652370,168.439199L744.792661,167.258992L753.421950,171.023640L749.652370,168.439199Z M723.205947,159.858964L728.732146,163.674263L735.326887,162.943022L732.059199,160.428892L723.205947,159.858964Z M774.787400,181.056916L773.659495,179.252011L772.593651,177.683705L772.545081,176.304852L770.065307,175.293544L768.888831,174.815218L761.719343,169.484708L758.246581,166.994190L753.311318,162.920915L752.852601,165.364263L738.931869,158.751908L734.112635,159.167116L739.992316,160.921242L749.020959,165.873968L755.621097,167.371156L764.927669,173.515365L769.690238,177.498807L774.787400,181.056916Z M738.219507,154.972867L724.493055,153.110633L719.633346,151.052481L715.629011,151.639389L720.418563,154.286955L736.287496,155.364725L738.219507,154.972867Z M726.924259,149.481722L721.848683,145.256861L717.631179,145.060082L722.563743,149.579926L726.924259,149.481722Z M687.857703,122.641517L685.056827,121.223773L686.122671,123.142017L687.935955,124.906951L689.676384,125.493087L687.857703,122.641517Z M683.980190,119.241954L679.414600,115.572162L684.411924,120.597134L683.980190,119.241954Z M682.811809,124.616637L676.284526,117.130621L681.349309,125.195357L682.811809,124.616637Z M682.803714,108.703338L680.717898,104.836952L677.774010,101.022618L674.778853,98.051030L670.464209,94.690256L674.409181,100.615652L677.487986,104.891747L680.302354,107.837373L682.803714,108.703338Z M672.938586,92.295585L669.044882,88.821534L671.033558,92.462782L672.938586,92.295585Z M663.451225,96.139873L662.469029,88.001201L660.844629,81.673992L659.862434,76.343286L659.360543,82.114940L658.596913,86.784425L660.709712,92.320286L663.238056,97.647320L663.451225,96.139873Z M672.353046,83.792041L669.339001,79.374307L665.744813,74.095572L662.064279,79.037942L666.902401,81.901158L672.353046,83.792041Z M719.490334,23.497344L717.042941,22.513208L712.366719,23.175882L712.226405,27.940037L708.168103,28.215816L705.245801,31.292019L701.014806,33.191476L697.053644,34.974257L693.969442,37.896909L696.003990,41.542819L696.055258,47.269896L690.143197,51.508048L685.251108,54.082218L687.458349,57.527802L685.642367,61.632708L684.285102,65.580051L676.341192,63.275240L671.878138,64.129722L667.911580,60.451567L665.682752,57.064583L661.772858,63.044242L657.784713,63.798746L652.328671,64.145116L648.186720,65.249290L639.333469,64.187446L638.302703,62.605280L636.624336,63.989256L639.004271,73.835043L639.722030,78.663295L642.849405,83.227424L646.117094,89.240150L651.125211,85.738497L656.494906,76.647530L657.385358,71.828332L660.634159,69.485843L665.175464,71.231912L673.578092,79.727818L675.013609,84.013271L674.425371,89.985854L674.700601,94.331503L677.080536,98.358029L685.051431,106.857812L690.610009,111.165472L685.450785,110.515322L680.993128,111.751391L691.395226,125.137304L695.712569,128.874008L700.270064,131.757029L703.610608,134.787480L704.827559,140.008594L708.848084,140.522055L716.112014,139.109762L721.813604,142.130528L730.181154,144.855858L736.433206,151.739352L741.972897,155.385056L747.704169,161.155394L749.026356,162.056751L750.121881,158.113265L743.972366,152.202088L740.464525,146.702494L739.711689,141.896300L735.194669,140.131389L730.146076,135.078371L724.228618,128.730042L721.543771,124.968756L718.270685,121.537027L713.518910,116.848711L711.147069,113.357651L709.919325,108.075122L706.581479,100.892018L701.913353,95.289949L697.987269,88.499908L698.637569,82.601600L702.140013,74.449919L706.009432,75.474336L709.573938,80.071720L715.313305,80.614215L719.889689,74.411614L727.078064,75.189079L730.610190,72.062254L736.322575,76.172968L741.813695,76.479149L747.952417,78.101206L751.927070,76.697277L759.069574,78.519918L764.280067,78.225489L768.362655,77.642252L773.980597,79.538649L781.104213,81.859162L782.272593,86.218656L786.498193,88.157297L788.316873,88.001201L787.995771,86.643472L789.857625,77.527499L793.810692,76.329891L798.843095,76.125124L797.245678,72.395837L790.691412,69.691221L788.330365,64.618400L785.850591,59.292937L785.205688,52.717179L785.386477,47.143866L785.505204,46.185806L785.364890,46.185806L780.432326,47.471528L776.090698,50.886780L770.389107,53.274124L759.490515,52.591460L755.159681,51.792495L750.532029,48.702248L747.480207,45.805570L741.441324,43.625704L736.991763,37.883279L731.198428,33.359283L725.896192,26.846355L720.974421,24.095059L719.490334,23.497344Z " data-iso2="HR"/><path d="M596.119566,384.779470L596.030521,384.112531L595.372126,382.574224L593.267421,381.810635L592.946319,382.309606L593.062348,383.974406L594.794681,385.160021L596.119566,384.779470Z M693.526914,333.820871L687.010425,333.925624L682.461025,335.657715L677.096727,335.674876L671.783697,335.695468L667.558097,338.573360L661.465247,340.064203L651.346475,340.136153L644.131116,342.216688L635.909276,337.939060L632.050651,335.220082L626.753811,334.875072L623.688498,338.607642L619.646386,340.334861L614.994449,335.130830L611.327406,338.576788L608.154159,343.705421L606.737531,347.869302L609.257780,353.119274L612.393250,355.742827L618.774822,356.410217L623.448346,358.802558L628.442972,360.708390L632.306993,364.293556L638.556347,367.578885L644.454917,371.681021L650.636812,372.677639L657.123619,374.779618L663.831691,383.342647L671.405929,386.387180L677.663378,386.955957L680.477746,383.805952L682.711970,378.640982L685.734110,375.927133L684.117805,371.582862L682.946726,366.582020L680.515522,363.363347L681.217091,357.919724L682.841491,353.775411L684.074632,349.091892L690.739530,339.349735L693.526914,333.820871Z M497.411618,303.848183L496.353869,303.026109L494.313925,302.125515L494.087264,302.735798L494.152024,304.874964L495.824995,307.364599L497.411618,303.848183Z M648.259575,244.855969L648.882891,244.398532L648.917970,243.624075L646.405816,242.806621L645.917417,244.183133L646.308676,244.742063L647.026434,245.170963L648.259575,244.855969Z M492.082398,232.642896L492.991738,231.803826L493.677117,230.379065L493.026817,229.635922L491.567015,230.470376L490.368953,232.955907L489.861665,234.195030L491.162264,234.316584L492.082398,232.642896Z M529.273608,238.417220L528.105227,234.377359L525.630850,230.205387L521.502391,226.919259L518.121372,224.671570L514.772733,228.863885L506.869297,235.935524L499.980437,239.580420L494.216784,239.721321L490.374349,237.273100L489.176287,242.469942L489.427232,246.823566L492.344137,250.207095L494.826609,254.421043L497.201148,259.860905L497.187656,265.721071L495.212472,271.227506L499.313947,276.233242L498.291277,280.458934L496.531959,286.160175L495.528177,295.854124L497.613994,302.318527L500.630737,307.519035L506.316138,309.459955L510.887124,307.539857L513.366898,297.732662L517.527737,298.636576L522.533156,300.286814L527.352390,300.340760L528.858064,293.618253L530.765789,273.166983L531.173239,267.127054L529.575822,260.739851L532.649230,255.959315L533.758248,250.295885L530.655158,240.751974L529.273608,238.417220Z M550.358431,165.082682L546.300128,166.679700L543.067518,169.455316L548.715142,168.736914L550.358431,165.082682Z M551.953149,8.794959L550.660645,14.045415L551.551097,18.717578L546.963920,20.889001L543.240212,18.898285L540.498699,24.167557L542.471185,28.992115L543.453381,33.365136L538.658432,30.399310L533.577459,29.664554L529.478682,31.670870L525.101975,29.555102L523.625984,24.202826L518.998332,24.488873L518.747386,32.035990L513.771649,39.393748L511.780275,44.144176L513.099762,48.415465L508.636709,46.703676L505.676631,43.623762L501.909750,39.060989L496.844967,33.669497L496.418629,27.392286L490.587518,29.858038L486.823335,32.664556L487.638233,37.061428L484.572920,41.406741L480.099074,45.561098L472.921491,44.577113L469.025089,45.681397L460.112475,48.223609L458.088720,47.295101L457.130810,46.422451L454.912775,48.702248L451.145893,50.836452L451.194464,54.976963L455.509108,60.093054L460.031525,66.277949L458.712037,73.499758L452.190151,77.588702L448.045502,77.250155L448.021217,82.011869L449.313721,85.965252L453.490750,88.347643L457.395247,93.938517L454.667226,97.243537L452.209039,101.934710L453.088698,106.527421L455.644025,110.854554L460.676428,113.875253L465.349951,116.329905L473.110375,115.160279L474.548590,120.343803L470.989480,125.049286L470.174582,130.563529L476.809798,129.206777L484.316578,126.365458L492.257790,116.386303L499.429976,108.301526L505.339339,105.356504L509.886040,105.919375L517.225523,109.195602L532.004327,117.746942L540.757740,120.869199L544.637951,123.651777L548.296900,140.263478L551.807439,145.663363L553.831193,152.017005L553.734053,157.267623L555.749712,161.481693L559.808015,163.506669L561.632092,167.111884L565.353102,169.580233L571.707691,177.226009L569.924089,181.667380L573.971597,181.700275L580.844267,183.674944L584.681306,186.492502L589.371019,194.156192L596.783357,199.405713L600.385640,204.163979L612.134209,216.844748L618.167696,219.090790L623.003120,223.059402L627.401413,223.914094L632.333977,223.883574L637.663197,225.586685L642.598459,225.459308L646.090110,229.338601L651.281715,238.845457L658.499772,240.951635L662.690293,244.014005L659.357844,248.745150L665.353554,247.740996L671.122603,246.211754L675.024402,250.301213L677.212755,256.786533L675.577562,260.872461L685.734110,267.913488L693.764368,268.533995L698.696932,275.122515L701.203689,283.875294L705.879911,293.646170L707.202097,301.287221L708.195086,305.402958L711.028342,308.343111L710.664067,314.796286L704.463283,316.448073L701.880972,319.940086L702.596032,324.547850L700.318634,330.911841L695.364483,335.400293L695.440037,340.357129L706.797347,343.595935L709.209662,338.527078L713.030510,332.792006L720.302534,327.173178L720.672207,316.370264L726.101265,310.168998L731.516832,308.389945L735.580531,309.116630L736.255116,301.389849L736.023059,292.681104L732.836320,289.068825L728.003595,285.603593L721.743448,283.430330L719.646838,279.529094L719.870800,275.496914L723.729425,265.486368L727.525989,258.636575L730.874628,253.862559L737.830946,252.237797L739.978824,256.003606L743.794276,258.137467L756.759796,260.313681L762.642176,272.713050L766.549371,275.753511L771.360510,273.914559L773.913139,266.656130L773.216967,262.454391L769.558019,257.027383L761.487286,249.978003L745.961042,239.931767L740.461827,235.001103L735.715448,231.825299L720.475228,225.592067L705.574999,218.108406L702.477305,215.281352L702.844280,211.263704L706.157840,208.307457L710.453596,204.113294L706.926867,199.879068L688.785932,200.432102L682.258649,199.659631L673.896496,195.253908L664.905630,188.107791L655.013518,178.302369L650.253648,171.429323L647.889903,165.331138L644.568247,152.905270L641.489442,144.952402L637.922237,138.044851L630.493709,133.662725L619.765113,124.661591L613.799085,121.838987L608.154159,116.474656L605.652798,113.020675L603.129851,105.080684L601.564814,93.712566L602.409395,89.441819L607.511954,88.935710L609.166036,84.146761L605.547563,81.339882L602.614468,74.763996L601.578306,68.435623L604.479021,63.587048L608.291774,61.445848L615.736492,61.524832L619.654481,58.899521L625.652889,55.456073L635.186121,54.978895L639.695046,52.564381L643.977311,58.249459L642.223390,59.815456L646.502956,58.739434L642.274659,52.947322L638.453810,50.923558L639.298390,44.996379L635.604364,43.105168L639.371246,38.171439L635.922768,34.839721L633.372837,30.805664L637.897952,26.899193L641.114373,24.982510L641.675627,22.679876L635.874198,21.261812L626.996662,20.575005L616.961538,18.434702L611.243757,17.298899L605.431535,15.344244L602.107181,9.968742L598.960917,5.951578L600.264215,0.861697L593.861056,1.721071L588.504853,3.893724L584.354807,3.468467L579.041777,4.016341L573.825887,4.314942L568.825864,9.029767L565.064380,12.649291L560.434029,11.687828L555.460990,9.248766L552.687097,9.191552L551.953149,8.794959Z M605.668988,124.148309L606.891336,122.311538L608.620972,122.030269L608.923186,123.441890L608.110985,125.420063L606.483887,125.700914L605.668988,124.148309Z " data-iso2="IT"/><path d="M858.346872,186.744167L860.233011,182.758144L863.570857,174.963675L854.175239,169.102573L852.310687,164.458664L849.534096,161.383992L846.892422,158.104035L842.488732,155.342547L839.083428,153.167983L835.108774,151.161727L833.368345,154.799097L828.878309,161.503813L828.705615,165.091885L825.265233,166.221681L821.695330,167.317832L817.251165,168.777341L818.217171,173.608891L817.693693,176.403761L817.518301,176.771886L818.611128,177.619633L822.396898,184.571308L827.032645,186.962983L830.197797,190.823573L831.816800,200.276178L831.395859,201.900191L831.735850,202.177395L835.783359,201.905627L836.484927,196.525457L845.033266,190.830854L849.075378,192.408609L852.548141,190.239152L858.878445,187.982035L858.924316,187.987503L858.346872,186.744167Z " data-iso2="-99"/><path d="M879.782479,185.215530L875.065782,185.093269L870.392258,185.277571L865.891428,185.910654L860.465068,188.187980L858.924316,187.987503L858.878445,187.982035L852.548141,190.239152L849.075378,192.408609L845.033266,190.830854L836.484927,196.525457L835.783359,201.905627L831.735850,202.177395L831.395859,201.900191L831.034282,202.320514L830.025103,211.034486L828.147059,214.940800L829.355915,219.729303L829.261473,224.100792L833.878331,231.843192L836.220490,237.567660L842.237786,238.800852L842.394290,239.591121L846.144982,239.362808L847.459073,239.107714L856.082965,237.628353L860.721410,237.894312L864.920026,235.915874L870.829389,229.302776L877.580634,228.414162L884.650283,229.759497L891.039950,227.557485L894.755563,221.719292L896.323298,221.758824L896.701066,221.029185L897.302795,211.826726L898.800374,207.709260L896.134414,203.327535L894.134945,197.445995L889.866172,195.008602L884.779803,191.062033L880.519125,185.505646L879.782479,185.215530Z " data-iso2="MK"/><path d="M664.684366,416.893981L662.353001,412.214428L662.023804,416.844064L664.684366,416.893981Z M658.626594,409.818220L658.831668,409.522924L658.356760,408.631834L657.239648,408.171154L654.948758,408.696923L655.331922,409.317699L656.972512,410.345335L658.626594,409.818220Z " data-iso2="MT"/><path d="M792.661200,139.411273L790.332533,140.086737L787.396740,142.955713L788.856541,148.655163L785.235370,146.537377L781.190559,148.992494L777.895887,153.917107L777.720495,158.683622L772.752853,160.921242L773.365376,168.130417L775.499762,172.007437L773.030782,176.125340L772.545081,176.304852L772.593651,177.683705L773.659495,179.252011L774.787400,181.056916L775.783088,181.221428L785.197593,187.914598L791.498215,194.957720L793.271024,199.117301L797.580272,202.070503L798.098353,197.291690L797.261868,192.395875L797.210600,187.921889L800.972084,181.713067L804.628334,176.090535L808.586798,174.532942L811.876073,179.056259L817.013711,176.672992L817.518301,176.771886L817.693693,176.403761L818.217171,173.608891L817.251165,168.777341L821.695330,167.317832L825.265233,166.221681L825.356976,165.285130L820.389334,160.919398L814.204740,156.643350L809.703910,155.579111L805.097845,153.167983L799.577043,146.741452L796.360623,144.036926L793.414036,139.960219L793.489590,139.493158L792.661200,139.411273Z " data-iso2="ME"/><path d="M17.816896,203.443423L18.696555,208.144820L19.821762,213.511391L21.680918,223.657359L23.442934,228.439248L23.969110,233.022081L23.460473,237.157051L23.166354,243.145034L20.740547,248.496371L17.970702,261.077551L18.932660,266.264507L14.340086,276.904357L10.354639,286.884595L7.505193,291.057274L4.097190,294.193981L3.003014,302.261147L2.530804,307.656110L1.334091,311.473879L1.351630,315.801324L7.480908,316.441157L11.937215,312.121737L15.714890,305.679069L20.210323,303.469332L16.162814,306.318002L15.086177,313.247297L11.873804,317.011682L7.533525,318.425340L8.832776,322.589148L11.799600,325.545587L16.806368,323.537652L21.802343,324.585767L17.737295,325.847071L19.676052,331.025309L19.916204,335.103367L17.796659,343.005653L20.203577,350.909340L19.465582,355.809233L19.587007,361.439070L16.489313,370.634926L14.512780,375.269781L18.639890,373.766887L25.569225,372.185300L38.304037,373.719538L43.749286,376.199151L56.075299,370.557045L58.491662,370.170990L56.805200,361.535912L55.801418,356.051005L59.244499,349.037264L61.639275,344.835941L64.589909,341.335021L69.082644,339.988825L70.886483,334.960899L66.774214,335.202918L60.435815,323.913506L61.801175,318.686211L63.637395,314.396582L68.441788,309.553581L69.770720,304.242614L64.950137,301.438552L61.265555,294.199214L57.415025,287.113775L57.166777,281.931929L66.462556,281.895115L70.394036,277.701729L72.168194,272.707771L72.023833,268.389459L68.945028,265.290471L71.138778,261.348032L74.959626,258.033031L74.254011,252.950981L74.732966,246.734650L73.645535,238.552837L72.048118,232.709079L75.909442,230.155251L78.275885,226.236026L81.708173,222.957034L86.206304,220.319102L89.349870,217.384854L90.627533,211.967461L86.522010,209.617182L81.899755,208.186384L81.940230,201.883884L77.903515,199.639682L73.429668,199.242465L68.872173,199.042924L64.797681,198.260927L62.293622,202.244426L55.550472,203.298562L50.563941,201.351124L42.332657,202.708159L37.288112,203.892438L36.188539,199.917150L37.286763,194.626964L33.170447,192.925199L25.790489,195.246640L20.609677,199.398457L17.816896,203.443423Z " data-iso2="PT"/><path d="M608.110985,125.420063L608.923186,123.441890L608.620972,122.030269L606.891336,122.311538L605.668988,124.148309L606.483887,125.700914L608.110985,125.420063Z " data-iso2="SM"/><path d="M785.505204,46.185806L785.386477,47.143866L785.205688,52.717179L785.850591,59.292937L788.330365,64.618400L790.691412,69.691221L797.245678,72.395837L798.843095,76.125124L793.810692,76.329891L789.857625,77.527499L787.995771,86.643472L788.316873,88.001201L789.282879,87.917438L791.754558,86.814900L796.759977,86.898704L797.361707,91.449910L794.285600,98.100305L791.778843,102.976921L791.392980,107.767554L794.517657,110.833824L800.006079,115.694395L804.250567,119.966569L800.537652,122.480283L795.227320,123.812928L798.179303,127.591082L801.608892,132.994698L799.161499,138.186371L795.151767,137.545737L793.489590,139.493158L793.414036,139.960219L796.360623,144.036926L799.577043,146.741452L805.097845,153.167983L809.703910,155.579111L814.204740,156.643350L820.389334,160.919398L825.356976,165.285130L825.265233,166.221681L828.705615,165.091885L828.878309,161.503813L833.368345,154.799097L835.108774,151.161727L839.083428,153.167983L842.488732,155.342547L846.892422,158.104035L849.534096,161.383992L852.310687,164.458664L854.175239,169.102573L863.570857,174.963675L860.233011,182.758144L858.346872,186.744167L858.924316,187.987503L860.465068,188.187980L865.891428,185.910654L870.392258,185.277571L875.065782,185.093269L879.782479,185.215530L880.519125,185.505646L882.675098,184.949103L885.478673,180.755281L884.056648,176.920218L883.813797,170.680315L883.910938,165.673412L890.524567,164.110688L893.114973,160.268441L896.301712,156.857616L898.004364,152.616621L894.763658,150.176470L892.221823,146.311019L886.336745,142.494835L884.113313,136.863936L881.922262,132.877121L881.110062,126.926894L882.038290,122.806488L887.521316,118.742474L888.325421,114.168822L889.456025,113.161872L890.494885,112.484046L890.019978,112.079137L887.089581,108.603363L884.677266,104.848289L886.320555,100.786019L890.376159,100.197254L888.754457,96.492649L884.763613,94.344791L880.702612,95.515742L876.566058,99.996546L871.757618,97.700394L863.835294,95.339284L859.879528,92.432384L853.330659,89.658688L857.747840,87.548082L854.709510,84.547185L855.386794,79.957092L855.303145,75.359472L849.639331,73.446108L846.142283,71.394937L841.773672,68.573888L837.691085,64.537603L836.911265,59.425989L837.186495,54.482289L833.786588,52.229737L831.808705,48.657683L827.852940,45.826912L824.077963,41.455341L822.431976,39.148562L821.557715,38.453720L813.929509,37.040001L808.138873,37.421756L802.785368,37.291266L799.760530,40.907069L795.804765,43.357682L790.532210,42.829311L786.125822,46.199385L785.505204,46.185806Z " data-iso2="RS"/><path d="M719.198914,22.607328L716.789297,19.185029L715.372669,15.257680L713.750967,10.288216L713.062890,9.104742L707.798430,8.862050L706.254980,9.607797L704.687245,15.214396L698.785977,14.995998L692.663446,17.277277L683.591629,17.747003L677.614808,18.430773L673.192230,20.260963L670.874356,23.528704L666.459873,26.057548L661.567784,26.384458L657.350280,25.871559L652.714533,25.021683L647.997836,23.565943L642.889880,22.919071L641.675627,22.679876L641.114373,24.982510L637.897952,26.899193L633.372837,30.805664L635.922768,34.839721L639.371246,38.171439L635.604364,43.105168L639.298390,44.996379L638.453810,50.923558L642.274659,52.947322L646.502956,58.739434L642.223390,59.815456L639.943294,61.854222L638.302703,62.605280L639.333469,64.187446L648.186720,65.249290L652.328671,64.145116L657.784713,63.798746L661.772858,63.044242L665.682752,57.064583L667.911580,60.451567L671.878138,64.129722L676.341192,63.275240L684.285102,65.580051L685.642367,61.632708L687.458349,57.527802L685.251108,54.082218L690.143197,51.508048L696.055258,47.269896L696.003990,41.542819L693.969442,37.896909L697.053644,34.974257L701.014806,33.191476L705.245801,31.292019L708.168103,28.215816L712.226405,27.940037L712.366719,23.175882L717.042941,22.513208L719.490334,23.497344L719.198914,22.607328Z " data-iso2="SI"/><path d="M606.837369,200.983195L606.815783,200.693162L606.599915,200.720355L606.516267,200.896189L606.599915,201.014009L606.837369,200.983195Z " data-iso2="VA"/></g><g class="" id="lands"><path d="M817.013711,176.672992L811.876073,179.056259L808.586798,174.532942L804.628334,176.090535L800.972084,181.713067L797.210600,187.921889L797.261868,192.395875L798.098353,197.291690L797.580272,202.070503L801.058431,202.550572L804.026604,210.539880L800.294801,218.500688L801.384930,225.432396L800.721139,230.216131L800.864151,236.542793L798.727066,241.751894L797.445355,246.378950L800.257025,253.419227L798.071370,257.866632L801.509054,262.855456L811.657508,268.868862L814.779486,275.043409L815.629463,277.606901L815.785967,280.899171L821.465971,282.906431L823.870191,278.282911L825.262534,274.382338L826.352663,269.820342L830.313825,267.968142L833.916108,266.202759L835.008936,261.537173L837.027293,256.264019L840.111495,253.504353L843.435849,250.034834L843.047288,244.412773L842.159535,242.314947L842.394290,239.591121L842.237786,238.800852L836.220490,237.567660L833.878331,231.843192L829.261473,224.100792L829.355915,219.729303L828.147059,214.940800L830.025103,211.034486L831.034282,202.320514L831.395859,201.900191L831.816800,200.276178L830.197797,190.823573L827.032645,186.962983L822.396898,184.571308L818.611128,177.619633L817.518301,176.771886L817.013711,176.672992Z " data-iso2="AL"/><path d="M310.489564,177.583020L311.215417,176.416583L311.193830,175.696654L310.376234,174.626427L306.460943,173.478687L304.615279,173.188913L303.441502,173.979288L302.596922,174.947180L302.224551,176.729765L302.421529,177.388959L302.650888,178.624449L302.591525,179.992793L303.163573,180.886908L304.197037,180.998420L305.519223,180.727858L306.965533,180.193953L309.510067,178.668365L310.270998,178.419494L310.489564,177.583020Z " data-iso2="AD"/><path d="M527.843488,1.004289L528.939014,1.000329L535.166781,3.031256L539.354603,7.969973L543.129580,9.337543L549.095608,3.947122L552.001719,7.401378L551.953149,8.794959L552.687097,9.191552L555.460990,9.248766L560.434029,11.687828L565.064380,12.649291L568.825864,9.029767L573.825887,4.314942L579.041777,4.016341L584.354807,3.468467L588.504853,3.893724L593.861056,1.721071L600.264215,0.861697L598.960917,5.951578L602.107181,9.968742L605.431535,15.344244L611.243757,17.298899L616.961538,18.434702L626.996662,20.575005L635.874198,21.261812L641.675627,22.679876L642.889880,22.919071L647.997836,23.565943L652.714533,25.021683L657.350280,25.871559L661.567784,26.384458L666.459873,26.057548L670.874356,23.528704L673.192230,20.260963L677.614808,18.430773L683.591629,17.747003L692.663446,17.277277L698.785977,14.995998L704.687245,15.214396L706.254980,9.607797L707.798430,8.862050L712.204818,4.467194L714.395870,3.240970L716.940404,3.452642L717.755302,3.054998L717.971169,2.419803L718.405602,0.984485L718.562439,0.000000L528.352348,0.000000L528.269826,0.255573L527.843488,1.004289Z " data-iso2="AT"/><path d="M890.494885,112.484046L889.456025,113.161872L888.325421,114.168822L887.521316,118.742474L882.038290,122.806488L881.110062,126.926894L881.922262,132.877121L884.113313,136.863936L886.336745,142.494835L892.221823,146.311019L894.763658,150.176470L898.004364,152.616621L896.301712,156.857616L893.114973,160.268441L890.524567,164.110688L883.910938,165.673412L883.813797,170.680315L884.056648,176.920218L885.478673,180.755281L882.675098,184.949103L880.519125,185.505646L884.779803,191.062033L889.866172,195.008602L894.134945,197.445995L896.134414,203.327535L898.800374,207.709260L897.302795,211.826726L896.701066,221.029185L896.323298,221.758824L899.350835,222.150508L905.270991,219.966678L910.619100,219.459529L916.193868,219.900144L922.982890,217.350651L927.823711,214.720946L934.272741,214.802042L940.594950,213.787245L944.264692,218.677014L949.674862,219.624994L953.727767,220.702033L957.591789,222.513388L964.459062,224.404147L968.468795,223.100707L973.908646,222.540333L979.418655,222.655292L985.276750,219.937907L985.503410,214.931790L983.360929,209.326395L987.079240,206.714944L990.403594,207.723720L990.322644,206.682396L995.668054,203.655268L997.554193,199.142697L1000.000000,198.561221L1000.000000,117.213127L995.055531,118.408174L987.500181,121.356958L979.696584,126.603150L976.531432,130.574738L972.864389,132.681144L967.640404,134.246622L958.317642,133.653396L948.606319,131.661796L938.171842,129.520808L932.540408,130.703643L924.914901,129.816107L913.414579,127.254335L904.850050,126.475885L896.406947,127.985761L895.003810,123.636786L898.239119,120.983644L897.135498,116.741576L892.432293,114.125542L890.494885,112.484046Z " data-iso2="BG"/><path d="M772.545081,176.304852L773.030782,176.125340L775.499762,172.007437L773.365376,168.130417L772.752853,160.921242L777.720495,158.683622L777.895887,153.917107L781.190559,148.992494L785.235370,146.537377L788.856541,148.655163L787.396740,142.955713L790.332533,140.086737L792.661200,139.411273L793.489590,139.493158L795.151767,137.545737L799.161499,138.186371L801.608892,132.994698L798.179303,127.591082L795.227320,123.812928L800.537652,122.480283L804.250567,119.966569L800.006079,115.694395L794.517657,110.833824L791.392980,107.767554L791.778843,102.976921L794.285600,98.100305L797.361707,91.449910L796.759977,86.898704L791.754558,86.814900L789.282879,87.917438L788.316873,88.001201L786.498193,88.157297L782.272593,86.218656L781.104213,81.859162L773.980597,79.538649L768.362655,77.642252L764.280067,78.225489L759.069574,78.519918L751.927070,76.697277L747.952417,78.101206L741.813695,76.479149L736.322575,76.172968L730.610190,72.062254L727.078064,75.189079L719.889689,74.411614L715.313305,80.614215L709.573938,80.071720L706.009432,75.474336L702.140013,74.449919L698.637569,82.601600L697.987269,88.499908L701.913353,95.289949L706.581479,100.892018L709.919325,108.075122L711.147069,113.357651L713.518910,116.848711L718.270685,121.537027L721.543771,124.968756L724.228618,128.730042L730.146076,135.078371L735.194669,140.131389L739.711689,141.896300L740.464525,146.702494L743.972366,152.202088L750.121881,158.113265L749.026356,162.056751L753.311318,162.920915L758.246581,166.994190L761.719343,169.484708L768.888831,174.815218L770.065307,175.293544L772.545081,176.304852Z " data-iso2="BA"/><path d="M457.130810,46.422451L458.088720,47.295101L460.112475,48.223609L469.025089,45.681397L472.921491,44.577113L480.099074,45.561098L484.572920,41.406741L487.638233,37.061428L486.823335,32.664556L490.587518,29.858038L496.418629,27.392286L496.844967,33.669497L501.909750,39.060989L505.676631,43.623762L508.636709,46.703676L513.099762,48.415465L511.780275,44.144176L513.771649,39.393748L518.747386,32.035990L518.998332,24.488873L523.625984,24.202826L525.101975,29.555102L529.478682,31.670870L533.577459,29.664554L538.658432,30.399310L543.453381,33.365136L542.471185,28.992115L540.498699,24.167557L543.240212,18.898285L546.963920,20.889001L551.551097,18.717578L550.660645,14.045415L551.953149,8.794959L552.001719,7.401378L549.095608,3.947122L543.129580,9.337543L539.354603,7.969973L535.166781,3.031256L528.939014,1.000329L527.843488,1.004289L525.690213,0.786436L525.285462,0.806242L525.157710,0.000000L448.762652,0.000000L446.180949,3.153921L441.523616,5.421981L440.770779,10.114680L436.796125,16.133003L433.358441,19.031842L431.874355,22.848491L432.322279,28.360538L431.566744,32.330775L428.088585,34.915764L431.310402,37.616503L436.458833,33.415866L437.810701,27.756164L444.893841,26.006647L449.864182,26.871796L450.584639,30.948261L450.250045,36.893904L453.709316,41.412573L456.655902,45.108946L457.130810,46.422451Z " data-iso2="CH"/><path d="M487.692200,379.486483L481.704585,381.352039L473.339734,376.395121L468.496215,374.335011L462.192894,373.188492L463.137313,377.476076L454.545801,379.172616L444.829081,376.281933L437.975300,374.793141L435.800438,378.519451L430.705974,381.078866L421.331943,383.310634L413.018360,387.591902L406.690754,387.544800L401.159159,383.019128L394.602195,379.970710L367.548645,379.975771L360.406141,383.465641L345.273855,383.832905L334.788109,390.166084L327.866869,389.834994L317.688733,391.305259L297.869431,392.956026L289.979487,395.555211L284.982163,398.555633L277.359355,401.803686L271.757602,405.209906L267.321533,408.603461L264.455896,414.155512L258.223005,416.893981L490.995649,416.893981L491.923196,409.019010L492.654446,404.305681L493.814732,398.163591L489.948012,393.796970L494.392176,389.070134L496.453708,384.651484L500.792637,382.125874L500.109957,378.558274L487.692200,379.486483Z M257.790614,416.893981L253.438577,415.429370L248.449892,416.893981L257.790614,416.893981Z " data-iso2="DZ"/><path d="M307.173305,317.882783L302.818185,314.477912L306.544592,318.351048L307.173305,317.882783Z M303.063734,309.139173L307.993600,304.869753L300.395077,303.375480L297.842448,307.196270L302.062650,311.319685L303.063734,309.139173Z M350.039122,278.000238L350.638153,273.766820L343.393113,273.745714L328.652085,284.356957L332.195005,289.201671L335.913316,286.396422L339.664008,291.621369L348.036954,295.515907L352.786031,292.466400L355.659763,286.415671L358.784440,281.318288L355.478974,278.121387L350.039122,278.000238Z M381.768893,276.138358L379.893547,269.272405L375.290181,267.730127L369.604780,268.165588L372.761837,272.392783L381.261605,276.554768L381.768893,276.138358Z M20.609677,199.398457L25.790489,195.246640L33.170447,192.925199L37.286763,194.626964L36.188539,199.917150L37.288112,203.892438L42.332657,202.708159L50.563941,201.351124L55.550472,203.298562L62.293622,202.244426L64.797681,198.260927L68.872173,199.042924L73.429668,199.242465L77.903515,199.639682L81.940230,201.883884L81.899755,208.186384L86.522010,209.617182L90.627533,211.967461L89.349870,217.384854L86.206304,220.319102L81.708173,222.957034L78.275885,226.236026L75.909442,230.155251L72.048118,232.709079L73.645535,238.552837L74.732966,246.734650L74.254011,252.950981L74.959626,258.033031L71.138778,261.348032L68.945028,265.290471L72.023833,268.389459L72.168194,272.707771L70.394036,277.701729L66.462556,281.895115L57.166777,281.931929L57.415025,287.113775L61.265555,294.199214L64.950137,301.438552L69.770720,304.242614L68.441788,309.553581L63.637395,314.396582L61.801175,318.686211L60.435815,323.913506L66.774214,335.202918L70.886483,334.960899L69.082644,339.988825L64.589909,341.335021L61.639275,344.835941L59.244499,349.037264L55.801418,356.051005L56.805200,361.535912L58.491662,370.170990L64.879980,369.153090L70.414274,369.512195L73.478238,366.719365L83.738673,377.955607L86.397886,382.205100L91.354736,379.375115L85.954010,385.750946L89.913822,390.302206L91.092997,396.155565L96.221190,404.317383L102.639190,407.742117L107.693180,409.874940L112.196708,408.239593L115.866449,402.697046L118.606613,397.969224L126.763692,393.558646L133.980401,393.407584L138.729478,389.186138L142.470725,386.121260L157.365558,384.813149L164.244974,385.372164L168.322164,386.473009L173.077987,384.823253L182.949861,385.257676L189.339529,385.106141L195.356825,382.221956L199.425921,382.612988L202.682816,385.178542L209.546042,378.259490L213.461332,368.317812L217.789468,362.964342L226.449788,356.900435L237.210765,356.544696L241.803338,355.676419L240.388059,351.649605L242.332213,346.803333L244.253430,341.836667L245.259911,336.227384L248.740769,330.408052L252.596695,326.236364L261.673909,320.937907L266.897893,317.008225L267.410578,312.476775L262.187942,310.115264L257.468547,304.023686L254.041656,291.376885L261.054640,274.911560L264.320979,269.936609L267.507718,266.592628L273.179627,258.905556L279.601674,248.174699L286.871000,245.562424L285.127873,241.274266L291.671346,231.828878L296.450105,230.527667L306.417770,226.930017L320.675794,223.556812L326.984512,216.961781L346.158910,205.839602L350.082295,202.369426L352.877775,199.280557L352.602544,194.148921L350.621963,187.652122L354.499477,186.439613L352.651114,183.490517L351.865898,181.122722L347.478398,180.521258L343.023440,180.190296L339.100055,181.800784L334.086540,184.315761L328.738432,182.652196L323.929992,181.504727L319.296943,184.027323L314.518184,180.151894L310.270998,178.419494L309.510067,178.668365L306.965533,180.193953L305.519223,180.727858L304.197037,180.998420L303.163573,180.886908L302.591525,179.992793L302.650888,178.624449L302.421529,177.388959L302.224551,176.729765L302.596922,174.947180L300.416663,171.387106L293.832716,169.455316L284.253611,165.840850L280.869894,171.012625L273.554696,171.030983L268.694987,170.309393L261.993662,171.445842L257.457754,167.827110L253.775870,166.188568L249.836294,167.299445L242.678949,163.145656L237.328143,161.636530L230.652451,158.930918L227.167546,156.611947L222.766555,157.773568L224.245245,152.270566L219.985916,149.157435L215.803491,148.100869L213.559822,144.289508L212.607308,144.536491L208.109176,146.656114L202.434569,147.535315L191.094798,144.083359L183.690555,142.496694L178.977906,145.648515L168.691837,142.600771L163.531263,140.019757L158.850993,141.604412L152.183397,142.167705L143.964256,144.007209L138.154731,143.970062L122.067233,140.691323L116.252312,138.735610L106.578766,137.618376L101.581441,135.229397L95.131061,137.143387L84.201438,137.754335L72.458266,137.497310L68.028942,138.705824L62.475760,137.154565L58.680546,133.291416L53.285216,132.085646L46.152157,132.864056L41.953541,133.345530L38.293244,135.840855L34.101374,139.253077L32.261106,144.688753L27.243544,146.960348L17.942369,147.060514L13.774784,150.683967L9.531646,153.145783L7.940975,158.377234L9.493869,163.090394L13.302575,166.745912L13.483363,172.451478L19.659862,173.278784L19.643672,179.665415L20.824195,183.853879L20.739198,189.364981L17.568649,193.290746L17.814198,199.182604L18.531956,199.924403L20.609677,199.398457Z " data-iso2="ES"/><path d="M525.083087,167.069588L524.543419,161.798730L520.736062,166.744073L519.759264,171.238422L515.620011,169.798821L511.669643,173.091702L506.693905,174.496280L501.863878,181.294541L502.843375,186.623809L500.420266,191.220387L503.590815,195.604560L501.361987,199.782954L505.142360,202.021585L504.017153,206.062086L508.682581,208.311071L506.491530,212.463576L511.893605,216.590856L516.952991,219.968477L520.951930,211.030877L522.719342,207.181420L522.886639,199.949791L527.025891,192.379502L526.348608,176.570432L524.359932,172.592746L525.083087,167.069588Z M230.572850,47.285407L227.623566,43.365451L227.755784,47.560706L230.572850,47.285407Z M213.559822,144.289508L215.803491,148.100869L219.985916,149.157435L224.245245,152.270566L222.766555,157.773568L227.167546,156.611947L230.652451,158.930918L237.328143,161.636530L242.678949,163.145656L249.836294,167.299445L253.775870,166.188568L257.457754,167.827110L261.993662,171.445842L268.694987,170.309393L273.554696,171.030983L280.869894,171.012625L284.253611,165.840850L293.832716,169.455316L300.416663,171.387106L302.596922,174.947180L303.441502,173.979288L304.615279,173.188913L306.460943,173.478687L310.376234,174.626427L311.193830,175.696654L311.215417,176.416583L310.489564,177.583020L310.270998,178.419494L314.518184,180.151894L319.296943,184.027323L323.929992,181.504727L328.738432,182.652196L334.086540,184.315761L339.100055,181.800784L343.023440,180.190296L347.478398,180.521258L351.865898,181.122722L351.490829,179.998280L348.536147,175.135945L347.213961,165.846370L350.524823,156.676599L353.177291,152.418617L367.707847,142.223469L371.191403,138.357673L375.109392,137.214176L378.153119,140.622501L384.048990,142.422350L391.026895,145.058225L395.457568,145.370095L400.622189,143.542826L404.613033,146.507692L410.133835,146.661679L412.519167,151.080256L419.842460,153.001479L423.652515,156.028146L429.761555,155.911738L437.354682,154.482951L442.567873,153.325227L447.076798,149.822638L448.717388,145.572417L452.810769,143.109938L461.561483,134.692373L463.774121,133.280220L466.985145,131.917609L467.049905,131.095918L467.462751,130.632653L467.999720,130.419669L468.620338,130.780235L468.668908,131.202381L470.174582,130.563529L470.989480,125.049286L474.548590,120.343803L473.110375,115.160279L465.349951,116.329905L460.676428,113.875253L455.644025,110.854554L453.088698,106.527421L452.209039,101.934710L454.667226,97.243537L457.395247,93.938517L453.490750,88.347643L449.313721,85.965252L448.021217,82.011869L448.045502,77.250155L452.190151,77.588702L458.712037,73.499758L460.031525,66.277949L455.509108,60.093054L451.194464,54.976963L451.145893,50.836452L454.912775,48.702248L457.130810,46.422451L456.655902,45.108946L453.709316,41.412573L450.250045,36.893904L450.584639,30.948261L449.864182,26.871796L444.893841,26.006647L437.810701,27.756164L436.458833,33.415866L431.310402,37.616503L428.088585,34.915764L431.566744,32.330775L432.322279,28.360538L431.874355,22.848491L433.358441,19.031842L436.796125,16.133003L440.770779,10.114680L441.523616,5.421981L446.180949,3.153921L448.762652,0.000000L206.299819,0.000000L205.374409,6.548207L206.228434,11.001934L210.039838,16.062204L213.767594,22.897505L224.655393,29.502328L228.901229,30.526304L231.851863,33.398306L232.615493,46.439907L233.675941,51.188726L229.698589,52.566315L238.797388,61.765619L242.874579,67.815242L245.416415,79.368574L247.975789,82.872557L244.034865,79.240532L241.947700,70.577776L237.109577,64.962719L233.261746,61.992898L231.381003,69.466647L230.276033,76.576735L228.724488,95.881894L231.275768,92.097973L230.780623,96.071588L228.716393,100.028736L225.939802,120.859818L222.102764,138.331606L218.052556,143.121086L213.559822,144.289508Z " data-iso2="FR"/><path d="M900.130655,404.270576L898.584507,399.530464L896.180286,403.202148L899.809553,405.756304L900.130655,404.270576Z M967.235653,397.317320L966.820109,395.860436L965.206502,394.531948L964.871908,394.820515L965.363006,395.612233L965.314436,396.896599L964.880003,397.786573L964.143357,398.473544L965.951244,399.120140L967.235653,397.317320Z M994.264918,390.692047L993.177487,389.355932L991.760859,388.861651L992.152118,389.919031L990.848820,390.858384L988.992363,390.347579L988.997759,392.015735L990.695015,393.238049L992.081961,391.513550L994.264918,390.692047Z M941.077953,384.547071L936.150785,385.218951L940.937639,387.297502L941.077953,384.547071Z M964.453666,387.640685L962.081826,383.671181L963.973361,388.180603L964.453666,387.640685Z M977.651243,383.627378L981.113212,380.545930L976.960468,382.420850L977.651243,383.627378Z M946.194004,379.103426L947.362385,378.143005L946.061785,375.562146L945.103875,375.638189L944.815153,376.435665L944.966260,377.795210L945.689415,379.253618L946.194004,379.103426Z M961.612315,374.018839L961.407241,373.472632L961.512476,371.613325L960.400760,371.242660L957.953367,372.667489L956.820064,375.176826L957.589091,376.398500L959.415866,376.687361L961.612315,374.018839Z M968.989574,377.508160L970.149860,371.103859L963.905903,373.949512L966.525990,378.818206L968.989574,377.508160Z M940.740660,372.055009L941.083350,370.579055L940.894466,369.723908L939.642436,369.103963L938.465961,369.913588L938.012640,371.816408L939.717990,372.576134L940.740660,372.055009Z M938.314854,364.442901L938.190730,359.894204L936.744420,365.496564L938.314854,364.442901Z M952.327329,359.256616L951.323547,358.720922L951.013238,360.898726L951.037523,362.281647L951.461162,362.838685L952.189714,362.869251L952.327329,359.256616Z M965.033809,361.845104L966.544879,360.873236L966.698684,360.037003L963.525437,358.710717L962.545940,359.402850L962.392135,362.059138L965.033809,361.845104Z M982.346353,358.006490L987.197967,356.643423L991.245476,352.952230L987.381454,354.209904L981.447806,356.745550L982.346353,358.006490Z M960.975506,355.558924L956.442297,353.870835L958.225899,357.460328L960.975506,355.558924Z M936.110310,356.352338L937.348848,353.835052L936.749817,352.659026L935.128115,352.832907L933.940846,355.506135L934.259250,358.045619L936.110310,356.352338Z M1000.000000,348.945029L999.183990,349.230165L997.591970,351.226622L998.471629,351.688830L1000.000000,351.779112L1000.000000,348.945029Z M840.300379,348.373093L834.857829,344.027011L833.298189,347.751452L838.368368,353.286306L843.214585,351.775804L840.300379,348.373093Z M953.676499,349.972618L952.699700,344.894078L948.115222,341.903432L947.454129,346.087314L950.702929,349.592031L953.676499,349.972618Z M913.867900,344.155294L913.422674,342.601788L912.888403,342.047226L912.008744,341.869194L911.415110,342.245787L910.775603,343.636993L910.230539,343.967144L910.670368,344.659811L911.541932,344.977862L912.775073,345.020608L913.867900,344.155294Z M832.669476,328.080389L829.053701,330.375379L825.483798,333.771069L829.531307,335.084486L836.787141,339.082400L834.960366,332.910544L832.669476,328.080389Z M836.714286,329.979838L835.127663,325.679967L835.348926,330.361622L836.714286,329.979838Z M984.135352,333.899865L985.670707,325.078646L981.882239,320.371718L977.284269,321.350387L980.430532,326.928676L980.228157,330.923876L981.496376,335.887657L984.135352,333.899865Z M834.725610,320.124833L835.634950,313.380599L831.166501,318.243925L834.725610,320.124833Z M944.917690,313.023956L941.860471,308.303215L941.873963,312.662068L944.917690,313.023956Z M910.122605,307.720308L905.778279,305.135501L898.266102,309.238013L902.621222,311.761451L908.703279,315.654312L912.605077,319.974619L916.625603,325.974545L923.131299,327.467584L927.383881,327.846301L930.257613,333.020488L932.132958,337.433223L936.207451,340.906918L940.155121,342.612057L942.532358,337.206850L936.212847,335.853338L932.356920,329.656481L931.455675,325.256128L930.549033,320.846428L922.910035,317.369492L917.667162,314.602498L913.150142,312.873320L910.122605,307.720308Z M920.190109,302.179421L915.055169,298.822892L917.049242,302.857489L920.190109,302.179421Z M923.179869,300.615688L925.470759,296.713408L921.887364,301.033242L923.179869,300.615688Z M992.869876,294.509702L986.107838,292.934186L982.268101,296.110371L977.230302,299.127583L983.536321,302.848797L986.399259,299.333012L984.518516,303.366790L992.316717,307.177181L996.655646,306.458615L997.513718,302.353302L992.389572,296.628015L992.869876,294.509702Z M817.904163,290.817975L813.743324,288.198161L813.101119,284.127522L814.005063,279.558924L807.663966,277.712265L810.470239,285.353265L812.545261,289.787156L818.503194,292.824229L817.904163,290.817975Z M965.999814,271.042631L961.801198,272.016153L955.508671,270.452697L955.624700,275.758783L960.090451,274.312001L963.770986,277.352252L964.955557,272.259033L965.999814,271.042631Z M972.853596,255.005984L969.615589,251.762225L969.728919,255.954000L972.853596,255.005984Z M947.667297,248.149817L947.651107,243.957033L943.498363,241.671702L940.551777,245.526839L944.121680,249.450475L947.667297,248.149817Z M990.403594,207.723720L987.079240,206.714944L983.360929,209.326395L985.503410,214.931790L985.276750,219.937907L979.418655,222.655292L973.908646,222.540333L968.468795,223.100707L964.459062,224.404147L957.591789,222.513388L953.727767,220.702033L949.674862,219.624994L944.264692,218.677014L940.594950,213.787245L934.272741,214.802042L927.823711,214.720946L922.982890,217.350651L916.193868,219.900144L910.619100,219.459529L905.270991,219.966678L899.350835,222.150508L896.323298,221.758824L894.755563,221.719292L891.039950,227.557485L884.650283,229.759497L877.580634,228.414162L870.829389,229.302776L864.920026,235.915874L860.721410,237.894312L856.082965,237.628353L847.459073,239.107714L846.144982,239.362808L842.394290,239.591121L842.159535,242.314947L843.047288,244.412773L843.435849,250.034834L840.111495,253.504353L837.027293,256.264019L835.008936,261.537173L833.916108,266.202759L830.313825,267.968142L826.352663,269.820342L825.262534,274.382338L823.870191,278.282911L821.465971,282.906431L815.785967,280.899171L818.497798,283.346233L821.039633,286.769121L824.061773,294.593422L828.689425,297.157749L831.546966,300.993230L834.852432,303.849921L841.247496,304.942706L845.276116,305.102501L847.591292,309.019520L840.429899,308.343111L836.986818,310.711481L839.879438,314.211416L843.166015,318.522090L845.033266,323.849718L846.509257,328.033918L851.762924,328.412551L852.529252,324.413410L856.439146,330.263602L861.344727,329.114595L865.616198,328.658632L870.054966,327.054374L877.281118,329.155885L881.657824,328.002936L887.132755,329.434580L891.844055,331.386309L896.779318,334.466492L901.228879,334.660489L902.016794,338.984714L897.394539,338.940153L896.442025,343.019342L890.672976,339.911732L886.371823,337.584127L877.747931,334.931718L869.723070,330.270481L864.061954,331.924277L861.574085,335.410590L855.848210,334.368629L851.895143,340.595214L847.388916,344.386187L851.352776,349.452070L854.882204,354.151976L859.167167,357.601558L862.140737,362.955851L859.374939,369.444443L859.488269,373.584250L863.775930,381.114279L868.039306,385.459709L869.356096,380.127601L871.336677,375.815615L875.564974,379.746323L881.401482,386.679998L881.369102,393.162510L887.823530,383.996304L892.561813,383.773944L898.171661,392.653826L901.595853,395.283497L899.777172,388.656514L900.675719,384.161378L898.506255,375.837581L894.528903,366.305610L892.151666,362.743589L891.056140,357.562423L897.000581,358.435173L901.309829,361.099244L903.106923,364.811138L912.162550,361.112838L909.939118,357.582842L905.902403,355.705366L902.710267,351.487583L901.023805,346.702521L903.994677,342.993675L910.254824,341.834955L914.682798,341.187762L918.892208,345.618975L922.885750,349.337706L925.489647,352.867000L927.996404,349.452070L927.186902,343.123720L926.952147,336.651122L925.362825,331.896780L921.744352,330.119145L917.543038,329.169649L914.383283,324.339292L908.838196,323.063444L905.632569,318.266386L899.205125,315.410427L892.399913,313.337320L888.538590,311.553571L893.190526,309.746023L900.486836,304.901019L896.957408,302.282012L894.194309,297.039266L898.446891,294.452142L903.112320,297.068887L901.943939,301.525520L907.699496,300.024033L906.614764,295.960461L901.501411,288.694722L898.058330,286.123423L894.105263,277.622706L887.375605,269.108529L887.742579,260.449852L888.279549,254.931545L891.512159,251.013188L896.495992,249.034766L894.536998,252.679570L901.355701,259.439890L907.265064,262.620479L907.712988,267.194069L909.574842,270.806674L915.978001,273.177538L911.550027,267.772442L909.321198,262.420819L917.006069,262.353673L921.725464,269.637123L925.772973,270.655227L925.376317,266.305084L921.396266,263.030349L918.552217,260.092610L921.396266,257.130092L927.823711,259.466426L932.696911,262.666416L932.154545,258.588793L927.119444,255.631539L922.594329,255.296630L922.928923,250.725582L920.160427,247.684111L919.720598,243.317785L924.785381,243.298195L932.750878,241.919398L936.879337,237.294523L941.652699,236.458856L945.028322,238.875787L954.035378,235.290580L960.816304,236.560651L967.632309,238.206643L977.548706,239.803362L981.833669,242.539420L982.613489,244.085219L986.480209,240.445321L990.684222,235.767605L990.727395,231.746566L990.673428,225.344483L996.358829,221.507249L998.385282,215.277749L995.214733,210.805247L992.880670,208.471890L990.403594,207.723720Z " data-iso2="GR"/><path d="M749.652370,168.439199L744.792661,167.258992L753.421950,171.023640L749.652370,168.439199Z M723.205947,159.858964L728.732146,163.674263L735.326887,162.943022L732.059199,160.428892L723.205947,159.858964Z M774.787400,181.056916L773.659495,179.252011L772.593651,177.683705L772.545081,176.304852L770.065307,175.293544L768.888831,174.815218L761.719343,169.484708L758.246581,166.994190L753.311318,162.920915L752.852601,165.364263L738.931869,158.751908L734.112635,159.167116L739.992316,160.921242L749.020959,165.873968L755.621097,167.371156L764.927669,173.515365L769.690238,177.498807L774.787400,181.056916Z M738.219507,154.972867L724.493055,153.110633L719.633346,151.052481L715.629011,151.639389L720.418563,154.286955L736.287496,155.364725L738.219507,154.972867Z M726.924259,149.481722L721.848683,145.256861L717.631179,145.060082L722.563743,149.579926L726.924259,149.481722Z M687.857703,122.641517L685.056827,121.223773L686.122671,123.142017L687.935955,124.906951L689.676384,125.493087L687.857703,122.641517Z M683.980190,119.241954L679.414600,115.572162L684.411924,120.597134L683.980190,119.241954Z M682.811809,124.616637L676.284526,117.130621L681.349309,125.195357L682.811809,124.616637Z M682.803714,108.703338L680.717898,104.836952L677.774010,101.022618L674.778853,98.051030L670.464209,94.690256L674.409181,100.615652L677.487986,104.891747L680.302354,107.837373L682.803714,108.703338Z M672.938586,92.295585L669.044882,88.821534L671.033558,92.462782L672.938586,92.295585Z M663.451225,96.139873L662.469029,88.001201L660.844629,81.673992L659.862434,76.343286L659.360543,82.114940L658.596913,86.784425L660.709712,92.320286L663.238056,97.647320L663.451225,96.139873Z M672.353046,83.792041L669.339001,79.374307L665.744813,74.095572L662.064279,79.037942L666.902401,81.901158L672.353046,83.792041Z M719.490334,23.497344L717.042941,22.513208L712.366719,23.175882L712.226405,27.940037L708.168103,28.215816L705.245801,31.292019L701.014806,33.191476L697.053644,34.974257L693.969442,37.896909L696.003990,41.542819L696.055258,47.269896L690.143197,51.508048L685.251108,54.082218L687.458349,57.527802L685.642367,61.632708L684.285102,65.580051L676.341192,63.275240L671.878138,64.129722L667.911580,60.451567L665.682752,57.064583L661.772858,63.044242L657.784713,63.798746L652.328671,64.145116L648.186720,65.249290L639.333469,64.187446L638.302703,62.605280L636.624336,63.989256L639.004271,73.835043L639.722030,78.663295L642.849405,83.227424L646.117094,89.240150L651.125211,85.738497L656.494906,76.647530L657.385358,71.828332L660.634159,69.485843L665.175464,71.231912L673.578092,79.727818L675.013609,84.013271L674.425371,89.985854L674.700601,94.331503L677.080536,98.358029L685.051431,106.857812L690.610009,111.165472L685.450785,110.515322L680.993128,111.751391L691.395226,125.137304L695.712569,128.874008L700.270064,131.757029L703.610608,134.787480L704.827559,140.008594L708.848084,140.522055L716.112014,139.109762L721.813604,142.130528L730.181154,144.855858L736.433206,151.739352L741.972897,155.385056L747.704169,161.155394L749.026356,162.056751L750.121881,158.113265L743.972366,152.202088L740.464525,146.702494L739.711689,141.896300L735.194669,140.131389L730.146076,135.078371L724.228618,128.730042L721.543771,124.968756L718.270685,121.537027L713.518910,116.848711L711.147069,113.357651L709.919325,108.075122L706.581479,100.892018L701.913353,95.289949L697.987269,88.499908L698.637569,82.601600L702.140013,74.449919L706.009432,75.474336L709.573938,80.071720L715.313305,80.614215L719.889689,74.411614L727.078064,75.189079L730.610190,72.062254L736.322575,76.172968L741.813695,76.479149L747.952417,78.101206L751.927070,76.697277L759.069574,78.519918L764.280067,78.225489L768.362655,77.642252L773.980597,79.538649L781.104213,81.859162L782.272593,86.218656L786.498193,88.157297L788.316873,88.001201L787.995771,86.643472L789.857625,77.527499L793.810692,76.329891L798.843095,76.125124L797.245678,72.395837L790.691412,69.691221L788.330365,64.618400L785.850591,59.292937L785.205688,52.717179L785.386477,47.143866L785.505204,46.185806L785.364890,46.185806L780.432326,47.471528L776.090698,50.886780L770.389107,53.274124L759.490515,52.591460L755.159681,51.792495L750.532029,48.702248L747.480207,45.805570L741.441324,43.625704L736.991763,37.883279L731.198428,33.359283L725.896192,26.846355L720.974421,24.095059L719.490334,23.497344Z " data-iso2="HR"/><path d="M707.798430,8.862050L713.062890,9.104742L713.750967,10.288216L715.372669,15.257680L716.789297,19.185029L719.198914,22.607328L719.490334,23.497344L720.974421,24.095059L725.896192,26.846355L731.198428,33.359283L736.991763,37.883279L741.441324,43.625704L747.480207,45.805570L750.532029,48.702248L755.159681,51.792495L759.490515,52.591460L770.389107,53.274124L776.090698,50.886780L780.432326,47.471528L785.364890,46.185806L785.505204,46.185806L786.125822,46.199385L790.532210,42.829311L795.804765,43.357682L799.760530,40.907069L802.785368,37.291266L808.138873,37.421756L813.929509,37.040001L821.557715,38.453720L822.431976,39.148562L823.514010,38.175332L829.790348,36.821826L834.015947,37.671030L836.757459,33.655841L844.482805,33.815809L848.090484,29.398731L850.656605,25.589609L851.520073,20.582855L854.739192,17.550477L856.563269,13.299221L859.523348,8.252240L861.382503,3.064890L863.215821,0.000000L718.562439,0.000000L718.405602,0.984485L717.971169,2.419803L717.755302,3.054998L716.940404,3.452642L714.395870,3.240970L712.204818,4.467194L707.798430,8.862050Z " data-iso2="HU"/><path d="M596.119566,384.779470L596.030521,384.112531L595.372126,382.574224L593.267421,381.810635L592.946319,382.309606L593.062348,383.974406L594.794681,385.160021L596.119566,384.779470Z M693.526914,333.820871L687.010425,333.925624L682.461025,335.657715L677.096727,335.674876L671.783697,335.695468L667.558097,338.573360L661.465247,340.064203L651.346475,340.136153L644.131116,342.216688L635.909276,337.939060L632.050651,335.220082L626.753811,334.875072L623.688498,338.607642L619.646386,340.334861L614.994449,335.130830L611.327406,338.576788L608.154159,343.705421L606.737531,347.869302L609.257780,353.119274L612.393250,355.742827L618.774822,356.410217L623.448346,358.802558L628.442972,360.708390L632.306993,364.293556L638.556347,367.578885L644.454917,371.681021L650.636812,372.677639L657.123619,374.779618L663.831691,383.342647L671.405929,386.387180L677.663378,386.955957L680.477746,383.805952L682.711970,378.640982L685.734110,375.927133L684.117805,371.582862L682.946726,366.582020L680.515522,363.363347L681.217091,357.919724L682.841491,353.775411L684.074632,349.091892L690.739530,339.349735L693.526914,333.820871Z M497.411618,303.848183L496.353869,303.026109L494.313925,302.125515L494.087264,302.735798L494.152024,304.874964L495.824995,307.364599L497.411618,303.848183Z M648.259575,244.855969L648.882891,244.398532L648.917970,243.624075L646.405816,242.806621L645.917417,244.183133L646.308676,244.742063L647.026434,245.170963L648.259575,244.855969Z M492.082398,232.642896L492.991738,231.803826L493.677117,230.379065L493.026817,229.635922L491.567015,230.470376L490.368953,232.955907L489.861665,234.195030L491.162264,234.316584L492.082398,232.642896Z M529.273608,238.417220L528.105227,234.377359L525.630850,230.205387L521.502391,226.919259L518.121372,224.671570L514.772733,228.863885L506.869297,235.935524L499.980437,239.580420L494.216784,239.721321L490.374349,237.273100L489.176287,242.469942L489.427232,246.823566L492.344137,250.207095L494.826609,254.421043L497.201148,259.860905L497.187656,265.721071L495.212472,271.227506L499.313947,276.233242L498.291277,280.458934L496.531959,286.160175L495.528177,295.854124L497.613994,302.318527L500.630737,307.519035L506.316138,309.459955L510.887124,307.539857L513.366898,297.732662L517.527737,298.636576L522.533156,300.286814L527.352390,300.340760L528.858064,293.618253L530.765789,273.166983L531.173239,267.127054L529.575822,260.739851L532.649230,255.959315L533.758248,250.295885L530.655158,240.751974L529.273608,238.417220Z M550.358431,165.082682L546.300128,166.679700L543.067518,169.455316L548.715142,168.736914L550.358431,165.082682Z M551.953149,8.794959L550.660645,14.045415L551.551097,18.717578L546.963920,20.889001L543.240212,18.898285L540.498699,24.167557L542.471185,28.992115L543.453381,33.365136L538.658432,30.399310L533.577459,29.664554L529.478682,31.670870L525.101975,29.555102L523.625984,24.202826L518.998332,24.488873L518.747386,32.035990L513.771649,39.393748L511.780275,44.144176L513.099762,48.415465L508.636709,46.703676L505.676631,43.623762L501.909750,39.060989L496.844967,33.669497L496.418629,27.392286L490.587518,29.858038L486.823335,32.664556L487.638233,37.061428L484.572920,41.406741L480.099074,45.561098L472.921491,44.577113L469.025089,45.681397L460.112475,48.223609L458.088720,47.295101L457.130810,46.422451L454.912775,48.702248L451.145893,50.836452L451.194464,54.976963L455.509108,60.093054L460.031525,66.277949L458.712037,73.499758L452.190151,77.588702L448.045502,77.250155L448.021217,82.011869L449.313721,85.965252L453.490750,88.347643L457.395247,93.938517L454.667226,97.243537L452.209039,101.934710L453.088698,106.527421L455.644025,110.854554L460.676428,113.875253L465.349951,116.329905L473.110375,115.160279L474.548590,120.343803L470.989480,125.049286L470.174582,130.563529L476.809798,129.206777L484.316578,126.365458L492.257790,116.386303L499.429976,108.301526L505.339339,105.356504L509.886040,105.919375L517.225523,109.195602L532.004327,117.746942L540.757740,120.869199L544.637951,123.651777L548.296900,140.263478L551.807439,145.663363L553.831193,152.017005L553.734053,157.267623L555.749712,161.481693L559.808015,163.506669L561.632092,167.111884L565.353102,169.580233L571.707691,177.226009L569.924089,181.667380L573.971597,181.700275L580.844267,183.674944L584.681306,186.492502L589.371019,194.156192L596.783357,199.405713L600.385640,204.163979L612.134209,216.844748L618.167696,219.090790L623.003120,223.059402L627.401413,223.914094L632.333977,223.883574L637.663197,225.586685L642.598459,225.459308L646.090110,229.338601L651.281715,238.845457L658.499772,240.951635L662.690293,244.014005L659.357844,248.745150L665.353554,247.740996L671.122603,246.211754L675.024402,250.301213L677.212755,256.786533L675.577562,260.872461L685.734110,267.913488L693.764368,268.533995L698.696932,275.122515L701.203689,283.875294L705.879911,293.646170L707.202097,301.287221L708.195086,305.402958L711.028342,308.343111L710.664067,314.796286L704.463283,316.448073L701.880972,319.940086L702.596032,324.547850L700.318634,330.911841L695.364483,335.400293L695.440037,340.357129L706.797347,343.595935L709.209662,338.527078L713.030510,332.792006L720.302534,327.173178L720.672207,316.370264L726.101265,310.168998L731.516832,308.389945L735.580531,309.116630L736.255116,301.389849L736.023059,292.681104L732.836320,289.068825L728.003595,285.603593L721.743448,283.430330L719.646838,279.529094L719.870800,275.496914L723.729425,265.486368L727.525989,258.636575L730.874628,253.862559L737.830946,252.237797L739.978824,256.003606L743.794276,258.137467L756.759796,260.313681L762.642176,272.713050L766.549371,275.753511L771.360510,273.914559L773.913139,266.656130L773.216967,262.454391L769.558019,257.027383L761.487286,249.978003L745.961042,239.931767L740.461827,235.001103L735.715448,231.825299L720.475228,225.592067L705.574999,218.108406L702.477305,215.281352L702.844280,211.263704L706.157840,208.307457L710.453596,204.113294L706.926867,199.879068L688.785932,200.432102L682.258649,199.659631L673.896496,195.253908L664.905630,188.107791L655.013518,178.302369L650.253648,171.429323L647.889903,165.331138L644.568247,152.905270L641.489442,144.952402L637.922237,138.044851L630.493709,133.662725L619.765113,124.661591L613.799085,121.838987L608.154159,116.474656L605.652798,113.020675L603.129851,105.080684L601.564814,93.712566L602.409395,89.441819L607.511954,88.935710L609.166036,84.146761L605.547563,81.339882L602.614468,74.763996L601.578306,68.435623L604.479021,63.587048L608.291774,61.445848L615.736492,61.524832L619.654481,58.899521L625.652889,55.456073L635.186121,54.978895L639.695046,52.564381L643.977311,58.249459L642.223390,59.815456L646.502956,58.739434L642.274659,52.947322L638.453810,50.923558L639.298390,44.996379L635.604364,43.105168L639.371246,38.171439L635.922768,34.839721L633.372837,30.805664L637.897952,26.899193L641.114373,24.982510L641.675627,22.679876L635.874198,21.261812L626.996662,20.575005L616.961538,18.434702L611.243757,17.298899L605.431535,15.344244L602.107181,9.968742L598.960917,5.951578L600.264215,0.861697L593.861056,1.721071L588.504853,3.893724L584.354807,3.468467L579.041777,4.016341L573.825887,4.314942L568.825864,9.029767L565.064380,12.649291L560.434029,11.687828L555.460990,9.248766L552.687097,9.191552L551.953149,8.794959Z M605.668988,124.148309L606.891336,122.311538L608.620972,122.030269L608.923186,123.441890L608.110985,125.420063L606.483887,125.700914L605.668988,124.148309Z " data-iso2="IT"/><path d="M858.346872,186.744167L860.233011,182.758144L863.570857,174.963675L854.175239,169.102573L852.310687,164.458664L849.534096,161.383992L846.892422,158.104035L842.488732,155.342547L839.083428,153.167983L835.108774,151.161727L833.368345,154.799097L828.878309,161.503813L828.705615,165.091885L825.265233,166.221681L821.695330,167.317832L817.251165,168.777341L818.217171,173.608891L817.693693,176.403761L817.518301,176.771886L818.611128,177.619633L822.396898,184.571308L827.032645,186.962983L830.197797,190.823573L831.816800,200.276178L831.395859,201.900191L831.735850,202.177395L835.783359,201.905627L836.484927,196.525457L845.033266,190.830854L849.075378,192.408609L852.548141,190.239152L858.878445,187.982035L858.924316,187.987503L858.346872,186.744167Z " data-iso2="-99"/><path d="M527.843488,1.004289L528.269826,0.255573L528.352348,0.000000L525.157710,0.000000L525.285462,0.806242L525.690213,0.786436L527.843488,1.004289Z " data-iso2="LI"/><path d="M115.646535,416.893981L113.996500,413.154320L110.545324,415.469324L105.444199,416.893981L115.646535,416.893981Z " data-iso2="MA"/><path d="M468.668908,131.202381L468.620338,130.780235L467.999720,130.419669L467.462751,130.632653L467.049905,131.095918L466.985145,131.917609L468.668908,131.202381Z " data-iso2="MC"/><path d="M879.782479,185.215530L875.065782,185.093269L870.392258,185.277571L865.891428,185.910654L860.465068,188.187980L858.924316,187.987503L858.878445,187.982035L852.548141,190.239152L849.075378,192.408609L845.033266,190.830854L836.484927,196.525457L835.783359,201.905627L831.735850,202.177395L831.395859,201.900191L831.034282,202.320514L830.025103,211.034486L828.147059,214.940800L829.355915,219.729303L829.261473,224.100792L833.878331,231.843192L836.220490,237.567660L842.237786,238.800852L842.394290,239.591121L846.144982,239.362808L847.459073,239.107714L856.082965,237.628353L860.721410,237.894312L864.920026,235.915874L870.829389,229.302776L877.580634,228.414162L884.650283,229.759497L891.039950,227.557485L894.755563,221.719292L896.323298,221.758824L896.701066,221.029185L897.302795,211.826726L898.800374,207.709260L896.134414,203.327535L894.134945,197.445995L889.866172,195.008602L884.779803,191.062033L880.519125,185.505646L879.782479,185.215530Z " data-iso2="MK"/><path d="M664.684366,416.893981L662.353001,412.214428L662.023804,416.844064L664.684366,416.893981Z M658.626594,409.818220L658.831668,409.522924L658.356760,408.631834L657.239648,408.171154L654.948758,408.696923L655.331922,409.317699L656.972512,410.345335L658.626594,409.818220Z " data-iso2="MT"/><path d="M792.661200,139.411273L790.332533,140.086737L787.396740,142.955713L788.856541,148.655163L785.235370,146.537377L781.190559,148.992494L777.895887,153.917107L777.720495,158.683622L772.752853,160.921242L773.365376,168.130417L775.499762,172.007437L773.030782,176.125340L772.545081,176.304852L772.593651,177.683705L773.659495,179.252011L774.787400,181.056916L775.783088,181.221428L785.197593,187.914598L791.498215,194.957720L793.271024,199.117301L797.580272,202.070503L798.098353,197.291690L797.261868,192.395875L797.210600,187.921889L800.972084,181.713067L804.628334,176.090535L808.586798,174.532942L811.876073,179.056259L817.013711,176.672992L817.518301,176.771886L817.693693,176.403761L818.217171,173.608891L817.251165,168.777341L821.695330,167.317832L825.265233,166.221681L825.356976,165.285130L820.389334,160.919398L814.204740,156.643350L809.703910,155.579111L805.097845,153.167983L799.577043,146.741452L796.360623,144.036926L793.414036,139.960219L793.489590,139.493158L792.661200,139.411273Z " data-iso2="ME"/><path d="M17.816896,203.443423L18.696555,208.144820L19.821762,213.511391L21.680918,223.657359L23.442934,228.439248L23.969110,233.022081L23.460473,237.157051L23.166354,243.145034L20.740547,248.496371L17.970702,261.077551L18.932660,266.264507L14.340086,276.904357L10.354639,286.884595L7.505193,291.057274L4.097190,294.193981L3.003014,302.261147L2.530804,307.656110L1.334091,311.473879L1.351630,315.801324L7.480908,316.441157L11.937215,312.121737L15.714890,305.679069L20.210323,303.469332L16.162814,306.318002L15.086177,313.247297L11.873804,317.011682L7.533525,318.425340L8.832776,322.589148L11.799600,325.545587L16.806368,323.537652L21.802343,324.585767L17.737295,325.847071L19.676052,331.025309L19.916204,335.103367L17.796659,343.005653L20.203577,350.909340L19.465582,355.809233L19.587007,361.439070L16.489313,370.634926L14.512780,375.269781L18.639890,373.766887L25.569225,372.185300L38.304037,373.719538L43.749286,376.199151L56.075299,370.557045L58.491662,370.170990L56.805200,361.535912L55.801418,356.051005L59.244499,349.037264L61.639275,344.835941L64.589909,341.335021L69.082644,339.988825L70.886483,334.960899L66.774214,335.202918L60.435815,323.913506L61.801175,318.686211L63.637395,314.396582L68.441788,309.553581L69.770720,304.242614L64.950137,301.438552L61.265555,294.199214L57.415025,287.113775L57.166777,281.931929L66.462556,281.895115L70.394036,277.701729L72.168194,272.707771L72.023833,268.389459L68.945028,265.290471L71.138778,261.348032L74.959626,258.033031L74.254011,252.950981L74.732966,246.734650L73.645535,238.552837L72.048118,232.709079L75.909442,230.155251L78.275885,226.236026L81.708173,222.957034L86.206304,220.319102L89.349870,217.384854L90.627533,211.967461L86.522010,209.617182L81.899755,208.186384L81.940230,201.883884L77.903515,199.639682L73.429668,199.242465L68.872173,199.042924L64.797681,198.260927L62.293622,202.244426L55.550472,203.298562L50.563941,201.351124L42.332657,202.708159L37.288112,203.892438L36.188539,199.917150L37.286763,194.626964L33.170447,192.925199L25.790489,195.246640L20.609677,199.398457L17.816896,203.443423Z " data-iso2="PT"/><path d="M822.431976,39.148562L824.077963,41.455341L827.852940,45.826912L831.808705,48.657683L833.786588,52.229737L837.186495,54.482289L836.911265,59.425989L837.691085,64.537603L841.773672,68.573888L846.142283,71.394937L849.639331,73.446108L855.303145,75.359472L855.386794,79.957092L854.709510,84.547185L857.747840,87.548082L853.330659,89.658688L859.879528,92.432384L863.835294,95.339284L871.757618,97.700394L876.566058,99.996546L880.702612,95.515742L884.763613,94.344791L888.754457,96.492649L890.376159,100.197254L886.320555,100.786019L884.677266,104.848289L887.089581,108.603363L890.019978,112.079137L890.494885,112.484046L892.432293,114.125542L897.135498,116.741576L898.239119,120.983644L895.003810,123.636786L896.406947,127.985761L904.850050,126.475885L913.414579,127.254335L924.914901,129.816107L932.540408,130.703643L938.171842,129.520808L948.606319,131.661796L958.317642,133.653396L967.640404,134.246622L972.864389,132.681144L976.531432,130.574738L979.696584,126.603150L987.500181,121.356958L995.055531,118.408174L1000.000000,117.213127L1000.000000,0.000000L863.215821,0.000000L861.382503,3.064890L859.523348,8.252240L856.563269,13.299221L854.739192,17.550477L851.520073,20.582855L850.656605,25.589609L848.090484,29.398731L844.482805,33.815809L836.757459,33.655841L834.015947,37.671030L829.790348,36.821826L823.514010,38.175332L822.431976,39.148562Z " data-iso2="RO"/><path d="M608.110985,125.420063L608.923186,123.441890L608.620972,122.030269L606.891336,122.311538L605.668988,124.148309L606.483887,125.700914L608.110985,125.420063Z " data-iso2="SM"/><path d="M785.505204,46.185806L785.386477,47.143866L785.205688,52.717179L785.850591,59.292937L788.330365,64.618400L790.691412,69.691221L797.245678,72.395837L798.843095,76.125124L793.810692,76.329891L789.857625,77.527499L787.995771,86.643472L788.316873,88.001201L789.282879,87.917438L791.754558,86.814900L796.759977,86.898704L797.361707,91.449910L794.285600,98.100305L791.778843,102.976921L791.392980,107.767554L794.517657,110.833824L800.006079,115.694395L804.250567,119.966569L800.537652,122.480283L795.227320,123.812928L798.179303,127.591082L801.608892,132.994698L799.161499,138.186371L795.151767,137.545737L793.489590,139.493158L793.414036,139.960219L796.360623,144.036926L799.577043,146.741452L805.097845,153.167983L809.703910,155.579111L814.204740,156.643350L820.389334,160.919398L825.356976,165.285130L825.265233,166.221681L828.705615,165.091885L828.878309,161.503813L833.368345,154.799097L835.108774,151.161727L839.083428,153.167983L842.488732,155.342547L846.892422,158.104035L849.534096,161.383992L852.310687,164.458664L854.175239,169.102573L863.570857,174.963675L860.233011,182.758144L858.346872,186.744167L858.924316,187.987503L860.465068,188.187980L865.891428,185.910654L870.392258,185.277571L875.065782,185.093269L879.782479,185.215530L880.519125,185.505646L882.675098,184.949103L885.478673,180.755281L884.056648,176.920218L883.813797,170.680315L883.910938,165.673412L890.524567,164.110688L893.114973,160.268441L896.301712,156.857616L898.004364,152.616621L894.763658,150.176470L892.221823,146.311019L886.336745,142.494835L884.113313,136.863936L881.922262,132.877121L881.110062,126.926894L882.038290,122.806488L887.521316,118.742474L888.325421,114.168822L889.456025,113.161872L890.494885,112.484046L890.019978,112.079137L887.089581,108.603363L884.677266,104.848289L886.320555,100.786019L890.376159,100.197254L888.754457,96.492649L884.763613,94.344791L880.702612,95.515742L876.566058,99.996546L871.757618,97.700394L863.835294,95.339284L859.879528,92.432384L853.330659,89.658688L857.747840,87.548082L854.709510,84.547185L855.386794,79.957092L855.303145,75.359472L849.639331,73.446108L846.142283,71.394937L841.773672,68.573888L837.691085,64.537603L836.911265,59.425989L837.186495,54.482289L833.786588,52.229737L831.808705,48.657683L827.852940,45.826912L824.077963,41.455341L822.431976,39.148562L821.557715,38.453720L813.929509,37.040001L808.138873,37.421756L802.785368,37.291266L799.760530,40.907069L795.804765,43.357682L790.532210,42.829311L786.125822,46.199385L785.505204,46.185806Z " data-iso2="RS"/><path d="M719.198914,22.607328L716.789297,19.185029L715.372669,15.257680L713.750967,10.288216L713.062890,9.104742L707.798430,8.862050L706.254980,9.607797L704.687245,15.214396L698.785977,14.995998L692.663446,17.277277L683.591629,17.747003L677.614808,18.430773L673.192230,20.260963L670.874356,23.528704L666.459873,26.057548L661.567784,26.384458L657.350280,25.871559L652.714533,25.021683L647.997836,23.565943L642.889880,22.919071L641.675627,22.679876L641.114373,24.982510L637.897952,26.899193L633.372837,30.805664L635.922768,34.839721L639.371246,38.171439L635.604364,43.105168L639.298390,44.996379L638.453810,50.923558L642.274659,52.947322L646.502956,58.739434L642.223390,59.815456L639.943294,61.854222L638.302703,62.605280L639.333469,64.187446L648.186720,65.249290L652.328671,64.145116L657.784713,63.798746L661.772858,63.044242L665.682752,57.064583L667.911580,60.451567L671.878138,64.129722L676.341192,63.275240L684.285102,65.580051L685.642367,61.632708L687.458349,57.527802L685.251108,54.082218L690.143197,51.508048L696.055258,47.269896L696.003990,41.542819L693.969442,37.896909L697.053644,34.974257L701.014806,33.191476L705.245801,31.292019L708.168103,28.215816L712.226405,27.940037L712.366719,23.175882L717.042941,22.513208L719.490334,23.497344L719.198914,22.607328Z " data-iso2="SI"/><path d="M500.109957,378.558274L500.792637,382.125874L496.453708,384.651484L494.392176,389.070134L489.948012,393.796970L493.814732,398.163591L492.654446,404.305681L491.923196,409.019010L490.995649,416.893981L557.838151,416.893981L553.415649,409.653058L552.608846,404.772038L553.966110,399.694576L557.190626,396.390304L561.494477,393.865778L566.165302,385.262727L568.634282,381.866269L569.200934,377.538555L565.728171,374.335011L560.612120,378.797952L555.226235,380.554363L550.833338,385.648260L548.671969,381.040080L544.656840,375.214009L544.867310,369.254728L539.111753,367.453450L534.751237,371.699637L534.343787,367.561934L530.819756,364.583754L515.733342,369.644306L506.934057,376.469451L500.109957,378.558274Z " data-iso2="TN"/><path d="M980.708461,265.518134L978.077581,261.996709L972.389481,265.534016L980.708461,265.518134Z M1000.000000,329.650448L998.401472,324.427199L995.727418,319.389217L991.822921,321.778328L993.409544,326.060673L989.569807,331.819442L993.360974,334.030372L997.629747,336.318313L1000.000000,329.650448Z M1000.000000,257.917291L994.672367,263.314744L990.195822,269.538461L985.676104,275.022314L985.811021,282.794277L984.189319,287.664772L991.229286,288.979675L1000.000000,286.856772L1000.000000,257.917291Z M1000.000000,251.419386L993.900642,254.335949L988.549835,259.063037L988.725227,263.129273L987.138604,267.719548L994.467293,260.990921L1000.000000,255.340753L1000.000000,251.419386Z M990.403594,207.723720L992.880670,208.471890L995.214733,210.805247L998.385282,215.277749L996.358829,221.507249L990.673428,225.344483L990.727395,231.746566L990.684222,235.767605L986.480209,240.445321L982.613489,244.085219L983.409499,245.665617L987.732238,248.044952L997.511020,247.804990L1000.000000,247.775055L1000.000000,198.561221L997.554193,199.142697L995.668054,203.655268L990.322644,206.682396L990.403594,207.723720Z " data-iso2="TR"/><path d="M606.837369,200.983195L606.815783,200.693162L606.599915,200.720355L606.516267,200.896189L606.599915,201.014009L606.837369,200.983195Z " data-iso2="VA"/></g></svg>