<?xml version="1.0" ?><!DOCTYPE svg  PUBLIC '-//W3C//DTD SVG 1.1//EN'  'http://www.w3.org/Graphics/SVG/1.1/DTD/svg11.dtd'><svg enable_background="new 0 0 1000 874" height="874px" pretty_print="False" style="stroke-linejoin: round; stroke:#000; fill: none;" version="1.1" viewBox="0 0 1000 874" width="1000px" xmlns="http://www.w3.org/2000/svg" xmlns:xlink="http://www.w3.org/1999/xlink"><defs><style type="text/css"><![CDATA[path { fill-rule: evenodd; }]]></style></defs><metadata><views><view h="874.730971236" padding="0" w="1000"><proj flip="auto" id="mercator" lon0="0"/><bbox h="334.11" w="382.4" x="-83.12" y="-1151.3"/></view></views></metadata><g class="" id="countries"><path d="M989.441724,463.743961L987.407123,458.028003L981.971133,456.762887L974.518350,452.623585L968.908728,451.363258L963.864520,455.591823L957.119618,455.561444L949.729164,454.498023L939.151020,446.906208L933.479069,447.183673L928.857809,445.386527L919.900223,440.460755L915.706363,439.304521L910.630991,441.101434L904.576161,437.649181L900.262095,438.616023L899.131266,449.449930L898.000438,453.349839L893.410342,453.167445L888.156887,460.223152L887.457910,465.238806L881.193833,464.265883L875.593115,464.063857L864.596476,466.662352L858.181027,465.013273L855.429641,458.807086L848.791589,454.146854L847.496033,453.657184L846.957332,455.001079L846.708015,459.221850L846.770344,463.690080L843.355598,469.154681L832.537042,466.436912L829.015446,479.347608L825.070903,483.662906L820.164710,485.674668L814.096524,487.511357L805.677639,492.397807L801.884466,495.329079L799.426918,499.008061L803.509476,507.339047L808.233133,513.748646L808.264298,519.377732L806.171820,523.581242L809.693416,526.046693L812.818776,529.723469L812.538295,534.861898L811.790346,539.666640L804.831744,539.772093L800.450896,535.874832L799.930003,530.787433L796.029980,528.761660L791.853928,529.644154L786.778556,530.929490L781.320305,527.485456L776.997335,526.499884L774.054509,530.291837L751.851983,534.568191L745.338588,536.847901L740.597122,539.795160L736.229631,542.888134L732.757008,545.271078L727.890884,545.251336L721.088104,547.412386L716.992190,545.149336L713.274703,540.154334L707.393504,538.578971L703.613687,537.019397L695.595490,537.385448L691.998209,545.804059L687.844417,552.774788L681.927602,555.101890L682.715620,549.411090L677.983059,548.323119L676.313528,543.642028L672.288847,539.847885L666.251826,536.676396L662.138103,535.106084L657.654858,538.460296L653.020242,537.909724L651.884961,538.572378L653.269558,539.455724L656.528481,542.430452L655.762723,547.501168L652.045236,555.643240L652.468184,556.725692L653.331887,561.366662L655.402105,564.948133L655.152788,568.715594L654.449360,569.950925L656.256904,569.944390L661.960020,571.306683L666.532307,573.295285L668.010398,577.950617L673.441936,581.443841L679.670397,583.700240L689.513948,574.806404L694.308839,580.505698L694.228701,582.805014L695.439667,583.459365L700.016406,583.553764L705.007189,584.041995L708.221591,587.578055L715.861362,589.164406L720.317895,587.334188L722.067562,583.192430L725.277512,578.051681L730.317268,575.413283L738.923140,574.920610L743.223850,573.961170L747.689287,574.016655L754.536587,574.718300L763.373968,571.133567L772.487377,568.293914L770.724353,574.806404L776.979526,584.741677L779.811050,589.807849L782.464490,593.610900L786.609377,595.613108L792.054272,596.835950L796.666627,597.276979L801.488231,598.709950L818.045519,602.241307L826.379814,603.219107L832.692865,603.374494L842.264839,605.714205L844.268275,606.108861L852.696064,607.176157L856.836499,608.236670L868.126976,610.980271L875.085578,611.826520L881.006845,613.692733L886.950373,609.477851L890.440804,607.114715L894.265142,601.723160L899.224760,599.549366L911.423461,597.575291L921.556397,598.460356L926.391357,596.800276L930.371517,593.890043L936.190386,593.072028L945.188042,595.272454L946.065101,587.041527L948.816487,584.146142L951.363078,582.915709L958.633325,575.664488L962.248415,573.641300L966.446727,573.990545L968.864207,569.918250L969.580992,565.579591L966.126177,558.820777L966.923100,549.141594L970.587162,546.642848L975.524520,543.744072L977.964260,537.774541L976.285826,532.851666L966.820702,529.644154L970.876548,525.027628L976.637540,524.041370L981.200923,527.614420L986.449926,526.870332L991.498586,527.002626L995.745871,526.172401L994.802030,519.596478L994.530453,514.950184L996.769849,508.782142L999.427741,505.898687L996.627383,503.608862L991.462969,492.781883L986.574584,479.843736L988.355417,471.830016L990.376661,465.972526L990.572553,465.265734L989.441724,463.743961Z " data-iso2="AT"/><path d="M364.725752,270.054840L352.642805,276.339908L332.799881,288.580585L335.074894,296.451085L335.279690,302.009156L339.375604,309.256535L343.489327,313.639712L347.153389,316.439146L355.501041,312.467902L361.520254,313.762852L365.170960,319.952736L365.847677,325.111087L366.920628,329.389700L376.203216,331.689714L381.603590,333.274659L384.880322,344.184690L390.409806,342.601352L397.755739,343.389626L402.060901,344.432238L408.008881,349.772781L406.619832,354.621810L408.810256,360.616139L406.900313,365.605673L408.075663,370.117354L416.859618,371.200239L424.895624,370.117354L429.962092,367.126392L432.263817,360.407938L435.282328,357.422330L439.280297,357.648078L436.065894,370.165797L438.759403,378.125340L439.600846,382.292982L445.953966,382.982499L451.296463,386.996177L455.441350,389.267934L459.403702,391.964550L465.454079,398.751727L468.766427,401.814610L473.450016,400.597329L478.026755,399.825590L481.641845,399.890766L482.812742,398.799766L484.687068,394.648739L482.278493,386.242034L478.690115,380.868689L479.157584,376.108696L481.566160,370.048149L485.158989,361.421061L490.145319,355.421201L495.287473,356.317686L496.244670,358.509256L496.538507,358.707157L496.756659,357.401491L499.209756,350.757757L507.842340,344.801783L506.894047,338.793432L504.672459,332.690450L500.483051,331.714211L501.983402,324.714840L498.270367,321.799418L491.498752,314.965864L490.951146,313.653785L486.324552,313.501212L483.520623,309.422108L477.301066,311.447075L477.256545,311.901206L474.790093,306.934135L479.219913,300.536614L479.820944,296.436940L482.941853,289.356771L481.949039,284.515969L473.392139,281.217387L470.275683,278.242685L467.377378,274.909445L459.808841,276.756121L455.401281,275.354306L450.192347,270.429070L448.985833,266.021195L447.049177,261.468136L443.082374,265.953391L438.710430,266.281692L437.000831,262.665031L428.951469,264.932596L424.285689,262.968653L420.149706,262.147025L418.466819,268.924769L413.930149,269.331211L410.359580,267.508967L407.915388,273.303895L401.873914,277.677299L395.583124,280.545911L390.107065,278.687103L385.543682,275.592727L380.913518,274.827585L375.976160,278.029343L371.786752,274.468085L370.419963,268.150967L364.725752,270.054840Z " data-iso2="BE"/><path d="M643.951353,533.525172L636.329391,528.669101L622.576914,529.637545L618.561137,525.563666L610.574104,522.203811L605.650102,522.150822L602.270973,524.561010L601.246995,529.211198L607.586758,529.452470L604.180916,532.594116L597.351424,532.983736L591.443513,532.983736L586.679786,535.063188L579.080084,535.894626L568.639955,535.488830L564.882399,533.944397L559.379627,537.009503L555.964881,543.230534L548.930594,545.211853L544.451800,543.329297L539.251770,540.925282L535.374008,543.362217L532.275359,547.336755L536.090793,550.143885L534.630510,555.882720L528.642462,562.863199L522.596536,569.892110L519.711588,573.497675L512.027296,577.239823L510.785166,584.982466L509.925914,590.100284L504.227251,594.912300L498.555300,599.695191L496.106655,605.992410L494.325823,609.801005L496.845701,615.086920L495.599118,621.637548L489.860386,625.902609L489.927167,630.082316L495.176170,630.358650L500.318324,627.327467L503.670741,623.427877L501.694017,619.720656L505.901233,614.089744L510.780714,611.655348L517.587945,611.203157L525.788678,612.630595L526.977383,619.356493L526.425325,629.166409L530.343156,634.148077L534.706196,638.895327L536.994565,642.720684L537.778131,644.887879L539.358620,646.327694L551.766569,645.767833L557.402903,643.665189L561.369707,641.452419L572.735869,645.147088L582.094143,638.975464L588.113356,629.442812L586.123276,623.179989L592.979481,617.557696L596.015800,613.447404L599.305887,610.689529L602.600427,613.489369L602.395631,621.408863L608.183336,629.516730L611.660411,632.741956L619.723130,634.953623L617.875516,640.270228L622.759449,645.351882L625.884810,651.158105L630.123190,648.176219L627.946123,641.128877L629.014622,636.641158L631.231759,633.290986L637.268780,625.603414L639.441395,621.151173L639.837631,614.251118L639.855439,608.698931L646.199654,608.336886L649.926046,617.057871L654.418195,620.535862L663.910031,617.238461L668.317591,615.803168L672.293299,618.450759L675.454277,624.361330L680.204647,623.344176L678.584089,616.128981L677.319699,612.301236L675.329618,608.168781L676.375857,603.957137L679.852932,599.474832L685.996804,602.759380L690.137239,603.937717L693.756781,601.564462L691.726632,596.109431L692.096155,591.467917L694.228701,582.805014L694.308839,580.505698L689.513948,574.806404L679.670397,583.700240L673.441936,581.443841L668.010398,577.950617L666.532307,573.295285L661.960020,571.306683L656.256904,569.944390L654.449360,569.950925L650.896599,569.591481L650.228787,569.624159L649.854812,567.264023L650.072964,562.227984L652.045236,555.643240L655.762723,547.501168L656.528481,542.430452L653.269558,539.455724L651.884961,538.572378L643.951353,533.525172Z " data-iso2="CH"/><path d="M857.713559,68.162227L848.088160,60.960177L848.061448,66.221002L852.371062,71.105959L851.480646,75.575146L852.558049,80.211871L858.145411,81.446454L863.790649,80.574366L865.682783,80.853762L864.979355,77.117680L865.580386,74.693908L857.713559,68.162227Z M732.066936,38.262375L729.823087,31.729123L723.047020,29.205705L719.707959,34.484208L725.068265,38.415399L732.066936,38.262375Z M842.683334,41.023329L837.790497,37.699951L837.857279,32.756330L840.929214,29.044568L832.746290,22.757758L829.625381,16.142725L821.291086,20.942774L820.903755,25.324665L818.615386,31.123377L817.480105,39.910820L819.016073,45.488603L826.963037,51.719684L832.327794,44.568554L837.474400,44.507462L842.598745,48.964091L842.683334,41.023329Z M609.207315,15.087058L605.654555,11.327750L601.447338,13.036373L603.094608,16.793674L607.430935,17.020898L609.207315,15.087058Z M613.512477,8.834532L618.405314,16.408513L622.568009,24.444924L626.045084,28.818196L625.800220,34.373130L620.297448,37.512454L611.949797,39.853464L611.807330,47.884841L615.961122,47.865770L621.227933,47.526282L623.596440,70.821932L626.997830,76.561999L631.169429,78.519689L637.860907,79.271460L642.219494,81.752195L656.773346,101.706255L663.736400,105.204267L658.683288,104.361040L654.680868,101.683748L642.673606,85.279340L637.366726,81.997522L623.333767,83.563402L610.623077,80.525281L606.495998,87.778079L605.485375,96.281195L606.954562,105.031892L604.982290,117.490529L604.866536,108.294228L597.627453,101.244821L595.125384,108.537555L593.584964,113.583410L587.352051,111.871166L590.023299,106.066007L582.828736,94.744009L565.501238,94.240225L549.821010,95.465713L546.228181,97.528448L541.700414,105.024397L540.204515,111.108217L539.247318,118.897585L543.748372,122.630615L545.809685,126.039185L545.431258,133.280335L545.475779,147.529681L542.154527,156.040722L539.136016,166.769871L538.321285,173.796786L525.347922,175.095468L523.994489,179.636817L523.273252,185.210545L529.181163,189.471391L533.263721,189.621114L538.419231,194.109664L537.711350,202.628392L535.779147,207.131989L530.209594,212.314976L525.374634,215.070121L523.852023,219.705189L527.809922,223.853143L525.045180,228.977574L514.823203,233.182433L510.602630,232.854458L507.441653,235.344095L498.817973,231.203278L495.323089,233.182433L491.574437,234.656118L488.880928,239.932963L493.631298,247.595744L495.380966,251.952749L497.682692,255.534492L500.037843,260.016995L500.020034,265.746402L498.804616,269.819589L494.686442,279.348289L497.468992,283.660567L489.450795,291.514263L485.225770,292.339341L486.427832,296.765805L491.538821,299.247169L493.435407,302.506920L490.951146,313.653785L491.498752,314.965864L498.270367,321.799418L501.983402,324.714840L500.483051,331.714211L504.672459,332.690450L506.894047,338.793432L507.842340,344.801783L499.209756,350.757757L496.756659,357.401491L496.538507,358.707157L496.164532,360.609199L496.231314,364.860655L497.526869,369.120658L500.567640,373.313123L506.025891,378.777732L511.328319,381.079094L513.736895,384.674675L511.497499,389.777152L508.474536,395.579638L507.112199,401.687758L506.925212,405.895351L508.652619,405.515235L515.584509,409.964414L517.427670,415.213886L524.755795,426.322107L529.955825,423.437681L534.915443,423.948676L537.827104,428.911609L542.167883,428.625872L551.103209,428.486397L555.243644,426.846289L560.773128,431.492373L564.668699,433.205018L573.252311,434.587428L582.463666,436.739763L586.083208,438.480342L588.803429,445.383142L578.884193,458.385526L575.019787,462.699882L573.051967,468.848701L571.698535,478.257889L568.987217,487.173532L564.926920,495.606054L563.448829,501.920492L564.557397,506.128253L563.862872,512.726019L561.369707,521.693761L560.951212,528.454223L562.594029,533.010150L564.882399,533.944397L568.639955,535.488830L579.080084,535.894626L586.679786,535.063188L591.443513,532.983736L597.351424,532.983736L604.180916,532.594116L607.586758,529.452470L601.246995,529.211198L602.270973,524.561010L605.650102,522.150822L610.574104,522.203811L618.561137,525.563666L622.576914,529.637545L636.329391,528.669101L643.951353,533.525172L651.884961,538.572378L653.020242,537.909724L657.654858,538.460296L662.138103,535.106084L666.251826,536.676396L672.288847,539.847885L676.313528,543.642028L677.983059,548.323119L682.715620,549.411090L681.927602,555.101890L687.844417,552.774788L691.998209,545.804059L695.595490,537.385448L703.613687,537.019397L707.393504,538.578971L713.274703,540.154334L716.992190,545.149336L721.088104,547.412386L727.890884,545.251336L732.757008,545.271078L736.229631,542.888134L740.597122,539.795160L745.338588,536.847901L751.851983,534.568191L774.054509,530.291837L776.997335,526.499884L781.320305,527.485456L786.778556,530.929490L791.853928,529.644154L796.029980,528.761660L799.930003,530.787433L800.450896,535.874832L804.831744,539.772093L811.790346,539.666640L812.538295,534.861898L812.818776,529.723469L809.693416,526.046693L806.171820,523.581242L808.264298,519.377732L808.233133,513.748646L803.509476,507.339047L799.426918,499.008061L801.884466,495.329079L805.677639,492.397807L814.096524,487.511357L820.164710,485.674668L825.070903,483.662906L829.015446,479.347608L832.537042,466.436912L843.355598,469.154681L846.770344,463.690080L846.708015,459.221850L846.957332,455.001079L847.496033,453.657184L845.452528,450.264745L841.579218,446.056758L835.319593,440.301414L830.444564,440.586188L827.844549,436.936598L825.809948,433.272963L820.739028,429.731270L816.758868,426.478689L811.434179,419.377694L806.554699,414.459083L801.844397,414.537645L795.816280,408.575519L790.099808,397.320530L787.571026,392.758684L783.372714,387.581471L785.287109,381.444685L787.446368,377.704153L785.625467,370.452981L782.277502,367.399980L777.366857,364.295718L774.237045,360.376707L772.741145,354.806035L768.854479,348.199013L772.732241,346.784784L775.301092,349.887652L777.406926,354.406290L781.111057,347.864667L785.398411,342.399022L789.792615,339.282314L796.969369,338.157781L804.346467,337.221550L808.838616,337.651270L811.100273,332.340576L818.610934,330.898713L821.188688,326.145318L825.898990,323.655615L830.235316,324.399212L834.357943,317.802854L842.327168,316.098134L851.315919,312.872627L855.870397,309.999788L860.340286,308.439120L865.139630,305.661245L872.766044,302.951668L869.591710,299.056360L867.606082,295.489062L872.685906,293.719919L879.070190,294.908886L881.456506,298.886743L884.381523,301.793788L883.914054,306.070315L888.918193,309.020491L892.297322,307.025792L892.840476,305.823468L893.063080,304.909980L897.768929,294.990258L899.883668,288.725912L902.287791,277.264757L899.393939,268.190196L898.592564,263.936485L888.980522,257.456302L889.617170,249.880744L887.003798,244.659173L884.385975,239.314285L883.370900,234.774993L886.709961,229.424999L887.533596,225.493534L888.984974,220.099595L888.063393,214.214822L888.099010,206.986690L884.007548,201.762591L881.224997,195.644586L881.915070,190.307565L884.181179,183.015850L879.377384,174.229737L867.508136,163.926181L861.805021,156.704716L862.272490,152.574701L864.770107,148.831413L869.306777,145.465079L872.743783,139.485921L874.675987,132.381179L874.840713,125.946102L869.560546,105.065618L868.701294,99.818838L868.073551,93.480641L867.744097,91.746468L867.338957,91.573376L857.081363,88.832775L853.679974,86.214237L849.811115,82.197544L847.838844,69.367322L843.368955,58.938588L830.778470,59.900141L817.074966,48.842074L811.656783,38.805576L805.704351,37.895089L800.281717,36.088654L790.994677,34.388452L782.019282,43.816285L778.270630,48.758184L772.451760,53.277475L769.838389,57.763812L755.475976,59.542918L751.112937,62.027460L740.196435,73.577832L723.928532,70.132589L715.425058,71.208202L710.545577,65.010937L719.565493,56.763585L722.107631,49.013659L719.783645,41.302352L706.934940,46.221401L690.017033,36.666670L683.267678,38.970048L680.124509,32.737168L667.596354,33.990076L670.908702,30.678579L674.897767,25.439897L674.595025,18.145224L671.478569,13.067220L668.673758,9.722433L662.000089,7.621955L661.719608,6.169347L656.069917,3.803583L650.731872,4.990550L643.586283,7.691478L636.467405,4.654223L623.569728,0.514890L612.982679,0.007743L612.964871,0.000000L613.512477,8.834532Z M595.869264,0.000000L595.383604,10.791448L598.241840,4.422253L609.786085,3.014606L599.724383,0.282619L595.869264,0.000000Z " data-iso2="DE"/><path d="M652.731510,872.730971L651.982907,859.623414L649.569879,855.726327L649.894881,843.947653L649.004465,835.251086L646.925343,830.498073L643.083197,835.339274L642.722579,843.410573L642.281823,849.674868L637.023916,848.681023L632.024229,850.183810L627.763588,853.883742L619.553951,856.201202L614.914883,859.801697L611.584726,867.417881L608.192241,871.667731L652.731510,872.730971Z M163.972527,646.311699L159.106402,639.844033L154.382745,636.711722L155.293195,642.141052L159.324554,646.765924L162.365325,652.036545L163.972527,646.311699Z M363.479170,865.279136L358.604141,857.256607L356.422622,841.929423L356.818857,837.123894L361.885325,826.799910L366.261720,819.774522L390.236175,802.953205L393.739962,799.513689L402.448232,794.688203L407.470180,800.311713L417.197976,803.281345L428.711057,807.630363L436.021373,808.144929L439.881327,806.092379L444.542656,805.130056L448.411514,806.426377L451.127283,810.021888L460.236241,810.275957L464.171880,817.566315L476.254827,820.736205L482.541165,825.730005L492.620676,825.537939L496.511795,827.324085L505.148831,823.180536L513.750251,821.270368L521.189678,815.491329L522.565371,810.924826L530.650350,804.415818L545.088448,790.527395L548.739154,788.197436L554.037130,785.949219L554.143980,784.593483L554.825149,783.829126L555.711113,783.477717L556.735091,784.072628L556.815229,784.769140L559.299490,783.715076L558.791952,777.538885L563.698145,771.176274L566.516313,766.853206L567.135152,761.626084L564.143354,758.300736L553.725485,760.903568L543.628165,756.180528L535.325035,751.196575L532.266455,747.647212L531.977070,741.751119L529.657536,736.479425L533.713382,728.739299L537.177100,725.065152L536.482576,716.184000L531.772274,714.061665L527.747593,712.591643L524.266066,706.806402L520.165700,700.668554L522.787975,695.751546L526.803752,695.685269L535.961682,691.140822L540.387051,689.563640L542.141170,682.494362L542.564118,677.648133L537.439773,672.655751L535.102431,667.443468L531.411656,661.589869L527.983554,659.002257L527.204439,654.424830L534.118521,648.649393L537.778131,644.887879L536.994565,642.720684L534.706196,638.895327L530.343156,634.148077L526.425325,629.166409L526.977383,619.356493L525.788678,612.630595L517.587945,611.203157L510.780714,611.655348L505.901233,614.089744L501.694017,619.720656L503.670741,623.427877L500.318324,627.327467L495.176170,630.358650L489.927167,630.082316L489.860386,625.902609L495.599118,621.637548L496.845701,615.086920L494.325823,609.801005L496.106655,605.992410L498.555300,599.695191L504.227251,594.912300L509.925914,590.100284L510.785166,584.982466L512.027296,577.239823L519.711588,573.497675L522.596536,569.892110L528.642462,562.863199L534.630510,555.882720L536.090793,550.143885L532.275359,547.336755L535.374008,543.362217L539.251770,540.925282L544.451800,543.329297L548.930594,545.211853L555.964881,543.230534L559.379627,537.009503L564.882399,533.944397L562.594029,533.010150L560.951212,528.454223L561.369707,521.693761L563.862872,512.726019L564.557397,506.128253L563.448829,501.920492L564.926920,495.606054L568.987217,487.173532L571.698535,478.257889L573.051967,468.848701L575.019787,462.699882L578.884193,458.385526L588.803429,445.383142L586.083208,438.480342L582.463666,436.739763L573.252311,434.587428L564.668699,433.205018L560.773128,431.492373L555.243644,426.846289L551.103209,428.486397L542.167883,428.625872L537.827104,428.911609L534.915443,423.948676L529.955825,423.437681L524.755795,426.322107L517.427670,415.213886L515.584509,409.964414L508.652619,405.515235L506.925212,405.895351L503.871084,404.155376L499.481333,402.654453L494.606304,405.761802L489.379561,405.761802L483.177813,402.222559L481.641845,399.890766L478.026755,399.825590L473.450016,400.597329L468.766427,401.814610L465.454079,398.751727L459.403702,391.964550L455.441350,389.267934L451.296463,386.996177L445.953966,382.982499L439.600846,382.292982L438.759403,378.125340L436.065894,370.165797L439.280297,357.648078L435.282328,357.422330L432.263817,360.407938L429.962092,367.126392L424.895624,370.117354L416.859618,371.200239L408.075663,370.117354L406.900313,365.605673L408.810256,360.616139L406.619832,354.621810L408.008881,349.772781L402.060901,344.432238L397.755739,343.389626L390.409806,342.601352L384.880322,344.184690L381.603590,333.274659L376.203216,331.689714L366.920628,329.389700L365.847677,325.111087L365.170960,319.952736L361.520254,313.762852L355.501041,312.467902L347.153389,316.439146L343.489327,313.639712L339.375604,309.256535L335.279690,302.009156L335.074894,296.451085L332.799881,288.580585L329.189244,290.802338L304.880883,296.302555L298.278447,300.278764L293.928764,303.943316L291.070528,308.675204L289.699287,314.459385L288.425992,346.387580L288.283526,350.896953L281.845817,361.015154L274.473171,367.424221L259.821373,373.662263L245.783963,377.006664L226.203711,388.297459L223.461230,395.442251L223.590340,401.986023L230.348599,405.155627L237.716792,404.460278L223.897534,409.485548L217.181570,414.476162L210.238550,416.815158L193.943934,412.774697L182.791472,412.412429L173.965222,410.070439L165.786749,410.439793L163.213447,406.450040L160.023531,395.675805L160.310690,389.907885L155.428984,387.998001L145.284918,390.788481L139.955777,389.852840L133.057278,389.653295L132.436213,395.895605L135.018419,403.271350L140.630267,415.668053L145.518652,423.407019L146.322252,450.988112L150.197789,458.449606L154.939255,461.557772L134.504204,463.080502L130.811203,458.483332L127.737041,462.763883L122.890951,462.080022L106.171162,461.854285L94.949693,469.537958L90.366275,465.110894L80.776493,452.015441L70.371981,448.543605L59.428766,450.474334L56.031829,453.744992L48.336407,457.559121L41.914280,458.648585L32.649500,457.764897L11.117012,463.807942L2.475523,469.326152L0.572259,475.493509L2.537852,481.475769L8.677272,481.861046L17.410028,481.167518L21.577176,482.577882L24.328561,485.554196L16.947012,486.280313L12.635171,485.855369L10.518207,489.437339L15.520120,491.422399L20.315011,494.704970L11.974037,499.708065L6.649349,500.454581L15.822861,508.419762L18.233663,514.644859L21.105255,518.350108L25.011956,519.251782L32.110799,516.655532L39.850741,517.355348L57.772592,523.084634L60.684253,525.937521L65.942160,525.782029L70.821641,527.082000L77.996169,532.009604L82.561778,533.379917L87.334408,532.475240L93.090949,533.330396L90.188192,537.692109L96.153980,538.440517L101.253839,538.381177L107.014831,542.170304L104.797695,546.077098L103.575599,552.866719L110.418447,555.105171L127.634643,552.958648L138.250630,559.322235L130.081062,556.322271L125.255006,555.452956L119.738878,558.788000L117.528420,562.879569L122.777423,566.318876L125.651241,571.270754L122.396770,579.098022L123.805854,586.446375L130.094418,594.795485L136.244968,606.073279L154.209113,616.970798L161.214463,618.660291L165.432809,619.527300L165.884695,626.552388L167.342752,644.916681L169.092419,652.751917L170.655100,656.974224L166.888639,655.181219L162.530052,655.024848L164.353179,660.573526L177.542469,670.203089L181.640609,674.767156L184.269563,680.184565L188.463423,699.246797L192.686221,705.028137L188.788425,702.026751L182.740273,684.742563L180.020052,680.441281L174.757692,675.478092L168.409025,670.578084L165.305925,682.909275L163.482798,694.640448L160.922851,726.492680L162.966356,722.659654L168.593786,725.008791L164.315337,726.805661L160.909495,733.334694L156.328304,767.704597L149.997445,796.531889L143.314872,804.434213L135.902157,806.362031L137.760901,811.542985L143.510763,814.188920L150.596250,815.115327L153.532397,819.530247L151.157212,825.287935L152.555165,829.544934L157.565982,825.787928L164.103863,830.519386L175.118311,834.983467L179.432377,835.065580L183.946787,837.473425L190.956588,844.348138L195.755931,844.326901L202.255969,842.494027L206.017977,844.038676L211.307049,847.456545L215.814781,851.168181L226.871524,849.293116L231.955800,850.910755L241.291813,851.343827L246.487391,851.137897L247.404520,844.257122L252.542221,841.920316L263.739204,845.591802L268.347108,847.883945L272.776928,849.677897L279.210185,851.071270L282.807466,856.945156L284.200967,855.348200L289.182846,854.522241L295.642815,856.415935L295.829802,861.294118L295.469184,862.674244L302.476759,865.532589L306.657263,869.504205L310.361394,871.926791L318.005617,867.764675L325.939225,869.657922L334.763249,872.402693L338.721148,871.396603L343.035215,868.253149L349.508540,865.595950L356.858925,866.142016L361.395596,867.143440L364.098009,867.134392L363.479170,865.279136Z " data-iso2="FR"/><path d="M655.152788,568.715594L655.402105,564.948133L653.331887,561.366662L652.468184,556.725692L652.045236,555.643240L650.072964,562.227984L649.854812,567.264023L650.228787,569.624159L650.896599,569.591481L654.449360,569.950925L655.152788,568.715594Z " data-iso2="LI"/><path d="M496.244670,358.509256L495.287473,356.317686L490.145319,355.421201L485.158989,361.421061L481.566160,370.048149L479.157584,376.108696L478.690115,380.868689L482.278493,386.242034L484.687068,394.648739L482.812742,398.799766L481.641845,399.890766L483.177813,402.222559L489.379561,405.761802L494.606304,405.761802L499.481333,402.654453L503.871084,404.155376L506.925212,405.895351L507.112199,401.687758L508.474536,395.579638L511.497499,389.777152L513.736895,384.674675L511.328319,381.079094L506.025891,378.777732L500.567640,373.313123L497.526869,369.120658L496.231314,364.860655L496.164532,360.609199L496.538507,358.707157L496.244670,358.509256Z " data-iso2="LU"/><path d="M556.815229,784.769140L556.735091,784.072628L555.711113,783.477717L554.825149,783.829126L554.143980,784.593483L554.037130,785.949219L556.815229,784.769140Z " data-iso2="MC"/><path d="M405.132837,269.395381L400.551646,266.816896L394.732776,269.844540L387.124170,268.775015L381.332013,266.563577L373.870326,266.995279L370.419963,268.150967L371.786752,274.468085L375.976160,278.029343L380.913518,274.827585L385.543682,275.592727L390.107065,278.687103L395.583124,280.545911L401.873914,277.677299L407.915388,273.303895L410.359580,267.508967L405.132837,269.395381Z M397.729027,241.622950L390.432066,241.108853L386.304988,242.341833L387.823147,246.127782L391.798855,244.968030L397.813616,249.887916L403.472211,248.291813L397.729027,241.622950Z M440.446742,142.132326L440.460098,133.577522L433.777525,140.568464L432.379571,144.761781L435.932332,147.507488L440.446742,142.132326Z M450.588582,124.076433L446.871094,123.908781L441.439556,128.785797L442.160793,129.674787L450.588582,124.076433Z M477.260998,311.908246L479.696286,312.995795L481.989107,313.358233L490.951146,313.653785L493.435407,302.506920L491.538821,299.247169L486.427832,296.765805L485.225770,292.339341L489.450795,291.514263L497.468992,283.660567L494.686442,279.348289L498.804616,269.819589L500.020034,265.746402L500.037843,260.016995L497.682692,255.534492L495.380966,251.952749L493.631298,247.595744L488.880928,239.932963L491.574437,234.656118L495.323089,233.182433L498.817973,231.203278L507.441653,235.344095L510.602630,232.854458L514.823203,233.182433L525.045180,228.977574L527.809922,223.853143L523.852023,219.705189L525.374634,215.070121L530.209594,212.314976L535.779147,207.131989L537.711350,202.628392L538.419231,194.109664L533.263721,189.621114L529.181163,189.471391L523.273252,185.210545L523.994489,179.636817L525.347922,175.095468L538.321285,173.796786L539.136016,166.769871L542.154527,156.040722L545.475779,147.529681L545.431258,133.280335L545.809685,126.039185L539.461018,124.642661L535.365104,122.604525L532.822965,118.931168L528.437666,113.901085L516.920133,114.427984L507.330351,115.881185L494.063150,116.508588L485.461730,118.946094L469.892804,127.074089L465.970521,131.236441L461.977004,140.175527L448.429323,150.472631L440.531331,154.428131L435.095341,151.935726L432.539846,157.165744L430.972714,161.871893L425.674738,189.449479L422.059648,199.411414L417.202428,207.778491L409.567110,218.014865L406.054418,221.503153L401.237266,227.732405L399.086911,233.636498L406.183528,246.519063L408.373952,251.117649L400.266713,252.178512L403.717075,255.459315L408.048950,257.792595L412.545552,261.282311L406.490722,262.443548L394.852983,253.765592L388.375205,252.164178L379.471044,252.672988L374.925469,256.218168L378.188844,260.217190L386.077931,262.872211L391.927966,265.835623L400.346850,263.361534L406.379420,266.410149L410.359580,267.508967L413.930149,269.331211L418.466819,268.924769L420.149706,262.147025L424.285689,262.968653L428.951469,264.932596L437.000831,262.665031L438.710430,266.281692L443.082374,265.953391L447.049177,261.468136L448.985833,266.021195L450.192347,270.429070L455.401281,275.354306L459.808841,276.756121L467.377378,274.909445L470.275683,278.242685L473.392139,281.217387L481.949039,284.515969L482.941853,289.356771L479.820944,296.436940L479.219913,300.536614L474.790093,306.934135L477.256545,311.901206L477.260998,311.908246Z M460.490009,118.140015L472.198982,114.136519L464.563663,114.644698L454.310521,117.677176L460.490009,118.140015Z M488.003868,112.547947L487.954896,112.076833L485.586389,111.302711L477.919905,111.433614L475.466809,111.960913L475.969894,112.850770L479.010665,113.788968L488.003868,112.547947Z M506.426579,108.571245L504.489923,108.245561L498.871398,109.873655L498.488519,110.625671L500.037843,111.171803L506.426579,108.571245Z M524.724630,103.063917L527.738689,99.762536L521.706120,101.286090L524.724630,103.063917Z " data-iso2="NL"/></g><g class="" id="lands"><path d="M295.829802,861.294118L295.642815,856.415935L289.182846,854.522241L284.200967,855.348200L282.807466,856.945156L282.193079,859.886303L282.798562,865.270084L287.629070,866.482891L294.213697,863.084865L295.469184,862.674244L295.829802,861.294118Z " data-iso2="AD"/><path d="M989.441724,463.743961L987.407123,458.028003L981.971133,456.762887L974.518350,452.623585L968.908728,451.363258L963.864520,455.591823L957.119618,455.561444L949.729164,454.498023L939.151020,446.906208L933.479069,447.183673L928.857809,445.386527L919.900223,440.460755L915.706363,439.304521L910.630991,441.101434L904.576161,437.649181L900.262095,438.616023L899.131266,449.449930L898.000438,453.349839L893.410342,453.167445L888.156887,460.223152L887.457910,465.238806L881.193833,464.265883L875.593115,464.063857L864.596476,466.662352L858.181027,465.013273L855.429641,458.807086L848.791589,454.146854L847.496033,453.657184L846.957332,455.001079L846.708015,459.221850L846.770344,463.690080L843.355598,469.154681L832.537042,466.436912L829.015446,479.347608L825.070903,483.662906L820.164710,485.674668L814.096524,487.511357L805.677639,492.397807L801.884466,495.329079L799.426918,499.008061L803.509476,507.339047L808.233133,513.748646L808.264298,519.377732L806.171820,523.581242L809.693416,526.046693L812.818776,529.723469L812.538295,534.861898L811.790346,539.666640L804.831744,539.772093L800.450896,535.874832L799.930003,530.787433L796.029980,528.761660L791.853928,529.644154L786.778556,530.929490L781.320305,527.485456L776.997335,526.499884L774.054509,530.291837L751.851983,534.568191L745.338588,536.847901L740.597122,539.795160L736.229631,542.888134L732.757008,545.271078L727.890884,545.251336L721.088104,547.412386L716.992190,545.149336L713.274703,540.154334L707.393504,538.578971L703.613687,537.019397L695.595490,537.385448L691.998209,545.804059L687.844417,552.774788L681.927602,555.101890L682.715620,549.411090L677.983059,548.323119L676.313528,543.642028L672.288847,539.847885L666.251826,536.676396L662.138103,535.106084L657.654858,538.460296L653.020242,537.909724L651.884961,538.572378L653.269558,539.455724L656.528481,542.430452L655.762723,547.501168L652.045236,555.643240L652.468184,556.725692L653.331887,561.366662L655.402105,564.948133L655.152788,568.715594L654.449360,569.950925L656.256904,569.944390L661.960020,571.306683L666.532307,573.295285L668.010398,577.950617L673.441936,581.443841L679.670397,583.700240L689.513948,574.806404L694.308839,580.505698L694.228701,582.805014L695.439667,583.459365L700.016406,583.553764L705.007189,584.041995L708.221591,587.578055L715.861362,589.164406L720.317895,587.334188L722.067562,583.192430L725.277512,578.051681L730.317268,575.413283L738.923140,574.920610L743.223850,573.961170L747.689287,574.016655L754.536587,574.718300L763.373968,571.133567L772.487377,568.293914L770.724353,574.806404L776.979526,584.741677L779.811050,589.807849L782.464490,593.610900L786.609377,595.613108L792.054272,596.835950L796.666627,597.276979L801.488231,598.709950L818.045519,602.241307L826.379814,603.219107L832.692865,603.374494L842.264839,605.714205L844.268275,606.108861L852.696064,607.176157L856.836499,608.236670L868.126976,610.980271L875.085578,611.826520L881.006845,613.692733L886.950373,609.477851L890.440804,607.114715L894.265142,601.723160L899.224760,599.549366L911.423461,597.575291L921.556397,598.460356L926.391357,596.800276L930.371517,593.890043L936.190386,593.072028L945.188042,595.272454L946.065101,587.041527L948.816487,584.146142L951.363078,582.915709L958.633325,575.664488L962.248415,573.641300L966.446727,573.990545L968.864207,569.918250L969.580992,565.579591L966.126177,558.820777L966.923100,549.141594L970.587162,546.642848L975.524520,543.744072L977.964260,537.774541L976.285826,532.851666L966.820702,529.644154L970.876548,525.027628L976.637540,524.041370L981.200923,527.614420L986.449926,526.870332L991.498586,527.002626L995.745871,526.172401L994.802030,519.596478L994.530453,514.950184L996.769849,508.782142L999.427741,505.898687L996.627383,503.608862L991.462969,492.781883L986.574584,479.843736L988.355417,471.830016L990.376661,465.972526L990.572553,465.265734L989.441724,463.743961Z " data-iso2="AT"/><path d="M364.725752,270.054840L352.642805,276.339908L332.799881,288.580585L335.074894,296.451085L335.279690,302.009156L339.375604,309.256535L343.489327,313.639712L347.153389,316.439146L355.501041,312.467902L361.520254,313.762852L365.170960,319.952736L365.847677,325.111087L366.920628,329.389700L376.203216,331.689714L381.603590,333.274659L384.880322,344.184690L390.409806,342.601352L397.755739,343.389626L402.060901,344.432238L408.008881,349.772781L406.619832,354.621810L408.810256,360.616139L406.900313,365.605673L408.075663,370.117354L416.859618,371.200239L424.895624,370.117354L429.962092,367.126392L432.263817,360.407938L435.282328,357.422330L439.280297,357.648078L436.065894,370.165797L438.759403,378.125340L439.600846,382.292982L445.953966,382.982499L451.296463,386.996177L455.441350,389.267934L459.403702,391.964550L465.454079,398.751727L468.766427,401.814610L473.450016,400.597329L478.026755,399.825590L481.641845,399.890766L482.812742,398.799766L484.687068,394.648739L482.278493,386.242034L478.690115,380.868689L479.157584,376.108696L481.566160,370.048149L485.158989,361.421061L490.145319,355.421201L495.287473,356.317686L496.244670,358.509256L496.538507,358.707157L496.756659,357.401491L499.209756,350.757757L507.842340,344.801783L506.894047,338.793432L504.672459,332.690450L500.483051,331.714211L501.983402,324.714840L498.270367,321.799418L491.498752,314.965864L490.951146,313.653785L486.324552,313.501212L483.520623,309.422108L477.301066,311.447075L477.256545,311.901206L474.790093,306.934135L479.219913,300.536614L479.820944,296.436940L482.941853,289.356771L481.949039,284.515969L473.392139,281.217387L470.275683,278.242685L467.377378,274.909445L459.808841,276.756121L455.401281,275.354306L450.192347,270.429070L448.985833,266.021195L447.049177,261.468136L443.082374,265.953391L438.710430,266.281692L437.000831,262.665031L428.951469,264.932596L424.285689,262.968653L420.149706,262.147025L418.466819,268.924769L413.930149,269.331211L410.359580,267.508967L407.915388,273.303895L401.873914,277.677299L395.583124,280.545911L390.107065,278.687103L385.543682,275.592727L380.913518,274.827585L375.976160,278.029343L371.786752,274.468085L370.419963,268.150967L364.725752,270.054840Z " data-iso2="BE"/><path d="M1000.000000,694.385950L989.000968,687.191853L983.173195,692.350907L971.312851,691.068141L967.795708,694.605720L963.762123,701.302021L960.494295,704.496065L954.292547,700.406942L948.411348,692.821563L942.027064,691.131342L937.459229,693.510066L936.248263,704.581076L935.175312,714.312892L935.112983,720.133456L941.653089,725.516010L949.355189,734.759052L953.059320,738.841691L954.862413,746.610697L956.888110,755.326518L960.801489,761.086536L964.331989,765.205604L968.641603,768.821948L974.041977,774.484072L978.471797,780.689944L988.235210,791.164267L996.565054,799.501410L1000.000000,694.385950Z " data-iso2="BA"/><path d="M643.951353,533.525172L636.329391,528.669101L622.576914,529.637545L618.561137,525.563666L610.574104,522.203811L605.650102,522.150822L602.270973,524.561010L601.246995,529.211198L607.586758,529.452470L604.180916,532.594116L597.351424,532.983736L591.443513,532.983736L586.679786,535.063188L579.080084,535.894626L568.639955,535.488830L564.882399,533.944397L559.379627,537.009503L555.964881,543.230534L548.930594,545.211853L544.451800,543.329297L539.251770,540.925282L535.374008,543.362217L532.275359,547.336755L536.090793,550.143885L534.630510,555.882720L528.642462,562.863199L522.596536,569.892110L519.711588,573.497675L512.027296,577.239823L510.785166,584.982466L509.925914,590.100284L504.227251,594.912300L498.555300,599.695191L496.106655,605.992410L494.325823,609.801005L496.845701,615.086920L495.599118,621.637548L489.860386,625.902609L489.927167,630.082316L495.176170,630.358650L500.318324,627.327467L503.670741,623.427877L501.694017,619.720656L505.901233,614.089744L510.780714,611.655348L517.587945,611.203157L525.788678,612.630595L526.977383,619.356493L526.425325,629.166409L530.343156,634.148077L534.706196,638.895327L536.994565,642.720684L537.778131,644.887879L539.358620,646.327694L551.766569,645.767833L557.402903,643.665189L561.369707,641.452419L572.735869,645.147088L582.094143,638.975464L588.113356,629.442812L586.123276,623.179989L592.979481,617.557696L596.015800,613.447404L599.305887,610.689529L602.600427,613.489369L602.395631,621.408863L608.183336,629.516730L611.660411,632.741956L619.723130,634.953623L617.875516,640.270228L622.759449,645.351882L625.884810,651.158105L630.123190,648.176219L627.946123,641.128877L629.014622,636.641158L631.231759,633.290986L637.268780,625.603414L639.441395,621.151173L639.837631,614.251118L639.855439,608.698931L646.199654,608.336886L649.926046,617.057871L654.418195,620.535862L663.910031,617.238461L668.317591,615.803168L672.293299,618.450759L675.454277,624.361330L680.204647,623.344176L678.584089,616.128981L677.319699,612.301236L675.329618,608.168781L676.375857,603.957137L679.852932,599.474832L685.996804,602.759380L690.137239,603.937717L693.756781,601.564462L691.726632,596.109431L692.096155,591.467917L694.228701,582.805014L694.308839,580.505698L689.513948,574.806404L679.670397,583.700240L673.441936,581.443841L668.010398,577.950617L666.532307,573.295285L661.960020,571.306683L656.256904,569.944390L654.449360,569.950925L650.896599,569.591481L650.228787,569.624159L649.854812,567.264023L650.072964,562.227984L652.045236,555.643240L655.762723,547.501168L656.528481,542.430452L653.269558,539.455724L651.884961,538.572378L643.951353,533.525172Z " data-iso2="CH"/><path d="M892.840476,305.823468L892.297322,307.025792L888.918193,309.020491L883.914054,306.070315L884.381523,301.793788L881.456506,298.886743L879.070190,294.908886L872.685906,293.719919L867.606082,295.489062L869.591710,299.056360L872.766044,302.951668L865.139630,305.661245L860.340286,308.439120L855.870397,309.999788L851.315919,312.872627L842.327168,316.098134L834.357943,317.802854L830.235316,324.399212L825.898990,323.655615L821.188688,326.145318L818.610934,330.898713L811.100273,332.340576L808.838616,337.651270L804.346467,337.221550L796.969369,338.157781L789.792615,339.282314L785.398411,342.399022L781.111057,347.864667L777.406926,354.406290L775.301092,349.887652L772.732241,346.784784L768.854479,348.199013L772.741145,354.806035L774.237045,360.376707L777.366857,364.295718L782.277502,367.399980L785.625467,370.452981L787.446368,377.704153L785.287109,381.444685L783.372714,387.581471L787.571026,392.758684L790.099808,397.320530L795.816280,408.575519L801.844397,414.537645L806.554699,414.459083L811.434179,419.377694L816.758868,426.478689L820.739028,429.731270L825.809948,433.272963L827.844549,436.936598L830.444564,440.586188L835.319593,440.301414L841.579218,446.056758L845.452528,450.264745L847.496033,453.657184L848.791589,454.146854L855.429641,458.807086L858.181027,465.013273L864.596476,466.662352L875.593115,464.063857L881.193833,464.265883L887.457910,465.238806L888.156887,460.223152L893.410342,453.167445L898.000438,453.349839L899.131266,449.449930L900.262095,438.616023L904.576161,437.649181L910.630991,441.101434L915.706363,439.304521L919.900223,440.460755L928.857809,445.386527L933.479069,447.183673L939.151020,446.906208L949.729164,454.498023L957.119618,455.561444L963.864520,455.591823L968.908728,451.363258L974.518350,452.623585L981.971133,456.762887L987.407123,458.028003L989.441724,463.743961L990.572553,465.265734L992.037287,459.879303L995.594500,452.701284L998.893492,448.526694L1000.000000,447.894161L1000.000000,340.627842L991.832492,337.658257L987.242396,336.875638L988.822885,342.726930L992.406810,348.829304L987.936921,352.945956L982.616685,356.143967L978.080014,360.380177L974.322458,358.641191L969.349484,349.637020L963.098762,342.726930L957.640511,339.233429L958.094624,334.897321L963.379244,331.616222L966.255288,326.369652L963.530614,322.939925L959.986758,320.479460L950.147660,322.325854L945.927087,321.929280L942.285285,318.948223L938.879443,316.660611L934.836954,314.427727L930.887958,313.766370L922.682773,310.524545L917.687539,309.231874L914.161491,304.087980L913.320048,298.625233L907.274122,296.139873L901.246004,294.583377L901.072373,300.889800L896.780567,305.650665L892.840476,305.823468Z " data-iso2="CZ"/><path d="M857.713559,68.162227L848.088160,60.960177L848.061448,66.221002L852.371062,71.105959L851.480646,75.575146L852.558049,80.211871L858.145411,81.446454L863.790649,80.574366L865.682783,80.853762L864.979355,77.117680L865.580386,74.693908L857.713559,68.162227Z M732.066936,38.262375L729.823087,31.729123L723.047020,29.205705L719.707959,34.484208L725.068265,38.415399L732.066936,38.262375Z M842.683334,41.023329L837.790497,37.699951L837.857279,32.756330L840.929214,29.044568L832.746290,22.757758L829.625381,16.142725L821.291086,20.942774L820.903755,25.324665L818.615386,31.123377L817.480105,39.910820L819.016073,45.488603L826.963037,51.719684L832.327794,44.568554L837.474400,44.507462L842.598745,48.964091L842.683334,41.023329Z M609.207315,15.087058L605.654555,11.327750L601.447338,13.036373L603.094608,16.793674L607.430935,17.020898L609.207315,15.087058Z M613.512477,8.834532L618.405314,16.408513L622.568009,24.444924L626.045084,28.818196L625.800220,34.373130L620.297448,37.512454L611.949797,39.853464L611.807330,47.884841L615.961122,47.865770L621.227933,47.526282L623.596440,70.821932L626.997830,76.561999L631.169429,78.519689L637.860907,79.271460L642.219494,81.752195L656.773346,101.706255L663.736400,105.204267L658.683288,104.361040L654.680868,101.683748L642.673606,85.279340L637.366726,81.997522L623.333767,83.563402L610.623077,80.525281L606.495998,87.778079L605.485375,96.281195L606.954562,105.031892L604.982290,117.490529L604.866536,108.294228L597.627453,101.244821L595.125384,108.537555L593.584964,113.583410L587.352051,111.871166L590.023299,106.066007L582.828736,94.744009L565.501238,94.240225L549.821010,95.465713L546.228181,97.528448L541.700414,105.024397L540.204515,111.108217L539.247318,118.897585L543.748372,122.630615L545.809685,126.039185L545.431258,133.280335L545.475779,147.529681L542.154527,156.040722L539.136016,166.769871L538.321285,173.796786L525.347922,175.095468L523.994489,179.636817L523.273252,185.210545L529.181163,189.471391L533.263721,189.621114L538.419231,194.109664L537.711350,202.628392L535.779147,207.131989L530.209594,212.314976L525.374634,215.070121L523.852023,219.705189L527.809922,223.853143L525.045180,228.977574L514.823203,233.182433L510.602630,232.854458L507.441653,235.344095L498.817973,231.203278L495.323089,233.182433L491.574437,234.656118L488.880928,239.932963L493.631298,247.595744L495.380966,251.952749L497.682692,255.534492L500.037843,260.016995L500.020034,265.746402L498.804616,269.819589L494.686442,279.348289L497.468992,283.660567L489.450795,291.514263L485.225770,292.339341L486.427832,296.765805L491.538821,299.247169L493.435407,302.506920L490.951146,313.653785L491.498752,314.965864L498.270367,321.799418L501.983402,324.714840L500.483051,331.714211L504.672459,332.690450L506.894047,338.793432L507.842340,344.801783L499.209756,350.757757L496.756659,357.401491L496.538507,358.707157L496.164532,360.609199L496.231314,364.860655L497.526869,369.120658L500.567640,373.313123L506.025891,378.777732L511.328319,381.079094L513.736895,384.674675L511.497499,389.777152L508.474536,395.579638L507.112199,401.687758L506.925212,405.895351L508.652619,405.515235L515.584509,409.964414L517.427670,415.213886L524.755795,426.322107L529.955825,423.437681L534.915443,423.948676L537.827104,428.911609L542.167883,428.625872L551.103209,428.486397L555.243644,426.846289L560.773128,431.492373L564.668699,433.205018L573.252311,434.587428L582.463666,436.739763L586.083208,438.480342L588.803429,445.383142L578.884193,458.385526L575.019787,462.699882L573.051967,468.848701L571.698535,478.257889L568.987217,487.173532L564.926920,495.606054L563.448829,501.920492L564.557397,506.128253L563.862872,512.726019L561.369707,521.693761L560.951212,528.454223L562.594029,533.010150L564.882399,533.944397L568.639955,535.488830L579.080084,535.894626L586.679786,535.063188L591.443513,532.983736L597.351424,532.983736L604.180916,532.594116L607.586758,529.452470L601.246995,529.211198L602.270973,524.561010L605.650102,522.150822L610.574104,522.203811L618.561137,525.563666L622.576914,529.637545L636.329391,528.669101L643.951353,533.525172L651.884961,538.572378L653.020242,537.909724L657.654858,538.460296L662.138103,535.106084L666.251826,536.676396L672.288847,539.847885L676.313528,543.642028L677.983059,548.323119L682.715620,549.411090L681.927602,555.101890L687.844417,552.774788L691.998209,545.804059L695.595490,537.385448L703.613687,537.019397L707.393504,538.578971L713.274703,540.154334L716.992190,545.149336L721.088104,547.412386L727.890884,545.251336L732.757008,545.271078L736.229631,542.888134L740.597122,539.795160L745.338588,536.847901L751.851983,534.568191L774.054509,530.291837L776.997335,526.499884L781.320305,527.485456L786.778556,530.929490L791.853928,529.644154L796.029980,528.761660L799.930003,530.787433L800.450896,535.874832L804.831744,539.772093L811.790346,539.666640L812.538295,534.861898L812.818776,529.723469L809.693416,526.046693L806.171820,523.581242L808.264298,519.377732L808.233133,513.748646L803.509476,507.339047L799.426918,499.008061L801.884466,495.329079L805.677639,492.397807L814.096524,487.511357L820.164710,485.674668L825.070903,483.662906L829.015446,479.347608L832.537042,466.436912L843.355598,469.154681L846.770344,463.690080L846.708015,459.221850L846.957332,455.001079L847.496033,453.657184L845.452528,450.264745L841.579218,446.056758L835.319593,440.301414L830.444564,440.586188L827.844549,436.936598L825.809948,433.272963L820.739028,429.731270L816.758868,426.478689L811.434179,419.377694L806.554699,414.459083L801.844397,414.537645L795.816280,408.575519L790.099808,397.320530L787.571026,392.758684L783.372714,387.581471L785.287109,381.444685L787.446368,377.704153L785.625467,370.452981L782.277502,367.399980L777.366857,364.295718L774.237045,360.376707L772.741145,354.806035L768.854479,348.199013L772.732241,346.784784L775.301092,349.887652L777.406926,354.406290L781.111057,347.864667L785.398411,342.399022L789.792615,339.282314L796.969369,338.157781L804.346467,337.221550L808.838616,337.651270L811.100273,332.340576L818.610934,330.898713L821.188688,326.145318L825.898990,323.655615L830.235316,324.399212L834.357943,317.802854L842.327168,316.098134L851.315919,312.872627L855.870397,309.999788L860.340286,308.439120L865.139630,305.661245L872.766044,302.951668L869.591710,299.056360L867.606082,295.489062L872.685906,293.719919L879.070190,294.908886L881.456506,298.886743L884.381523,301.793788L883.914054,306.070315L888.918193,309.020491L892.297322,307.025792L892.840476,305.823468L893.063080,304.909980L897.768929,294.990258L899.883668,288.725912L902.287791,277.264757L899.393939,268.190196L898.592564,263.936485L888.980522,257.456302L889.617170,249.880744L887.003798,244.659173L884.385975,239.314285L883.370900,234.774993L886.709961,229.424999L887.533596,225.493534L888.984974,220.099595L888.063393,214.214822L888.099010,206.986690L884.007548,201.762591L881.224997,195.644586L881.915070,190.307565L884.181179,183.015850L879.377384,174.229737L867.508136,163.926181L861.805021,156.704716L862.272490,152.574701L864.770107,148.831413L869.306777,145.465079L872.743783,139.485921L874.675987,132.381179L874.840713,125.946102L869.560546,105.065618L868.701294,99.818838L868.073551,93.480641L867.744097,91.746468L867.338957,91.573376L857.081363,88.832775L853.679974,86.214237L849.811115,82.197544L847.838844,69.367322L843.368955,58.938588L830.778470,59.900141L817.074966,48.842074L811.656783,38.805576L805.704351,37.895089L800.281717,36.088654L790.994677,34.388452L782.019282,43.816285L778.270630,48.758184L772.451760,53.277475L769.838389,57.763812L755.475976,59.542918L751.112937,62.027460L740.196435,73.577832L723.928532,70.132589L715.425058,71.208202L710.545577,65.010937L719.565493,56.763585L722.107631,49.013659L719.783645,41.302352L706.934940,46.221401L690.017033,36.666670L683.267678,38.970048L680.124509,32.737168L667.596354,33.990076L670.908702,30.678579L674.897767,25.439897L674.595025,18.145224L671.478569,13.067220L668.673758,9.722433L662.000089,7.621955L661.719608,6.169347L656.069917,3.803583L650.731872,4.990550L643.586283,7.691478L636.467405,4.654223L623.569728,0.514890L612.982679,0.007743L612.964871,0.000000L613.512477,8.834532Z M595.869264,0.000000L595.383604,10.791448L598.241840,4.422253L609.786085,3.014606L599.724383,0.282619L595.869264,0.000000Z " data-iso2="DE"/><path d="M721.238750,0.000000L720.794267,10.316803L740.027256,21.696579L745.886194,19.049789L750.191356,19.738626L754.091379,17.710172L753.775281,10.745144L749.176282,5.566476L743.718031,5.848603L735.650861,0.932936L721.238750,0.000000Z M686.022494,0.000000L689.108808,3.525143L695.666723,4.426119L692.443417,0.522632L686.022494,0.000000Z M771.680633,0.000000L773.172997,0.867136L774.416570,0.000000L771.680633,0.000000Z M665.980538,0.000000L671.629939,2.453694L676.375857,1.350926L665.980538,0.000000Z M705.159311,0.000000L701.926349,4.120666L705.029449,12.531209L708.470908,8.216716L711.269259,0.000000L705.159311,0.000000Z M753.414346,0.000000L758.485583,10.355394L767.060290,6.976862L767.851253,0.000000L753.414346,0.000000Z M660.529155,0.000000L612.964871,0.000000L612.982679,0.007743L623.569728,0.514890L636.467405,4.654223L643.586283,7.691478L650.731872,4.990550L656.069917,3.803583L661.719608,6.169347L660.529155,0.000000Z " data-iso2="DK"/><path d="M295.469184,862.674244L294.213697,863.084865L287.629070,866.482891L282.798562,865.270084L282.193079,859.886303L282.807466,856.945156L279.210185,851.071270L272.776928,849.677897L268.347108,847.883945L263.739204,845.591802L252.542221,841.920316L247.404520,844.257122L246.487391,851.137897L241.291813,851.343827L231.955800,850.910755L226.871524,849.293116L215.814781,851.168181L211.307049,847.456545L206.017977,844.038676L202.255969,842.494027L195.755931,844.326901L190.956588,844.348138L183.946787,837.473425L179.432377,835.065580L175.118311,834.983467L164.103863,830.519386L157.565982,825.787928L152.555165,829.544934L151.157212,825.287935L153.532397,819.530247L150.596250,815.115327L143.510763,814.188920L137.760901,811.542985L135.902157,806.362031L134.330573,806.769536L126.908954,810.266774L117.546228,811.717398L111.144136,811.334903L98.836359,806.021899L86.619849,803.404007L78.844290,808.604303L61.872959,803.575728L57.051355,799.848266L45.636220,801.931800L40.378313,800.578707L34.635128,802.861197L21.074090,805.896257L11.488761,805.834966L0.000000,803.493481L0.000000,872.730971L334.763249,872.402693L325.939225,869.657922L318.005617,867.764675L310.361394,871.926791L306.657263,869.504205L302.476759,865.532589L295.469184,862.674244Z M364.098009,867.134392L361.395596,867.143440L356.858925,866.142016L349.508540,865.595950L343.035215,868.253149L338.721148,871.396603L367.634598,872.730971L367.583988,872.532201L365.393564,871.041096L364.098009,867.134392Z " data-iso2="ES"/><path d="M652.731510,872.730971L651.982907,859.623414L649.569879,855.726327L649.894881,843.947653L649.004465,835.251086L646.925343,830.498073L643.083197,835.339274L642.722579,843.410573L642.281823,849.674868L637.023916,848.681023L632.024229,850.183810L627.763588,853.883742L619.553951,856.201202L614.914883,859.801697L611.584726,867.417881L608.192241,871.667731L652.731510,872.730971Z M163.972527,646.311699L159.106402,639.844033L154.382745,636.711722L155.293195,642.141052L159.324554,646.765924L162.365325,652.036545L163.972527,646.311699Z M363.479170,865.279136L358.604141,857.256607L356.422622,841.929423L356.818857,837.123894L361.885325,826.799910L366.261720,819.774522L390.236175,802.953205L393.739962,799.513689L402.448232,794.688203L407.470180,800.311713L417.197976,803.281345L428.711057,807.630363L436.021373,808.144929L439.881327,806.092379L444.542656,805.130056L448.411514,806.426377L451.127283,810.021888L460.236241,810.275957L464.171880,817.566315L476.254827,820.736205L482.541165,825.730005L492.620676,825.537939L496.511795,827.324085L505.148831,823.180536L513.750251,821.270368L521.189678,815.491329L522.565371,810.924826L530.650350,804.415818L545.088448,790.527395L548.739154,788.197436L554.037130,785.949219L554.143980,784.593483L554.825149,783.829126L555.711113,783.477717L556.735091,784.072628L556.815229,784.769140L559.299490,783.715076L558.791952,777.538885L563.698145,771.176274L566.516313,766.853206L567.135152,761.626084L564.143354,758.300736L553.725485,760.903568L543.628165,756.180528L535.325035,751.196575L532.266455,747.647212L531.977070,741.751119L529.657536,736.479425L533.713382,728.739299L537.177100,725.065152L536.482576,716.184000L531.772274,714.061665L527.747593,712.591643L524.266066,706.806402L520.165700,700.668554L522.787975,695.751546L526.803752,695.685269L535.961682,691.140822L540.387051,689.563640L542.141170,682.494362L542.564118,677.648133L537.439773,672.655751L535.102431,667.443468L531.411656,661.589869L527.983554,659.002257L527.204439,654.424830L534.118521,648.649393L537.778131,644.887879L536.994565,642.720684L534.706196,638.895327L530.343156,634.148077L526.425325,629.166409L526.977383,619.356493L525.788678,612.630595L517.587945,611.203157L510.780714,611.655348L505.901233,614.089744L501.694017,619.720656L503.670741,623.427877L500.318324,627.327467L495.176170,630.358650L489.927167,630.082316L489.860386,625.902609L495.599118,621.637548L496.845701,615.086920L494.325823,609.801005L496.106655,605.992410L498.555300,599.695191L504.227251,594.912300L509.925914,590.100284L510.785166,584.982466L512.027296,577.239823L519.711588,573.497675L522.596536,569.892110L528.642462,562.863199L534.630510,555.882720L536.090793,550.143885L532.275359,547.336755L535.374008,543.362217L539.251770,540.925282L544.451800,543.329297L548.930594,545.211853L555.964881,543.230534L559.379627,537.009503L564.882399,533.944397L562.594029,533.010150L560.951212,528.454223L561.369707,521.693761L563.862872,512.726019L564.557397,506.128253L563.448829,501.920492L564.926920,495.606054L568.987217,487.173532L571.698535,478.257889L573.051967,468.848701L575.019787,462.699882L578.884193,458.385526L588.803429,445.383142L586.083208,438.480342L582.463666,436.739763L573.252311,434.587428L564.668699,433.205018L560.773128,431.492373L555.243644,426.846289L551.103209,428.486397L542.167883,428.625872L537.827104,428.911609L534.915443,423.948676L529.955825,423.437681L524.755795,426.322107L517.427670,415.213886L515.584509,409.964414L508.652619,405.515235L506.925212,405.895351L503.871084,404.155376L499.481333,402.654453L494.606304,405.761802L489.379561,405.761802L483.177813,402.222559L481.641845,399.890766L478.026755,399.825590L473.450016,400.597329L468.766427,401.814610L465.454079,398.751727L459.403702,391.964550L455.441350,389.267934L451.296463,386.996177L445.953966,382.982499L439.600846,382.292982L438.759403,378.125340L436.065894,370.165797L439.280297,357.648078L435.282328,357.422330L432.263817,360.407938L429.962092,367.126392L424.895624,370.117354L416.859618,371.200239L408.075663,370.117354L406.900313,365.605673L408.810256,360.616139L406.619832,354.621810L408.008881,349.772781L402.060901,344.432238L397.755739,343.389626L390.409806,342.601352L384.880322,344.184690L381.603590,333.274659L376.203216,331.689714L366.920628,329.389700L365.847677,325.111087L365.170960,319.952736L361.520254,313.762852L355.501041,312.467902L347.153389,316.439146L343.489327,313.639712L339.375604,309.256535L335.279690,302.009156L335.074894,296.451085L332.799881,288.580585L329.189244,290.802338L304.880883,296.302555L298.278447,300.278764L293.928764,303.943316L291.070528,308.675204L289.699287,314.459385L288.425992,346.387580L288.283526,350.896953L281.845817,361.015154L274.473171,367.424221L259.821373,373.662263L245.783963,377.006664L226.203711,388.297459L223.461230,395.442251L223.590340,401.986023L230.348599,405.155627L237.716792,404.460278L223.897534,409.485548L217.181570,414.476162L210.238550,416.815158L193.943934,412.774697L182.791472,412.412429L173.965222,410.070439L165.786749,410.439793L163.213447,406.450040L160.023531,395.675805L160.310690,389.907885L155.428984,387.998001L145.284918,390.788481L139.955777,389.852840L133.057278,389.653295L132.436213,395.895605L135.018419,403.271350L140.630267,415.668053L145.518652,423.407019L146.322252,450.988112L150.197789,458.449606L154.939255,461.557772L134.504204,463.080502L130.811203,458.483332L127.737041,462.763883L122.890951,462.080022L106.171162,461.854285L94.949693,469.537958L90.366275,465.110894L80.776493,452.015441L70.371981,448.543605L59.428766,450.474334L56.031829,453.744992L48.336407,457.559121L41.914280,458.648585L32.649500,457.764897L11.117012,463.807942L2.475523,469.326152L0.572259,475.493509L2.537852,481.475769L8.677272,481.861046L17.410028,481.167518L21.577176,482.577882L24.328561,485.554196L16.947012,486.280313L12.635171,485.855369L10.518207,489.437339L15.520120,491.422399L20.315011,494.704970L11.974037,499.708065L6.649349,500.454581L15.822861,508.419762L18.233663,514.644859L21.105255,518.350108L25.011956,519.251782L32.110799,516.655532L39.850741,517.355348L57.772592,523.084634L60.684253,525.937521L65.942160,525.782029L70.821641,527.082000L77.996169,532.009604L82.561778,533.379917L87.334408,532.475240L93.090949,533.330396L90.188192,537.692109L96.153980,538.440517L101.253839,538.381177L107.014831,542.170304L104.797695,546.077098L103.575599,552.866719L110.418447,555.105171L127.634643,552.958648L138.250630,559.322235L130.081062,556.322271L125.255006,555.452956L119.738878,558.788000L117.528420,562.879569L122.777423,566.318876L125.651241,571.270754L122.396770,579.098022L123.805854,586.446375L130.094418,594.795485L136.244968,606.073279L154.209113,616.970798L161.214463,618.660291L165.432809,619.527300L165.884695,626.552388L167.342752,644.916681L169.092419,652.751917L170.655100,656.974224L166.888639,655.181219L162.530052,655.024848L164.353179,660.573526L177.542469,670.203089L181.640609,674.767156L184.269563,680.184565L188.463423,699.246797L192.686221,705.028137L188.788425,702.026751L182.740273,684.742563L180.020052,680.441281L174.757692,675.478092L168.409025,670.578084L165.305925,682.909275L163.482798,694.640448L160.922851,726.492680L162.966356,722.659654L168.593786,725.008791L164.315337,726.805661L160.909495,733.334694L156.328304,767.704597L149.997445,796.531889L143.314872,804.434213L135.902157,806.362031L137.760901,811.542985L143.510763,814.188920L150.596250,815.115327L153.532397,819.530247L151.157212,825.287935L152.555165,829.544934L157.565982,825.787928L164.103863,830.519386L175.118311,834.983467L179.432377,835.065580L183.946787,837.473425L190.956588,844.348138L195.755931,844.326901L202.255969,842.494027L206.017977,844.038676L211.307049,847.456545L215.814781,851.168181L226.871524,849.293116L231.955800,850.910755L241.291813,851.343827L246.487391,851.137897L247.404520,844.257122L252.542221,841.920316L263.739204,845.591802L268.347108,847.883945L272.776928,849.677897L279.210185,851.071270L282.807466,856.945156L284.200967,855.348200L289.182846,854.522241L295.642815,856.415935L295.829802,861.294118L295.469184,862.674244L302.476759,865.532589L306.657263,869.504205L310.361394,871.926791L318.005617,867.764675L325.939225,869.657922L334.763249,872.402693L338.721148,871.396603L343.035215,868.253149L349.508540,865.595950L356.858925,866.142016L361.395596,867.143440L364.098009,867.134392L363.479170,865.279136Z " data-iso2="FR"/><path d="M169.112454,317.989090L165.526303,314.786495L157.842011,311.992728L154.511855,314.870905L148.592814,317.047259L158.138075,325.300427L163.162248,324.532480L165.292569,320.472437L169.112454,317.989090Z M26.363162,123.051757L20.969467,115.731786L14.284667,115.574909L9.445255,118.084030L10.113068,127.703060L13.817199,134.104962L18.327157,137.312339L22.632319,134.405787L26.198435,130.931606L31.491959,127.409059L28.273105,124.471313L26.363162,123.051757Z M0.000000,347.931511L12.234484,343.002488L18.033319,341.798938L25.428225,340.371568L30.619352,342.489723L39.884132,346.958982L44.754708,351.001346L49.932478,350.239201L54.282161,344.397373L56.948957,336.795269L58.792119,328.212832L62.478441,322.146875L80.950125,316.091102L85.442274,315.672698L91.091965,316.885575L96.476756,319.464566L101.540998,323.304806L106.752159,324.532480L110.549783,321.788889L124.878805,324.255416L126.227786,319.211673L132.620974,316.189542L140.741569,314.754841L148.543841,313.868396L156.853649,308.580068L153.116128,303.085787L159.106402,305.943367L166.044970,306.863627L172.075314,308.953551L177.965416,312.042009L197.140528,309.348129L208.395388,309.045153L227.040703,312.745936L231.354769,311.813201L236.599320,308.696345L241.959625,306.225466L248.891515,303.904503L252.902840,300.402393L261.464191,300.988686L265.306337,292.197711L279.944778,284.342067L282.228696,273.029700L280.305397,268.368505L275.002969,268.339976L263.961808,269.463115L258.236432,269.477375L248.989461,267.501833L245.058273,261.550325L237.044528,261.721842L240.815440,259.126698L244.746628,257.778285L249.492546,257.517124L254.127162,256.429328L258.307666,253.969744L259.972744,248.449664L251.985711,242.349021L261.232683,236.586414L267.892996,238.234921L271.873156,236.914021L275.790987,233.816666L275.764274,229.627042L273.667344,226.150907L277.723190,225.573003L282.130750,222.772355L288.764350,215.946936L291.302036,210.381380L292.793483,201.697101L295.210963,194.955600L297.316797,187.473207L297.169879,179.266853L295.927748,171.851472L293.220883,166.096879L280.701632,155.550018L275.648520,153.202474L265.813874,150.598276L260.934393,151.023215L255.382649,149.681696L249.808644,149.215916L243.166139,149.995875L237.369530,158.220332L232.743818,161.731949L219.783811,154.634823L223.363284,149.644732L227.183169,145.217091L231.279083,141.343077L233.910263,135.352650L230.045857,121.978296L223.541367,111.826292L204.301700,94.619950L195.577848,94.462050L187.606397,92.179158L191.811388,92.073813L196.657477,92.784827L205.381330,91.197057L209.766629,95.149987L214.330012,98.365942L219.336377,98.606259L222.949240,101.008452L218.172158,90.730361L212.756201,81.284135L209.998137,75.367150L208.319703,69.158926L210.565778,64.585979L213.844735,61.674270L207.075346,56.063621L200.806817,49.116606L194.070819,40.052295L187.083278,31.522109L183.074179,28.576459L165.063286,19.677060L161.506074,15.796011L158.801435,10.255055L155.744791,0.000000L68.495608,0.000000L59.742638,10.316803L53.932672,26.772447L54.965555,34.373130L62.220221,47.053228L66.264936,53.026146L73.357101,60.906994L78.428021,58.923383L86.960434,57.067869L87.196394,67.441987L85.489021,73.891885L79.703542,78.134292L78.855421,82.933368L79.474260,88.358204L84.338158,91.505642L81.119304,96.912395L78.212095,102.778930L77.978361,108.410279L82.292427,117.875010L87.971056,122.250422L92.342999,123.908781L87.116256,125.253481L77.971683,114.995893L73.374909,117.456931L76.475783,127.714224L66.053462,121.087204L61.423298,121.583114L56.779778,123.882701L51.477350,124.847522L46.083654,124.106237L30.272089,130.864687L23.090883,136.525636L20.361758,139.519293L18.821338,143.243621L11.368554,150.657401L6.233079,155.730812L4.267486,159.278266L8.724018,161.481507L13.823877,157.895880L19.084010,155.254822L24.887298,154.088537L30.708393,153.889194L29.976026,161.098441L32.259943,165.567214L33.544369,169.835205L31.736824,177.064523L33.125873,180.834337L33.030153,187.012759L30.786305,193.146783L28.524648,198.136857L25.408191,201.777144L17.866366,207.742174L9.752449,211.194136L0.000000,216.647743L0.000000,247.037840L7.944904,241.755955L17.723900,241.504319L20.397374,244.508325L31.184766,247.473738L27.416079,249.866401L24.640207,254.141651L30.078424,254.338618L35.409790,253.185303L40.313757,252.486672L46.152661,256.279012L55.286105,265.510847L67.560492,267.220027L77.259350,259.512880L81.902870,256.357750L92.679131,253.260531L96.073843,250.185532L101.923877,244.878249L106.769967,241.529484L99.602117,251.243107L95.183427,256.475852L90.459769,261.050015L86.337142,266.106840L79.006791,277.567056L74.723890,280.737775L69.263413,281.529986L63.822970,281.323958L53.209209,279.024822L42.521989,278.854189L28.112830,281.007787L21.817588,293.656213L11.486535,297.257274L10.438069,302.810485L9.805874,308.569497L0.000000,321.435795L0.000000,347.931511Z M0.000000,5.678554L5.812358,9.058460L11.742529,11.482065L16.646496,9.212885L21.490360,5.365493L25.833365,5.249536L29.272597,9.830508L37.252952,9.695413L42.555380,4.804995L48.133837,2.163529L51.862304,0.000000L0.000000,0.000000L0.000000,5.678554Z " data-iso2="GB"/><path d="M103.157103,402.962915L97.055527,404.809682L101.558806,407.579685L103.157103,402.962915Z " data-iso2="GG"/><path d="M1000.000000,835.778449L991.391736,832.990945L985.212248,833.791120L976.784459,832.050601L978.868033,835.968699L985.902320,838.345591L991.685573,836.336575L996.783206,837.139092L1000.000000,835.778449Z M1000.000000,830.235755L994.779769,830.909097L1000.000000,832.466485L1000.000000,830.235755Z M1000.000000,823.698277L995.496554,822.857156L978.908101,820.916303L970.889904,817.520488L964.283016,818.488847L972.185459,822.857156L978.084466,824.153560L998.368146,824.635406L1000.000000,823.698277Z M982.919426,814.928840L986.948559,813.219467L974.545062,807.958100L967.586460,807.633427L966.411111,812.011128L975.724864,815.090870L982.919426,814.928840Z M918.462201,770.644281L913.840941,768.305098L918.591311,774.382099L918.462201,770.644281Z M912.064561,765.035228L904.531640,758.980315L907.087134,763.067600L912.776894,767.271185L912.064561,765.035228Z M910.136810,773.903099L899.367226,761.551669L895.378162,758.325563L907.723782,774.857948L910.136810,773.903099Z M910.123454,747.647212L906.681995,741.267931L901.824775,734.974532L896.882965,730.071610L892.586707,727.647449L889.764088,724.526556L896.273030,734.303067L901.352854,741.358338L905.996375,746.218427L908.943652,749.339879L910.123454,747.647212Z M893.846646,720.575508L890.761354,716.563758L886.598659,716.372315L890.703477,720.851372L894.995283,723.405274L893.846646,720.575508Z M878.193130,726.918328L877.258193,722.731716L876.572573,713.490059L877.249289,706.985754L873.892420,703.050583L872.271863,694.255273L871.443776,703.778118L869.734177,708.904598L873.669816,720.616262L875.067770,726.261057L877.841416,729.405514L878.193130,726.918328Z M892.880545,706.545223L889.639430,700.841902L884.662004,693.570067L881.977399,690.546693L879.858209,695.587428L875.904761,698.701276L879.270534,702.782839L883.887342,703.425392L887.262019,707.926426L892.880545,706.545223Z M970.653944,607.062974L966.615906,605.439214L961.763138,604.762971L957.912088,608.126754L958.668942,614.393121L951.973013,614.848139L947.151409,619.923669L940.170547,623.057648L933.634892,625.999118L929.294113,628.719619L928.742055,632.844705L931.903033,636.836810L932.330432,641.090434L931.987622,646.286107L930.015350,650.896130L922.233113,653.278776L914.161491,657.525986L917.656374,662.271520L914.758070,665.353291L914.807042,669.983794L917.006370,674.830638L912.567646,676.496648L906.566241,675.887452L899.460720,672.693862L894.558979,674.811593L889.385661,672.134857L885.552420,668.034990L882.921240,662.835220L878.972244,666.489197L875.423936,672.312731L868.843761,673.557613L863.292016,673.652867L855.612177,672.074504L853.007709,675.950915L838.400432,674.198942L836.699738,671.588473L833.930543,673.871942L837.857279,690.116837L838.320295,694.514165L844.201494,705.613642L849.592964,715.534243L854.383402,715.647252L857.856025,709.756748L860.073162,705.220168L866.715666,694.757255L868.184853,686.805898L870.197193,683.222803L881.038010,685.821844L884.755497,690.666790L894.901789,699.839525L897.270296,706.910238L896.299743,716.764605L896.753855,723.934637L900.680590,730.578138L913.832037,744.602215L918.916313,748.123352L923.003323,751.709570L918.386515,750.608876L912.077917,751.743767L907.136107,752.676296L910.003247,758.061768L924.298879,774.762165L931.422208,780.927478L938.941772,785.684272L944.453448,790.684315L944.502421,796.206236L949.217175,800.195089L959.381275,798.577331L965.079938,797.815794L974.487185,802.799858L988.293087,807.296471L998.608559,818.653780L1000.000000,819.569496L996.565054,799.501410L988.235210,791.164267L978.471797,780.689944L974.041977,774.484072L968.641603,768.821948L964.331989,765.205604L960.801489,761.086536L956.888110,755.326518L954.862413,746.610697L953.059320,738.841691L949.355189,734.759052L941.653089,725.516010L935.112983,720.133456L935.175312,714.312892L936.248263,704.581076L937.459229,693.510066L942.027064,691.131342L948.411348,692.821563L954.292547,700.406942L960.494295,704.496065L963.762123,701.302021L967.795708,694.605720L971.312851,691.068141L983.173195,692.350907L989.000968,687.191853L1000.000000,694.385950L1000.000000,631.265282L994.200999,627.706905L989.971522,623.334518L986.850613,617.683448L981.223183,612.588620L973.102588,608.049163L970.653944,607.062974Z " data-iso2="HR"/><path d="M999.427741,505.898687L996.769849,508.782142L994.530453,514.950184L994.802030,519.596478L995.745871,526.172401L991.498586,527.002626L986.449926,526.870332L981.200923,527.614420L976.637540,524.041370L970.876548,525.027628L966.820702,529.644154L976.285826,532.851666L977.964260,537.774541L975.524520,543.744072L970.587162,546.642848L966.923100,549.141594L966.126177,558.820777L969.580992,565.579591L968.864207,569.918250L966.446727,573.990545L962.248415,573.641300L958.633325,575.664488L951.363078,582.915709L960.049087,583.316134L961.638480,588.296551L962.413142,592.347993L964.501168,597.860611L970.173119,605.594506L970.653944,607.062974L973.102588,608.049163L981.223183,612.588620L986.850613,617.683448L989.971522,623.334518L994.200999,627.706905L1000.000000,631.265282L1000.000000,505.707070L999.427741,505.898687Z " data-iso2="HU"/><path d="M0.000000,65.321740L7.330517,66.289268L16.548550,56.436446L19.925454,49.905755L18.137943,40.251113L12.145442,41.493449L7.303805,50.073472L3.479467,53.353631L1.344695,61.617300L0.000000,65.321740Z " data-iso2="IM"/><path d="M691.597522,840.669389L686.611191,842.539556L679.398820,843.644227L679.567999,847.883945L688.886204,846.698629L692.701638,849.674868L693.289312,844.496792L691.597522,840.669389Z M843.168611,666.985449L848.862822,666.641897L848.243983,660.933579L843.253201,655.653484L836.949054,652.314407L838.342555,642.534955L833.565473,641.740700L832.528138,637.423703L835.337401,634.167336L838.462762,631.274256L835.186030,627.095925L830.858608,625.320282L827.595232,622.809734L832.167519,615.709612L836.031926,612.675799L839.397699,610.463380L841.338806,609.513399L842.264839,605.714205L832.692865,603.374494L826.379814,603.219107L818.045519,602.241307L801.488231,598.709950L796.666627,597.276979L792.054272,596.835950L786.609377,595.613108L782.464490,593.610900L779.811050,589.807849L776.979526,584.741677L770.724353,574.806404L772.487377,568.293914L763.373968,571.133567L754.536587,574.718300L747.689287,574.016655L743.223850,573.961170L738.923140,574.920610L730.317268,575.413283L725.277512,578.051681L722.067562,583.192430L720.317895,587.334188L715.861362,589.164406L708.221591,587.578055L705.007189,584.041995L700.016406,583.553764L695.439667,583.459365L694.228701,582.805014L692.096155,591.467917L691.726632,596.109431L693.756781,601.564462L690.137239,603.937717L685.996804,602.759380L679.852932,599.474832L676.375857,603.957137L675.329618,608.168781L677.319699,612.301236L678.584089,616.128981L680.204647,623.344176L675.454277,624.361330L672.293299,618.450759L668.317591,615.803168L663.910031,617.238461L654.418195,620.535862L649.926046,617.057871L646.199654,608.336886L639.855439,608.698931L639.837631,614.251118L639.441395,621.151173L637.268780,625.603414L631.231759,633.290986L629.014622,636.641158L627.946123,641.128877L630.123190,648.176219L625.884810,651.158105L622.759449,645.351882L617.875516,640.270228L619.723130,634.953623L611.660411,632.741956L608.183336,629.516730L602.395631,621.408863L602.600427,613.489369L599.305887,610.689529L596.015800,613.447404L592.979481,617.557696L586.123276,623.179989L588.113356,629.442812L582.094143,638.975464L572.735869,645.147088L561.369707,641.452419L557.402903,643.665189L551.766569,645.767833L539.358620,646.327694L537.778131,644.887879L534.118521,648.649393L527.204439,654.424830L527.983554,659.002257L531.411656,661.589869L535.102431,667.443468L537.439773,672.655751L542.564118,677.648133L542.141170,682.494362L540.387051,689.563640L535.961682,691.140822L526.803752,695.685269L522.787975,695.751546L520.165700,700.668554L524.266066,706.806402L527.747593,712.591643L531.772274,714.061665L536.482576,716.184000L537.177100,725.065152L533.713382,728.739299L529.657536,736.479425L531.977070,741.751119L532.266455,747.647212L535.325035,751.196575L543.628165,756.180528L553.725485,760.903568L564.143354,758.300736L567.135152,761.626084L566.516313,766.853206L563.698145,771.176274L558.791952,777.538885L559.299490,783.715076L570.247156,781.476526L582.632845,776.788538L586.127728,774.119429L595.735319,760.323594L607.568949,746.984249L617.319006,742.125157L624.820762,743.053857L636.930422,748.459414L641.186611,748.698996L661.314468,762.568558L675.757018,767.720075L682.159110,772.311145L684.790290,778.347733L688.196132,799.719350L693.988289,808.628801L697.327349,819.111889L697.852695,823.092067L697.167075,827.775061L697.055773,833.861090L702.972588,834.505965L707.188708,838.069072L710.198315,844.017437L716.337734,848.090049L726.822384,860.705073L727.597047,865.562761L723.879559,868.033041L727.784034,869.483107L732.681323,867.619930L741.897130,871.345388L874.612069,872.730971L864.271474,862.480996L856.418003,851.140925L852.517981,841.079325L847.037469,820.577468L841.957645,807.455763L836.071994,796.058762L823.815416,788.828544L806.113943,773.977270L796.270392,769.320160L786.956639,760.469371L782.829560,754.770531L778.666865,741.670073L776.084658,722.913432L777.478159,715.866983L782.290859,718.044753L785.897044,715.031937L788.626170,707.130489L782.655929,702.499324L777.816518,691.649548L776.106918,681.208152L777.268912,676.195236L780.892905,673.208326L787.183695,669.675488L784.463474,674.773504L792.650851,672.868534L799.466986,669.805806L805.931408,665.474216L811.732469,663.733138L815.828383,659.792756L819.759570,654.992934L831.557584,659.005445L835.800417,655.037613L846.062463,664.401658L843.168611,666.985449Z M782.856273,773.130390L787.726849,769.635764L786.885406,775.228698L782.856273,773.130390Z " data-iso2="IT"/><path d="M125.662372,421.392945L116.459921,418.941072L115.760944,425.222427L122.363380,424.452784L125.662372,421.392945Z " data-iso2="JE"/><path d="M655.152788,568.715594L655.402105,564.948133L653.331887,561.366662L652.468184,556.725692L652.045236,555.643240L650.072964,562.227984L649.854812,567.264023L650.228787,569.624159L650.896599,569.591481L654.449360,569.950925L655.152788,568.715594Z " data-iso2="LI"/><path d="M496.244670,358.509256L495.287473,356.317686L490.145319,355.421201L485.158989,361.421061L481.566160,370.048149L479.157584,376.108696L478.690115,380.868689L482.278493,386.242034L484.687068,394.648739L482.812742,398.799766L481.641845,399.890766L483.177813,402.222559L489.379561,405.761802L494.606304,405.761802L499.481333,402.654453L503.871084,404.155376L506.925212,405.895351L507.112199,401.687758L508.474536,395.579638L511.497499,389.777152L513.736895,384.674675L511.328319,381.079094L506.025891,378.777732L500.567640,373.313123L497.526869,369.120658L496.231314,364.860655L496.164532,360.609199L496.538507,358.707157L496.244670,358.509256Z " data-iso2="LU"/><path d="M556.815229,784.769140L556.735091,784.072628L555.711113,783.477717L554.825149,783.829126L554.143980,784.593483L554.037130,785.949219L556.815229,784.769140Z " data-iso2="MC"/><path d="M405.132837,269.395381L400.551646,266.816896L394.732776,269.844540L387.124170,268.775015L381.332013,266.563577L373.870326,266.995279L370.419963,268.150967L371.786752,274.468085L375.976160,278.029343L380.913518,274.827585L385.543682,275.592727L390.107065,278.687103L395.583124,280.545911L401.873914,277.677299L407.915388,273.303895L410.359580,267.508967L405.132837,269.395381Z M397.729027,241.622950L390.432066,241.108853L386.304988,242.341833L387.823147,246.127782L391.798855,244.968030L397.813616,249.887916L403.472211,248.291813L397.729027,241.622950Z M440.446742,142.132326L440.460098,133.577522L433.777525,140.568464L432.379571,144.761781L435.932332,147.507488L440.446742,142.132326Z M450.588582,124.076433L446.871094,123.908781L441.439556,128.785797L442.160793,129.674787L450.588582,124.076433Z M477.260998,311.908246L479.696286,312.995795L481.989107,313.358233L490.951146,313.653785L493.435407,302.506920L491.538821,299.247169L486.427832,296.765805L485.225770,292.339341L489.450795,291.514263L497.468992,283.660567L494.686442,279.348289L498.804616,269.819589L500.020034,265.746402L500.037843,260.016995L497.682692,255.534492L495.380966,251.952749L493.631298,247.595744L488.880928,239.932963L491.574437,234.656118L495.323089,233.182433L498.817973,231.203278L507.441653,235.344095L510.602630,232.854458L514.823203,233.182433L525.045180,228.977574L527.809922,223.853143L523.852023,219.705189L525.374634,215.070121L530.209594,212.314976L535.779147,207.131989L537.711350,202.628392L538.419231,194.109664L533.263721,189.621114L529.181163,189.471391L523.273252,185.210545L523.994489,179.636817L525.347922,175.095468L538.321285,173.796786L539.136016,166.769871L542.154527,156.040722L545.475779,147.529681L545.431258,133.280335L545.809685,126.039185L539.461018,124.642661L535.365104,122.604525L532.822965,118.931168L528.437666,113.901085L516.920133,114.427984L507.330351,115.881185L494.063150,116.508588L485.461730,118.946094L469.892804,127.074089L465.970521,131.236441L461.977004,140.175527L448.429323,150.472631L440.531331,154.428131L435.095341,151.935726L432.539846,157.165744L430.972714,161.871893L425.674738,189.449479L422.059648,199.411414L417.202428,207.778491L409.567110,218.014865L406.054418,221.503153L401.237266,227.732405L399.086911,233.636498L406.183528,246.519063L408.373952,251.117649L400.266713,252.178512L403.717075,255.459315L408.048950,257.792595L412.545552,261.282311L406.490722,262.443548L394.852983,253.765592L388.375205,252.164178L379.471044,252.672988L374.925469,256.218168L378.188844,260.217190L386.077931,262.872211L391.927966,265.835623L400.346850,263.361534L406.379420,266.410149L410.359580,267.508967L413.930149,269.331211L418.466819,268.924769L420.149706,262.147025L424.285689,262.968653L428.951469,264.932596L437.000831,262.665031L438.710430,266.281692L443.082374,265.953391L447.049177,261.468136L448.985833,266.021195L450.192347,270.429070L455.401281,275.354306L459.808841,276.756121L467.377378,274.909445L470.275683,278.242685L473.392139,281.217387L481.949039,284.515969L482.941853,289.356771L479.820944,296.436940L479.219913,300.536614L474.790093,306.934135L477.256545,311.901206L477.260998,311.908246Z M460.490009,118.140015L472.198982,114.136519L464.563663,114.644698L454.310521,117.677176L460.490009,118.140015Z M488.003868,112.547947L487.954896,112.076833L485.586389,111.302711L477.919905,111.433614L475.466809,111.960913L475.969894,112.850770L479.010665,113.788968L488.003868,112.547947Z M506.426579,108.571245L504.489923,108.245561L498.871398,109.873655L498.488519,110.625671L500.037843,111.171803L506.426579,108.571245Z M524.724630,103.063917L527.738689,99.762536L521.706120,101.286090L524.724630,103.063917Z " data-iso2="NL"/><path d="M865.580386,74.693908L864.979355,77.117680L865.682783,80.853762L871.937957,81.782390L881.398628,84.528965L881.696918,89.905951L881.999659,95.886632L878.170870,96.194771L867.744097,91.746468L868.073551,93.480641L868.701294,99.818838L869.560546,105.065618L874.840713,125.946102L874.675987,132.381179L872.743783,139.485921L869.306777,145.465079L864.770107,148.831413L862.272490,152.574701L861.805021,156.704716L867.508136,163.926181L879.377384,174.229737L884.181179,183.015850L881.915070,190.307565L881.224997,195.644586L884.007548,201.762591L888.099010,206.986690L888.063393,214.214822L888.984974,220.099595L887.533596,225.493534L886.709961,229.424999L883.370900,234.774993L884.385975,239.314285L887.003798,244.659173L889.617170,249.880744L888.980522,257.456302L898.592564,263.936485L899.393939,268.190196L902.287791,277.264757L899.883668,288.725912L897.768929,294.990258L893.063080,304.909980L892.840476,305.823468L896.780567,305.650665L901.072373,300.889800L901.246004,294.583377L907.274122,296.139873L913.320048,298.625233L914.161491,304.087980L917.687539,309.231874L922.682773,310.524545L930.887958,313.766370L934.836954,314.427727L938.879443,316.660611L942.285285,318.948223L945.927087,321.929280L950.147660,322.325854L959.986758,320.479460L963.530614,322.939925L966.255288,326.369652L963.379244,331.616222L958.094624,334.897321L957.640511,339.233429L963.098762,342.726930L969.349484,349.637020L974.322458,358.641191L978.080014,360.380177L982.616685,356.143967L987.936921,352.945956L992.406810,348.829304L988.822885,342.726930L987.242396,336.875638L991.832492,337.658257L1000.000000,340.627842L1000.000000,16.209430L993.030101,19.884841L987.487261,24.252809L972.639572,27.601651L964.242947,36.781496L960.445322,42.674179L955.614815,48.243360L949.070256,50.119212L942.561314,51.087212L914.677932,59.976141L888.570931,69.424155L873.456116,76.679192L867.307793,76.119654L865.580386,74.693908Z " data-iso2="PL"/><path d="M786.885406,775.228698L787.726849,769.635764L782.856273,773.130390L786.885406,775.228698Z " data-iso2="SM"/><path d="M990.572553,465.265734L990.376661,465.972526L988.355417,471.830016L986.574584,479.843736L991.462969,492.781883L996.627383,503.608862L999.427741,505.898687L1000.000000,505.707070L1000.000000,447.894161L998.893492,448.526694L995.594500,452.701284L992.037287,459.879303L990.572553,465.265734Z " data-iso2="SK"/><path d="M970.173119,605.594506L964.501168,597.860611L962.413142,592.347993L961.638480,588.296551L960.049087,583.316134L951.363078,582.915709L948.816487,584.146142L946.065101,587.041527L945.188042,595.272454L936.190386,593.072028L930.371517,593.890043L926.391357,596.800276L921.556397,598.460356L911.423461,597.575291L899.224760,599.549366L894.265142,601.723160L890.440804,607.114715L886.950373,609.477851L881.006845,613.692733L875.085578,611.826520L868.126976,610.980271L856.836499,608.236670L852.696064,607.176157L844.268275,606.108861L842.264839,605.714205L841.338806,609.513399L839.397699,610.463380L836.031926,612.675799L832.167519,615.709612L827.595232,622.809734L830.858608,625.320282L835.186030,627.095925L838.462762,631.274256L835.337401,634.167336L832.528138,637.423703L833.565473,641.740700L838.342555,642.534955L836.949054,652.314407L843.253201,655.653484L848.243983,660.933579L848.862822,666.641897L843.168611,666.985449L839.406603,670.349278L836.699738,671.588473L838.400432,674.198942L853.007709,675.950915L855.612177,672.074504L863.292016,673.652867L868.843761,673.557613L875.423936,672.312731L878.972244,666.489197L882.921240,662.835220L885.552420,668.034990L889.385661,672.134857L894.558979,674.811593L899.460720,672.693862L906.566241,675.887452L912.567646,676.496648L917.006370,674.830638L914.807042,669.983794L914.758070,665.353291L917.656374,662.271520L914.161491,657.525986L922.233113,653.278776L930.015350,650.896130L931.987622,646.286107L932.330432,641.090434L931.903033,636.836810L928.742055,632.844705L929.294113,628.719619L933.634892,625.999118L940.170547,623.057648L947.151409,619.923669L951.973013,614.848139L958.668942,614.393121L957.912088,608.126754L961.763138,604.762971L966.615906,605.439214L970.653944,607.062974L970.173119,605.594506Z " data-iso2="SI"/></g></svg>